<svg xmlns="http://www.w3.org/2000/svg" xmlns:xlink="http://www.w3.org/1999/xlink" width="102" height="102" viewBox="0 0 102 102">
  <defs>
    <clipPath id="clip-path">
      <rect id="Rectángulo_42830" data-name="Rectángulo 42830" width="70.137" height="56" fill="none"/>
    </clipPath>
  </defs>
  <g id="Grupo_874904" data-name="Grupo 874904" transform="translate(-748 -1900)">
    <path id="Trazado_596094" data-name="Trazado 596094" d="M51,0A51,51,0,1,1,0,51,51,51,0,0,1,51,0Z" transform="translate(748 1900)" fill="#c8cbdb"/>
    <g id="Grupo_874173" data-name="Grupo 874173" transform="translate(764.384 1923.521)">
      <g id="Grupo_874137" data-name="Grupo 874137" transform="translate(0 0)" clip-path="url(#clip-path)">
        <path id="Trazado_594311" data-name="Trazado 594311" d="M.261,15.853a.473.473,0,0,0,.723.094c.15-.112.311-.25.491-.22.124.022.356.043.236.263-.3.554-.324,1.25-1.031,1.6A1.844,1.844,0,0,0,.352,20.1c.218.192.478-.016.723.038.277.06.477.234.406.447-.2.589.059,1.249-.419,1.778-.177.2-.164.359.023.465.226.128.175.37.14.593-.062.385-.238.719.156,1.046.268.224.059.876-.23,1.16-.867.854-.685,1.825-.668,2.8,0,.23.3.6-.256.593-.071,0-.147.079-.116.121.328.436-.242,1.176.3,1.587a1.3,1.3,0,0,1,.434,1.116c0,.085-.005.159-.012.225a4.464,4.464,0,0,1-.571.677l.052.053a.431.431,0,0,0,.055.372.684.684,0,0,1-.083.738.382.382,0,0,0,.026.528c.062.054.122.112.181.172a1.913,1.913,0,0,0-.141,2.38c.218.192.478-.015.723.038.277.062.477.234.406.448-.2.588.059,1.248-.419,1.777-.177.2-.164.359.023.465.226.128.175.37.14.593-.062.386-.238.719.156,1.046.268.224.059.876-.23,1.16-.867.854-.685,1.826-.668,2.8,0,.23.3.6-.256.593-.071,0-.147.079-.116.121.328.436-.242,1.176.3,1.587A1.3,1.3,0,0,1,.844,48.72c-.01.359-.032.532-.292.71-.235.16-.346.305-.185.616a.684.684,0,0,1-.083.738.382.382,0,0,0,.026.528c.643.566,1.043,1.394,1.683,1.972a4.751,4.751,0,0,0,2.018.776c.685.212,1.408.313,2.1.519.334.1.546.374.881.442.689.138,1.319.552,2.113.082a.8.8,0,0,1,.749.063c.3.167.6.326.962.01.144-.126.26-.014.393.031.649.223,1.286.533,2.03-.027.219-.165.436.054.638.124A2.943,2.943,0,0,1,14.926,56c.06-.048.116-.073.143-.118.193-.326-.014-.763.237-1.016s.618-.079.933-.175a36.093,36.093,0,0,1,4.308-.74c1.491-.263,3-.439,4.495-.593,1.7-.175,3.395-.449,5.092-.689a1.815,1.815,0,0,0,.681-.223.919.919,0,0,1,.68-.145,7.143,7.143,0,0,0,2.533-.18,14.571,14.571,0,0,1,2.182-.234,6.377,6.377,0,0,0,2.492-.466,1.261,1.261,0,0,1,.871-.062,2.514,2.514,0,0,0,1.757-.053c.992-.242,1.986-.367,2.971-.581a21.4,21.4,0,0,0,2.382-.529,11.923,11.923,0,0,1,2.263-.549,39.433,39.433,0,0,0,4.99-1.149c1.21-.316,2.4-.685,3.593-1.119A4.964,4.964,0,0,0,59,46.619a17.371,17.371,0,0,1,4.317-2.269c.525-.229,1.063-.457,1.592-.68a8.966,8.966,0,0,1,2.112-.781A3.025,3.025,0,0,0,68.942,41.4a10.059,10.059,0,0,1,.918-1.468.285.285,0,0,0,.007-.361c-.331-.439-.227-.908.176-1.415-.915-.182-1.856.018-2.525-.726a3.285,3.285,0,0,1,1.73-1.392,1.3,1.3,0,0,0,.889-.824,1.013,1.013,0,0,0-.653.11c-.435.21-.685,0-.971-.284s-.14-.522.1-.7c.371-.285.775-.508,1.156-.832a4.112,4.112,0,0,0-1.8.09c-.165.068-.366.095-.458-.106a.571.571,0,0,1,.115-.621.682.682,0,0,0-.3-1.085c-.228-.049-.63.2-.652-.187s.412-.432.654-.614l.7-.523c-.221-.142-.507.046-.611-.166a.238.238,0,0,1,.023-.308,4.506,4.506,0,0,1,1.916-1.457,2.451,2.451,0,0,0,.409-.217.3.3,0,0,0,.158-.324c-.013-.14-.1-.271-.215-.214-.712.336-1.07-.454-1.715-.458-.412,0,.074-.4.176-.632-.13-.257-.465-.146-.615-.363a.231.231,0,0,1,.135-.236,2.572,2.572,0,0,0,1.085-.727c.142-.192.369-.316.129-.626a.379.379,0,0,1-.051-.091l.088-.126a3.015,3.015,0,0,0,.193-.311l.088-.069c.176-.144.5-.139.453-.513a.509.509,0,0,0-.086-.239,2.154,2.154,0,0,1,.27-.335.285.285,0,0,0,.007-.361c-.331-.439-.227-.909.176-1.415q-.169-.033-.337-.052a1.451,1.451,0,0,1,.178-.135c.071-.046.015-.253-.085-.324s-.2-.1-.3-.161a.829.829,0,0,1-.15-.175c.05-.353.45-.4.486-.81-.311-.112-.819.182-1.013-.276a3.774,3.774,0,0,1,.423-.186,1.3,1.3,0,0,0,.889-.824,1.013,1.013,0,0,0-.653.11c-.435.21-.685,0-.971-.284a.707.707,0,0,1-.123-.166,1.692,1.692,0,0,0,1.247-.744c-.086-.3-.324-.186-.508-.15l-.012,0a7.156,7.156,0,0,0,.651-.477,4.131,4.131,0,0,0-1.8.091c-.165.068-.366.095-.458-.106a.571.571,0,0,1,.115-.621.683.683,0,0,0-.3-1.087c-.228-.048-.63.205-.652-.187s.412-.432.654-.613l.7-.523c-.221-.142-.507.046-.611-.166a.238.238,0,0,1,.023-.308,4.5,4.5,0,0,1,1.916-1.457,2.372,2.372,0,0,0,.409-.218.3.3,0,0,0,.158-.324c-.013-.14-.1-.269-.215-.214-.712.337-1.07-.453-1.715-.457-.412,0,.074-.4.176-.632-.13-.257-.465-.146-.615-.363a.234.234,0,0,1,.135-.237,2.569,2.569,0,0,0,1.085-.726c.142-.192.369-.316.129-.628-.2-.262.126-.437.319-.6.176-.144.5-.14.453-.514-.041-.324-.26-.4-.529-.465a1.473,1.473,0,0,0-.854.071,66.29,66.29,0,0,1-6.629,1.678c-.106.026-.229.053-.317-.06.151-.3.423-.283.628-.313.945-.137,1.886-.412,2.824-.614a18.828,18.828,0,0,0,4-1.2c.11-.05.285-.127.3-.208A2.011,2.011,0,0,1,69.883,4.2c.071-.046.015-.253-.085-.324s-.2-.1-.3-.161a.861.861,0,0,1-.15-.175c.05-.353.45-.4.486-.81-.347-.124-.937.253-1.067-.461-.033-.181-.365-.06-.565,0-.544.167-1.084.363-1.63.5a2.889,2.889,0,0,1-2.04.062c1.2-.93,2.51-.682,3.637-1.317-.183-.034-.506.2-.714-.133.729-.4,1.618-.146,2.176-1.029-.086-.3-.324-.186-.508-.15a21.218,21.218,0,0,0-3.082.5c-.51-.39-1.26.3-1.738-.257C64.182.3,63.991.358,63.821.37a31.2,31.2,0,0,1-3.6.042c-.271-.012-.584.161-.723-.255-.075-.228-.3-.039-.462-.047a2.3,2.3,0,0,1-.846-.066c-.235-.1-.416-.027-.6.258-.295.468-.568.449-.774-.018A.4.4,0,0,0,56.4.05,22.774,22.774,0,0,0,51.131.64c-.112.027-.274.134-.328.086C50.075.084,49.2.6,48.4.733a2.107,2.107,0,0,1-1.448-.18A.584.584,0,0,0,46.1.687c-.2.261-.518.342-.617.215C45.21.556,44.84.816,44.55.715a.745.745,0,0,0-1.033.347,1.15,1.15,0,0,1-1.421.221c-.132-.146.06-.564-.384-.487-.316.055-.434.313-.644.469-.517.384-1.048.154-1.574.266a.967.967,0,0,1-.5-.023,1.991,1.991,0,0,0-2.091.47c-.277.233-.467-.036-.578-.311-.073-.181-.09-.5-.385-.187s-.14-.4-.439-.191c-.161.112-.4.047-.6.084-.084.016-.135.111-.154.221-.1.618-.434.641-.846.539a2.334,2.334,0,0,0-2.122.048c-.045.03-.112,0-.17.01-.522.087-.994-.237-1.579.173-.467.329-1.065.036-1.6.293a.38.38,0,0,1-.4-.08c-.716-.5-1.056-.423-1.672.375-.339.438-.743.511-.907.041-.185-.53-.311-.229-.587-.066s-.608.332-.887.046c-.333-.342-.784.075-1.156-.046s-.084.331-.266.38A1.209,1.209,0,0,1,21.9,3.2a3.027,3.027,0,0,0-.569-.05c-.24.219.46.3.009.4-.309.07-.824.356-1.01-.305-.046-.165-.494-.006-.7.219-.316.347-.573.647-.9.126-.13-.205-.591-.1-.637.009-.391.936-1.255.117-1.688.834-.067.11-.206.007-.295-.071-.44-.393-.9-.255-1.339.172-.212.205-.339.158-.583.126a2.148,2.148,0,0,0-1.964.541,3.407,3.407,0,0,1-.693.492c-.19.113-.413.2-.541-.038a.306.306,0,0,0-.428-.167,7.406,7.406,0,0,1-1.732.549,4.54,4.54,0,0,0-1.646.785,3.687,3.687,0,0,0-.963.949,1.331,1.331,0,0,1-.883.64C4.323,8.386,3.694,9.475,2.794,9.715a1.081,1.081,0,0,0-.235.157c-.258.161-.626.1-.771.471-.136.353.221.46.3.717a1.224,1.224,0,0,1,.072.842,4.47,4.47,0,0,0-.213,1.424,2.334,2.334,0,0,1-.806,1.531c-.359.3-.538.711-.877,1M16.784,55.31c.088-.041.178-.117.162-.212-.027-.157-.167-.1-.271-.091-.078.011-.19.038-.159.161s.147.159.269.142M41.75,52c-.082.01-.187.012-.189.127a.126.126,0,0,0,.173.123.235.235,0,0,0,.132-.112c.069-.154-.051-.122-.116-.138M20.79,54.918a1.634,1.634,0,0,0-1.192-.054c-.166.064-.28.258-.122.351a1.787,1.787,0,0,0,.782.224c.226.015.317-.272.533-.521M39.53,5.114a.772.772,0,0,0-.265.124.8.8,0,0,1,.265-.126.482.482,0,0,1,.126.022.435.435,0,0,0-.126-.021M33.376,4.043a.374.374,0,0,0,.194-.078.374.374,0,0,1-.193.078.5.5,0,0,1-.335-.1.5.5,0,0,0,.334.1m.194-.078a.228.228,0,0,0,.024-.023.228.228,0,0,1-.024.023M63.924,2.243h0a6.681,6.681,0,0,1-1.866.587,3,3,0,0,0-1.364.353c-.6.314-1.259.182-1.876.507-.139.073-.323-.086-.335-.314-.01-.2.141-.284.275-.356a.775.775,0,0,1,.256-.075,29.015,29.015,0,0,1,4.911-.7M46.179,4.463h0c-.653.582-.662.58-.836,1.032-.056.145-.025.354-.228.354-.185,0-.3-.134-.345-.333a.7.7,0,0,1,.473-.911,7.539,7.539,0,0,1,.937-.143m8.238-2.972h0c.167.133.521.11.471.465-.037.261-.316.255-.509.279-.229.03-.384-.063-.33-.363.037-.205.14-.365.368-.381m10.554.465h0c.49-.4.792-.476,1.195-.251a1.125,1.125,0,0,1-1.195.251" transform="translate(0 0)" fill="#4173cd" fill-rule="evenodd"/>
        <path id="Trazado_594312" data-name="Trazado 594312" d="M51.966,27.893c-.033.027-3.657.609-3.691.635-.088.064-2.4.5-2.5.548a2.407,2.407,0,0,1-.616.177,2.891,2.891,0,0,1-.425.041,12.324,12.324,0,0,1-1.856.084,25.947,25.947,0,0,1-2.786.452c-.417.018-4.253.482-4.667.555-1.432.25-2.894.1-4.336.26-.913.1-1.823.236-2.733.368.072,1.128.056,2.407.082,3.507q.044,1.877.084,3.755c.2,2.087.295,4.237.388,6.334q.113,2.558.183,5.121c.021.769.1,1.91.041,2.66-1.366.2-2.733.4-4.1.545-1.5.155-3.005.33-4.5.593-.407.073-.817.129-1.225.182-.01-.364-.021-.664-.034-.818a1.416,1.416,0,0,1-.013-.182c-.07-2.546-.169-5.094-.254-7.639-.085-2.515-.129-5.083-.262-7.56-.088-1.131-.043-2.295-.156-3.411-.059-.589-.081-1.166-.094-1.744-.883.13-1.84.209-2.676.313-1.1.137-1.589.271-2.694.4-1.83.4-3.724.68-5.571.957q-2.254.338-4.514.629a17.78,17.78,0,0,1-2.514.26c-.149.009-.306.022-.47.042a1.553,1.553,0,0,1,.424-.784C.429,34.118.368,34.06.305,34a.381.381,0,0,1-.025-.527.683.683,0,0,0,.082-.738.431.431,0,0,1-.054-.372l-.054-.054a4.461,4.461,0,0,0,.572-.676c.007-.066.009-.142.011-.226A1.3,1.3,0,0,0,.406,30.3c-.543-.41.026-1.15-.3-1.586-.032-.042.044-.122.115-.121.554.009.26-.364.256-.593-.005-.358-.034-.715-.025-1.066,2.141-.277,4.284-.583,6.422-.876,2.219-.3,4.486-.562,6.665-.917.993-.192,1.406-.237,2.385-.455a22.543,22.543,0,0,1,2.306-.342,3.1,3.1,0,0,1-.151-.865c-.017-.385-.008-.8-.046-1.184a3.393,3.393,0,0,1,.017-.944,3.285,3.285,0,0,1,.07-1.517,2,2,0,0,0-.005-.511,37.322,37.322,0,0,1-.242-4.778c0-.311-.005-.63-.021-.941-.055-1.088-.029-2.2-.143-3.279-.056-.52-.131-.986-.155-1.521a4.138,4.138,0,0,1,.108-1.373,16.2,16.2,0,0,0-.121-2.242,11.226,11.226,0,0,1-.159-1.521.711.711,0,0,0,.7-.5c.046-.11.506-.214.636-.009.331.522.589.221.9-.126.2-.224.651-.384.7-.219.186.662.7.375,1.011.305.45-.1-.249-.18-.009-.4a2.946,2.946,0,0,1,.569.052,1.2,1.2,0,0,0,.66.11c.183-.048-.106-.5.266-.38s.823-.3,1.156.047c.278.287.624.11.888-.047s.4-.464.587.066c.164.47.569.4.906-.039s.609-.674.9-.69c.046.971.084,1.944.13,2.916.06,1.26.109,2.522.165,3.782a2.276,2.276,0,0,1,.182.452,3.372,3.372,0,0,1,.107.7,2.934,2.934,0,0,1-.178,1.2c.054,1.04.1,2.078.063,3.119a14.516,14.516,0,0,0,.047,1.461c.1,1.629.189,3.258.212,4.891.012.838.044,1.675.076,2.511h0c.339-.052.71-.075,1.042-.149a4.367,4.367,0,0,1,1.147-.058,2.3,2.3,0,0,1,1.349-.046,1.4,1.4,0,0,0,.45-.05,4.569,4.569,0,0,1,1.731-.317c.276-.021.557-.058.831-.1.957-.15,1.942-.214,2.888-.431.057-.014,2.455-.319,2.555-.29a15.921,15.921,0,0,0,2.282-.321c4.282-.69,9.023-1.35,9.826-1.414.658-.053,5.295-.762,5.9-.73a3.787,3.787,0,0,0,.74-.143c.645-.2,8.79-1.115,9.457-1.149l.189-.01a.721.721,0,0,0,.056.063c.286.288.537.495.972.284a1.011,1.011,0,0,1,.652-.11,1.3,1.3,0,0,1-.888.824,4.031,4.031,0,0,0-.424.186c.194.458.7.164,1.014.276-.037.407-.437.458-.487.811a.942.942,0,0,0,.151.175c.091.065.2.095.3.16s.155.278.085.324a1.492,1.492,0,0,0-.178.135c.112.014.224.03.336.052-.4.507-.506.976-.176,1.415a.286.286,0,0,1-.005.361,2.283,2.283,0,0,0-.271.335.5.5,0,0,1,.086.239c.048.374-.277.37-.452.514-.027.022-.058.044-.09.069a3.37,3.37,0,0,1-.192.311l-.088.124a.311.311,0,0,0,.051.091c.239.31.013.436-.129.626a2.557,2.557,0,0,1-1.087.727.255.255,0,0,0-.081.06c-3.089.427-8.17,1.132-9.1,1.292-1.35.233-1.468.071-2.821.279-1.112.171-2.6.436-3.715.6M20.785,54.5a1.64,1.64,0,0,0-1.192-.055c-.167.065-.281.258-.123.351a1.775,1.775,0,0,0,.782.224c.226.015.317-.272.534-.519m-.78-51.021a.392.392,0,0,0,.205-.082.382.382,0,0,1-.205.082.528.528,0,0,1-.355-.11.528.528,0,0,0,.355.11m.205-.082a.252.252,0,0,0,.025-.025.252.252,0,0,1-.025.025" transform="translate(0.006 0.424)" fill="#ffe15a" fill-rule="evenodd"/>
      </g>
    </g>
  </g>
</svg>
