<svg xmlns="http://www.w3.org/2000/svg" xmlns:xlink="http://www.w3.org/1999/xlink" width="102" height="102" viewBox="0 0 102 102">
  <defs>
    <clipPath id="clip-path">
      <rect id="Rectángulo_42832" data-name="Rectángulo 42832" width="75.097" height="56" fill="none"/>
    </clipPath>
  </defs>
  <g id="Grupo_874905" data-name="Grupo 874905" transform="translate(-748 -2389)">
    <circle id="Elipse_5473" data-name="Elipse 5473" cx="51" cy="51" r="51" transform="translate(748 2389)" fill="#c8cbdb"/>
    <g id="Grupo_874170" data-name="Grupo 874170" transform="translate(-2683 11082.256)">
      <g id="Grupo_874154" data-name="Grupo 874154" transform="translate(3444 -8670.256)">
        <g id="Grupo_874153" data-name="Grupo 874153" clip-path="url(#clip-path)">
          <path id="Trazado_594339" data-name="Trazado 594339" d="M.279,15.853a.528.528,0,0,0,.774.094.784.784,0,0,1,.526-.22c.133.022.381.043.253.263-.323.554-.347,1.25-1.1,1.6A1.762,1.762,0,0,0,.377,20.1c.234.192.512-.016.774.038.3.06.511.234.435.447-.209.589.063,1.249-.449,1.778-.189.2-.175.359.025.465.242.128.187.37.15.593-.067.386-.255.719.167,1.046.286.224.063.876-.247,1.16C.3,26.477.5,27.448.516,28.419c0,.23.318.6-.274.593-.076,0-.158.079-.124.121.351.436-.26,1.176.322,1.587A1.255,1.255,0,0,1,.9,31.836c0,.085-.006.159-.013.225a4.556,4.556,0,0,1-.611.677l.056.053a.407.407,0,0,0,.058.372.647.647,0,0,1-.089.738.365.365,0,0,0,.028.528c.067.054.131.112.194.172a1.816,1.816,0,0,0-.151,2.38c.234.192.512-.015.774.038.3.062.511.234.435.448-.209.588.063,1.248-.449,1.777-.189.2-.175.359.025.465.242.128.187.37.15.593-.067.386-.255.719.167,1.046.286.224.063.876-.247,1.16C.3,43.362.5,44.334.516,45.3c0,.23.318.6-.274.593-.076,0-.158.079-.124.121.351.436-.26,1.176.322,1.587A1.257,1.257,0,0,1,.9,48.722c-.011.358-.034.53-.312.708-.251.161-.371.306-.2.618a.647.647,0,0,1-.089.738.365.365,0,0,0,.028.528c.689.566,1.117,1.394,1.8,1.972a5.306,5.306,0,0,0,2.161.776c.733.212,1.507.313,2.251.519.358.1.585.374.944.442.738.138,1.412.552,2.262.082a.906.906,0,0,1,.8.063c.322.167.641.326,1.03.01.154-.126.278-.014.421.031a2.16,2.16,0,0,0,2.174-.027c.235-.165.467.054.683.124a3.177,3.177,0,0,1,1.12.694c.064-.048.124-.073.153-.118.207-.326-.015-.763.254-1.016s.662-.079,1-.175A41.15,41.15,0,0,1,22,53.951c1.6-.263,3.208-.439,4.812-.593,1.816-.175,3.635-.449,5.452-.689a2.041,2.041,0,0,0,.73-.223,1.04,1.04,0,0,1,.728-.145,8.173,8.173,0,0,0,2.713-.18,16.666,16.666,0,0,1,2.336-.234,7.256,7.256,0,0,0,2.668-.466,1.439,1.439,0,0,1,.933-.062,2.863,2.863,0,0,0,1.881-.053c1.062-.242,2.127-.367,3.181-.581a24.306,24.306,0,0,0,2.55-.529,13.521,13.521,0,0,1,2.423-.549A44.767,44.767,0,0,0,57.751,48.5c1.3-.316,2.572-.685,3.847-1.118a5.459,5.459,0,0,0,1.575-.762,19.089,19.089,0,0,1,4.622-2.269c.562-.229,1.138-.457,1.7-.68a10.04,10.04,0,0,1,2.261-.781A3.216,3.216,0,0,0,73.818,41.4a9.98,9.98,0,0,1,.983-1.468.27.27,0,0,0,.007-.361c-.354-.439-.243-.908.188-1.415-.98-.182-1.988.018-2.7-.726a3.485,3.485,0,0,1,1.852-1.392,1.358,1.358,0,0,0,.952-.824,1.152,1.152,0,0,0-.7.11c-.465.21-.733,0-1.039-.284s-.15-.522.105-.7c.4-.285.83-.508,1.238-.832a4.7,4.7,0,0,0-1.926.09c-.177.069-.392.095-.49-.106a.543.543,0,0,1,.123-.621.665.665,0,0,0-.317-1.085c-.244-.049-.675.2-.7-.187s.441-.432.7-.614l.746-.523c-.236-.14-.543.046-.655-.166a.227.227,0,0,1,.025-.308,4.806,4.806,0,0,1,2.052-1.457,2.694,2.694,0,0,0,.438-.217.293.293,0,0,0,.17-.324c-.014-.14-.1-.271-.23-.214-.762.336-1.146-.454-1.837-.458-.441,0,.08-.4.188-.632-.139-.257-.5-.146-.658-.363a.23.23,0,0,1,.145-.236,2.773,2.773,0,0,0,1.162-.727c.152-.192.4-.316.138-.626a.373.373,0,0,1-.055-.091l.095-.124a3.149,3.149,0,0,0,.207-.313l.095-.069c.188-.144.535-.139.485-.513a.489.489,0,0,0-.092-.239,2.188,2.188,0,0,1,.289-.335.27.27,0,0,0,.007-.361c-.354-.439-.243-.909.188-1.415q-.181-.033-.361-.052a1.546,1.546,0,0,1,.191-.135c.076-.046.016-.253-.091-.324s-.219-.1-.317-.161a.847.847,0,0,1-.16-.175c.054-.353.482-.4.52-.81-.333-.112-.877.182-1.085-.276a4.19,4.19,0,0,1,.452-.186,1.361,1.361,0,0,0,.952-.824,1.152,1.152,0,0,0-.7.11c-.465.21-.733,0-1.039-.284a.712.712,0,0,1-.132-.166,1.839,1.839,0,0,0,1.335-.744c-.092-.3-.347-.186-.544-.15L74,17.1a7.662,7.662,0,0,0,.7-.477,4.726,4.726,0,0,0-1.926.091c-.177.068-.392.095-.49-.106a.543.543,0,0,1,.123-.621.666.666,0,0,0-.317-1.087c-.244-.048-.675.205-.7-.187s.441-.432.7-.613l.746-.523c-.236-.142-.543.046-.655-.166a.227.227,0,0,1,.025-.308,4.8,4.8,0,0,1,2.052-1.457,2.605,2.605,0,0,0,.438-.218.292.292,0,0,0,.17-.324c-.014-.14-.1-.269-.23-.214-.762.337-1.146-.453-1.837-.457-.441,0,.08-.4.188-.632-.139-.257-.5-.146-.658-.363a.232.232,0,0,1,.145-.237,2.77,2.77,0,0,0,1.162-.726c.152-.192.4-.316.138-.628-.216-.262.134-.437.341-.6.188-.144.535-.14.485-.514-.044-.324-.278-.4-.566-.465a1.682,1.682,0,0,0-.914.071c-2.347.769-4.729,1.147-7.1,1.678-.113.026-.246.053-.339-.06.161-.3.452-.283.672-.313,1.011-.137,2.019-.412,3.024-.614a21.24,21.24,0,0,0,4.285-1.2c.118-.05.305-.127.325-.208A1.979,1.979,0,0,1,74.826,4.2c.076-.046.016-.253-.091-.324s-.219-.1-.317-.161a.88.88,0,0,1-.16-.175c.054-.353.482-.4.52-.81-.372-.124-1,.253-1.142-.461-.035-.181-.391-.06-.6,0-.582.167-1.161.363-1.746.5a3.3,3.3,0,0,1-2.184.062c1.29-.93,2.688-.682,3.895-1.317-.2-.034-.541.2-.765-.133.781-.4,1.733-.146,2.33-1.029-.092-.3-.347-.186-.544-.15a24.2,24.2,0,0,0-3.3.5c-.546-.39-1.349.3-1.861-.257-.136-.146-.34-.09-.523-.078a35.764,35.764,0,0,1-3.858.042C64.186.4,63.85.573,63.7.157c-.081-.228-.324-.039-.495-.047A2.628,2.628,0,0,1,62.3.044c-.251-.1-.445-.027-.638.258-.316.468-.608.449-.829-.018A.431.431,0,0,0,60.393.05,26.037,26.037,0,0,0,54.747.64c-.12.027-.293.134-.351.086-.78-.642-1.719-.126-2.57.007a2.4,2.4,0,0,1-1.55-.18.654.654,0,0,0-.918.133c-.215.262-.554.342-.661.215-.29-.346-.686-.086-1-.187a.825.825,0,0,0-1.106.347,1.3,1.3,0,0,1-1.521.221c-.141-.146.064-.564-.412-.487-.338.055-.464.313-.69.469-.553.384-1.122.154-1.685.266a1.106,1.106,0,0,1-.532-.023,2.242,2.242,0,0,0-2.239.47c-.3.233-.5-.036-.619-.311-.078-.181-.1-.5-.413-.187s-.15-.4-.47-.191c-.172.112-.426.047-.642.084-.09.016-.145.11-.165.221-.106.618-.464.641-.906.539a2.657,2.657,0,0,0-2.272.048c-.048.03-.12,0-.182.01-.559.087-1.064-.237-1.691.173-.5.329-1.14.036-1.716.293a.428.428,0,0,1-.427-.08c-.767-.5-1.131-.423-1.79.375-.362.438-.8.511-.972.041-.2-.53-.333-.229-.629-.066s-.651.332-.949.046c-.357-.342-.839.075-1.238-.046s-.09.331-.285.38a1.375,1.375,0,0,1-.707-.111,3.464,3.464,0,0,0-.609-.05c-.257.219.492.3.009.4-.331.07-.883.356-1.082-.305-.049-.165-.528-.006-.747.219-.338.347-.614.647-.967.126-.139-.205-.633-.1-.682.009-.419.936-1.343.117-1.808.834-.071.111-.221.007-.316-.071-.471-.393-.962-.255-1.433.172-.227.205-.362.158-.624.126a2.415,2.415,0,0,0-2.1.541,3.657,3.657,0,0,1-.742.492c-.2.113-.442.2-.579-.038A.337.337,0,0,0,11.3,5.48a8.339,8.339,0,0,1-1.854.549,5.018,5.018,0,0,0-1.762.785,3.835,3.835,0,0,0-1.031.949,1.428,1.428,0,0,1-.946.64c-1.08-.017-1.754,1.071-2.717,1.312a1.166,1.166,0,0,0-.251.158c-.276.161-.67.1-.825.471-.146.353.236.46.317.717a1.15,1.15,0,0,1,.077.842,4.2,4.2,0,0,0-.228,1.424,2.287,2.287,0,0,1-.863,1.531c-.385.3-.576.711-.939,1M17.971,55.31c.095-.041.191-.117.173-.212-.029-.158-.179-.1-.29-.091-.083.011-.2.038-.171.161s.158.159.288.142M44.7,52c-.088.01-.2.012-.2.127a.133.133,0,0,0,.185.123.248.248,0,0,0,.141-.112c.074-.154-.055-.122-.124-.138m-22.442,2.92a1.864,1.864,0,0,0-1.277-.054c-.178.064-.3.258-.131.351a2.016,2.016,0,0,0,.837.224c.242.015.339-.272.571-.52m20.065-49.8a.854.854,0,0,0-.284.124.881.881,0,0,1,.284-.126.55.55,0,0,1,.134.022.5.5,0,0,0-.134-.021M35.737,4.043a.417.417,0,0,0,.208-.078.417.417,0,0,1-.207.078.566.566,0,0,1-.359-.1.565.565,0,0,0,.358.1m.208-.078a.237.237,0,0,0,.026-.023.237.237,0,0,1-.026.023m32.5-1.723h0a7.524,7.524,0,0,1-2,.587,3.388,3.388,0,0,0-1.46.353c-.642.314-1.348.182-2.009.507-.148.073-.346-.086-.359-.314-.011-.2.151-.284.295-.356a.874.874,0,0,1,.274-.075,33.129,33.129,0,0,1,5.258-.7m-19,2.22h0c-.7.582-.709.58-.9,1.032-.06.145-.027.354-.244.354a.382.382,0,0,1-.369-.333.689.689,0,0,1,.506-.911,8.605,8.605,0,0,1,1-.143m8.82-2.972h0c.179.133.558.11.5.465-.04.261-.338.255-.545.279-.246.03-.412-.063-.353-.363a.412.412,0,0,1,.394-.381m11.3.465h0c.525-.4.848-.476,1.279-.251a1.267,1.267,0,0,1-1.279.251" transform="translate(0 0)" fill="#258447" fill-rule="evenodd"/>
          <path id="Trazado_594340" data-name="Trazado 594340" d="M7.282,28.412c.289-.108.786-.043.766.129-.082.688.533.671.862.753.479.119-.171-.282.15-.367a3.408,3.408,0,0,1,.533.314,1.45,1.45,0,0,0,.6.411c.2.042.1-.5.41-.22s.919.117,1.107.586c.157.391.562.393.88.375.333-.017.576-.231.546.337a.433.433,0,0,0,.214.442l.1.038a.884.884,0,0,0,.583-.09c.917-.437,1.278-.348,1.776.445a.448.448,0,0,0,.355.261c.627.018,1.091.566,1.675.487.733-.1,1.064.418,1.606.584.06.018.113.079.17.071.938-.11,1.483.477,2.082.955.361.288.7.423,1.038-.091.062-.092.148-.154.237-.129.21.06.415.231.616.207.373-.048-.074.529.352.379s.3.153.3.352c0,.3.076.635.438.555a2.244,2.244,0,0,1,2.22.556,1.163,1.163,0,0,0,.475.255c.555.145.982.6,1.637.5.267-.043.484-.22.813-.122.462.139.111.427.18.624a1.314,1.314,0,0,0,1.471.466.82.82,0,0,1,1.143.171c.241.228.7.165.83.607.047.162.387.239.686.095a.658.658,0,0,1,.885.283,2.5,2.5,0,0,0,1.338.844,10.277,10.277,0,0,1,1.674.46l27.9-17.7a4.875,4.875,0,0,1-.564-.311c-.224-.145-.327-.25-.615-.166a1.018,1.018,0,0,1-1.367-.487c-.053-.114-.147-.273-.256-.205-.711.441-1.216-.716-1.974-.057-.089.078-.578-.049-.62-.3-.109-.63-.479-.484-.926-.321-.289.106-.786.036-.763-.137.088-.687-.528-.676-.856-.762-.478-.123.168.283-.153.365a3.757,3.757,0,0,1-.531-.319,1.433,1.433,0,0,0-.594-.417c-.2-.044-.1.5-.413.215s-.917-.127-1.1-.6c-.153-.394-.559-.4-.877-.384-.333.014-.579.225-.543-.343.03-.5-.389-.632-.894-.4-.921.427-1.281.335-1.771-.464a.456.456,0,0,0-.354-.265c-.626-.025-1.085-.577-1.671-.5-.733.091-1.059-.429-1.6-.6-.06-.02-.113-.079-.17-.074-.938.1-1.477-.492-2.073-.975-.359-.292-.692-.431-1.039.08a.228.228,0,0,1-.237.127c-.21-.063-.414-.236-.615-.213-.374.043.078-.529-.348-.383s-.3-.156-.3-.354c0-.3-.071-.636-.433-.56a2.254,2.254,0,0,1-2.217-.578,1.17,1.17,0,0,0-.472-.261c-.553-.15-.975-.613-1.631-.514-.268.041-.486.217-.814.114-.462-.144-.108-.429-.174-.626a1.316,1.316,0,0,0-1.466-.482.821.821,0,0,1-1.142-.181,1,1,0,0,0-.353-.187L6.39,28.234c.143.464.484.331.892.178" transform="translate(1.081 2.468)" fill="#ffd629"/>
          <path id="Trazado_594341" data-name="Trazado 594341" d="M43.142,23.409A10.19,10.19,0,0,1,34.2,34.57a9.942,9.942,0,0,1-10.869-9.076,10.37,10.37,0,0,1,2.221-7.459,9.959,9.959,0,0,1,6.724-3.7A9.761,9.761,0,0,1,39.56,16.56a10.162,10.162,0,0,1,3.582,6.849" transform="translate(3.939 3.291)" fill="#19519d"/>
          <path id="Trazado_594342" data-name="Trazado 594342" d="M33.835,30.957l-.022.078-.077.014.064.047-.012.079.063-.048.07.034-.026-.076.055-.058-.078,0Zm6.083-2.287-.029.1-.1.018.081.058-.013.1.08-.062.089.044-.033-.1.069-.074-.1,0Zm-10.275.379-.062.207-.207.038.172.123-.028.213.167-.13.189.092-.068-.2.145-.155-.209,0ZM39.837,27.81l-.046.154-.154.028.129.091-.021.159.125-.1.14.069-.05-.15.108-.116-.156,0Zm-1.549.164-.046.153-.154.03.129.091-.022.159.125-.1.141.069-.051-.151.109-.116-.157,0Zm-.754-.08-.029.1-.1.018.082.058-.014.1.08-.062.089.043-.032-.1.069-.073-.1,0Zm1.48-.219-.029.1-.1.018.082.058-.014.1.078-.062.09.044-.033-.1.069-.074-.1,0ZM28.391,28.737l-.029.1-.1.018.082.058-.014.1.08-.062.09.044-.033-.1.069-.074-.1,0Zm11.386-1.554-.028.1-.1.018.082.058-.014.1.08-.062.089.044-.033-.1.069-.074-.1,0Zm-13.888,1.35-.046.153-.153.03.127.091-.021.159.125-.1.14.069-.05-.151.109-.116-.157,0Zm14.477-1.661-.029.1-.1.02.081.057-.013.1.078-.062.09.044-.033-.1.069-.074-.1,0ZM28.615,27.933l-.046.153-.154.03.127.091-.021.158.125-.1.14.069-.05-.151.109-.116-.157,0Zm12.354-1.67-.046.153-.154.03.129.091-.022.159L41,26.6l.141.069-.051-.15L41.2,26.4l-.157,0Zm-7.52.528L33.386,27l-.206.039.172.122-.029.213.168-.129.188.092-.068-.2.145-.156-.209.006Zm-6.74.624-.061.205-.207.039.172.122-.029.213.168-.13.189.094-.069-.2.146-.156-.21,0Zm.686-.47-.029.1-.1.018.081.057-.013.1.08-.062.089.043-.033-.095.069-.074-.1,0ZM41.2,25.389l-.046.154-.154.03.127.091-.021.158.125-.1.141.069-.051-.151.109-.116-.157,0Zm-8.549.806-.029.1-.1.018.081.058-.013.1.078-.062.09.044-.033-.1.069-.074-.1,0Zm9.132-1.734-.029.1-.1.018.081.058-.014.1.08-.062.09.044-.033-.1.069-.074-.1,0Zm-7.547.719-.046.154-.154.028.129.091-.022.159.125-.1.141.068-.05-.15.108-.116-.157,0Zm-1.871.2-.046.153-.154.028.127.092-.021.157.125-.1.141.069-.051-.151.109-.116-.157,0Zm8.455-.965-.062.205-.206.038.172.122-.029.213.168-.129.188.092-.068-.2.145-.155-.209,0Zm-7.592.1-.047.153-.153.03.127.091-.021.159.125-.1.14.069-.05-.151.109-.116-.157,0Zm-3.82-.108-.061.205-.207.039.172.122-.029.213.168-.13.189.092-.069-.2.146-.156-.21,0ZM24.7,22.761l-.062.205L24.429,23l.172.123-.029.213.168-.13.189.092-.069-.2.146-.156-.21,0Zm11.024-1.453-.062.205-.207.039.172.122-.028.213.167-.13.189.092-.068-.2.145-.156-.209,0Zm-.472-3.144-.061.205-.207.039.172.122-.029.213.168-.129.188.092-.068-.2.145-.156-.209,0Z" transform="translate(4.134 4.186)" fill="#fff"/>
          <path id="Trazado_594343" data-name="Trazado 594343" d="M24.038,26.371a9.857,9.857,0,0,0,10.029,5.868A10.109,10.109,0,0,0,42.8,24.4c-3.043.5-6.171.914-9.354,1.25s-6.327.582-9.4.725" transform="translate(4.067 5.623)" fill="#18428e" fill-rule="evenodd"/>
          <path id="Trazado_594344" data-name="Trazado 594344" d="M30.419,19.1a19.741,19.741,0,0,0-6.88,2.02,10.408,10.408,0,0,0-.251,1.889A19.443,19.443,0,0,1,34.2,20.505a14.918,14.918,0,0,1,8.981,3.21,10.112,10.112,0,0,0-.039-1.383q-.03-.319-.08-.635a17.271,17.271,0,0,0-8.774-2.707,23.229,23.229,0,0,0-3.869.112" transform="translate(3.94 4.369)" fill="#fff" fill-rule="evenodd"/>
          <path id="Trazado_594345" data-name="Trazado 594345" d="M33.654,29.441l-.023.078-.077.014.064.046-.011.08.063-.049.07.036-.026-.076.054-.058h-.077Zm6.083-2.287-.029.1-.1.018.081.058-.013.1.078-.062.089.043-.032-.1.069-.073-.1,0Zm-10.276.379-.061.205-.207.039.172.122-.029.213.168-.129.189.092-.069-.2.146-.155-.21,0Zm10.194-1.239-.046.153-.154.03.129.091-.022.159.125-.1.141.069-.051-.151.109-.116-.157,0Zm-1.549.162-.047.154-.153.03.127.091-.021.158.125-.1.14.069-.05-.151.109-.116-.157,0Zm-.755-.079-.028.1-.1.018.081.058-.013.1.079-.062.089.044-.032-.1.068-.074-.1,0Zm1.481-.219-.029.1-.1.018.081.057-.014.1.08-.062.089.044-.032-.1.069-.074-.1,0ZM28.209,27.221l-.028.1-.1.018.082.057-.014.1.08-.062.089.044-.033-.1.069-.074-.1,0ZM39.6,25.667l-.029.1-.1.018.081.057-.013.1.078-.062.09.044-.033-.1.069-.074-.1,0Zm-13.888,1.35-.046.153-.154.03.129.091-.022.158.125-.1.141.069-.051-.151.109-.116-.157,0Zm14.477-1.662-.029.1-.1.018.082.058-.014.1.08-.062.089.043-.032-.095.069-.074-.1,0ZM28.432,26.416l-.046.154-.154.03.129.09-.021.159.124-.1.141.068-.05-.15.108-.116-.157,0Zm5.074-.883c-.1.011-.209.023-.313.033l-.113.012.09.064-.028.213.167-.13.189.092-.069-.2Zm7.281-.785-.047.153-.153.03.127.091-.021.159.125-.1.14.069L40.909,25l.109-.116-.157,0ZM26.273,26.153l.158.112-.029.213.168-.13.188.092-.068-.2.111-.119-.528.034" transform="translate(4.316 5.703)" fill="#719dc6"/>
        </g>
      </g>
    </g>
  </g>
</svg>
