<svg xmlns="http://www.w3.org/2000/svg" xmlns:xlink="http://www.w3.org/1999/xlink" width="102" height="102" viewBox="0 0 102 102">
  <defs>
    <clipPath id="clip-path">
      <path id="Trazado_594401" data-name="Trazado 594401" d="M64.919,4.817c-.295.467-.568.45-.774-.019a.4.4,0,0,0-.412-.234,22.753,22.753,0,0,0-5.273.59c-.112.027-.274.133-.329.086-.727-.643-1.6-.126-2.4.007a2.1,2.1,0,0,1-1.448-.18.585.585,0,0,0-.857.133c-.2.261-.518.342-.617.215a.562.562,0,0,0-.582-.173.79.79,0,0,1-.347-.014.744.744,0,0,0-1.033.348,1.155,1.155,0,0,1-1.422.222c-.131-.147.06-.564-.384-.488-.316.056-.434.312-.644.469a1.489,1.489,0,0,1-1.009.234,2.489,2.489,0,0,0-.565.032.971.971,0,0,1-.5-.024,1.993,1.993,0,0,0-2.092.471c-.276.232-.466-.035-.577-.312-.073-.181-.09-.5-.385-.187-.162.172-.191.05-.228-.071s-.07-.217-.211-.119a.643.643,0,0,1-.368.07,1.263,1.263,0,0,0-.231.014c-.084.016-.135.11-.153.222-.1.617-.435.641-.847.538a2.331,2.331,0,0,0-2.121.049.162.162,0,0,1-.1.012.245.245,0,0,0-.071,0,1.859,1.859,0,0,1-.55-.012,1.312,1.312,0,0,0-1.029.186,1.357,1.357,0,0,1-.826.174,1.738,1.738,0,0,0-.777.119.384.384,0,0,1-.4-.08c-.716-.5-1.056-.424-1.672.375-.339.438-.743.51-.906.041-.186-.53-.312-.228-.589-.067s-.609.333-.887.048c-.2-.2-.431-.141-.667-.081a.9.9,0,0,1-.489.034c-.372-.119-.084.333-.266.382a1.206,1.206,0,0,1-.66-.111,3.028,3.028,0,0,0-.569-.051c-.241.219.459.3.009.4-.31.07-.826.356-1.011-.305-.047-.166-.492-.006-.7.219-.314.347-.572.646-.9.125-.129-.205-.589-.1-.636.008a.785.785,0,0,1-.892.5.783.783,0,0,0-.8.334c-.067.11-.206.008-.295-.072-.439-.392-.9-.254-1.339.173-.211.205-.337.158-.582.125a2.148,2.148,0,0,0-1.966.542,3.427,3.427,0,0,1-.693.493c-.191.113-.413.2-.539-.039a.307.307,0,0,0-.428-.167,7.424,7.424,0,0,1-1.733.55,4.535,4.535,0,0,0-1.646.784,3.656,3.656,0,0,0-.963.95,1.339,1.339,0,0,1-.883.64c-1.009-.02-1.637,1.069-2.538,1.311a1.12,1.12,0,0,0-.235.157c-.258.161-.626.1-.77.472-.138.354.219.46.295.717a1.225,1.225,0,0,1,.072.842,4.437,4.437,0,0,0-.212,1.424,2.34,2.34,0,0,1-.807,1.53c-.359.3-.537.712-.878,1a.475.475,0,0,0,.724.1c.15-.113.312-.251.491-.22.124.021.356.043.236.263-.3.553-.324,1.25-1.031,1.6a1.843,1.843,0,0,0-.329,2.507.447.447,0,0,0,.428.057.747.747,0,0,1,.295-.017c.276.06.477.233.406.447-.194.589.059,1.248-.419,1.778-.177.195-.164.358.023.465.226.129.175.37.14.593-.062.386-.238.718.155,1.046.269.224.06.876-.229,1.161-.867.852-.685,1.824-.668,2.8,0,.23.3.6-.256.593-.071,0-.146.08-.116.122.328.435-.242,1.176.3,1.587a1.3,1.3,0,0,1,.434,1.116c0,.085-.005.159-.012.225a4.3,4.3,0,0,1-.572.676l.055.053a.432.432,0,0,0,.054.372.684.684,0,0,1-.082.738.382.382,0,0,0,.025.528c.062.055.123.112.181.173a1.915,1.915,0,0,0-.141,2.38.443.443,0,0,0,.428.056.747.747,0,0,1,.295-.017c.276.06.477.234.406.447-.194.589.059,1.249-.419,1.778-.177.195-.164.36.023.465.226.128.175.37.14.594-.062.385-.238.718.155,1.045.269.224.06.877-.229,1.16-.867.855-.685,1.826-.668,2.8,0,.23.3.6-.256.594-.071,0-.146.078-.116.119.328.436-.242,1.176.3,1.587a1.3,1.3,0,0,1,.434,1.117c-.01.36-.032.531-.292.709-.236.161-.346.306-.185.618a.684.684,0,0,1-.082.738.384.384,0,0,0,.025.529c.644.565,1.043,1.393,1.684,1.972a4.737,4.737,0,0,0,2.017.776c.685.211,1.408.313,2.1.521.334.1.546.373.881.44.689.139,1.319.553,2.113.084a.8.8,0,0,1,.749.063c.3.167.6.326.962.009.144-.125.26-.013.393.031.65.222,1.286.534,2.03-.027.219-.166.436.055.637.123a2.94,2.94,0,0,1,1.047.7c.06-.049.116-.073.143-.118.193-.327-.013-.764.237-1.017a.679.679,0,0,1,.557-.145,1.133,1.133,0,0,0,.376-.029,36.058,36.058,0,0,1,4.308-.74c1.491-.264,3-.438,4.5-.594,1.695-.174,3.393-.449,5.091-.688a1.8,1.8,0,0,0,.681-.224.924.924,0,0,1,.68-.145,7.148,7.148,0,0,0,2.533-.18,14.812,14.812,0,0,1,2.182-.234,6.355,6.355,0,0,0,2.492-.466,1.271,1.271,0,0,1,.871-.061,2.507,2.507,0,0,0,1.757-.052c.992-.242,1.986-.366,2.971-.58a21.9,21.9,0,0,0,2.382-.53,11.782,11.782,0,0,1,2.263-.549,39.407,39.407,0,0,0,4.99-1.149c1.209-.315,2.4-.685,3.593-1.118a4.978,4.978,0,0,0,1.471-.762,17.434,17.434,0,0,1,4.315-2.27c.526-.227,1.064-.456,1.593-.681a9.019,9.019,0,0,1,2.112-.781,3.029,3.029,0,0,0,1.923-1.488,9.992,9.992,0,0,1,.917-1.469.283.283,0,0,0,.007-.36c-.331-.44-.227-.908.176-1.415-.915-.182-1.856.017-2.524-.726a3.274,3.274,0,0,1,1.73-1.393,1.3,1.3,0,0,0,.888-.823,1.009,1.009,0,0,0-.653.11c-.435.21-.686,0-.971-.285s-.14-.521.1-.7c.372-.284.775-.508,1.157-.832a4.127,4.127,0,0,0-1.8.09c-.166.068-.367.1-.459-.106a.572.572,0,0,1,.116-.622.683.683,0,0,0-.3-1.086.719.719,0,0,0-.254.015c-.192.032-.384.065-.4-.2-.023-.4.412-.433.654-.614l.7-.523a.534.534,0,0,0-.316-.057c-.127,0-.239.007-.3-.109a.239.239,0,0,1,.023-.309,4.488,4.488,0,0,1,1.916-1.456,2.473,2.473,0,0,0,.411-.218.3.3,0,0,0,.158-.324c-.014-.14-.1-.27-.216-.215-.712.336-1.07-.453-1.715-.456-.411,0,.075-.4.175-.633-.13-.257-.464-.147-.614-.363a.233.233,0,0,1,.135-.237,2.56,2.56,0,0,0,1.087-.728c.141-.19.368-.314.128-.625a.337.337,0,0,1-.05-.092l.088-.124a3.169,3.169,0,0,0,.192-.312c.032-.023.061-.046.088-.068.176-.144.5-.14.453-.514a.506.506,0,0,0-.086-.238,2.215,2.215,0,0,1,.27-.335A.285.285,0,0,0,77.2,27.2c-.331-.44-.227-.909.176-1.415-.112-.022-.225-.038-.337-.052a1.368,1.368,0,0,1,.178-.135c.071-.046.014-.253-.084-.324s-.206-.1-.3-.161a.909.909,0,0,1-.151-.174c.05-.354.449-.4.486-.811a.947.947,0,0,0-.379-.019c-.251.02-.509.039-.634-.257a4.122,4.122,0,0,1,.424-.186,1.3,1.3,0,0,0,.888-.825,1.008,1.008,0,0,0-.653.109c-.435.211-.686,0-.971-.284a.624.624,0,0,1-.123-.166,1.693,1.693,0,0,0,1.247-.743c-.086-.3-.324-.187-.508-.151l-.012,0a7.1,7.1,0,0,0,.651-.478,4.145,4.145,0,0,0-1.8.092c-.166.067-.367.1-.459-.106a.574.574,0,0,1,.116-.623.684.684,0,0,0-.3-1.086.751.751,0,0,0-.254.016c-.192.032-.384.066-.4-.2-.023-.4.412-.431.654-.614l.7-.523a.533.533,0,0,0-.316-.056c-.127,0-.239.007-.3-.11a.236.236,0,0,1,.023-.306,4.494,4.494,0,0,1,1.916-1.458,2.464,2.464,0,0,0,.411-.217.3.3,0,0,0,.158-.324c-.014-.14-.1-.27-.216-.215-.712.336-1.07-.453-1.715-.457-.411,0,.075-.4.175-.632-.13-.257-.464-.147-.614-.363a.235.235,0,0,1,.135-.238,2.565,2.565,0,0,0,1.087-.726c.141-.191.368-.317.128-.626-.2-.263.126-.438.319-.6.176-.144.5-.139.453-.515-.042-.324-.261-.4-.529-.465a1.483,1.483,0,0,0-.853.071,65.927,65.927,0,0,1-6.63,1.679c-.106.026-.229.052-.317-.06.151-.3.423-.283.628-.313.945-.137,1.886-.411,2.824-.614a18.867,18.867,0,0,0,4-1.2c.11-.051.285-.126.3-.209a2.013,2.013,0,0,1,.777-1.427c.071-.044.014-.253-.084-.324s-.206-.1-.3-.16a.881.881,0,0,1-.151-.175c.05-.354.449-.4.486-.81a.969.969,0,0,0-.379-.017c-.295.022-.6.045-.688-.444-.034-.181-.365-.06-.566,0-.543.168-1.083.363-1.629.506a2.9,2.9,0,0,1-2.04.06c1.2-.93,2.51-.682,3.637-1.316a.6.6,0,0,0-.213.022.409.409,0,0,1-.5-.154c.729-.406,1.618-.146,2.176-1.03-.086-.3-.324-.186-.508-.15a21.488,21.488,0,0,0-3.082.5.988.988,0,0,0-.816-.078c-.333.059-.667.118-.923-.179-.127-.147-.318-.092-.488-.079a30.928,30.928,0,0,1-3.6.042,1.278,1.278,0,0,0-.2.014c-.212.023-.418.049-.524-.269-.052-.154-.173-.115-.3-.078a.5.5,0,0,1-.166.032c-.084,0-.171,0-.257,0a1.306,1.306,0,0,1-.59-.071.456.456,0,0,0-.186-.043c-.151,0-.281.1-.411.3" transform="translate(-7.329 -4.514)" fill="none"/>
    </clipPath>
  </defs>
  <g id="Grupo_874909" data-name="Grupo 874909" transform="translate(-748 -3041)">
    <circle id="Elipse_5476" data-name="Elipse 5476" cx="51" cy="51" r="51" transform="translate(748 3041)" fill="#c8cbdb"/>
    <g id="Grupo_874172" data-name="Grupo 874172" transform="translate(756.671 3059.486)">
      <g id="Grupo_874161" data-name="Grupo 874161" transform="translate(7.329 4.514)" clip-path="url(#clip-path)">
        <path id="Trazado_594402" data-name="Trazado 594402" d="M.413.664,79.745,0l-.413,52.247L0,52.911Z" transform="translate(-8.502 5.624) rotate(-7.827)" fill="#fff"/>
        <path id="Trazado_594403" data-name="Trazado 594403" d="M.034.664,79.366,0l-.034,4.254L0,4.918Z" transform="translate(-1.967 53.17) rotate(-7.827)" fill="#f32403"/>
        <path id="Trazado_594404" data-name="Trazado 594404" d="M.034.664,79.366,0l-.034,4.254L0,4.918Z" transform="translate(-3.103 44.393) rotate(-7.827)" fill="#f32403"/>
        <path id="Trazado_594405" data-name="Trazado 594405" d="M.034.664,79.366,0l-.034,4.254L0,4.918Z" transform="translate(-4.152 36.291) rotate(-7.827)" fill="#f32403"/>
        <path id="Trazado_594406" data-name="Trazado 594406" d="M.034.664,79.366,0l-.034,4.254L0,4.918Z" transform="translate(-5.135 28.696) rotate(-7.827)" fill="#f32403"/>
        <path id="Trazado_594407" data-name="Trazado 594407" d="M.034.664,79.366,0l-.034,4.254L0,4.918Z" transform="translate(-6.183 20.594) rotate(-7.827)" fill="#f32403"/>
        <path id="Trazado_594408" data-name="Trazado 594408" d="M.034.664,79.366,0l-.034,4.254L0,4.918Z" transform="translate(-7.21 12.662) rotate(-7.827)" fill="#f32403"/>
        <path id="Trazado_594409" data-name="Trazado 594409" d="M.034.664,79.366,0l-.034,4.254L0,4.918Z" transform="translate(-8.127 5.573) rotate(-7.827)" fill="#f32403"/>
        <path id="Trazado_594410" data-name="Trazado 594410" d="M.218.288,34.584,0l-.218,27.57L0,27.858Z" transform="matrix(0.991, -0.136, 0.136, 0.991, -8.258, 5.97)" fill="#011173"/>
        <path id="Trazado_594357" data-name="Trazado 594357" d="M8.239,10.273l.447.7.795.006-.488.667.239.806-.748-.288-.648.492.027-.845-.641-.5.764-.234Z" transform="translate(-7.339 -3.594)" fill="#fff"/>
        <path id="Trazado_594358" data-name="Trazado 594358" d="M13.32,9.575l.447.7.795.006-.488.667.239.806-.748-.288-.648.492.027-.845-.641-.5.764-.234Z" transform="translate(-6.872 -3.705)" fill="#fff"/>
        <path id="Trazado_594359" data-name="Trazado 594359" d="M18.4,8.876l.447.7.795.006-.488.667.239.806-.748-.288L18,11.26l.027-.845-.641-.5.764-.234Z" transform="translate(-6.404 -3.817)" fill="#fff"/>
        <path id="Trazado_594360" data-name="Trazado 594360" d="M23.484,8.178l.447.7.795.006-.488.667.239.806-.748-.288-.648.492.027-.845-.641-.5.764-.234Z" transform="translate(-5.937 -3.929)" fill="#fff"/>
        <path id="Trazado_594361" data-name="Trazado 594361" d="M28.565,7.479l.447.7.795.006-.488.667.239.806-.748-.288-.648.492.027-.845-.641-.5.764-.234Z" transform="translate(-5.469 -4.04)" fill="#fff"/>
        <path id="Trazado_594362" data-name="Trazado 594362" d="M11.325,12.223l.447.7.795.006-.488.667.239.806-.748-.288-.648.492.027-.845-.641-.5.764-.234Z" transform="translate(-7.055 -3.282)" fill="#fff"/>
        <path id="Trazado_594363" data-name="Trazado 594363" d="M16.406,11.525l.447.7.795.007-.488.667.239.806-.748-.288L16,13.908l.027-.845-.641-.5.764-.234Z" transform="translate(-6.588 -3.394)" fill="#fff"/>
        <path id="Trazado_594364" data-name="Trazado 594364" d="M21.488,10.826l.447.7.795.007-.488.667.239.806-.748-.288-.648.492.027-.845-.641-.5.764-.234Z" transform="translate(-6.12 -3.505)" fill="#fff"/>
        <path id="Trazado_594365" data-name="Trazado 594365" d="M26.57,10.128l.447.7.795.006-.488.667.239.806-.748-.288-.648.492.027-.845-.641-.5.764-.234Z" transform="translate(-5.653 -3.617)" fill="#fff"/>
        <path id="Trazado_594366" data-name="Trazado 594366" d="M6.884,17.582l.447.7.795.007-.488.667.239.806-.748-.288-.648.492.027-.845-.641-.5.764-.234Z" transform="translate(-7.464 -2.426)" fill="#fff"/>
        <path id="Trazado_594367" data-name="Trazado 594367" d="M11.965,16.883l.447.7.795.006-.488.667.239.806-.748-.288-.648.492.027-.845-.641-.5.764-.234Z" transform="translate(-6.996 -2.537)" fill="#fff"/>
        <path id="Trazado_594368" data-name="Trazado 594368" d="M17.047,16.185l.447.7.795.007-.488.667.239.806-.748-.288-.648.492.027-.846-.641-.5.764-.234Z" transform="translate(-6.529 -2.649)" fill="#fff"/>
        <path id="Trazado_594369" data-name="Trazado 594369" d="M22.129,15.486l.447.7.795.006-.488.667.239.806-.748-.288-.648.492.027-.845-.641-.5.764-.234Z" transform="translate(-6.061 -2.761)" fill="#fff"/>
        <path id="Trazado_594370" data-name="Trazado 594370" d="M27.21,14.788l.447.7.795.007-.488.667.239.806-.748-.288-.648.492.027-.845-.641-.5.764-.234Z" transform="translate(-5.594 -2.872)" fill="#fff"/>
        <path id="Trazado_594371" data-name="Trazado 594371" d="M7.524,22.242l.447.7.795.006-.488.667.239.806-.748-.288-.648.492.027-.845-.641-.5.764-.234Z" transform="translate(-7.405 -1.681)" fill="#fff"/>
        <path id="Trazado_594372" data-name="Trazado 594372" d="M12.606,21.544l.447.7.795.007-.488.667.239.806-.748-.288-.648.492.027-.845-.641-.5.764-.234Z" transform="translate(-6.937 -1.793)" fill="#fff"/>
        <path id="Trazado_594373" data-name="Trazado 594373" d="M17.688,20.845l.447.7.795.006-.488.667.239.806-.748-.288-.648.492.027-.846-.641-.5.764-.234Z" transform="translate(-6.47 -1.904)" fill="#fff"/>
        <path id="Trazado_594374" data-name="Trazado 594374" d="M22.769,20.147l.447.7.795.006-.488.667.239.806-.748-.288-.648.492.027-.845-.641-.5.764-.234Z" transform="translate(-6.002 -2.016)" fill="#fff"/>
        <path id="Trazado_594375" data-name="Trazado 594375" d="M27.851,19.448l.447.7.795.006-.488.667.239.806L28.1,21.34l-.648.492.027-.845-.641-.5.764-.234Z" transform="translate(-5.535 -2.127)" fill="#fff"/>
        <path id="Trazado_594376" data-name="Trazado 594376" d="M8.165,26.9l.447.7.795.006-.488.667.239.806-.748-.288-.648.492.027-.845-.641-.5.764-.234Z" transform="translate(-7.346 -0.936)" fill="#fff"/>
        <path id="Trazado_594377" data-name="Trazado 594377" d="M13.246,26.2l.447.7.795.006L14,27.577l.239.806-.748-.288-.648.492.027-.846-.641-.5.764-.234Z" transform="translate(-6.878 -1.048)" fill="#fff"/>
        <path id="Trazado_594378" data-name="Trazado 594378" d="M18.328,25.505l.447.7.795.006-.488.667.239.806-.748-.288-.648.492.027-.845-.641-.5.764-.234Z" transform="translate(-6.411 -1.16)" fill="#fff"/>
        <path id="Trazado_594379" data-name="Trazado 594379" d="M23.41,24.807l.447.7.795.006-.488.667.239.806-.748-.288-.648.492.027-.846-.641-.5.764-.234Z" transform="translate(-5.944 -1.271)" fill="#fff"/>
        <path id="Trazado_594380" data-name="Trazado 594380" d="M28.492,24.108l.447.7.795.006-.488.667.239.806L28.736,26l-.648.492.027-.846-.641-.5.764-.234Z" transform="translate(-5.476 -1.383)" fill="#fff"/>
        <path id="Trazado_594381" data-name="Trazado 594381" d="M8.879,14.933l.447.7.795.006-.488.667.239.806-.748-.288-.648.492.027-.845-.641-.5.764-.234Z" transform="translate(-7.28 -2.849)" fill="#fff"/>
        <path id="Trazado_594382" data-name="Trazado 594382" d="M13.961,14.235l.447.7.795.006-.488.667.239.806-.748-.288-.648.492.027-.845-.641-.5.764-.234Z" transform="translate(-6.813 -2.961)" fill="#fff"/>
        <path id="Trazado_594383" data-name="Trazado 594383" d="M19.043,13.536l.447.7.795.006-.488.667.239.806-.748-.288-.648.492.027-.845-.641-.5.764-.234Z" transform="translate(-6.345 -3.072)" fill="#fff"/>
        <path id="Trazado_594384" data-name="Trazado 594384" d="M24.124,12.838l.447.7.795.006-.488.667.239.806-.748-.288-.648.492.027-.845-.641-.5.764-.234Z" transform="translate(-5.878 -3.184)" fill="#fff"/>
        <path id="Trazado_594385" data-name="Trazado 594385" d="M29.206,12.139l.447.7.795.006-.488.667.239.806-.748-.288-.648.492.027-.845-.641-.5.764-.234Z" transform="translate(-5.41 -3.295)" fill="#fff"/>
        <path id="Trazado_594386" data-name="Trazado 594386" d="M9.52,19.594l.447.7.795.006-.488.667.239.806-.748-.288-.648.492.027-.845-.641-.5.764-.234Z" transform="translate(-7.221 -2.104)" fill="#fff"/>
        <path id="Trazado_594387" data-name="Trazado 594387" d="M14.6,18.9l.447.7.795.007-.488.667.239.806-.748-.288-.648.492.027-.845-.641-.5.764-.234Z" transform="translate(-6.754 -2.216)" fill="#fff"/>
        <path id="Trazado_594388" data-name="Trazado 594388" d="M19.683,18.2l.447.7.795.007-.488.667.239.806-.748-.288-.648.492.027-.845-.641-.5L19.431,19Z" transform="translate(-6.286 -2.327)" fill="#fff"/>
        <path id="Trazado_594389" data-name="Trazado 594389" d="M24.765,17.5l.447.7.795.007-.488.667.239.806-.748-.288-.648.492.027-.845-.641-.5.764-.234Z" transform="translate(-5.819 -2.439)" fill="#fff"/>
        <path id="Trazado_594390" data-name="Trazado 594390" d="M29.846,16.8l.447.7.795.007-.488.667.239.806-.748-.288-.648.492.027-.846-.641-.5.764-.234Z" transform="translate(-5.352 -2.551)" fill="#fff"/>
        <path id="Trazado_594391" data-name="Trazado 594391" d="M10.16,24.254l.447.7.795.007-.488.667.239.806-.748-.288-.648.492.027-.845-.641-.5.764-.234Z" transform="translate(-7.162 -1.359)" fill="#fff"/>
        <path id="Trazado_594392" data-name="Trazado 594392" d="M15.242,23.555l.447.7.795.006L16,24.928l.239.806-.748-.288-.648.492.027-.845-.641-.5.764-.234Z" transform="translate(-6.695 -1.471)" fill="#fff"/>
        <path id="Trazado_594393" data-name="Trazado 594393" d="M20.324,22.857l.447.7.795.006-.488.667.239.806-.748-.288-.648.492.027-.845-.641-.5.764-.234Z" transform="translate(-6.227 -1.583)" fill="#fff"/>
        <path id="Trazado_594394" data-name="Trazado 594394" d="M25.405,22.158l.447.7.795.006-.488.667.239.806-.748-.288L25,24.542l.027-.846-.641-.5.764-.234Z" transform="translate(-5.76 -1.694)" fill="#fff"/>
        <path id="Trazado_594395" data-name="Trazado 594395" d="M30.487,21.46l.447.7.795.007-.488.667.239.806-.748-.288-.648.492L30.111,23l-.641-.5.764-.234Z" transform="translate(-5.293 -1.806)" fill="#fff"/>
        <path id="Trazado_594396" data-name="Trazado 594396" d="M10.8,28.914l.447.7.795.007-.488.667.239.806-.748-.288L10.4,31.3l.027-.845-.641-.5.764-.234Z" transform="translate(-7.103 -0.615)" fill="#fff"/>
        <path id="Trazado_594397" data-name="Trazado 594397" d="M15.883,28.215l.447.7.795.006-.488.667.239.806-.748-.288-.648.492.027-.845-.641-.5.764-.234Z" transform="translate(-6.636 -0.726)" fill="#fff"/>
        <path id="Trazado_594398" data-name="Trazado 594398" d="M20.964,27.517l.447.7.795.006-.488.667.239.806-.748-.288-.648.492.027-.845-.641-.5.764-.234Z" transform="translate(-6.168 -0.838)" fill="#fff"/>
        <path id="Trazado_594399" data-name="Trazado 594399" d="M26.046,26.818l.447.7.795.006-.488.667.239.806-.748-.288-.648.492.027-.845-.641-.5.764-.234Z" transform="translate(-5.701 -0.95)" fill="#fff"/>
        <path id="Trazado_594400" data-name="Trazado 594400" d="M31.128,26.12l.447.7.795.007-.488.667.239.806-.748-.288-.648.492.027-.845-.641-.5.764-.234Z" transform="translate(-5.234 -1.061)" fill="#fff"/>
      </g>
    </g>
  </g>
</svg>
