<svg xmlns="http://www.w3.org/2000/svg" width="85" height="85" viewBox="0 0 85 85">
  <g id="Grupo_874753" data-name="Grupo 874753" transform="translate(-262 -1148)">
    <circle id="Elipse_4711" data-name="Elipse 4711" cx="42.5" cy="42.5" r="42.5" transform="translate(262 1148)" fill="#fff"/>
    <g id="lista-de-quehaceres" transform="translate(274 1163.979)">
      <path id="Trazado_212239" data-name="Trazado 212239" d="M53.922,0H7.819A7.828,7.828,0,0,0,0,7.819V57.7A4.049,4.049,0,0,0,4.044,61.74h17.7a1.348,1.348,0,0,0,0-2.7H4.044A1.349,1.349,0,0,1,2.7,57.7V7.819A5.128,5.128,0,0,1,7.819,2.7h40.2A7.785,7.785,0,0,0,46.1,7.819V51.262a2.256,2.256,0,0,1-4.4.714l-2.032-6.1a4.207,4.207,0,0,0-8.2,1.33v1.05H24.49a1.348,1.348,0,0,0,0,2.7h6.987v6.707a14.916,14.916,0,0,0,1.154,5.768l1.983,4.76A1.348,1.348,0,1,0,37.1,67.154l-1.983-4.76a12.24,12.24,0,0,1-.946-4.731V47.21a1.511,1.511,0,0,1,2.945-.478l2.032,6.1A4.952,4.952,0,0,0,48.8,51.262V28.15l1.8,1.8a16.865,16.865,0,0,1,4.984,12.017v14.33a25.367,25.367,0,0,1-2.431,10.8,1.348,1.348,0,1,0,2.436,1.155,28.08,28.08,0,0,0,2.691-11.956V41.964a19.544,19.544,0,0,0-5.776-13.925L48.8,24.34V23.052h8.9a4.049,4.049,0,0,0,4.044-4.044V7.819A7.827,7.827,0,0,0,53.922,0Zm5.123,19.008A1.35,1.35,0,0,1,57.7,20.356H48.8V7.819a5.123,5.123,0,1,1,10.245,0Zm0,0"/>
      <path id="Trazado_212240" data-name="Trazado 212240" d="M196.348,438a1.348,1.348,0,1,0,.953.395A1.358,1.358,0,0,0,196.348,438Zm0,0" transform="translate(-168.713 -378.952)"/>
      <path id="Trazado_212241" data-name="Trazado 212241" d="M64.992,56.7A2.7,2.7,0,0,0,62.3,54H56.364a2.7,2.7,0,0,0-2.7,2.7v5.931a2.7,2.7,0,0,0,2.7,2.7H62.3a2.7,2.7,0,0,0,2.7-2.7Zm-2.7,5.931H56.364V56.7H62.3l0,5.931Zm0,0" transform="translate(-46.433 -46.721)"/>
      <path id="Trazado_212242" data-name="Trazado 212242" d="M64.992,176.7a2.7,2.7,0,0,0-2.7-2.7H56.364a2.7,2.7,0,0,0-2.7,2.7v5.931a2.7,2.7,0,0,0,2.7,2.7H62.3a2.7,2.7,0,0,0,2.7-2.7Zm-2.7,5.931H56.364V176.7H62.3l0,5.931Zm0,0" transform="translate(-46.433 -150.544)"/>
      <path id="Trazado_212243" data-name="Trazado 212243" d="M62.3,294H56.364a2.7,2.7,0,0,0-2.7,2.7v5.931a2.7,2.7,0,0,0,2.7,2.7H62.3a2.7,2.7,0,0,0,2.7-2.7V296.7A2.7,2.7,0,0,0,62.3,294Zm0,8.627H56.364V296.7H62.3l0,5.931Zm0,0" transform="translate(-46.433 -254.367)"/>
      <path id="Trazado_212244" data-name="Trazado 212244" d="M228.036,120.7a1.348,1.348,0,1,0,0-2.7h-9.293a1.348,1.348,0,0,0,0,2.7Zm0,0" transform="translate(-188.089 -102.093)"/>
      <path id="Trazado_212245" data-name="Trazado 212245" d="M173.016,120.7a1.348,1.348,0,1,0-.953-.395A1.358,1.358,0,0,0,173.016,120.7Zm0,0" transform="translate(-148.526 -102.093)"/>
      <path id="Trazado_212246" data-name="Trazado 212246" d="M173.012,240.7H188.47a1.348,1.348,0,0,0,0-2.7H173.012a1.348,1.348,0,0,0,0,2.7Zm0,0" transform="translate(-148.523 -205.916)"/>
    </g>
  </g>
</svg>
