<svg xmlns="http://www.w3.org/2000/svg" width="85" height="85" viewBox="0 0 85 85">
  <g id="Grupo_874755" data-name="Grupo 874755" transform="translate(-1006 -1148)">
    <circle id="Elipse_4714" data-name="Elipse 4714" cx="42.5" cy="42.5" r="42.5" transform="translate(1006 1148)" fill="#fff"/>
    <g id="notas" transform="translate(967.667 1163.979)">
      <g id="Grupo_151704" data-name="Grupo 151704" transform="translate(53.333)">
        <path id="Trazado_212271" data-name="Trazado 212271" d="M103.661,2.876H99.347V1.438a1.438,1.438,0,1,0-2.876,0V2.876H87.843V1.438a1.438,1.438,0,1,0-2.876,0V2.876H76.34V1.438a1.438,1.438,0,0,0-2.876,0V2.876H64.836V1.438a1.438,1.438,0,1,0-2.876,0V2.876H57.647A4.319,4.319,0,0,0,53.333,7.19V64.707a4.319,4.319,0,0,0,4.314,4.314H103.66a4.319,4.319,0,0,0,4.314-4.314V7.19A4.319,4.319,0,0,0,103.661,2.876ZM97.909,11.5a1.438,1.438,0,1,1-1.438,1.438A1.439,1.439,0,0,1,97.909,11.5Zm-11.5,0a1.438,1.438,0,1,1-1.438,1.438A1.439,1.439,0,0,1,86.405,11.5Zm-11.5,0a1.438,1.438,0,1,1-1.438,1.438A1.439,1.439,0,0,1,74.9,11.5Zm-11.5,0a1.438,1.438,0,1,1-1.438,1.438A1.439,1.439,0,0,1,63.4,11.5Zm41.7,53.2a1.439,1.439,0,0,1-1.438,1.438H57.647a1.439,1.439,0,0,1-1.438-1.438V7.19a1.439,1.439,0,0,1,1.438-1.438h4.314v3.14a4.314,4.314,0,1,0,2.876,0V5.752h8.628v3.14a4.314,4.314,0,1,0,2.876,0V5.752h8.628v3.14a4.314,4.314,0,1,0,2.876,0V5.752h8.628v3.14a4.314,4.314,0,1,0,2.876,0V5.752h4.314A1.439,1.439,0,0,1,105.1,7.19V64.707Z" transform="translate(-53.333)"/>
      </g>
    </g>
    <path id="compartir" d="M26.866,14.109a7.083,7.083,0,1,0-6.632-4.674l-6.7,3.771a7.054,7.054,0,1,0,0,8.86l6.7,3.771a7.05,7.05,0,1,0,1.15-2.05l-6.7-3.771a6.922,6.922,0,0,0,0-4.76l6.7-3.771A7.041,7.041,0,0,0,26.866,14.109Zm0,9.406a4.7,4.7,0,1,1-4.7,4.7A4.708,4.708,0,0,1,26.866,23.514ZM8.054,22.339a4.7,4.7,0,1,1,4.7-4.7A4.708,4.708,0,0,1,8.054,22.339ZM26.866,2.351a4.7,4.7,0,1,1-4.7,4.7A4.708,4.708,0,0,1,26.866,2.351Z" transform="translate(1030.54 1188.364)"/>
  </g>
</svg>
