<svg xmlns="http://www.w3.org/2000/svg" width="85" height="63" viewBox="0 0 85 63">
  <g id="Grupo_874813" data-name="Grupo 874813" transform="translate(-0.5)">
    <ellipse id="Elipse_5454" data-name="Elipse 5454" cx="32" cy="2.5" rx="32" ry="2.5" transform="translate(11.5 58)" fill="#afafaf"/>
    <g id="Grupo_874805" data-name="Grupo 874805" transform="translate(0)">
      <rect id="Rectángulo_291666" data-name="Rectángulo 291666" width="85" height="63" transform="translate(0.5)" fill="none"/>
    </g>
    <g id="arbol_1_" data-name="arbol(1)" transform="translate(17.5 2.756)">
      <path id="Trazado_595935" data-name="Trazado 595935" d="M108.168,259.36a6.739,6.739,0,1,0-3.253,10.394,5.571,5.571,0,1,0,3.253-10.394Z" transform="translate(-89.865 -227.818)" fill="#47821c"/>
      <path id="Trazado_595936" data-name="Trazado 595936" d="M229.995,237.357a2.4,2.4,0,0,1-2.4-2.4V205.021a2.4,2.4,0,0,1,4.8,0v29.934A2.4,2.4,0,0,1,229.995,237.357Z" transform="translate(-206.667 -179.868)" fill="#cc7400"/>
      <path id="Trazado_595937" data-name="Trazado 595937" d="M229.995,234.955V205.021a2.4,2.4,0,0,1,1.2-2.078,2.4,2.4,0,0,0-3.6,2.078v29.934a2.4,2.4,0,0,0,3.6,2.078A2.4,2.4,0,0,1,229.995,234.955Z" transform="translate(-206.667 -179.868)" fill="#aa6100"/>
      <path id="Trazado_595938" data-name="Trazado 595938" d="M246.429,93.4a8.044,8.044,0,1,0-15.475-1.219,9.721,9.721,0,1,0,11.235,11.287,5.545,5.545,0,1,0,4.24-10.068Z" transform="translate(-202.499 -73.364)" fill="#4e901e"/>
      <g id="Grupo_874807" data-name="Grupo 874807" transform="translate(20.399 9.279)">
        <path id="Trazado_595939" data-name="Trazado 595939" d="M242.78,91.136a13.355,13.355,0,0,0-2.99-8.437,8.039,8.039,0,0,0-8.836,9.481,9.721,9.721,0,0,0-1.874,18.631,11.656,11.656,0,0,0,2.945-6.55A13.407,13.407,0,0,0,242.78,91.136Z" transform="translate(-222.898 -82.643)" fill="#47821c"/>
      </g>
      <path id="Trazado_595941" data-name="Trazado 595941" d="M59.125,165.049a8.057,8.057,0,0,0-3.848.972,7.083,7.083,0,0,0-4.246-1.406c-.06,0-.119,0-.179,0a5.041,5.041,0,1,0-6.913,6.566c-.014.18-.023.362-.023.545a7.118,7.118,0,0,0,9.18,6.81,8.093,8.093,0,1,0,6.03-13.492Z" transform="translate(-41.227 -143.521)" fill="#5eac24"/>
      <g id="Grupo_874808" data-name="Grupo 874808" transform="translate(0 18.153)">
        <path id="Trazado_595942" data-name="Trazado 595942" d="M49.994,174.138a5.041,5.041,0,0,1,1.8-9.484,7.169,7.169,0,0,0-.767-.042c-.06,0-.119,0-.179,0a5.041,5.041,0,1,0-6.913,6.566c-.014.18-.023.362-.023.545a7.115,7.115,0,0,0,7.116,7.115c.094,0,.187,0,.28-.006a7.081,7.081,0,0,1-1.34-4.154C49.971,174.5,49.981,174.318,49.994,174.138Z" transform="translate(-41.228 -161.671)" fill="#4e901e"/>
        <path id="Trazado_595943" data-name="Trazado 595943" d="M87.019,165.049a8.057,8.057,0,0,0-3.847.972,7.084,7.084,0,0,0-4.246-1.406c-.06,0-.119,0-.179,0a5.044,5.044,0,0,0-6.1-2.714,12.165,12.165,0,0,0,14.7,9.592,13.275,13.275,0,0,0,7.622,3.139,8.09,8.09,0,0,0-7.954-9.588Z" transform="translate(-69.121 -161.674)" fill="#4e901e"/>
      </g>
      <path id="Trazado_595944" data-name="Trazado 595944" d="M127.409,9.116A8.028,8.028,0,1,0,111.438,7.6h-.012a8.546,8.546,0,1,0,3.745,16.228A9.781,9.781,0,1,0,127.409,9.116Z" transform="translate(-95.958)" fill="#6dc82a"/>
      <g id="Grupo_874809" data-name="Grupo 874809" transform="translate(6.923 0)">
        <path id="Trazado_595945" data-name="Trazado 595945" d="M115.618,12.491h.012a8.032,8.032,0,0,1,11.507-6.8,8.029,8.029,0,0,0-15.7,1.906h-.012a8.545,8.545,0,0,0-3.915,16.141,8.545,8.545,0,0,1,8.107-11.247Z" transform="translate(-102.881 -0.001)" fill="#5eac24"/>
      </g>
      <path id="Trazado_595947" data-name="Trazado 595947" d="M326.1,420.336a4.052,4.052,0,0,0-2.747-6.131,6.225,6.225,0,0,0-12.4.762c0,.111,0,.221.009.331a3.912,3.912,0,0,0-2.057,5.038Z" transform="translate(-278.601 -362.847)" fill="#6dc82a"/>
      <g id="Grupo_874811" data-name="Grupo 874811" transform="translate(30.024 45.895)">
        <path id="Trazado_595948" data-name="Trazado 595948" d="M314.973,417.179q-.009-.164-.009-.331a6.225,6.225,0,0,1,6.225-6.225c.156,0,.309.007.462.019a6.223,6.223,0,0,0-10.7,4.327c0,.111,0,.221.009.331a3.912,3.912,0,0,0-2.057,5.038h3.754A3.913,3.913,0,0,1,314.973,417.179Z" transform="translate(-308.625 -408.743)" fill="#5eac24"/>
      </g>
      <path id="Trazado_595949" data-name="Trazado 595949" d="M65.085,439.475a3.817,3.817,0,0,0-3.558-5.2,3.863,3.863,0,0,0-.553.04,5.835,5.835,0,1,0-10.344,5.159H65.085Z" transform="translate(-48.668 -382.022)" fill="#6dc82a"/>
      <g id="Grupo_874812" data-name="Grupo 874812" transform="translate(0.941 48.32)">
        <path id="Trazado_595950" data-name="Trazado 595950" d="M59.01,432.222a5.889,5.889,0,0,1,.767.051,5.834,5.834,0,0,0-9.147,7.2h2.72a5.835,5.835,0,0,1,5.66-7.253Z" transform="translate(-49.609 -430.342)" fill="#5eac24"/>
      </g>
    </g>
  </g>
</svg>
