<svg xmlns="http://www.w3.org/2000/svg" width="62" height="62" viewBox="0 0 62 62">
  <g id="Grupo_874899" data-name="Grupo 874899" transform="translate(-186 -3863)">
    <circle id="Elipse_4725" data-name="Elipse 4725" cx="31" cy="31" r="31" transform="translate(186 3863)" fill="#edf3ea"/>
    <path id="balance" d="M47.768,48.5a.636.636,0,0,0-.409-.279L31.1,44.937a3.172,3.172,0,0,0-4.974-1.008h0L9.95,40.65a.634.634,0,0,0-.744.477l-.583,2.489a.634.634,0,0,0,.492.767l7.562,1.525-3.48,9.28H11.1a.635.635,0,0,0-.635.635c0,3.15,3.133,5.713,6.983,5.713s6.983-2.563,6.983-5.713a.635.635,0,0,0-.635-.635h-2.1L18.34,46.243l7.031,1.419a3.168,3.168,0,0,0,.411.647,3.215,3.215,0,0,0,.551.528V68.518h-1.27a.635.635,0,0,0-.635.635v1.9H16.811a.635.635,0,0,0-.635.635v2.539a.635.635,0,0,0,.635.635H39.664a.635.635,0,0,0,.635-.635V71.693a.635.635,0,0,0-.635-.635H32.046v-1.9a.635.635,0,0,0-.635-.635h-1.27V48.837c.07-.053.138-.109.2-.167h0l7.94,1.609-3.507,9.351h-2.1a.635.635,0,0,0-.635.635c0,3.15,3.133,5.713,6.983,5.713s6.983-2.563,6.983-5.713a.635.635,0,0,0-.635-.635h-2.1l-3.384-9.025,6.631,1.343a.625.625,0,0,0,.126.013.636.636,0,0,0,.618-.49l.583-2.489a.633.633,0,0,0-.083-.488ZM23.1,56.457c-.4,2.15-2.782,3.809-5.655,3.809s-5.258-1.658-5.655-3.809Zm-2.762-1.27H14.552l2.893-7.715ZM25,46.292,10.008,43.268l.294-1.251,14.951,3.03ZM39.029,72.327V73.6H17.445v-1.27Zm-8.253-2.539v1.27H25.7v-1.27ZM27.6,68.518V49.474h1.27V68.518Zm2.5-21.828a1.9,1.9,0,0,1-3.768-.391,3.7,3.7,0,0,1,.04-.391,1.9,1.9,0,0,1,3.768.391,3.7,3.7,0,0,1-.04.391ZM44.685,60.9c-.4,2.15-2.782,3.809-5.655,3.809s-5.258-1.658-5.655-3.809Zm-2.762-1.27H36.136l2.893-7.715Zm4.25-9.048-14.951-3.03.252-1.245,14.992,3.024Z" transform="translate(188.394 3836.363)"/>
  </g>
</svg>
