<svg xmlns="http://www.w3.org/2000/svg" width="62" height="62" viewBox="0 0 62 62">
  <g id="Grupo_874898" data-name="Grupo 874898" transform="translate(-186 -3669)">
    <circle id="Elipse_4727" data-name="Elipse 4727" cx="31" cy="31" r="31" transform="translate(186 3669)" fill="#edf3ea"/>
    <path id="tierra" d="M26.146,11.614V8.5a6.576,6.576,0,0,0,2.178.385A4.355,4.355,0,0,0,30.5,8.318c2.178-1.263,2.41-4.159,2.417-4.282a.726.726,0,0,0-.406-.726C32.4,3.288,29.775,2.025,27.6,3.3a4.42,4.42,0,0,0-1.742,1.916A5.262,5.262,0,0,0,24.36,1.5C22.016-.842,18.626.247,18.481.3a.726.726,0,0,0-.457.457c-.051.145-1.14,3.535,1.2,5.872a5.291,5.291,0,0,0,3.847,1.5,7.121,7.121,0,0,0,1.626-.189v3.673a17.42,17.42,0,1,0,1.452,0Zm15.243,17.42a15.881,15.881,0,0,1-2.794,9.015l-.726-1.14.617-1.836a.726.726,0,0,0-.044-.559l-.726-1.452a.726.726,0,0,0-.682-.4H34.856a.726.726,0,0,0-.4.123L32.57,34.042l-1.5-.5L30.6,32.133,31.742,31a.769.769,0,0,0,.174-.283l.61-1.836,1.836-.573a.726.726,0,0,0,.494-.726V25.4a.726.726,0,0,0-.4-.646l-1.183-.6-.385-1.147,2.178-.537a.726.726,0,0,0,.515-.7V19.9l1.626-1.626A15.9,15.9,0,0,1,41.389,29.034ZM28.324,4.551a3.861,3.861,0,0,1,3.063-.094,3.876,3.876,0,0,1-1.611,2.606,3.288,3.288,0,0,1-2.083.327l1.713-.951a.728.728,0,1,0-.726-1.263l-1.633.915A3.172,3.172,0,0,1,28.324,4.551ZM20.252,5.6a4.42,4.42,0,0,1-.944-4.021,4.441,4.441,0,0,1,4.021.944,4,4,0,0,1,1.052,3.121L21.551,3.092a.726.726,0,0,0-.973,1.074l2.765,2.5A3.992,3.992,0,0,1,20.252,5.6Zm1.031,7.984,2.352,3.528-.726.363a.726.726,0,0,0-.363.878l.53,1.575-.421.21-1.082-1.082a.726.726,0,0,0-.508-.189H18.888a.726.726,0,0,0-.646.4l-.726,1.452a.726.726,0,0,0,.131.842l1.082,1.082-.385.762-1.234.624a.712.712,0,0,0-.276,1.045l1.118,1.684-.145.152-3.419.668a.727.727,0,0,0-.37,1.227l2.787,2.78.668,2.018a.726.726,0,0,0,.69.508h1.452a.864.864,0,0,0,.232,0l1.836-.617,1.887,1.256a.726.726,0,0,0,.4.087h1.089l1.815,2.417V39.2a.726.726,0,0,0,0,.174l.523,2h-1.8L22.843,40a.653.653,0,0,0-.152-.058L20.114,39.3l-.581-1.154a.646.646,0,0,0-.247-.276l-2.011-1.343L15.9,33.788a.646.646,0,0,0-.247-.276L13.48,32.061a.726.726,0,0,0-.668-.073L9.982,33.12a15.969,15.969,0,0,1,11.3-19.511ZM25.42,45a15.969,15.969,0,0,1-15-10.5l2.577-1.029,1.7,1.132,1.372,2.736a.646.646,0,0,0,.247.276l2.011,1.343.646,1.285a.726.726,0,0,0,.472.377l2.824.726L25.094,42.8a.726.726,0,0,0,.327.022h2.9a.72.72,0,0,0,.7-.9L28.3,39.108v-2.09a.726.726,0,0,0-.145-.436l-2.178-2.9a.726.726,0,0,0-.559-.29H24.186l-2-1.328a.726.726,0,0,0-.631-.087L19.5,32.7h-.813l-.523-1.72a.769.769,0,0,0-.174-.283l-2-1.945,2.323-.443a.726.726,0,0,0,.37-.2l.726-.726a.726.726,0,0,0,.087-.915l-.994-1.5.726-.363a.682.682,0,0,0,.319-.319l.726-1.452A.726.726,0,0,0,20.136,22l-1.089-1.1.29-.581h1.452l1.234,1.241a.726.726,0,0,0,.842.131l1.452-.726a.726.726,0,0,0,.363-.878l-.53-1.575.893-.45a.712.712,0,0,0,.276-1.045l-2.511-3.738a16.273,16.273,0,0,1,2.613-.218,15.9,15.9,0,0,1,10.764,4.181l-1.844,1.836a.726.726,0,0,0-.21.515v1.611l-2.352.566a.726.726,0,0,0-.515.936l.726,2.178a.726.726,0,0,0,.363.414l1.052.53v1.2L31.72,27.6a.726.726,0,0,0-.457.457L30.6,30.072,29.26,31.4a.726.726,0,0,0-.174.726l.726,2.178a.726.726,0,0,0,.457.457l2.178.726a.726.726,0,0,0,.631-.087l2-1.285h1.51l.392.784-.631,1.887a.726.726,0,0,0,.087.631l1.234,1.851A15.925,15.925,0,0,1,25.42,45Z" transform="translate(191.58 3676.28)"/>
  </g>
</svg>
