<svg xmlns="http://www.w3.org/2000/svg" xmlns:xlink="http://www.w3.org/1999/xlink" width="190" height="102" viewBox="0 0 190 102">
  <defs>
    <clipPath id="clip-path">
      <rect id="Rect치ngulo_291695" data-name="Rect치ngulo 291695" width="132.984" height="93.073" fill="#ba4f7e"/>
    </clipPath>
  </defs>
  <g id="Grupo_874894" data-name="Grupo 874894" transform="translate(-600 -4860)">
    <circle id="Elipse_5458" data-name="Elipse 5458" cx="51" cy="51" r="51" transform="translate(648 4860)" fill="#fff"/>
    <g id="Grupo_874831" data-name="Grupo 874831" transform="translate(-0.008 87.535)">
      <g id="Grupo_874830" data-name="Grupo 874830" transform="translate(633.008 4776.464)">
        <g id="Grupo_874829" data-name="Grupo 874829" clip-path="url(#clip-path)">
          <path id="Trazado_596015" data-name="Trazado 596015" d="M44.846,37.956q-1.8,4.057-3.61,8.114Q39.041,51,36.844,55.929a2.287,2.287,0,0,1-2.232,1.509q-16.148,0-32.3,0A2.321,2.321,0,0,1,.026,55.49a2.353,2.353,0,0,1,1.631-2.653,3.272,3.272,0,0,1,.9-.084q14.87-.006,29.741.01a.98.98,0,0,0,1.063-.692q5.21-11.782,10.465-23.544a2.388,2.388,0,0,1,3.04-1.555,2.587,2.587,0,0,1,1.7,2.409c.593,4.246,1.212,8.488,1.815,12.732q.941,6.625,1.87,13.252c.268,1.887.552,3.772.855,5.836.2-.342.322-.535.43-.735q4.927-9.125,9.847-18.255a2.525,2.525,0,0,1,1.582-1.366,2.368,2.368,0,0,1,2.977,1.912c.934,5.423,1.849,10.85,2.781,16.274Q72.007,66.46,73.3,73.885c.329,1.908.642,3.818.966,5.727.032.187.086.37.152.649.717-2.357,1.412-4.623,2.095-6.893q5.674-18.857,11.344-37.715Q92.929,18.8,98.011,1.948A2.415,2.415,0,0,1,100.2.011a2.452,2.452,0,0,1,2.408,1.578q5.674,11.749,11.339,23.5c.331.687.667,1.372.99,2.064a2.386,2.386,0,1,1-4.3,2.042q-4.551-9.423-9.088-18.851c-.2-.411-.4-.818-.677-1.377-.332,1.064-.632,2-.914,2.932Q94.31,30.7,88.66,49.493,82.392,70.318,76.111,91.139a2.363,2.363,0,0,1-2.576,1.928,2.532,2.532,0,0,1-2.158-2.191c-.728-4.531-1.538-9.049-2.318-13.573q-1.075-6.238-2.148-12.477-1.085-6.3-2.17-12.606c-.1-.571-.2-1.143-.325-1.871-.874,1.616-1.679,3.1-2.481,4.588q-3.993,7.4-7.986,14.8a2.389,2.389,0,0,1-3.894.658,3.577,3.577,0,0,1-.761-2.178q-.851-5.879-1.684-11.761c-.542-3.814-1.072-7.629-1.615-11.443-.334-2.347-.683-4.693-1.025-7.039l-.124-.016" transform="translate(0 -0.001)" fill="#ba4f7e"/>
          <path id="Trazado_596016" data-name="Trazado 596016" d="M380.176,147.557c1.282-1.051,2.466-2.083,3.716-3.027a6.89,6.89,0,0,1,3.36-1.522,8.047,8.047,0,0,1,7.2,2.776,10.891,10.891,0,0,1-.354,14.594c-4.443,4.507-8.934,8.967-13.4,13.453-.278.28-.473.447-.842.076-4.613-4.646-9.325-9.2-13.841-13.937-4.435-4.654-3.14-12.95,2.376-15.962,2.74-1.5,5.5-1.594,8.1.381,1.125.857,2.163,1.828,3.239,2.749.163.14.315.294.448.418" transform="translate(-264.104 -103.864)" fill="#ba4f7e"/>
        </g>
      </g>
    </g>
    <rect id="Rect치ngulo_291772" data-name="Rect치ngulo 291772" width="190" height="102" transform="translate(600 4860)" fill="none"/>
  </g>
</svg>
