<svg xmlns="http://www.w3.org/2000/svg" xmlns:xlink="http://www.w3.org/1999/xlink" width="190" height="102" viewBox="0 0 190 102">
  <defs>
    <clipPath id="clip-path">
      <rect id="Rect치ngulo_291694" data-name="Rect치ngulo 291694" width="90" height="76.725" fill="#6c9883"/>
    </clipPath>
  </defs>
  <g id="Grupo_874895" data-name="Grupo 874895" transform="translate(-390 -4860)">
    <g id="Grupo_874890" data-name="Grupo 874890">
      <circle id="Elipse_5457" data-name="Elipse 5457" cx="51" cy="51" r="51" transform="translate(434 4860)" fill="#fff"/>
      <g id="Grupo_874828" data-name="Grupo 874828" transform="translate(-165 134.539)">
        <g id="Grupo_874826" data-name="Grupo 874826" transform="translate(605 4738.46)">
          <g id="Grupo_874825" data-name="Grupo 874825" clip-path="url(#clip-path)">
            <path id="Trazado_596011" data-name="Trazado 596011" d="M45.027,167.545H88.211a6.47,6.47,0,0,1,.662.012,1.142,1.142,0,0,1,1.1,1.454,38.756,38.756,0,0,1-4.42,12.523A43.5,43.5,0,0,1,67.256,199a44.382,44.382,0,0,1-6.495,2.749c-.357.119-.491.271-.473.654.035.7.017,1.4.009,2.1a1.084,1.084,0,0,1-1.112,1.178c-.146.011-.294.006-.441.006H32.016c-.147,0-.3,0-.441-.007a1.1,1.1,0,0,1-1.093-1.147,16.177,16.177,0,0,1,.008-1.711c.04-.485-.117-.695-.594-.848a45.256,45.256,0,0,1-15.613-8.578A40.537,40.537,0,0,1,.161,169.826c-.054-.271-.107-.542-.142-.815a1.166,1.166,0,0,1,1.218-1.462c.184-.011.368,0,.552,0H45.027" transform="translate(0 -128.961)" fill="#6c9883"/>
            <path id="Trazado_596012" data-name="Trazado 596012" d="M99.556,35.013a9.691,9.691,0,0,0,.786-3.409,10.3,10.3,0,0,0-2.378-6.613c-.5-.657-1.074-1.259-1.6-1.9A15.428,15.428,0,0,1,93.231,9.41a23.358,23.358,0,0,1,3.39-8.032A3.056,3.056,0,0,1,100.8.467a2.19,2.19,0,0,1,.722,3.194,18.2,18.2,0,0,0-3.085,9.584,10.857,10.857,0,0,0,2.98,7.672,16.876,16.876,0,0,1,4.075,7.109,12.9,12.9,0,0,1,.018,6.494c-.06.239-.074.5-.456.5-1.8-.015-3.6-.007-5.5-.007" transform="translate(-71.432 0)" fill="#6c9883"/>
            <path id="Trazado_596013" data-name="Trazado 596013" d="M254.139,35.03c-.828,0-1.657-.009-2.485,0-.3,0-.442-.029-.3-.387,1.375-3.528.494-6.674-1.676-9.577-.627-.838-1.366-1.593-2.006-2.422A15.385,15.385,0,0,1,244.884,9.5a23.257,23.257,0,0,1,3.454-8.182,3.077,3.077,0,0,1,4.517-.549,2.151,2.151,0,0,1,.344,2.894,19.52,19.52,0,0,0-2.894,7.278,11.322,11.322,0,0,0,2.838,10.068,16.155,16.155,0,0,1,4.214,7.936,13.073,13.073,0,0,1-.188,5.635.508.508,0,0,1-.6.462c-.809-.029-1.62-.009-2.429-.009" transform="translate(-188.173 -0.016)" fill="#6c9883"/>
            <path id="Trazado_596014" data-name="Trazado 596014" d="M178.26,35.023h-2.484c-.213,0-.415.031-.281-.316,1.556-4.012.3-7.427-2.342-10.48a17.929,17.929,0,0,1-3.707-5.945,17.128,17.128,0,0,1,.133-10.837,23.6,23.6,0,0,1,2.866-6.059,3.067,3.067,0,0,1,4.087-.968,2.194,2.194,0,0,1,.818,3.246,18.549,18.549,0,0,0-3.074,9.14,10.838,10.838,0,0,0,2.888,8.027,16.994,16.994,0,0,1,4.253,7.615,13.156,13.156,0,0,1-.08,6.116c-.081.335-.224.485-.6.471-.827-.029-1.655-.009-2.483-.009" transform="translate(-129.797 -0.009)" fill="#6c9883"/>
          </g>
        </g>
      </g>
      <rect id="Rect치ngulo_291771" data-name="Rect치ngulo 291771" width="190" height="102" transform="translate(390 4860)" fill="none"/>
    </g>
  </g>
</svg>
