<svg xmlns="http://www.w3.org/2000/svg" xmlns:xlink="http://www.w3.org/1999/xlink" width="190" height="102" viewBox="0 0 190 102">
  <defs>
    <clipPath id="clip-path">
      <rect id="Rect치ngulo_291693" data-name="Rect치ngulo 291693" width="141.487" height="60.616" fill="#dfa386"/>
    </clipPath>
  </defs>
  <g id="Grupo_874889" data-name="Grupo 874889" transform="translate(-180 -4860)">
    <circle id="Elipse_5456" data-name="Elipse 5456" cx="51" cy="51" r="51" transform="translate(224 4860)" fill="#fff"/>
    <g id="Grupo_874822" data-name="Grupo 874822" transform="translate(0 93)">
      <g id="Grupo_874821" data-name="Grupo 874821" transform="translate(204 4788)">
        <g id="Grupo_874820" data-name="Grupo 874820" clip-path="url(#clip-path)">
          <path id="Trazado_596001" data-name="Trazado 596001" d="M28.333,68.152c1.372-.656,2.005-.458,2.774.8.615,1.01,1.241,2.013,1.864,3.018a2.278,2.278,0,0,0,2.19,1.17c1.345-.054,2.694-.029,4.041-.008a1.931,1.931,0,0,0,1.765-.9c.711-1.094,1.4-2.2,2.084-3.313.74-1.2,1.387-1.415,2.65-.822q1.643-5.363,3.286-10.721c.281-.915.514-1.849.858-2.74a5.752,5.752,0,0,1,3.878-3.918,3.6,3.6,0,0,1,.907-.089c3.347-.006,6.7.018,10.042-.014a4.389,4.389,0,0,1,3.364,1.469,7.175,7.175,0,0,1,1.68,2.878c1.243,4.068,2.512,8.128,3.731,12.2a5.459,5.459,0,0,1,.182,1.915,2.005,2.005,0,0,1-3.5.956,4.36,4.36,0,0,1-.679-1.351c-1.049-3.469-2.067-6.947-3.1-10.422a1.5,1.5,0,0,0-.2-.568c-.155-.174-.428-.4-.6-.364a.776.776,0,0,0-.42.562,2.153,2.153,0,0,0,.148.832q2.667,9.717,5.341,19.433c.058.213.106.429.186.757h-5.26v.824q0,6.919,0,13.838a2.571,2.571,0,0,1-2.022,2.515,2.538,2.538,0,0,1-2.933-1.547,3.54,3.54,0,0,1-.212-1.25c-.015-4.511-.009-9.021-.009-13.532v-.772H59.061v.735q0,6.8,0,13.594a2.6,2.6,0,1,1-5.179-.011q0-6.766,0-13.532v-.833H48.6c.451-1.648.866-3.174,1.286-4.7q2.149-7.8,4.3-15.6a1.966,1.966,0,0,0,.1-.835.733.733,0,0,0-.436-.482c-.141-.04-.4.143-.523.3a1.832,1.832,0,0,0-.24.621Q51.541,63.452,50,68.665q-.035.117-.073.233c-.664,2.016-2.279,2.451-3.877,1.012Q45.02,71.778,44,73.633c-.62,1.125-1.226,2.258-1.868,3.37a3.758,3.758,0,0,0-.34,2.9c.6,2.367,1.265,4.718,1.9,7.076.053.195.091.394.152.665H41.681v.778c0,1.837-.057,3.677.02,5.51a2.1,2.1,0,0,1-2.024,2.21A2.055,2.055,0,0,1,37.6,93.917c-.008-1.9,0-3.8,0-5.695,0-.16-.017-.32-.028-.515H36.527v.675c0,1.857,0,3.715,0,5.572a2.047,2.047,0,1,1-4.086,0c0-2.061,0-4.121,0-6.259H30.265c.268-1.012.5-1.929.752-2.842.427-1.571.887-3.134,1.283-4.713a4.288,4.288,0,0,0-.386-3.305c-1.284-2.247-2.517-4.522-3.79-6.82a1.492,1.492,0,0,0-.2.147,2.058,2.058,0,0,1-3.654-1.475q0-5.052,0-10.1c0-.653.009-1.307-.015-1.959s-.294-.924-.816-.925c-.634,0-.685.469-.734.924a6.766,6.766,0,0,0-.011.734q0,17.911,0,35.821a2.9,2.9,0,0,1-5.715.722,4.025,4.025,0,0,1-.083-.969q-.007-10.226,0-20.452c0-.5.011-1.022-.665-1.113a.693.693,0,0,0-.858.652,3.531,3.531,0,0,0-.01.55q0,10.2,0,20.39a2.912,2.912,0,0,1-5.8.495c-.017-.244-.009-.49-.009-.735q0-17.818,0-35.637a4.241,4.241,0,0,0-.082-.846c-.074-.358-.309-.643-.685-.516a1.58,1.58,0,0,0-.739.587c-.118.172-.055.475-.055.719,0,3.817-.008,7.634,0,11.45a2.337,2.337,0,0,1-1,2.168.565.565,0,0,0-.2.341Q4.512,83.015,2.251,95.051c-.158.841-.692,1.276-1.365,1.134s-1-.743-.846-1.576Q2.278,82.786,4.5,70.959a1.718,1.718,0,0,0-.169-.765A4.579,4.579,0,0,1,3.9,68.957c-.021-4.98-.066-9.961.031-14.939a6.706,6.706,0,0,1,6.391-6.195q5.786-.067,11.573,0a6.8,6.8,0,0,1,6.438,6.551c.013,4.368,0,8.736,0,13.1v.674" transform="translate(0 -35.596)" fill="#dfa386"/>
          <path id="Trazado_596002" data-name="Trazado 596002" d="M464.154,75.209q0-8.909,0-17.819a2.815,2.815,0,0,0-.1-1.025c-.1-.247-.413-.576-.622-.569a1.162,1.162,0,0,0-.77.509,1.618,1.618,0,0,0-.1.833c-.005,3.858,0,7.715-.006,11.573a2.052,2.052,0,1,1-4.09.108c-.013-2.164,0-4.327,0-6.491q0-3.674,0-7.348a6.868,6.868,0,0,1,7.092-7.11q5.3,0,10.593,0a6.844,6.844,0,0,1,6.818,6.759c.02,4.735.008,9.47,0,14.206a2.036,2.036,0,0,1-1.725,2.121,2,2,0,0,1-2.289-1.48,3.43,3.43,0,0,1-.069-.849q-.006-5.848,0-11.7c0-.494-.053-.961-.6-1.152a.668.668,0,0,0-.936.591,5.734,5.734,0,0,0-.035.916q0,17.849,0,35.7a2.928,2.928,0,0,1-2.255,3.085,2.85,2.85,0,0,1-3.551-2.773c-.015-3.266,0-6.531,0-9.8q0-5.327,0-10.654a7.009,7.009,0,0,0-.067-.852c-.058-.46-.366-.6-.785-.579a.638.638,0,0,0-.666.653c-.019.244-.016.489-.016.734q0,10.1,0,20.207a2.922,2.922,0,0,1-2.338,3.082,2.848,2.848,0,0,1-3.464-2.7c-.032-1.632-.008-3.266-.008-4.9V75.209" transform="translate(-341.487 -35.656)" fill="#dfa386"/>
          <path id="Trazado_596003" data-name="Trazado 596003" d="M318.335,87.194h-5.227c-.016.347-.038.607-.039.868q0,6.643-.006,13.287a4.647,4.647,0,0,1-.116,1.21,2.541,2.541,0,0,1-2.879,1.82,2.635,2.635,0,0,1-2.194-2.751c-.016-2.449,0-4.9,0-7.347V87.26h-1.322v.722c0,4.551-.04,9.1.021,13.654a2.646,2.646,0,0,1-2.486,2.767,2.6,2.6,0,0,1-2.7-2.7c-.024-.816-.005-1.633-.005-2.449q0-5.572,0-11.144v-.892h-5.227c.073-.328.11-.541.168-.749q2.664-9.686,5.33-19.372a1.919,1.919,0,0,0,.168-.765,2.785,2.785,0,0,0-.419-.771c-.218.17-.558.3-.635.518-.36,1.037-.649,2.1-.962,3.152-.766,2.576-1.526,5.154-2.306,7.725a4.457,4.457,0,0,1-.526,1.16,2.02,2.02,0,0,1-3.691-1.136,6.667,6.667,0,0,1,.277-1.735q1.857-6.137,3.768-12.257a6.467,6.467,0,0,1,2.391-3.324,3.917,3.917,0,0,1,2.4-.777q5.082.02,10.164,0a4.16,4.16,0,0,1,2.986,1.19,7.054,7.054,0,0,1,1.955,3.125c1.255,4.129,2.535,8.251,3.786,12.381a4.562,4.562,0,0,1,.209,1.438,1.962,1.962,0,0,1-1.69,1.962,1.92,1.92,0,0,1-2.145-1.046,5.837,5.837,0,0,1-.47-1.187c-1.028-3.432-2.04-6.869-3.07-10.3-.121-.4-.162-1.032-.794-.854s-.423.759-.3,1.2q2.679,9.776,5.379,19.547c.069.25.127.5.215.855" transform="translate(-218.451 -43.862)" fill="#dfa386"/>
          <path id="Trazado_596004" data-name="Trazado 596004" d="M406.78,148.649v.651q0,7.838,0,15.676a2.14,2.14,0,1,1-4.274.083c-.012-1.98,0-3.96,0-5.94,0-.184,0-.367,0-.551-.006-.395-.066-.767-.579-.753-.474.013-.528.363-.527.737,0,.673,0,1.347,0,2.02,0,1.49.013,2.98-.006,4.47a2.114,2.114,0,0,1-1.393,2.1,2.142,2.142,0,0,1-2.305-.529,2.571,2.571,0,0,1-.6-1.872q.006-7.715,0-15.431v-.671l-.12-.056a3.522,3.522,0,0,0-.254.508c-.651,2.057-1.292,4.117-1.938,6.176a1.375,1.375,0,0,1-1.572,1.112,1.312,1.312,0,0,1-1.062-1.837c.5-1.484,1.064-2.949,1.655-4.4.638-1.564,1.317-3.113,2.015-4.651a3.47,3.47,0,0,1,3.652-2.2c1.893.093,3.793.025,5.691.03a3.433,3.433,0,0,1,3.456,2.405c1.013,2.6,2.061,5.186,3.094,7.777a1.575,1.575,0,0,1-.876,2.119,1.031,1.031,0,0,1-1.557-.647c-.763-2.018-1.493-4.049-2.236-6.075-.034-.092-.07-.183-.105-.274l-.152.02" transform="translate(-292.018 -106.729)" fill="#dfa386"/>
          <path id="Trazado_596005" data-name="Trazado 596005" d="M47.988,10.342a5.146,5.146,0,0,1-5.2-5.141,5.2,5.2,0,1,1,5.2,5.141" transform="translate(-31.874 0)" fill="#dfa386"/>
          <path id="Trazado_596006" data-name="Trazado 596006" d="M491.416,10.342a5.171,5.171,0,1,1,0-10.342,5.14,5.14,0,0,1,5.145,5.181,5.087,5.087,0,0,1-5.142,5.161" transform="translate(-362.17 0)" fill="#dfa386"/>
          <path id="Trazado_596007" data-name="Trazado 596007" d="M333.632,21.351a4.853,4.853,0,0,1-4.886-4.894,4.911,4.911,0,1,1,9.821.043,4.871,4.871,0,0,1-4.935,4.851" transform="translate(-244.87 -8.589)" fill="#dfa386"/>
          <path id="Trazado_596008" data-name="Trazado 596008" d="M224.659,16.495a4.9,4.9,0,0,1-9.791-.036,4.9,4.9,0,1,1,9.791.036" transform="translate(-160.047 -8.587)" fill="#dfa386"/>
          <path id="Trazado_596009" data-name="Trazado 596009" d="M418.9,113.644a4.085,4.085,0,1,1,4.085-4.068,4.081,4.081,0,0,1-4.085,4.068" transform="translate(-308.961 -78.564)" fill="#dfa386"/>
          <path id="Trazado_596010" data-name="Trazado 596010" d="M133.273,113.643a4.085,4.085,0,1,1,4.115-4.036,4.086,4.086,0,0,1-4.115,4.036" transform="translate(-96.229 -78.563)" fill="#dfa386"/>
        </g>
      </g>
    </g>
    <rect id="Rect치ngulo_291770" data-name="Rect치ngulo 291770" width="190" height="102" transform="translate(180 4860)" fill="none"/>
  </g>
</svg>
