<svg xmlns="http://www.w3.org/2000/svg" xmlns:xlink="http://www.w3.org/1999/xlink" width="190" height="102" viewBox="0 0 190 102">
  <defs>
    <clipPath id="clip-path">
      <rect id="Rect치ngulo_291698" data-name="Rect치ngulo 291698" width="64.016" height="87.896" fill="#6c9883"/>
    </clipPath>
  </defs>
  <g id="Grupo_874891" data-name="Grupo 874891" transform="translate(-1230 -4860)">
    <circle id="Elipse_5461" data-name="Elipse 5461" cx="51" cy="51" r="51" transform="translate(1274 4860)" fill="#fff"/>
    <g id="Grupo_874840" data-name="Grupo 874840" transform="translate(1293.56 4868.122)">
      <g id="Grupo_874839" data-name="Grupo 874839" clip-path="url(#clip-path)">
        <path id="Trazado_596026" data-name="Trazado 596026" d="M19.584,75.372h4.7c.719,0,.711,0,.652-.692q-.37-4.373-.732-8.746a3.125,3.125,0,0,1-.036-.4c.021-.435-.2-.518-.6-.517-3.974.014-7.947.009-11.921.008-.96,0-1.076-.116-1.235-1.083Q9.129,56.132,7.831,48.322,6.151,38.15,4.476,27.976,3.2,20.22,1.906,12.466.975,6.846.047,1.226C-.114.237.106,0,1.121,0H62.894c1.033,0,1.232.253,1.073,1.276q-1.345,8.669-2.678,17.34-1.4,9.035-2.807,18.069-1.511,9.768-3.011,19.537-.621,4.025-1.25,8.049c-.093.594-.307.756-.989.756-4.05,0-8.1.011-12.149-.011-.563,0-.76.116-.8.727-.208,2.9-.482,5.793-.733,8.688,0,.038-.011.075-.014.113-.064,1.03-.074.822.769.823,1.311,0,2.623-.026,3.934-.034.182,0,.378-.06.552.069-.044.208-.221.3-.35.434q-5.885,5.892-11.767,11.786c-.346.348-.523.378-.888.011q-5.867-5.911-11.769-11.787c-.117-.117-.223-.244-.431-.474M31.976,2.78H8.31c-1.692,0-3.384.008-5.075-.01-.382,0-.509.1-.432.486Q3.6,7.2,4.379,11.15c.24,1.217.443,2.441.7,3.655.047.222-.018.588.442.587a18.135,18.135,0,0,0,2.6-.167A31.366,31.366,0,0,0,15.426,13.2,13.842,13.842,0,0,1,26,13.286c2.326.881,4.592,1.923,6.99,2.616A26.008,26.008,0,0,0,42.916,17,38.522,38.522,0,0,0,53.3,14.071a8.59,8.59,0,0,1,5.844-.6c.325.1.4,0,.438-.28.151-1.005.315-2.008.474-3.012.35-2.21.691-4.42,1.056-6.627.128-.779.154-.776-.622-.776H31.976m.168,50.953c.436,0,.872.015,1.307,0a9.685,9.685,0,0,0,8.915-7.171,11.938,11.938,0,0,0-1.619-9.394c-2.608-4.349-5.492-8.524-8.274-12.763-.212-.324-.316-.331-.534,0-2.725,4.118-5.475,8.219-8.086,12.411a13.558,13.558,0,0,0-2.087,5.849,9.629,9.629,0,0,0,4.08,9.329,9.453,9.453,0,0,0,6.3,1.744" transform="translate(0 0)" fill="#6c9883"/>
      </g>
    </g>
    <rect id="Rect치ngulo_291775" data-name="Rect치ngulo 291775" width="190" height="102" transform="translate(1230 4860)" fill="none"/>
  </g>
</svg>
