<svg xmlns="http://www.w3.org/2000/svg" xmlns:xlink="http://www.w3.org/1999/xlink" width="190" height="102" viewBox="0 0 190 102">
  <defs>
    <clipPath id="clip-path">
      <rect id="Rect치ngulo_291696" data-name="Rect치ngulo 291696" width="98.785" height="80.753" fill="#acb0c6"/>
    </clipPath>
  </defs>
  <g id="Grupo_874893" data-name="Grupo 874893" transform="translate(-810 -4860)">
    <circle id="Elipse_5459" data-name="Elipse 5459" cx="51" cy="51" r="51" transform="translate(854 4860)" fill="#fff"/>
    <g id="Grupo_874836" data-name="Grupo 874836" transform="translate(856 4870.16)">
      <g id="Grupo_874835" data-name="Grupo 874835" clip-path="url(#clip-path)">
        <path id="Trazado_596017" data-name="Trazado 596017" d="M172.114,90.419v-.694q0-24.546-.009-49.092a.91.91,0,0,1,.511-.924q15.378-8.857,30.742-17.738c.2-.114.4-.216.692-.37.012.278.029.48.029.681q0,28.958.013,57.917a.723.723,0,0,1-.627.834q-15.363,4.595-30.716,9.222c-.182.055-.367.1-.633.165" transform="translate(-130.166 -16.337)" fill="#acb0c6"/>
        <path id="Trazado_596018" data-name="Trazado 596018" d="M27.721,21.48c.292.155.5.254.692.367Q43.68,30.662,58.952,39.469a.961.961,0,0,1,.563.958Q59.5,65,59.5,89.578v.68a3.076,3.076,0,0,1-.452-.057Q43.615,85.55,28.178,80.9c-.321-.1-.517-.237-.46-.6a2.267,2.267,0,0,0,0-.35V21.48Z" transform="translate(-20.956 -16.246)" fill="#acb0c6"/>
        <path id="Trazado_596019" data-name="Trazado 596019" d="M77.248,20.731c1.214.962,2.295,1.812,3.364,2.678a.606.606,0,0,1,.126.369,4.388,4.388,0,0,1,.007.525q0,29.514.015,59.028a.988.988,0,0,1-.848,1.155Q65.44,89,50.992,93.593c-2.706.855-5.408,1.723-8.117,2.567a6.693,6.693,0,0,1-1.2.2c-3.035.365-5.832-.68-8.673-1.466Q16.82,90.414.631,85.947A.718.718,0,0,1,0,85.108Q.018,54.6,0,24.094a1.086,1.086,0,0,1,.469-.983c.98-.734,1.929-1.51,3-2.358V83.3l7.482,2.089c9.024,2.52,18.039,5.073,27.08,7.529a8.386,8.386,0,0,0,4.729-.071c11.272-3.612,22.531-7.266,33.8-10.886a.839.839,0,0,0,.7-.97q-.023-29.66-.013-59.32v-.939" transform="translate(0 -15.679)" fill="#acb0c6"/>
        <path id="Trazado_596020" data-name="Trazado 596020" d="M374.408,44.206h7.548v.631q0,25.8-.014,51.593a6.28,6.28,0,0,1-.33,1.643q-1.581,5.61-3.187,11.214a1.149,1.149,0,0,1-.321.56q-.629-2.2-1.257-4.407c-.769-2.69-1.542-5.379-2.3-8.072a3.41,3.41,0,0,1-.13-.916q-.009-25.826-.005-51.651v-.595" transform="translate(-283.172 -33.434)" fill="#acb0c6"/>
        <path id="Trazado_596021" data-name="Trazado 596021" d="M381.943,7.83h-7.5a4.194,4.194,0,0,1-.05-.453c0-1.226-.012-2.452,0-3.677a3.772,3.772,0,0,1,7.544.035c.005,1.341,0,2.683,0,4.095" transform="translate(-283.159 0)" fill="#acb0c6"/>
      </g>
    </g>
    <rect id="Rect치ngulo_291773" data-name="Rect치ngulo 291773" width="190" height="102" transform="translate(810 4860)" fill="none"/>
  </g>
</svg>
