<svg xmlns="http://www.w3.org/2000/svg" xmlns:xlink="http://www.w3.org/1999/xlink" width="190" height="102" viewBox="0 0 190 102">
  <defs>
    <clipPath id="clip-path">
      <rect id="Rect치ngulo_291697" data-name="Rect치ngulo 291697" width="66.628" height="89.91" fill="#dfa386"/>
    </clipPath>
  </defs>
  <g id="Grupo_874892" data-name="Grupo 874892" transform="translate(-1020 -4860)">
    <circle id="Elipse_5460" data-name="Elipse 5460" cx="51" cy="51" r="51" transform="translate(1064 4860)" fill="#fff"/>
    <g id="Grupo_874838" data-name="Grupo 874838" transform="translate(1081 4866)">
      <g id="Grupo_874837" data-name="Grupo 874837" clip-path="url(#clip-path)">
        <path id="Trazado_596023" data-name="Trazado 596023" d="M58.994,13.807l-8.857,8.864c.719,1.3,1.549,2.647,2.224,4.065A27.07,27.07,0,0,1,54.932,40.1,27.56,27.56,0,0,1,33.908,65.178c-.487.117-.979.211-1.472.3a.445.445,0,0,0-.434.515c.013,2.381.017,4.763,0,7.144,0,.474.245.494.6.493q3.544-.008,7.088,0c.833,0,.833,0,.833.836,0,2.2-.016,4.39.011,6.585.007.55-.19.706-.713.7-2.344-.019-4.688-.008-7.032-.008h-.738c-.013.248-.035.462-.035.676q0,3.376,0,6.753c0,.671-.067.735-.734.736q-3.348,0-6.7,0c-.668,0-.724-.055-.724-.739q0-3.348,0-6.7v-.729h-.722c-2.363,0-4.725-.01-7.088.008-.521,0-.718-.147-.711-.7q.042-3.376,0-6.753c-.006-.523.17-.68.67-.677,2.4.015,4.8-.006,7.2.015.5,0,.669-.14.662-.66-.027-2.232-.012-4.465-.012-6.7v-.413C10.7,63.061,2.538,55.413.172,42.007c-1.1-11.466,3.091-20.49,12.672-26.859a27.347,27.347,0,0,1,31.5,1.505l9.028-9.028h-.54q-3.516,0-7.032,0c-.763,0-.8-.036-.807-.773q-.007-3.07,0-6.139c0-.673.05-.713.743-.713H65.88c.732,0,.747.015.747.755q0,10.046,0,20.092c0,.736-.02.755-.749.756-2.065,0-4.13-.016-6.195.011-.548.007-.7-.182-.7-.71.022-2.195.009-4.39.009-6.585v-.512M27.914,58.593A20.166,20.166,0,1,0,7.392,40.052a20.213,20.213,0,0,0,20.522,18.54" transform="translate(0 0)" fill="#dfa386"/>
        <path id="Trazado_596024" data-name="Trazado 596024" d="M76.9,129.143q5.886,0,11.773,0c.749,0,.786.038.787.792,0,1.692-.014,3.385.009,5.077.007.5-.16.69-.672.69q-11.913-.015-23.825,0c-.527,0-.721-.171-.714-.706.024-1.711,0-3.422.011-5.133,0-.673.056-.72.746-.72q5.943,0,11.885,0" transform="translate(-49.307 -99.091)" fill="#dfa386"/>
        <path id="Trazado_596025" data-name="Trazado 596025" d="M76.9,174.682q5.887,0,11.774,0c.749,0,.786.038.787.792,0,1.693-.014,3.385.009,5.078.007.505-.161.69-.672.689q-11.913-.015-23.827,0c-.531,0-.719-.18-.712-.711q.034-2.567,0-5.133c-.009-.57.207-.728.756-.726,3.962.018,7.924.01,11.886.01" transform="translate(-49.306 -134.025)" fill="#dfa386"/>
      </g>
    </g>
    <rect id="Rect치ngulo_291774" data-name="Rect치ngulo 291774" width="190" height="102" transform="translate(1020 4860)" fill="none"/>
  </g>
</svg>
