<svg xmlns="http://www.w3.org/2000/svg" xmlns:xlink="http://www.w3.org/1999/xlink" width="190" height="102" viewBox="0 0 190 102">
  <defs>
    <clipPath id="clip-path">
      <rect id="Rect치ngulo_291706" data-name="Rect치ngulo 291706" width="80.281" height="84.913" fill="#acb0c6"/>
    </clipPath>
  </defs>
  <g id="Grupo_874887" data-name="Grupo 874887" transform="translate(-390 -5077)">
    <circle id="Elipse_5462" data-name="Elipse 5462" cx="51" cy="51" r="51" transform="translate(434 5077)" fill="#fff"/>
    <g id="Grupo_874850" data-name="Grupo 874850" transform="translate(445 5086)">
      <g id="Grupo_874849" data-name="Grupo 874849" clip-path="url(#clip-path)">
        <path id="Trazado_596040" data-name="Trazado 596040" d="M218.628,103.967q0,15.542,0,31.084c0,1.35-.271,1.627-1.606,1.627q-8.182,0-16.364,0c-1.319,0-1.605-.294-1.605-1.63q0-22.147-.011-44.293a3.93,3.93,0,0,1,1.279-3.085c5.526-5.214,11.015-10.466,16.523-15.7.355-.337.716-.836,1.285-.6.6.247.5.863.5,1.381q0,15.608,0,31.215" transform="translate(-144.493 -51.767)" fill="#acb0c6"/>
        <path id="Trazado_596041" data-name="Trazado 596041" d="M130.274,178.9q0,9.625,0,19.25c0,1.258-.291,1.556-1.54,1.557q-8.245,0-16.49,0c-1.22,0-1.5-.289-1.5-1.509q0-19.086,0-38.171c0-.471-.124-1.124.446-1.23a1.709,1.709,0,0,1,1.222.554q3.63,3.614,7.184,7.3c.436.451.691.411,1.1-.009q3.816-3.894,7.671-7.749c.4-.4.8-.954,1.437-.7s.458.927.459,1.453q.012,9.625.005,19.25" transform="translate(-80.387 -114.794)" fill="#acb0c6"/>
        <path id="Trazado_596042" data-name="Trazado 596042" d="M25.749,31.029a4.716,4.716,0,0,1-.46.642Q16.1,40.88,6.89,50.078c-.759.759-1.54,1.5-2.289,2.263a.587.587,0,0,1-.99,0Q1.956,50.655.266,49c-.333-.328-.371-.623-.012-.944.1-.087.185-.187.278-.28l24.63-24.63c.747-.747.749-.747,1.5.006Q32.938,29.425,39.21,35.7c.17.17.313.366.419.492L69.024,6.8c-.8-.8-1.706-1.675-2.574-2.59a4.1,4.1,0,0,1-.5-.909,4.278,4.278,0,0,1,.888-.435c4.091-.939,8.186-1.858,12.281-2.781,1.043-.235,1.316.012,1.1,1.041q-1.327,6.223-2.685,12.439a3.818,3.818,0,0,1-.459.884,3.815,3.815,0,0,1-.86-.482c-.91-.88-1.784-1.8-2.85-2.881a5.393,5.393,0,0,1-.533.79Q56.706,28.008,40.577,44.13c-.8.8-.8.8-1.594,0q-6.227-6.227-12.451-12.458a5.1,5.1,0,0,1-.466-.635l-.317-.01" transform="translate(0 0)" fill="#acb0c6"/>
        <path id="Trazado_596043" data-name="Trazado 596043" d="M40.295,170.172q0,10.352,0,20.7c0,1.2-.307,1.5-1.526,1.5q-8.249,0-16.5,0c-1.239,0-1.552-.318-1.552-1.559,0-7.8.009-15.6-.01-23.4a3.982,3.982,0,0,1,1.37-3.112c5.486-5.162,10.927-10.371,16.386-15.561.389-.37.769-.918,1.388-.628.574.269.437.9.438,1.413q0,10.319,0,20.638" transform="translate(-15.034 -107.468)" fill="#acb0c6"/>
      </g>
    </g>
    <rect id="Rect치ngulo_291780" data-name="Rect치ngulo 291780" width="190" height="102" transform="translate(390 5077)" fill="none"/>
  </g>
</svg>
