<svg xmlns="http://www.w3.org/2000/svg" xmlns:xlink="http://www.w3.org/1999/xlink" width="190" height="102" viewBox="0 0 190 102">
  <defs>
    <clipPath id="clip-path">
      <rect id="Rect치ngulo_291707" data-name="Rect치ngulo 291707" width="87.157" height="87.896" fill="#dfa386"/>
    </clipPath>
  </defs>
  <g id="Grupo_874886" data-name="Grupo 874886" transform="translate(-600 -5077)">
    <circle id="Elipse_5463" data-name="Elipse 5463" cx="51" cy="51" r="51" transform="translate(644 5077)" fill="#fff"/>
    <g id="Grupo_874852" data-name="Grupo 874852" transform="translate(651 5084)">
      <g id="Grupo_874851" data-name="Grupo 874851" clip-path="url(#clip-path)">
        <path id="Trazado_596044" data-name="Trazado 596044" d="M66.167,25.14c0,3.695.016,7.39-.016,11.084a1.192,1.192,0,0,0,.711,1.2C73.265,41.1,79.65,44.8,86.053,48.479a1.931,1.931,0,0,1,1.1,1.878q-.042,11.789,0,23.579a1.937,1.937,0,0,1-1.1,1.882Q75.9,81.649,65.772,87.53a2.1,2.1,0,0,1-2.364-.07c-6.383-3.71-12.785-7.387-19.168-11.095a1.084,1.084,0,0,0-1.267,0Q33.282,82,23.571,87.595a1.766,1.766,0,0,1-1.946.018Q11.286,81.627.932,75.67A1.916,1.916,0,0,1,.014,73.8q0-4.232,0-8.464c0-4.859.017-9.718-.013-14.577a2.464,2.464,0,0,1,1.395-2.422c6.338-3.606,12.64-7.277,18.965-10.907a1.258,1.258,0,0,0,.735-1.258c-.024-7.389-.006-14.779-.027-22.168A2,2,0,0,1,22.2,12.056Q32.354,6.227,42.478.341a2.044,2.044,0,0,1,2.258,0Q54.895,6.234,65.082,12.08a1.985,1.985,0,0,1,1.09,1.909c-.013,3.717-.006,7.434-.006,11.151M21.037,83.806c.023-.226.04-.313.04-.4q0-9.94.013-19.881c0-.48-.252-.657-.6-.855q-8.429-4.86-16.853-9.728c-.166-.1-.346-.166-.611-.292v.743c0,6.425.008,12.851-.014,19.276a1.144,1.144,0,0,0,.676,1.15q7.6,4.351,15.174,8.745c.692.4,1.386.794,2.17,1.243m45.129-.03c.239-.115.361-.164.474-.229q8.543-4.928,17.09-9.847a.948.948,0,0,0,.485-.988q-.011-9.67-.005-19.339v-.738c-.278.136-.458.211-.625.308q-8.457,4.875-16.917,9.744a.956.956,0,0,0-.509.977q.015,9.737.007,19.474v.639m-19.524-33.8c.294.189.473.314.661.423q8.4,4.852,16.789,9.711a1.011,1.011,0,0,0,1.165-.045q7.373-4.275,14.762-8.525c.846-.488,1.688-.985,2.6-1.518-.211-.15-.342-.261-.489-.346q-8.486-4.9-16.968-9.8a.935.935,0,0,0-1.089.029q-5.392,3.143-10.8,6.251l-6.626,3.824m-4.515,2.606L25.571,62.146,42.127,71.7ZM42.111,47.4v-19.1L25.572,37.858,42.111,47.4M61.65,37.858,45.118,28.313V47.4L61.65,37.858M63.089,16.2,46.606,25.713l16.484,9.519ZM24.137,83.8l16.48-9.512-16.48-9.516Zm.021-67.59V35.218l16.458-9.507-16.458-9.5" transform="translate(0 0)" fill="#dfa386"/>
      </g>
    </g>
    <rect id="Rect치ngulo_291779" data-name="Rect치ngulo 291779" width="190" height="102" transform="translate(600 5077)" fill="none"/>
  </g>
</svg>
