<svg xmlns="http://www.w3.org/2000/svg" xmlns:xlink="http://www.w3.org/1999/xlink" width="190" height="102" viewBox="0 0 190 102">
  <defs>
    <clipPath id="clip-path">
      <rect id="Rect치ngulo_291717" data-name="Rect치ngulo 291717" width="89.649" height="83.997" fill="#acb0c6"/>
    </clipPath>
  </defs>
  <g id="Grupo_874877" data-name="Grupo 874877" transform="translate(-810 -5293)">
    <g id="Grupo_874881" data-name="Grupo 874881">
      <circle id="Elipse_5469" data-name="Elipse 5469" cx="51" cy="51" r="51" transform="translate(854 5293)" fill="#fff"/>
      <g id="Grupo_874868" data-name="Grupo 874868" transform="translate(118 246)">
        <g id="Grupo_874867" data-name="Grupo 874867" transform="translate(742 5056)">
          <g id="Grupo_874866" data-name="Grupo 874866" clip-path="url(#clip-path)">
            <path id="Trazado_596059" data-name="Trazado 596059" d="M60.051,79.1V87.65c.349.034.671.086.993.092,3.289.067,6.583.041,9.866.215a52.586,52.586,0,0,0,8.716-.535c1.265-.142,2.529-.305,3.8-.394.5-.035.614-.218.6-.678-.026-1.254-.014-2.51-.007-3.765a1.361,1.361,0,0,1,1.49-1.5q7.375-.008,14.751,0a1.375,1.375,0,0,1,1.543,1.517q.02,7.314,0,14.628a1.41,1.41,0,0,1-1.589,1.551q-7.314.01-14.627,0A1.418,1.418,0,0,1,84.02,97.16c0-1.4,0-2.792,0-4.241-1.07-.126-2.1-.255-3.137-.369-2.04-.225-4.077-.54-6.124-.635-2.111-.1-4.232.014-6.348.05q-4.595.078-9.189.18-8.632.181-17.264.371c-3.576.079-7.151.18-10.728.239-2.135.035-4.27.006-6.471.006a1.756,1.756,0,0,1-.053-.354c-.005-1.625.006-3.251-.01-4.876,0-.47.137-.636.643-.622,3.987.11,7.974.191,11.961.277q5.951.129,11.9.247c.879.017,1.758,0,2.679,0v-8.12c-.868-.121-1.753-.251-2.64-.366a29.975,29.975,0,0,1-12.554-4.771c-2.084-1.35-4.264-2.554-6.421-3.786-.653-.373-1.378-.62-2.057-1.011.581.1,1.16.212,1.744.287A17.418,17.418,0,0,0,38.53,69.1a22.629,22.629,0,0,0,3.505-1.9c1.618-.975,3.154-2.095,4.811-3a24.688,24.688,0,0,1,3.333-1.278c-.838-.2-1.886-.4-2.894-.715a15.3,15.3,0,0,1-9.315-8.522,40.33,40.33,0,0,1-2.479-8.037c-.682-2.784-1.441-5.558-2.356-8.272A8.643,8.643,0,0,0,28.533,32a1.288,1.288,0,0,1-.225-.17q.013-.1.026-.2c1.671-.033,3.344-.146,5.012-.085,7.57.279,13.658,3.768,18.949,8.9a32.311,32.311,0,0,0,5.848,4.895A14.189,14.189,0,0,0,64.878,47.5a13.136,13.136,0,0,0,9.013-3.244c1.815-1.482,3.525-3.091,5.339-4.574a13.494,13.494,0,0,1,4.737-2.7,4.714,4.714,0,0,1,5.138,1.447c.721.782,1.527,1.486,2.247,2.179.4-.969.766-2.031,1.263-3.028a20.87,20.87,0,0,1,3.568-4.621c1.373-1.5,2.691-3.048,4.035-4.574a1.559,1.559,0,0,1,.184-.144l.907.589c-.595.759-1.119,1.513-1.729,2.189-1.486,1.65-3.052,3.228-4.508,4.9a11.517,11.517,0,0,0-2.619,5.236.648.648,0,0,0,.293.77c.86.623,1.716,1.253,2.647,1.935l-3.157.146a23.79,23.79,0,0,0,1.294,7c-.936.31-1.133.255-1.317-.6-.383-1.781-.7-3.576-1.039-5.365-.046-.24-.075-.483-.129-.832-.454.1-.886.171-1.309.278a9.012,9.012,0,0,0-5.565,3.482,10.8,10.8,0,0,0-1.792,5.372c-.13,1.656-.143,3.326-.134,4.989.047,8.279-3.8,14.072-11.2,17.6A37.271,37.271,0,0,1,60.33,79.048c-.08.012-.158.03-.279.054m-5.6.294c0,2.67-.005,5.218.015,7.766a.518.518,0,0,0,.339.375c.873.033,1.749.018,2.647.018V79.4Z" transform="translate(-18.339 -20.972)" fill="#acb0c6"/>
            <path id="Trazado_596060" data-name="Trazado 596060" d="M259.512,209.563q3.916,0,7.833,0a2.322,2.322,0,0,1,2.585,2.34,2.37,2.37,0,0,1-2.614,2.4q-7.586.007-15.172,0a6.362,6.362,0,0,1-1.224-.079,2.349,2.349,0,0,1,.451-4.661c2.714-.008,5.428,0,8.141,0" transform="translate(-184.899 -155.628)" fill="#acb0c6"/>
            <path id="Trazado_596061" data-name="Trazado 596061" d="M259.5,307.892q3.977,0,7.955,0a2.3,2.3,0,0,1,2.5,2.294,2.356,2.356,0,0,1-2.45,2.445c-1.171.027-2.343.006-3.515.006q-6.136,0-12.272,0a2.451,2.451,0,0,1-2.6-1.734,2.321,2.321,0,0,1,2.183-3.005c2.734-.016,5.468,0,8.2,0" transform="translate(-184.924 -228.649)" fill="#acb0c6"/>
            <path id="Trazado_596062" data-name="Trazado 596062" d="M0,255.13c0-.719-.011-1.437,0-2.155a2.067,2.067,0,0,1,2.145-2.126c2.317-.019,2.985.651,2.984,3,0,1.15.025,2.3-.014,3.449a2.181,2.181,0,0,1-2.021,2.24c-1.749.141-2.817-.4-3.027-1.7a17.222,17.222,0,0,1-.027-2.7H0" transform="translate(0 -186.289)" fill="#acb0c6"/>
            <path id="Trazado_596063" data-name="Trazado 596063" d="M323.489,6.722c-.819.02-.868-.024-.78-.872a13.453,13.453,0,0,1,.254-1.82A4.85,4.85,0,0,1,327.456.121c.407-.045.817-.067,1.224-.113.469-.054.615.169.6.608-.131,3.827-1.781,5.885-5.792,6.106" transform="translate(-239.632 0)" fill="#acb0c6"/>
            <path id="Trazado_596064" data-name="Trazado 596064" d="M297.028,11.516c-3.7-1.961-4.4-5.295-1.94-8.549,3.612,1.868,4.429,5.158,1.94,8.549" transform="translate(-218.068 -2.203)" fill="#acb0c6"/>
            <path id="Trazado_596065" data-name="Trazado 596065" d="M278.084,32.23c-1.707-1.108-3.19-2.33-3.317-4.536A6.318,6.318,0,0,1,276,23.845a.507.507,0,0,1,.485-.1c3.337,2,4.11,5.075,1.6,8.48" transform="translate(-204.046 -17.617)" fill="#acb0c6"/>
            <path id="Trazado_596066" data-name="Trazado 596066" d="M307.412,60.405c-2.746,2.5-5.9,2.259-7.92-.93,2.754-2.59,5.9-2.159,7.92.93" transform="translate(-222.414 -42.909)" fill="#acb0c6"/>
            <path id="Trazado_596067" data-name="Trazado 596067" d="M316.6,39.176c2.284-3.135,5.457-3.291,7.938-.691-2.123,3.024-5.289,3.37-7.938.691" transform="translate(-235.122 -27.231)" fill="#acb0c6"/>
          </g>
        </g>
      </g>
      <rect id="Rect치ngulo_291784" data-name="Rect치ngulo 291784" width="190" height="102" transform="translate(810 5293)" fill="none"/>
    </g>
  </g>
</svg>
