<svg xmlns="http://www.w3.org/2000/svg" xmlns:xlink="http://www.w3.org/1999/xlink" width="190" height="102" viewBox="0 0 190 102">
  <defs>
    <clipPath id="clip-path">
      <rect id="Rect치ngulo_291718" data-name="Rect치ngulo 291718" width="82.893" height="81.255" fill="#ba4f7e"/>
    </clipPath>
  </defs>
  <g id="Grupo_874878" data-name="Grupo 874878" transform="translate(-600 -5293)">
    <g id="Grupo_874880" data-name="Grupo 874880">
      <circle id="Elipse_5468" data-name="Elipse 5468" cx="51" cy="51" r="51" transform="translate(644 5293)" fill="#fff"/>
      <g id="Grupo_874871" data-name="Grupo 874871" transform="translate(89 230)">
        <g id="Grupo_874870" data-name="Grupo 874870" transform="translate(565 5073)">
          <g id="Grupo_874869" data-name="Grupo 874869" clip-path="url(#clip-path)">
            <path id="Trazado_596068" data-name="Trazado 596068" d="M43.471,17.246a36.331,36.331,0,0,1,3.524,1.577,13.059,13.059,0,0,1,6.7,9.889A13.464,13.464,0,0,1,42.283,43.966a46.836,46.836,0,0,1-4.887.162c-.276.007-.552-.007-.827-.009-4.876-.037-9.753-.063-14.629-.115a9.62,9.62,0,0,1-6.945-15.8,1.829,1.829,0,0,0,.138-.21c.01-.016,0-.04,0,.033a26.974,26.974,0,0,1-2.4-2.413,8.96,8.96,0,0,1,5.825-14.33,3.412,3.412,0,0,1,.942-.1c.683.1.859-.249.955-.833A11.89,11.89,0,0,1,30.316.286,12.068,12.068,0,0,1,44.4,10.443a12.334,12.334,0,0,1-.931,6.8" transform="translate(-7.986 -0.065)" fill="#ba4f7e"/>
            <path id="Trazado_596069" data-name="Trazado 596069" d="M41.5,289.567H1.079C.02,289.567,0,289.551,0,288.508c0-1.337-.005-2.674,0-4.011,0-.736.165-.89.9-.9.17,0,.339,0,.509,0H81.563c.233,0,.467,0,.7.006a.56.56,0,0,1,.621.632q-.012,2.387,0,4.774c0,.407-.173.586-.575.563-.191-.011-.382,0-.573,0H41.5" transform="translate(0 -208.314)" fill="#ba4f7e"/>
            <path id="Trazado_596070" data-name="Trazado 596070" d="M41.505,252.135H1.083C.044,252.135,0,252.1,0,251.066c0-1.316,0-2.631,0-3.947,0-.821.141-.958.969-.958q9.039,0,18.079,0H81.436c.212,0,.425.013.637,0,.595-.044.834.2.82.818-.032,1.442-.008,2.886-.011,4.328,0,.793-.037.83-.827.83q-10.344,0-20.689,0H41.505" transform="translate(-0.001 -180.814)" fill="#ba4f7e"/>
            <path id="Trazado_596071" data-name="Trazado 596071" d="M205.645,116.07a11,11,0,0,1,6.72,2.164.9.9,0,0,0,1.223.007,10.848,10.848,0,0,1,7.344-2.158,9.3,9.3,0,0,1,5.872,2.868,1.142,1.142,0,0,1,.056,1.468.871.871,0,0,1-1.255.127,6.876,6.876,0,0,0-4.618-.725,12.483,12.483,0,0,0-7.11,3.394,1.207,1.207,0,0,1-1.8,0,12.5,12.5,0,0,0-7.112-3.393,6.826,6.826,0,0,0-4.616.734.826.826,0,0,1-1.2-.133,1.316,1.316,0,0,1,.138-1.584,26.182,26.182,0,0,1,3.165-2.088,5.88,5.88,0,0,1,3.192-.678" transform="translate(-146.14 -85.244)" fill="#ba4f7e"/>
            <path id="Trazado_596072" data-name="Trazado 596072" d="M190.274,38.464c-.005.829-.564,1.27-1.169,1.029-3.389-1.348-6.212-.149-8.778,1.994-1.561,1.3-1.52,1.369-3.193.215a9.313,9.313,0,0,0-5.959-1.814,9.419,9.419,0,0,0-2.715.741c-.466.18-.881.416-1.267.014a1.094,1.094,0,0,1-.113-1.41,2.938,2.938,0,0,1,.557-.6,8.051,8.051,0,0,1,9.815-1.021,1.486,1.486,0,0,0,1.975-.109,8.377,8.377,0,0,1,4.744-1.8,7.779,7.779,0,0,1,5.707,2.045,2.084,2.084,0,0,1,.4.717" transform="translate(-122.58 -26.214)" fill="#ba4f7e"/>
            <path id="Trazado_596073" data-name="Trazado 596073" d="M84.392,184.686q0-3.269,0-6.537c0-.828.123-.981.847-.987,1.422-.012,2.844,0,4.265-.007.581,0,.85.28.849.961q-.013,6.646,0,13.293c0,.678-.265.962-.851.956-1.443-.015-2.886-.011-4.329,0-.556,0-.8-.258-.79-.92.022-2.251.008-4.5.008-6.755" transform="translate(-61.985 -130.131)" fill="#ba4f7e"/>
            <path id="Trazado_596074" data-name="Trazado 596074" d="M233.637,0a7.153,7.153,0,0,1,5.592,2.544.937.937,0,0,0,1.123.362c3.344-.924,6.252.154,7.783,2.9a1.751,1.751,0,0,1,0,1.235c-.058.185-.506.312-.788.339a.97.97,0,0,1-.594-.3,5.051,5.051,0,0,0-4.126-1.211,18.236,18.236,0,0,0-3.17.819,1.114,1.114,0,0,1-1.554-.523,7.246,7.246,0,0,0-4.638-3.5,4.856,4.856,0,0,0-1.572-.054c-.515.06-.936.054-1.155-.489A1.042,1.042,0,0,1,231.1.787c.982-.358,2-.624,2.538-.787" transform="translate(-169.294)" fill="#ba4f7e"/>
          </g>
        </g>
      </g>
      <rect id="Rect치ngulo_291785" data-name="Rect치ngulo 291785" width="190" height="102" transform="translate(600 5293)" fill="none"/>
    </g>
  </g>
</svg>
