<svg xmlns="http://www.w3.org/2000/svg" xmlns:xlink="http://www.w3.org/1999/xlink" width="190" height="102" viewBox="0 0 190 102">
  <defs>
    <clipPath id="clip-path">
      <rect id="Rect치ngulo_291719" data-name="Rect치ngulo 291719" width="92.511" height="78.315" fill="#6c9883"/>
    </clipPath>
  </defs>
  <g id="Grupo_874879" data-name="Grupo 874879" transform="translate(-390 -5293)">
    <circle id="Elipse_5470" data-name="Elipse 5470" cx="51" cy="51" r="51" transform="translate(434 5293)" fill="#fff"/>
    <g id="Grupo_874874" data-name="Grupo 874874" transform="translate(1 81.089)">
      <g id="Grupo_874873" data-name="Grupo 874873" transform="translate(438 5222.911)">
        <g id="Grupo_874872" data-name="Grupo 874872" clip-path="url(#clip-path)">
          <path id="Trazado_596075" data-name="Trazado 596075" d="M56.963,195.683A38.93,38.93,0,0,1,43.417,192.7a79.685,79.685,0,0,1-20.367-11.98c-.373-.3-.5-.3-.753.135a30.864,30.864,0,0,1-11.934,12.12,22.117,22.117,0,0,1-8.3,2.6c-.112.012-.226.008-.338.021a.6.6,0,0,1-.682-.276.634.634,0,0,1,.09-.686,48.2,48.2,0,0,0,2.3-4.271,41.243,41.243,0,0,0,3.946-12.718,28.226,28.226,0,0,0-1.144-11.5,49.48,49.48,0,0,0-4.8-10.987c-.095-.163-.2-.322-.286-.487-.127-.232-.275-.467-.086-.734a.737.737,0,0,1,.753-.271,22.238,22.238,0,0,1,5.544,1.263,27.84,27.84,0,0,1,12.212,9.364,28.473,28.473,0,0,1,2.766,4.19c.2.384.328.353.643.105a78.818,78.818,0,0,1,21.732-12.508,37.8,37.8,0,0,1,12.624-2.5,33.709,33.709,0,0,1,12.314,2.254,50.1,50.1,0,0,1,16.507,10.642,63.032,63.032,0,0,1,6.8,7.473.92.92,0,0,1,.017,1.335A57.731,57.731,0,0,1,73.45,191.771a35.972,35.972,0,0,1-16.487,3.912m11.464-18.848a5.628,5.628,0,0,0,5.664-5.665,5.673,5.673,0,1,0-5.664,5.665" transform="translate(-0.745 -117.368)" fill="#6c9883"/>
          <path id="Trazado_596076" data-name="Trazado 596076" d="M.013,5.4c0-.565,0-1.131,0-1.7.006-.754.32-.954.987-.629A18.981,18.981,0,0,0,9.378,5.1a15.967,15.967,0,0,0,9.77-3.309A16.675,16.675,0,0,0,20.958.26a.64.64,0,0,1,.979-.046A21.35,21.35,0,0,0,34.25,4.871,14.958,14.958,0,0,0,44.3,1.3c.336-.272.66-.561.981-.852.587-.532.748-.528,1.324,0A16.366,16.366,0,0,0,53.125,4.27a16.558,16.558,0,0,0,10.893-.725A22.724,22.724,0,0,0,69.994.176c.4-.315.669-.165.977.126a16.987,16.987,0,0,0,6.761,4.069A17.674,17.674,0,0,0,90.84,3.1c.733-.346,1.022-.184,1.025.61,0,1.131-.014,2.262.009,3.392a1.061,1.061,0,0,1-.436.913,13.575,13.575,0,0,1-8.575,3.452,13.556,13.556,0,0,1-6.007-1.355,20.059,20.059,0,0,1-5.418-3.734c-.5-.479-.65-.49-1.173,0a17.3,17.3,0,0,1-7.134,4.2,16.176,16.176,0,0,1-10.82-.841A22.437,22.437,0,0,1,46.426,6.2a.637.637,0,0,0-.968.01,21.44,21.44,0,0,1-10.167,4.733A15.236,15.236,0,0,1,23.617,8.024a19.42,19.42,0,0,1-2-1.656c-.5-.473-.67-.459-1.174.015a17.76,17.76,0,0,1-9.066,4.882A12.455,12.455,0,0,1,1.8,9.028C.008,7.794.013,7.786.013,5.4" transform="translate(-0.009 0)" fill="#6c9883"/>
          <path id="Trazado_596077" data-name="Trazado 596077" d="M91.857,65.268a5.522,5.522,0,0,0,.008.9,2.1,2.1,0,0,1-1.067,2.2A13.6,13.6,0,0,1,82.882,71.3a13.846,13.846,0,0,1-6.519-1.582,19.794,19.794,0,0,1-4.911-3.486c-.527-.51-.658-.518-1.211,0a17.426,17.426,0,0,1-6.494,3.985,16.258,16.258,0,0,1-11.935-.855A22.513,22.513,0,0,1,46.4,66.026a.609.609,0,0,0-.924.01,21.833,21.833,0,0,1-9.058,4.529,15.519,15.519,0,0,1-13.9-3.558c-.333-.277-.663-.561-.968-.867a.636.636,0,0,0-1.053.014,19.823,19.823,0,0,1-4.688,3.41A13.125,13.125,0,0,1,.328,67.75.885.885,0,0,1,0,67.015c.01-1.168,0-2.337.006-3.505,0-.712.33-.917.971-.607a19.044,19.044,0,0,0,8.66,2.018,16.19,16.19,0,0,0,10.25-3.88c.364-.3.716-.612,1.055-.939a.646.646,0,0,1,.982-.053A22.137,22.137,0,0,0,32.66,64.594,15.1,15.1,0,0,0,44.51,60.965c.29-.24.566-.5.847-.748.457-.41.7-.417,1.159.008a17.036,17.036,0,0,0,5.327,3.446A16.112,16.112,0,0,0,63.7,63.5a22.934,22.934,0,0,0,6.294-3.49c.4-.314.669-.151.975.138a16.756,16.756,0,0,0,19.409,2.978c1.341-.614,1.558-.418,1.483.955-.021.395,0,.791,0,1.187" transform="translate(0 -45.729)" fill="#6c9883"/>
        </g>
      </g>
    </g>
    <rect id="Rect치ngulo_291786" data-name="Rect치ngulo 291786" width="190" height="102" transform="translate(390 5293)" fill="none"/>
  </g>
</svg>
