<svg xmlns="http://www.w3.org/2000/svg" width="60" height="60" viewBox="0 0 60 60">
  <g id="Grupo_874625" data-name="Grupo 874625" transform="translate(-285 -1933)">
    <circle id="Elipse_5437" data-name="Elipse 5437" cx="30" cy="30" r="30" transform="translate(285 1933)" fill="#e4eadb"/>
    <g id="diversidad" transform="translate(296 1944)">
      <path id="Trazado_595248" data-name="Trazado 595248" d="M188.79,6.7a4.043,4.043,0,1,0-6.093,0,5.743,5.743,0,0,0-2.7,4.865v3.4h11.487v-3.4A5.743,5.743,0,0,0,188.79,6.7Zm-4.822-2.654a1.776,1.776,0,1,1,1.776,1.776,1.778,1.778,0,0,1-1.776-1.776Zm5.252,8.653h-6.952V11.562a3.476,3.476,0,1,1,6.952,0Z" transform="translate(-166.398)"/>
      <path id="Trazado_595249" data-name="Trazado 595249" d="M188.79,320.7a4.043,4.043,0,1,0-6.093,0,5.743,5.743,0,0,0-2.7,4.865v3.4h11.487v-3.4A5.743,5.743,0,0,0,188.79,320.7Zm-4.822-2.654a1.776,1.776,0,1,1,1.776,1.776A1.778,1.778,0,0,1,183.967,318.043Zm5.252,8.653h-6.952v-1.134a3.476,3.476,0,0,1,6.952,0Z" transform="translate(-166.398 -290.271)"/>
      <path id="Trazado_595250" data-name="Trazado 595250" d="M8.79,163.7a4.043,4.043,0,1,0-6.093,0A5.743,5.743,0,0,0,0,168.562v3.4H11.487v-3.4a5.743,5.743,0,0,0-2.7-4.865Zm-4.822-2.654a1.776,1.776,0,1,1,1.776,1.776,1.778,1.778,0,0,1-1.776-1.776ZM9.219,169.7H2.267v-1.134a3.476,3.476,0,0,1,6.952,0Z" transform="translate(0 -145.136)"/>
      <path id="Trazado_595251" data-name="Trazado 595251" d="M368.79,163.7a4.043,4.043,0,1,0-6.093,0,5.743,5.743,0,0,0-2.7,4.865v3.4h11.487v-3.4A5.743,5.743,0,0,0,368.79,163.7Zm-4.822-2.654a1.776,1.776,0,1,1,1.776,1.776A1.778,1.778,0,0,1,363.967,161.043Zm5.252,8.653h-6.952v-1.134a3.476,3.476,0,0,1,6.952,0Z" transform="translate(-332.795 -145.136)"/>
      <path id="Trazado_595252" data-name="Trazado 595252" d="M61,44.168v1.02h2.267v-1.02a3.4,3.4,0,0,1,3.4-3.4h2.758V38.5H66.668A5.674,5.674,0,0,0,61,44.168Z" transform="translate(-56.39 -35.591)"/>
      <path id="Trazado_595253" data-name="Trazado 595253" d="M345.659,44.168v1.02h2.267v-1.02a5.674,5.674,0,0,0-5.668-5.668H339.5v2.267h2.758A3.4,3.4,0,0,1,345.659,44.168Z" transform="translate(-313.844 -35.591)"/>
      <path id="Trazado_595254" data-name="Trazado 595254" d="M63.267,386.02V385H61v1.02a5.674,5.674,0,0,0,5.668,5.668h1.058v-2.267H66.668A3.4,3.4,0,0,1,63.267,386.02Z" transform="translate(-56.39 -355.906)"/>
      <path id="Trazado_595255" data-name="Trazado 595255" d="M366.459,386.02a3.4,3.4,0,0,1-3.4,3.4H362v2.267h1.058a5.674,5.674,0,0,0,5.668-5.668V385h-2.267Z" transform="translate(-334.644 -355.906)"/>
    </g>
  </g>
</svg>
