<svg xmlns="http://www.w3.org/2000/svg" xmlns:xlink="http://www.w3.org/1999/xlink" width="125" height="116.726" viewBox="0 0 125 116.726">
  <defs>
    <clipPath id="clip-path">
      <rect id="Rectángulo_42814" data-name="Rectángulo 42814" width="125" height="116.726" fill="#fff"/>
    </clipPath>
  </defs>
  <g id="Grupo_874907" data-name="Grupo 874907" transform="translate(-326 -3277)">
    <g id="Grupo_874341" data-name="Grupo 874341" transform="translate(326 3277)">
      <g id="Grupo_874113" data-name="Grupo 874113" clip-path="url(#clip-path)">
        <path id="Trazado_594273" data-name="Trazado 594273" d="M49.211,18.858c1.092-.218,2.189-.416,3.274-.668a1.124,1.124,0,0,0,.573-.466c.7-1.021,1.307-2.107,2.07-3.074a2.439,2.439,0,0,1,1.5-.963A2.7,2.7,0,0,0,58.88,12.6a1.325,1.325,0,0,1,.935-.548c1.406.154,1.828-.7,2-1.717l3.544-.85c-.923-.915-1.616-1.442-2.6-.188a1.837,1.837,0,0,1-1.8.2c-1.374-1.2-1.432.2-1.883.823-.09.123-.054.338-.1.667l-1.789-.9.041.041A2.186,2.186,0,0,0,56.4,7.937c-.132-.1-.058-.8.14-.972,1.169-1.023,2.421-.832,3.424.557A8.75,8.75,0,0,1,61.3,5.733a2.057,2.057,0,0,1,1.49-.1c.237.049.389.514.564.769l2.9-2.016a1.417,1.417,0,0,1,1.72-1.537.853.853,0,0,0,.516-.292c.9-.881,1.815-1.186,2.932-.291.186.149.787-.063,1.1-.261,1.082-.679.974.289,1.068.573A32.423,32.423,0,0,0,76.79.567c1.415-1.126,2.5.865,3.823.069l.264.274L80.293,2.8c.871,1.207.645,1.675-1.027,1.968a36.268,36.268,0,0,0-5.122,1.285,5.746,5.746,0,0,0,3.131.383c1.92-.25,3.9-.036,5.848-.1.412-.013.814-.366,1.36-.629.648,1.022,1.462-.089,2.394-.462l.307,1.171c1.4-1.744,2.272-1.924,4.468-1.163.366.127.857-.127,1.293-.179a7.682,7.682,0,0,1,1.639-.047h4.227l.065.109-1.246.164c.16,1.239.309,2.4.455,3.535l-2.3,1.012c.3.131.475.289.625.265,1.69-.272,3.149.456,4.636,1.046,20.993,8.333,34.551,29.63,32.993,51.818-1.81,25.769-20.694,45.722-46.354,49.066a58.48,58.48,0,0,0-13.725,3.018c-1.27.492-2.476,1.146-3.9,1.816V114.11l-1.955.5-.331-1.353c-.19.317-.272.479-.377.625-.154.212-.326.412-.49.618-.193-.171-.513-.314-.557-.518-.2-.935-.6-.532-1.123-.28-1.067.517-2.182.936-3.236,1.378l-.721-2.037H62.38l.981-1.644-2.126-1.778a19.468,19.468,0,0,1-2.551.832c-1.179.213-1.781-.475-1.458-1.563.379-1.276-.916-1.349-1.295-2.059a3.81,3.81,0,0,0-1.395.505c-.619.386-1.165.938-1.73-.022a.967.967,0,0,1-.182-.541c.071-.53.2-1.052.334-1.7-.541.223-.876.473-1.194.455-.232-.013-.649-.548-.632-.569.673-.841.351-2.109,1.429-2.84A9.314,9.314,0,0,0,55.7,97.9a6.013,6.013,0,0,1,2.26-2.412c1.119-.714,1.148-1.587,1.042-2.73-.325-.015-.585-.031-.845-.038-1.735-.043-1.644-.037-1.555-1.7a5.93,5.93,0,0,0-.483-1.954c-.96-.152-1.872-.6-2.468-.335-1.8.8-3.265.316-4.8-.6-.289-.172-.9.2-1.431.332a5.606,5.606,0,0,1-.82-1.055c-.423-.867-.918-.459-1.475-.215a2.244,2.244,0,0,1-1.259.325c-1.532-.4-1.927-.2-2.327,1.4a3.042,3.042,0,0,1-.268.45A17.352,17.352,0,0,1,38.9,88.328c-.62-.384-.907-.972.038-1.451.208-.105.333-.374.585-.672a2.591,2.591,0,0,0-2.975.517c-.784.771-1.09.036-1.447-.261-.141-.117.047-.779.235-1.108a7.7,7.7,0,0,0,1.007-1.9c-.885.309-1.788.574-2.648.942a12.954,12.954,0,0,1-1.9,1c-.428.1-.974-.313-1.467-.5.316-.437.538-1.046.965-1.278,1.206-.655,2.5-1.156,3.849-1.76l-.738-1.1,1.529-1.121-.146-.4c-.488.17-.986.319-1.463.516s-.927.438-1.22.579l-.37-1.526c-1.093.554-2.048,1.042-3.007,1.521-.151.075-.36.067-.477.17-1.721,1.514-1.718,1.517-3.706,1.4l-.222-1.045-1,.6a1.328,1.328,0,0,1,.847-2.119c2.037-.647,3.109-2.406,4.606-3.67a.435.435,0,0,0,.089-.343c-.182-1.209.65-1.7,1.488-2.262a10.268,10.268,0,0,0,1.561-1.5c.749-.784,1.508-1.562,2.2-2.393A10.975,10.975,0,0,0,36.372,67.3a1.543,1.543,0,0,0,.107-1.111c-.068-.2-.543-.31-.85-.354-.721-.1-1.451-.146-2.356-.23-.579.854-.579.854-2.888.682l-.211-.964c-.654.059-1.593.381-1.817.11-.353-.425-.224-1.25-.3-1.9l-3.363-1.648c-.744.922-1.334,1.6-1.863,2.326-.445.609-.82,1.27-1.289,2.009-1.751-.341-2.214-.106-3.9,2.283-.22-.952-.811-1.691.473-2.321a8.016,8.016,0,0,0,1.857-1.7c.833-.835-.138-1.528-.371-2.135-.333-.867-.518-1.284.4-1.9.5-.334.628-1.22.924-1.857L20.7,58.3c-.706.411-1.41.827-2.12,1.23s-1.428.8-2.144,1.192c-.115.063-.326.09-.346.17-.489,2-2.205,1.22-3.552,1.6.654-1.859,2.73-2.1,3.606-3.444.866-1.332,3.006-1.887,2.6-3.893a11.226,11.226,0,0,0-2.151-.572c-.448-.031-.911.364-1.388.486a9.919,9.919,0,0,1-1.362.162c-.021-.581-.288-1.488-.022-1.689,1.5-1.129,2.154-2.833,3.215-4.252.943-1.261,2.088-2.373,2.993-3.658,1.1-1.561,1.985-3.273,3.076-4.841.46-.661,1.286-1.056,1.811-1.684,1.472-1.762,2.833-3.618,4.323-5.364a11.4,11.4,0,0,1,2.235-1.883c.2-.141.691.129,1.095.221l.829-3.156,2.274-.792c.731-1.332.344-3.161,2.43-3.243.119,0,.211-.343.34-.506.677-.857,1.362-1.708,2.043-2.562l.454.2V24.9c1.382-.02,1.139-.9,1.176-1.6.035-.671-.273-1.57,1.089-1.341V18.936c1.087-.377,1.658.072,2.469.661,1.262.916-.694,1.619.064,2.287a24.9,24.9,0,0,0,2.9-1.591c.36-.258.41-.95.6-1.444Z" transform="translate(-9.163 -0.156)" fill="#fff"/>
        <path id="Trazado_594274" data-name="Trazado 594274" d="M160.739,36.929c-.538,1.258-.846,2.668-2.5,3.068-.4.1-.646.694-1.043.919-.728.411-2.882-.378-3-1.2-.062-.409.476-1.081.916-1.355a15.844,15.844,0,0,1,2.513-1.033c.338.545.8.7,1.507-.157.255-.311,1.085-.15,1.653-.205l-.04-.041" transform="translate(-112.715 -26.996)" fill="#fff"/>
        <path id="Trazado_594275" data-name="Trazado 594275" d="M143.514,54.2a4.484,4.484,0,0,0-.936.04,5.228,5.228,0,0,0-.915.422c-.576-3.8.447-6.266,2.72-6.084-.221,1.083-.453,2.138-.638,3.2a1.1,1.1,0,0,0,.159.722c.48.733.172,1.243-.409,1.706l.02-.008" transform="translate(-103.445 -35.502)" fill="#fff"/>
        <path id="Trazado_594276" data-name="Trazado 594276" d="M268.536.57c.663.111,1.48-.36,1.423.786,0,.082.248.252.371.243s.248-.184.318-.315c.838-1.584,1-1.622,2.305-.555l-.611,2.459h-1.711l-1.178,1.391a4.954,4.954,0,0,1-.878-1.452A14.179,14.179,0,0,1,268.536.57" transform="translate(-196.279 0)" fill="#fff"/>
        <path id="Trazado_594277" data-name="Trazado 594277" d="M2.788,208.675a2.686,2.686,0,0,1-2.77,2.276,2.18,2.18,0,0,1,2.77-2.276" transform="translate(0 -152.515)" fill="#fff"/>
        <path id="Trazado_594278" data-name="Trazado 594278" d="M290.2.2c.155.676.282,1.229.473,2.064l-1.011.577c-.145-.344-.507-.854-.394-1,.388-.507-.657-1.854.932-1.64" transform="translate(-211.449 -0.131)" fill="#fff"/>
        <path id="Trazado_594279" data-name="Trazado 594279" d="M308.8,5.415l-1.047-1.1,2.8-.626.263.572L308.8,5.415" transform="translate(-224.974 -2.7)" fill="#fff"/>
        <path id="Trazado_594280" data-name="Trazado 594280" d="M139.317,393.666l1.994-.621c.006.27.129.652,0,.789-.488.506-1.061.919-1.991-.168" transform="translate(-101.845 -287.328)" fill="#fff"/>
        <path id="Trazado_594281" data-name="Trazado 594281" d="M60.809,245.793l-1.915,1.582-.288-.9,1.958-.966.244.279" transform="translate(-42.844 -179.479)" fill="#fff"/>
      </g>
    </g>
    <g id="administrador-web" transform="translate(353.126 3298.379)">
      <path id="Trazado_595189" data-name="Trazado 595189" d="M230.7,112.139a5.283,5.283,0,0,0-2.7.759l-7.786-7.786a6.641,6.641,0,0,0,.981-2.347h9.7a5.357,5.357,0,1,0,0-2.678h-9.7a6.65,6.65,0,0,0-.98-2.347l7.786-7.786a5.292,5.292,0,0,0,2.7.759,5.356,5.356,0,1,0-5.356-5.356,5.283,5.283,0,0,0,.759,2.7l-7.786,7.786a6.7,6.7,0,1,0,0,11.16l7.786,7.786a5.283,5.283,0,0,0-.759,2.7,5.356,5.356,0,1,0,5.356-5.356Zm5.356-13.391a2.678,2.678,0,1,1-2.678,2.678A2.678,2.678,0,0,1,236.052,98.748ZM230.7,82.678a2.678,2.678,0,1,1-2.678,2.678A2.678,2.678,0,0,1,230.7,82.678Zm-16.069,22.765a4.017,4.017,0,1,1,4.017-4.017A4.018,4.018,0,0,1,214.626,105.443Zm16.069,14.73a2.678,2.678,0,1,1,2.678-2.678A2.678,2.678,0,0,1,230.7,120.174Zm0,0" transform="translate(-173.113 -66.609)" fill="#486b5a"/>
      <path id="Trazado_595190" data-name="Trazado 595190" d="M249.513,0h-37.5A4.018,4.018,0,0,0,208,4.017V26.782h2.678V10.713h40.173V46.869a1.339,1.339,0,0,1-1.339,1.339H238.8v2.678h10.713a4.018,4.018,0,0,0,4.017-4.017V4.017A4.018,4.018,0,0,0,249.513,0ZM210.678,8.035V4.017a1.339,1.339,0,0,1,1.339-1.339h37.5a1.339,1.339,0,0,1,1.339,1.339V8.035Zm0,0" transform="translate(-173.183)" fill="#486b5a"/>
      <path id="Trazado_595191" data-name="Trazado 595191" d="M212.017,264.035H222.73v-2.678H212.017a1.339,1.339,0,0,1-1.339-1.339V256H208v4.017A4.018,4.018,0,0,0,212.017,264.035Zm0,0" transform="translate(-173.183 -213.148)" fill="#486b5a"/>
      <path id="Trazado_595192" data-name="Trazado 595192" d="M269.391,358.7H256v2.678h14.73a1.339,1.339,0,0,0,1.339-1.339V352h-2.678Zm0,0" transform="translate(-213.149 -293.079)" fill="#486b5a"/>
      <path id="Trazado_595193" data-name="Trazado 595193" d="M256,424h2.678v2.678H256Zm0,0" transform="translate(-213.149 -353.027)" fill="#486b5a"/>
      <path id="Trazado_595194" data-name="Trazado 595194" d="M288,424h2.678v2.678H288Zm0,0" transform="translate(-239.792 -353.027)" fill="#486b5a"/>
      <path id="Trazado_595195" data-name="Trazado 595195" d="M368,352h2.678v2.678H368Zm0,0" transform="translate(-306.401 -293.079)" fill="#486b5a"/>
      <path id="Trazado_595196" data-name="Trazado 595196" d="M368,384h2.678v2.678H368Zm0,0" transform="translate(-306.401 -319.723)" fill="#486b5a"/>
      <path id="Trazado_595197" data-name="Trazado 595197" d="M320,424h2.678v2.678H320Zm0,0" transform="translate(-266.436 -353.027)" fill="#486b5a"/>
      <path id="Trazado_595198" data-name="Trazado 595198" d="M64,61.969v2.678H76.837l-1.731,1.731L77,68.272l4.017-4.017a1.34,1.34,0,0,0,0-1.894L77,58.344l-1.894,1.894,1.731,1.731Zm0,0" transform="translate(-53.287 -48.578)" fill="#486b5a"/>
      <path id="Trazado_595199" data-name="Trazado 595199" d="M240,24h2.678v2.678H240Zm0,0" transform="translate(-199.827 -19.983)" fill="#486b5a"/>
      <path id="Trazado_595200" data-name="Trazado 595200" d="M272,24h2.678v2.678H272Zm0,0" transform="translate(-226.47 -19.983)" fill="#486b5a"/>
      <path id="Trazado_595201" data-name="Trazado 595201" d="M304,24h2.678v2.678H304Zm0,0" transform="translate(-253.114 -19.983)" fill="#486b5a"/>
      <path id="Trazado_595202" data-name="Trazado 595202" d="M32,80h2.678v2.678H32Zm0,0" transform="translate(-26.644 -66.609)" fill="#486b5a"/>
      <path id="Trazado_595203" data-name="Trazado 595203" d="M0,80H2.678v2.678H0Zm0,0" transform="translate(0 -66.609)" fill="#486b5a"/>
      <path id="Trazado_595204" data-name="Trazado 595204" d="M56,32h8.035v2.678H56Zm0,0" transform="translate(-46.626 -26.644)" fill="#486b5a"/>
      <path id="Trazado_595205" data-name="Trazado 595205" d="M24,32h2.678v2.678H24Zm0,0" transform="translate(-19.983 -26.644)" fill="#486b5a"/>
      <path id="Trazado_595206" data-name="Trazado 595206" d="M33.267,189.227,25.443,187.1V185.09a9.361,9.361,0,0,0,4.017-7.681V176.07a1.339,1.339,0,0,0,1.339-1.339v-4.017A10.725,10.725,0,0,0,20.086,160H8.034a2.678,2.678,0,0,0-2.678,2.678v6.7a6.667,6.667,0,0,0,4.994,6.472c.119.033.243.048.363.074v1.489a9.364,9.364,0,0,0,4.017,7.681V187.1L6.9,189.228A9.413,9.413,0,0,0,0,198.273v13.953a1.339,1.339,0,0,0,1.339,1.339h37.5a1.339,1.339,0,0,0,1.339-1.339V198.273a9.415,9.415,0,0,0-6.906-9.046ZM8.034,169.374v-6.7H20.087a8.043,8.043,0,0,1,8.035,8.035v2.678h-.884a2.687,2.687,0,0,1-2.6-2.024l-.574-2.317a1.339,1.339,0,0,0-1.035-.989,1.252,1.252,0,0,0-.265-.027,1.339,1.339,0,0,0-1.071.536l-.8,1.072a9.856,9.856,0,0,1-1.65,1.7,9.349,9.349,0,0,1-5.849,2.053H12.052a3.606,3.606,0,0,1-1.01-.134,4,4,0,0,1-3.008-3.883Zm5.356,8.035V176.07a12.039,12.039,0,0,0,7.538-2.654,12.63,12.63,0,0,0,1.2-1.1,5.357,5.357,0,0,0,4.657,3.719v1.376a6.7,6.7,0,0,1-13.391,0Zm6.7,9.374a9.315,9.315,0,0,0,2.678-.4v1.741a1.325,1.325,0,0,0,.468,1l-3.146,2.621-3.146-2.619a1.324,1.324,0,0,0,.468-1v-1.741a9.316,9.316,0,0,0,2.678.4Zm17.408,24.1H33.478V198.835H30.8v12.052H9.374V198.835H6.7v12.052H2.678V198.272a6.728,6.728,0,0,1,4.932-6.461l6.316-1.718,5.3,4.419a1.339,1.339,0,0,0,1.714,0l5.3-4.419,6.312,1.716a6.731,6.731,0,0,1,4.936,6.463Zm0,0" transform="translate(0 -133.218)" fill="#486b5a"/>
    </g>
  </g>
</svg>
