<svg id="Grupo_874222" data-name="Grupo 874222" xmlns="http://www.w3.org/2000/svg" xmlns:xlink="http://www.w3.org/1999/xlink" width="652.518" height="301.934" viewBox="0 0 652.518 301.934">
  <defs>
    <clipPath id="clip-path">
      <rect id="Rectángulo_291357" data-name="Rectángulo 291357" width="652.518" height="301.934" fill="#edf3ea"/>
    </clipPath>
  </defs>
  <g id="Grupo_874334" data-name="Grupo 874334" clip-path="url(#clip-path)">
    <path id="Trazado_594596" data-name="Trazado 594596" d="M172.937,331.97c-.7-.014-1.727.028-1.522.762.218.778,1.23,1.054,2.328,1.076h0c.816-.144,1.664-.49,1.571-1.047-.154-.927-1.438-.757-2.376-.79" transform="translate(-27.387 -39.277)" fill="#edf3ea"/>
    <path id="Trazado_594597" data-name="Trazado 594597" d="M204.171,334.33c-1.526.2-2.656,1.2-1.3,1.881a23.573,23.573,0,0,0,6.884,2.059c2.018.313,3-1.238,5.08-2.441-3.976-1.337-7.169-1.971-10.664-1.5" transform="translate(-32.321 -39.538)" fill="#edf3ea"/>
    <path id="Trazado_594598" data-name="Trazado 594598" d="M442.627,340.84v0c-.74-.026-1.679-.116-1.768.536-.084.538.638.938,1.476.873a2.108,2.108,0,0,0,1.249-.507c.7-.809-.39-.748-.958-.9" transform="translate(-70.447 -40.325)" fill="#edf3ea"/>
    <path id="Trazado_594599" data-name="Trazado 594599" d="M651.5,53.618c-.786-.464-1.776-.751-2.562-1.216a6.542,6.542,0,0,1-1.241-1.147c.654-1.966,4.266-1.849,4.825-4.14-3.043-1.056-8.549.513-9.3-3.7-.19-1.065-3.236-.708-5.065-.548-4.973.413-9.935.992-14.913,1.256-5.975.324-12.086.881-18.333-1.684,11.339-4.112,22.909-1.39,33.382-3.893-1.625-.379-4.648.621-6.328-1.472,6.776-1.584,14.6.778,20.112-3.7-.6-1.793-2.8-1.384-4.467-1.364-9.32.1-18.525-1.228-27.924-.24-4.34-2.742-11.462.446-15.43-3.208-1.052-.963-2.8-.83-4.334-.929-10.892-.7-21.658-1.877-32.344-3.355-2.422-.34-5.333.338-6.337-2.176-.545-1.375-2.69-.527-4.116-.724-2.529-.359-5.221-.281-7.552-1.224a4.941,4.941,0,0,0-5.5.881c-2.914,2.377-5.355,2-6.933-.877-.578-1.045-1.786-1.549-3.557-1.746a318.174,318.174,0,0,0-47.63-1.892c-1.024.042-2.536.493-2.988.165-6.161-4.4-14.324-2.318-21.53-2.351-4.969-.027-9.106-.636-12.883-2.47-2.643-1.288-5.208-1.78-7.763-.1-1.953,1.3-4.84,1.438-5.658.612-2.229-2.245-5.7-1.131-8.236-2-3.552-1.213-6.023-1.557-9.466.951-2.909,2.136-10.954,1.568-12.869-.152-1.1-.968.865-3.158-3.166-3.166-2.863,0-4.069,1.353-6.049,2.035-4.854,1.677-9.491-.168-14.267-.05a13.548,13.548,0,0,1-4.442-.63,25.778,25.778,0,0,0-19.026.6c-2.621,1.052-4.172-.67-5-2.354-.551-1.106-.514-2.943-3.349-1.453-2.919,1.545-1.024-2.409-3.827-1.527-1.5.479-3.592-.134-5.425-.12a1.594,1.594,0,0,0-1.509,1.111c-1.248,3.43-4.258,3.23-7.9,2.234-6.062-1.654-11.985-4.012-19.057-1.841A6.783,6.783,0,0,1,310,5.906c-4.73-.022-8.775-2.348-14.262-.585-4.382,1.41-9.57-.859-14.547.074a4.984,4.984,0,0,1-3.528-.854c-6.134-3.582-9.226-3.471-15.211.476-3.289,2.165-6.954,2.177-8.162-.673-1.349-3.213-2.66-1.618-5.231-.965-2.449.623-5.646,1.291-7.979-.622-2.79-2.286-7.075-.353-10.345-1.416s-.943,1.807-2.609,1.906c-2.241.127-3.956-.746-5.861-1.292a42.884,42.884,0,0,0-5.074-.856c-2.281,1.012,3.952,2.153-.151,2.289-2.812.093-7.6,1.209-8.883-2.751-.316-.987-4.425-.527-6.385.555-3.031,1.667-5.515,3.126-8.172-.183-1.047-1.3-5.24-1.166-5.715-.586-4.049,4.959-11.32-.583-15.623,3.081-.661.566-1.855-.163-2.6-.7-3.72-2.68-7.914-2.351-12.107-.351-2.019.963-3.127.562-5.3.135-5.79-1.113-12.06-1.785-17.931,1.134a34.141,34.141,0,0,1-6.5,2.12c-1.77.457-3.819.734-4.824-.756A3.514,3.514,0,0,0,119.251,3.7C114,4.431,108.925,5.239,103.4,5.108,98.429,4.989,93.085,6.554,88.19,7.95A30.612,30.612,0,0,0,79,12.409c-2.488,1.785-5.807,3.078-8.293,2.774C61.665,14.07,55.4,19.656,47.189,20.137a11.144,11.144,0,0,0-2.2.665c-2.4.664-5.669-.062-7.186,1.923-1.428,1.881,1.713,2.85,2.241,4.393.542,1.6,1.412,3.178.16,4.879-1.848,2.523-2.249,5.116-2.731,7.919-.5,2.994-4.028,6.34-8.111,7.94-3.394,1.343-5.239,3.525-8.44,4.818h0a5.919,5.919,0,0,0,6.43,1.255,8.37,8.37,0,0,1,4.535-.768c1.1.25,3.168.6,1.964,1.739-3.022,2.862-3.63,6.818-10.166,8.095-6.971,1.364-9.29,10.493-4.4,14,1.848,1.315,4.3.39,6.462.94,2.453.621,4.145,1.811,3.385,2.956-2.095,3.171-.192,7.193-4.786,9.738-1.7.942-1.676,1.889-.063,2.679,1.953.957,1.354,2.29.912,3.528-.781,2.144-2.549,3.867.8,6.129,2.271,1.546.024,5.063-2.735,6.4-8.268,4.013-7.188,9.742-7.606,15.3-.1,1.318,2.316,3.74-2.634,3.133-.636-.078-1.367.3-1.108.574,2.687,2.814-2.851,6.478,1.777,9.366a6.575,6.575,0,0,1,3.246,6.8,11.666,11.666,0,0,1-.238,1.274,32.885,32.885,0,0,1-5.515,3.3l.439.354c-.408.516-.373,1.189.276,2.178.694,1.071.881,2.855-1.17,4.134a1.692,1.692,0,0,0-.07,3.041c.527.372,1.033.762,1.527,1.165-5.571,2.409-7.1,10.263-2.636,13.45,1.848,1.315,4.3.389,6.462.938,2.452.628,4.145,1.811,3.384,2.963-2.094,3.165-.191,7.187-4.785,9.732-1.7.941-1.676,1.889-.063,2.679,1.953.957,1.354,2.29.912,3.527-.781,2.145-2.549,3.868.8,6.13,2.271,1.546.024,5.064-2.735,6.4-8.269,4.013-7.2,9.751-7.607,15.3-.1,1.318,2.316,3.74-2.634,3.133-.636-.078-1.367.3-1.108.574,2.688,2.815-2.851,6.478,1.778,9.366A6.586,6.586,0,0,1,7.192,241c-.295,2.036-.591,3-3.024,3.75-2.2.687-3.282,1.409-2.011,3.344.694,1.072.881,2.856-1.17,4.134a1.693,1.693,0,0,0-.07,3.042c5.439,3.873,8.549,9,13.955,12.945,4.954,3.607,11.641,4.564,17.651,6.448s12.443,3.189,18.553,5.063c2.939.9,4.681,2.681,7.648,3.4,6.1,1.477,11.512,4.473,18.9,2.579,1.953-.5,4.671.135,6.682,1.106,2.6,1.255,5.179,2.459,8.623,1.016,1.364-.574,2.339.182,3.508.567,5.69,1.919,11.23,4.326,18.222,1.871,2.064-.723,3.877.744,5.648,1.346a31.074,31.074,0,0,1,8.982,5.007,5.518,5.518,0,0,0,1.352-.533c1.922-1.67.313-4.371,2.711-5.569,2.451-1.219,5.589.167,8.464-.068,13.079-1.04,26.048.09,39.064.072,13.52-.018,27.127.48,40.653,1.1,15.308.694,30.709.821,46.066,1.143a23.3,23.3,0,0,0,6.239-.592,12.207,12.207,0,0,1,6.183-.151c7.334,2.1,15.188,1.128,22.825,1.5,6.564.317,13.292-.107,19.7.841,7.553,1.117,15.015.674,22.618-.179,2.584-.287,5.839-.352,7.851.518,5.008,2.185,10.5,1.686,15.789,1.45,9.032-.4,18.027-.114,26.984-.354,7.129-.188,14.341.088,21.665-.646a159.79,159.79,0,0,1,20.609-.878c15.174.479,30.265-.771,45.421-1.587,11.034-.6,21.942-1.519,32.866-2.806a56.815,56.815,0,0,0,13.631-2.883c12.634-4.87,26.474-6.481,40.024-8.655,4.843-.783,9.793-1.547,14.672-2.3,6.449-1,12.938-2.5,19.392-2.357,7.956.167,13.458-3.23,18.1-6.588,3.109-2.241,5.091-5.482,9.083-7.469a1.205,1.205,0,0,0,.641-1.537,1.18,1.18,0,0,0-.374-.517c-2.715-2.839-1.513-5.414,2.393-7.908-8.1-1.952-16.66-1.746-22.224-6.665,4.311-3.657,10.007-5.434,16.316-6.224,3.6-.452,6.669-1.22,8.447-3.823a13.751,13.751,0,0,0-5.92-.026c-4.02.768-6.144-.662-8.543-2.592-2.482-2-.952-3.12,1.286-3.916,3.5-1.26,7.248-2.129,10.851-3.6-5.419-.667-10.5-2.128-16.182-1.281-1.518.229-3.336.176-4.042-1.061-.733-1.276-.234-2.293,1.387-3.435,2.974-2.093,1.673-5.577-2.028-6.494-2.019-.509-5.769.539-5.741-1.718.035-2.306,3.941-2.057,6.22-2.855,2.117-.745,4.23-1.48,6.55-2.292-1.9-1.021-4.571-.242-5.388-1.558-.606-.878-.266-1.388.382-1.731,5.5-2.907,10.9-5.945,18.029-6.411a27.98,27.98,0,0,0,3.8-.828c1.224-.262,1.655-.9,1.606-1.69a1.5,1.5,0,0,0-1.526-1.478,1.357,1.357,0,0,0-.28.04c-6.58,1.209-9.336-3.661-15.122-4.326-3.691-.417.9-2.231,1.942-3.437-1.018-1.6-4.088-1.3-5.305-2.686.038-.672.523-1.065,1.35-1.215,3.573-.667,7.284-1.115,10.154-3.071,1.385-.956,3.493-1.438,1.517-3.449a2.208,2.208,0,0,1-.408-.571l.865-.622a19,19,0,0,0,1.914-1.592c.287-.1.575-.2.833-.306,1.66-.647,4.567-.3,4.362-2.478a2.429,2.429,0,0,0-.637-1.449A15.4,15.4,0,0,1,641,163.183a1.2,1.2,0,0,0,.641-1.536,1.181,1.181,0,0,0-.375-.517c-2.714-2.839-1.512-5.421,2.393-7.908q-1.493-.357-3-.632a14.073,14.073,0,0,1,1.674-.6c.664-.192.283-1.433-.577-1.934-.785-.464-1.775-.752-2.561-1.216a6.307,6.307,0,0,1-1.241-1.147c.654-1.966,4.267-1.849,4.825-4.14-2.727-.95-7.45.223-8.93-2.589,1.265-.272,2.574-.474,3.9-.639,3.6-.46,6.67-1.221,8.447-3.823a13.765,13.765,0,0,0-5.92-.026c-4.02.769-6.144-.661-8.543-2.592a4.881,4.881,0,0,1-1.011-1.071c4.209-.093,8.322-.332,11.613-3.009-.6-1.793-2.8-1.384-4.467-1.364l-.109,0c2.033-.62,4.1-1.257,6.112-2.078-5.42-.659-10.5-2.12-16.183-1.274-1.517.222-3.336.176-4.042-1.06-.733-1.276-.234-2.293,1.387-3.435,2.975-2.1,1.673-5.577-2.027-6.5-2.02-.5-5.77.545-5.741-1.718.034-2.3,3.941-2.057,6.22-2.848,2.116-.746,4.229-1.48,6.549-2.292-1.9-1.029-4.571-.242-5.388-1.559-.606-.877-.266-1.387.382-1.731,5.5-2.913,10.9-5.944,18.029-6.41a27.063,27.063,0,0,0,3.8-.835c1.224-.262,1.654-.889,1.607-1.69a1.5,1.5,0,0,0-1.536-1.477,1.4,1.4,0,0,0-.27.039c-6.58,1.218-9.336-3.654-15.123-4.318-3.691-.425.9-2.231,1.942-3.437-1.017-1.6-4.088-1.3-5.3-2.687.038-.671.523-1.065,1.351-1.221,3.573-.667,7.283-1.108,10.153-3.065,1.385-.955,3.493-1.438,1.518-3.455-1.661-1.7,1.378-2.37,3.2-3.084,1.66-.647,4.567-.3,4.361-2.486-.185-1.889-2.1-2.557-4.472-3.184a20.469,20.469,0,0,0-7.7-.443c-20.1,2.207-40.277,2.145-60.427,2.975a3.564,3.564,0,0,1-2.805-.661c1.524-1.557,3.953-1.195,5.812-1.159,8.55.162,17.151-.473,25.68-.69,12.154-.312,24.505-.715,36.586-2.854,1.018-.179,2.629-.44,2.843-.885,1.422-3.1,2.97-5.989,7.8-7.371.664-.192.283-1.433-.576-1.934M620.171,37.593c-3.562,1.637-6.289,1.376-10.858.242,4.628-1.8,7.376-1.928,10.858-.242M321.8,17.321a6.6,6.6,0,0,0,1.422.64,6.6,6.6,0,0,1-1.422-.64m2.948.925-.008,0h0c-.045,0-.088-.012-.133-.017.045,0,.09.014.135.017a4.508,4.508,0,0,0,.823-.032,4.58,4.58,0,0,1-.815.034M379.314,30.5a9.054,9.054,0,0,0-2.451.445,9.356,9.356,0,0,1,2.452-.452c.044.005.085.022.129.028-.043-.006-.086-.016-.129-.021m139.562-2.718c-.485,1.454-2.978,1.14-4.724,1.088-2.074-.06-3.411-.741-2.748-2.4.453-1.137,1.464-1.949,3.52-1.812h0c1.422.926,4.609,1.144,3.953,3.126M599.765,38.43c-5.738.528-11.185,2.09-17.075,1.492a39.629,39.629,0,0,0-12.436.656c-5.558,1.194-11.4-.216-17.118,1.022a2.413,2.413,0,0,1-2.826-2.127c.026-1.15,1.427-1.483,2.673-1.756a10.131,10.131,0,0,1,2.336-.175c14.805.4,29.768-1.145,44.448.885Z" transform="translate(0 0)" fill="#edf3ea"/>
  </g>
</svg>
