<svg id="Grupo_151697" data-name="Grupo 151697" xmlns="http://www.w3.org/2000/svg" xmlns:xlink="http://www.w3.org/1999/xlink" width="106.7" height="44.982" viewBox="0 0 106.7 44.982">
  <defs>
    <clipPath id="clip-path">
      <rect id="Rectángulo_42640" data-name="Rectángulo 42640" width="106.7" height="44.982" fill="none"/>
    </clipPath>
  </defs>
  <g id="Grupo_151697-2" data-name="Grupo 151697" clip-path="url(#clip-path)">
    <path id="Trazado_212227" data-name="Trazado 212227" d="M377.658,132.127s-.936-.365-1.391.313a1.734,1.734,0,0,0-.974.442,2.551,2.551,0,0,1,1.711.236,3.153,3.153,0,0,0,1.468.711,1.074,1.074,0,0,0,.406,1.358,3.775,3.775,0,0,1,1.1,2.456c.9-.163.626-1.792.6-1.935.118.184.576-.465.414-.794.188.123.2-.346.1-.518.2.289.2-.269.117-.4.146.043.2-.281.105-.4a2.387,2.387,0,0,1,1.521.911c.555.484.042-.571.042-.571s1.115.23.387-.349c.43-.05.191-.593-.439-.722.335-.09-.981-.49-1.96-.568a.523.523,0,0,0-.362-.655c.312-.01.054-.576-.115-.665.109-.145-.048-.463-.5-.5.237-.1-.076-.3-.415-.375.223-.131-.078-.5-.556-.468.146-.2-.138-.355-.493-.43-.224-.3-1.51-1.77-2.134-2.636s-.927-1.218-1.142-.971a4.944,4.944,0,0,0,.234,3.037c.463,1.281,1.191,1.2,1.86,1.91a1.723,1.723,0,0,1,.419,1.574" transform="translate(-276.812 -92.661)" fill="#1e1e1e"/>
    <path id="Trazado_212228" data-name="Trazado 212228" d="M91.69,7.494s-1.617.232-1.718,1.555a2.823,2.823,0,0,0-1.025,1.4A4.151,4.151,0,0,1,91.558,9.42,5.123,5.123,0,0,0,94.2,9.251a1.747,1.747,0,0,0,1.661,1.6,6.137,6.137,0,0,1,3.522,2.6c1.141-.949-.548-3.036-.695-3.222.313.166.444-1.119-.048-1.455.364.024,0-.648-.277-.81.52.245.066-.54-.152-.654.242-.055.056-.555-.169-.646a3.881,3.881,0,0,1,2.882.073c1.173.242-.4-.842-.4-.842s1.763-.566.269-.8c.57-.415-.2-.993-1.2-.671.4-.4-1.781.091-3.228.765a.85.85,0,0,0-1.036-.638c.435-.264-.384-.858-.694-.849.039-.293-.438-.618-1.112-.3.258-.327-.348-.365-.887-.2.21-.364-.509-.643-1.162-.218.045-.4-.479-.392-1.042-.215-.554-.239-3.552-1.3-5.13-2.024s-2.286-.982-2.394-.46S84,2.943,85.677,4.386s2.648.752,4.161,1.216A2.8,2.8,0,0,1,91.69,7.494" transform="translate(-61.201 0)" fill="#1e1e1e"/>
    <path id="Trazado_212229" data-name="Trazado 212229" d="M160.64,93.2s-1.473-.2-1.733.353a2.7,2.7,0,0,0-1.2.589s1.039-.141,1.419.193,1.824,1.514,4.871.843c2.308-.441,3.159.191,3.159.191s.3-.787-.284-.9c.591,0,.368-.541-.224-.52.795-.094.455-.535-.351-.573s-1.97.007-1.97.007a31.657,31.657,0,0,0,.241-3.526c.039-.522,1.69-2.72,1.225-3.826a18.927,18.927,0,0,0-4.233,3.669,2.266,2.266,0,0,0-.074,1.591,7.462,7.462,0,0,0-2.227-.647c-.959-.049-1.776-.241-2.373.13a8.933,8.933,0,0,1-3.121,1.081c-.761.228.488.5,1.872.423s2.925-1.245,5.008.919" transform="translate(-113.33 -63.506)" fill="#1e1e1e"/>
    <path id="Trazado_212230" data-name="Trazado 212230" d="M14.293,82.552s.786-.346-.051-.828c.281-.3.7-1.307-.642-1.148s-2.588.438-3.7-.647A6.763,6.763,0,0,0,5.553,78.3a4.109,4.109,0,0,1-1.542-.357,1.6,1.6,0,0,0-2.077.314A3.659,3.659,0,0,0,0,79.032,4.1,4.1,0,0,1,3,79.8c2.577,2.535,8.131,2.658,8.131,2.658s1.99.633,3.154,1.075.008-.986.008-.986" transform="translate(0 -57.365)" fill="#1e1e1e"/>
    <path id="Trazado_212231" data-name="Trazado 212231" d="M4.866,85.536A8.946,8.946,0,0,0,3.343,89.5a19.865,19.865,0,0,1-2.326,5.617s3.23-2.121,3.359-2.985c.379.125.829-.294.823-1.071a1.242,1.242,0,0,0,.832-1.183c-.109-.283.865.113,1.048-1.911s-1.4-2.706-2.213-2.428" transform="translate(-0.751 -63.096)" fill="#1e1e1e"/>
    <path id="Trazado_212232" data-name="Trazado 212232" d="M24.041,86.647a.777.777,0,0,0,.084-.98c.2-.325.307-.366-.035-.845.16-.249.338-.345-.092-.831a1.067,1.067,0,0,0-.215-1.163c-.51-2.232-1.51-3.981-2.584-3.877a5.964,5.964,0,0,0-2.384.745l-.011.145a8.315,8.315,0,0,1,1.006,5.4c-.289,2.584,2.26,8.1,3.857,8.8a14.149,14.149,0,0,1-.047-5.276c.341-.508.36-.668.235-1.113a.808.808,0,0,0,.184-1.005" transform="translate(-13.881 -58.276)" fill="#1e1e1e"/>
    <path id="Trazado_212233" data-name="Trazado 212233" d="M308.817,73.021s.634.045.253-.56c.288-.1.905-.616-.026-.972s-1.845-.605-2.2-1.7a5.011,5.011,0,0,0-2.28-2.565,3.016,3.016,0,0,1-.886-.765c-.447-.546-.963-.756-1.468-.51a2.718,2.718,0,0,0-1.535-.157,3.037,3.037,0,0,1,1.7,1.54c.813,2.547,4.406,4.542,4.406,4.542s1.085,1.1,1.694,1.791.345-.642.345-.642" transform="translate(-221.947 -48.521)" fill="#1e1e1e"/>
    <path id="Trazado_212234" data-name="Trazado 212234" d="M293.535,73.3a6.617,6.617,0,0,0-2.363,2.068,14.705,14.705,0,0,1-3.459,2.875s2.845-.275,3.228-.8c.2.213.644.093.908-.417a.92.92,0,0,0,.953-.488c.027-.222.528.371,1.345-.89s.015-2.255-.612-2.352" transform="translate(-212.38 -54.11)" fill="#1e1e1e"/>
    <path id="Trazado_212235" data-name="Trazado 212235" d="M308.026,78.172a.576.576,0,0,0,.394-.613c.241-.144.326-.134.268-.566.191-.107.34-.109.227-.574a.792.792,0,0,0,.26-.836c.435-1.636.384-3.126-.356-3.428A4.408,4.408,0,0,0,307,71.821l-.057.091a6.151,6.151,0,0,1-1.2,3.879c-1.08,1.592-1.313,6.085-.51,7.094a10.484,10.484,0,0,1,1.788-3.471c.4-.215.466-.313.537-.648a.6.6,0,0,0,.468-.594" transform="translate(-224.959 -53.013)" fill="#1e1e1e"/>
  </g>
</svg>
