<svg xmlns="http://www.w3.org/2000/svg" xmlns:xlink="http://www.w3.org/1999/xlink" width="102" height="102" viewBox="0 0 102 102">
  <defs>
    <clipPath id="clip-path">
      <path id="Trazado_594356" data-name="Trazado 594356" d="M63.444,3.7c-.3.467-.577.449-.787-.019a.4.4,0,0,0-.418-.234,23.559,23.559,0,0,0-5.36.59c-.113.026-.279.133-.333.087-.74-.644-1.632-.126-2.44.007a2.175,2.175,0,0,1-1.473-.181.6.6,0,0,0-.869.132c-.205.262-.527.344-.628.217a.579.579,0,0,0-.593-.174.854.854,0,0,1-.353-.013.761.761,0,0,0-1.05.347A1.185,1.185,0,0,1,47.7,4.68c-.134-.148.061-.564-.391-.487-.32.055-.441.311-.655.467a1.533,1.533,0,0,1-1.026.234,2.5,2.5,0,0,0-.574.032,1.029,1.029,0,0,1-.505-.023,2.05,2.05,0,0,0-2.126.47c-.282.233-.475-.036-.587-.311-.074-.181-.091-.5-.392-.187-.165.172-.2.05-.232-.073-.033-.107-.072-.216-.214-.118a.642.642,0,0,1-.374.07,1.311,1.311,0,0,0-.235.014c-.085.016-.138.11-.157.222-.1.617-.442.641-.86.538a2.41,2.41,0,0,0-2.157.048.15.15,0,0,1-.1.012.487.487,0,0,0-.071,0,1.962,1.962,0,0,1-.559-.012,1.354,1.354,0,0,0-1.046.187,1.387,1.387,0,0,1-.838.172,1.78,1.78,0,0,0-.791.121.392.392,0,0,1-.405-.08c-.728-.5-1.073-.423-1.7.375-.344.438-.755.51-.922.041-.188-.531-.316-.23-.6-.066s-.618.333-.9.046c-.2-.2-.437-.14-.678-.081a.92.92,0,0,1-.5.035c-.379-.121-.085.331-.271.379a1.247,1.247,0,0,1-.672-.11,3.107,3.107,0,0,0-.578-.05c-.243.218.467.3.009.4-.313.07-.839.356-1.027-.306-.047-.165-.5-.006-.709.219-.321.348-.583.647-.918.126-.132-.206-.6-.1-.646.008-.213.5-.562.5-.908.5a.8.8,0,0,0-.81.335c-.067.11-.21.008-.3-.071-.447-.393-.914-.255-1.361.172-.215.205-.344.158-.593.125a2.2,2.2,0,0,0-2,.543,3.473,3.473,0,0,1-.7.491c-.193.115-.42.2-.549-.038a.313.313,0,0,0-.435-.167,7.628,7.628,0,0,1-1.76.55,4.631,4.631,0,0,0-1.672.784,3.694,3.694,0,0,0-.98.95,1.359,1.359,0,0,1-.9.639c-1.026-.017-1.665,1.072-2.579,1.312a1.091,1.091,0,0,0-.24.157c-.262.162-.636.1-.784.471-.139.354.225.46.3.719A1.2,1.2,0,0,1,7.1,15.3a4.4,4.4,0,0,0-.216,1.424,2.324,2.324,0,0,1-.819,1.531c-.365.3-.547.712-.891,1a.487.487,0,0,0,.735.094c.152-.114.316-.251.5-.219.125.02.362.042.24.262-.306.553-.331,1.25-1.048,1.6a1.822,1.822,0,0,0-.334,2.508.463.463,0,0,0,.436.058.746.746,0,0,1,.3-.019c.282.06.485.234.413.448-.2.588.06,1.248-.426,1.776-.18.2-.166.361.023.466.23.128.178.37.142.594-.063.385-.242.718.159,1.045.272.224.06.877-.234,1.161-.882.854-.7,1.826-.679,2.8,0,.228.3.6-.261.593-.072,0-.149.078-.115.119.332.436-.248,1.177.3,1.587a1.287,1.287,0,0,1,.441,1.117c0,.085-.006.159-.012.226a4.541,4.541,0,0,1-.581.676l.053.053a.421.421,0,0,0,.056.371.673.673,0,0,1-.084.738.378.378,0,0,0,.027.528c.063.056.124.113.184.172a1.89,1.89,0,0,0-.143,2.38.465.465,0,0,0,.437.058.74.74,0,0,1,.3-.019c.282.06.485.233.413.448-.2.588.06,1.248-.426,1.777-.18.2-.166.36.023.465.23.129.178.37.142.593-.063.386-.242.719.159,1.046.272.225.06.876-.234,1.161-.882.852-.7,1.824-.679,2.8,0,.23.3.6-.261.593-.072,0-.149.08-.115.122.332.435-.248,1.176.3,1.587a1.283,1.283,0,0,1,.441,1.117c-.011.358-.032.53-.3.709-.239.16-.352.305-.188.617a.676.676,0,0,1-.084.739.376.376,0,0,0,.027.527c.654.566,1.059,1.394,1.711,1.973a4.863,4.863,0,0,0,2.051.776c.7.212,1.432.313,2.137.52.34.1.555.373.9.442.7.138,1.341.552,2.147.082a.829.829,0,0,1,.763.063c.305.168.608.326.977.01.149-.126.266-.014.4.03.659.223,1.308.532,2.063-.027.223-.165.443.055.648.124a3.008,3.008,0,0,1,1.063.694c.061-.048.119-.073.145-.117.2-.326-.014-.763.241-1.016a.7.7,0,0,1,.566-.146,1.21,1.21,0,0,0,.383-.029,36.909,36.909,0,0,1,4.378-.74c1.515-.263,3.046-.438,4.569-.594,1.724-.175,3.451-.448,5.176-.688a1.885,1.885,0,0,0,.693-.223.938.938,0,0,1,.69-.145,7.447,7.447,0,0,0,2.577-.18,14.982,14.982,0,0,1,2.218-.235,6.551,6.551,0,0,0,2.532-.465,1.3,1.3,0,0,1,.886-.061,2.6,2.6,0,0,0,1.786-.053c1.008-.242,2.019-.367,3.019-.58a21.938,21.938,0,0,0,2.422-.53,12.31,12.31,0,0,1,2.3-.549A40.693,40.693,0,0,0,59.73,51.9c1.23-.315,2.442-.685,3.652-1.119a5.059,5.059,0,0,0,1.5-.761,17.793,17.793,0,0,1,4.388-2.27c.533-.228,1.079-.456,1.618-.68a9.184,9.184,0,0,1,2.148-.781,3.071,3.071,0,0,0,1.952-1.49,10.05,10.05,0,0,1,.934-1.467.28.28,0,0,0,.006-.361c-.335-.44-.23-.909.179-1.415-.929-.182-1.886.019-2.564-.726a3.332,3.332,0,0,1,1.757-1.392,1.311,1.311,0,0,0,.9-.823,1.041,1.041,0,0,0-.664.109c-.442.21-.7,0-.987-.285s-.142-.521.1-.7c.377-.285.788-.509,1.174-.832a4.245,4.245,0,0,0-1.827.089c-.168.068-.373.1-.465-.106a.565.565,0,0,1,.117-.621.677.677,0,0,0-.3-1.086.8.8,0,0,0-.258.014c-.2.032-.391.065-.405-.2-.022-.4.42-.43.665-.612.229-.17.457-.338.708-.523a.551.551,0,0,0-.322-.056c-.128,0-.242.007-.3-.11a.236.236,0,0,1,.024-.307,4.557,4.557,0,0,1,1.948-1.458,2.467,2.467,0,0,0,.416-.217.3.3,0,0,0,.161-.324c-.014-.14-.1-.269-.219-.213-.724.335-1.088-.453-1.743-.458-.42,0,.075-.4.178-.632-.132-.256-.474-.147-.625-.362a.234.234,0,0,1,.138-.238,2.61,2.61,0,0,0,1.1-.727c.145-.191.375-.317.131-.626a.371.371,0,0,1-.052-.09l.09-.125a3,3,0,0,0,.2-.311l.091-.07c.179-.144.509-.139.46-.514a.5.5,0,0,0-.087-.239,2.333,2.333,0,0,1,.274-.335.278.278,0,0,0,.006-.36c-.335-.44-.23-.909.179-1.416-.113-.021-.228-.038-.342-.051a1.759,1.759,0,0,1,.181-.136c.072-.044.016-.252-.087-.324s-.208-.1-.3-.159a.97.97,0,0,1-.153-.176c.052-.353.458-.4.5-.81a1.007,1.007,0,0,0-.386-.017c-.254.02-.516.038-.644-.257a3.843,3.843,0,0,1,.43-.187,1.313,1.313,0,0,0,.9-.825,1.049,1.049,0,0,0-.664.11c-.442.211-.7,0-.987-.285a.655.655,0,0,1-.125-.166,1.719,1.719,0,0,0,1.267-.745c-.087-.3-.329-.184-.515-.148h-.012a7.249,7.249,0,0,0,.66-.477,4.264,4.264,0,0,0-1.827.09c-.168.068-.373.094-.465-.106a.566.566,0,0,1,.117-.622.678.678,0,0,0-.3-1.086.74.74,0,0,0-.258.016c-.2.032-.391.064-.405-.2-.022-.4.42-.433.665-.614.229-.17.457-.339.708-.523a.561.561,0,0,0-.322-.057c-.128,0-.242.008-.3-.109a.237.237,0,0,1,.024-.309,4.564,4.564,0,0,1,1.948-1.457,2.378,2.378,0,0,0,.416-.216.3.3,0,0,0,.161-.325c-.014-.14-.1-.27-.219-.215-.724.336-1.088-.452-1.743-.456-.42,0,.075-.4.178-.632-.132-.259-.474-.147-.625-.364a.234.234,0,0,1,.138-.237,2.618,2.618,0,0,0,1.1-.726c.145-.191.375-.317.131-.627-.205-.262.128-.437.324-.6.179-.144.509-.14.46-.514-.041-.325-.263-.4-.536-.466a1.525,1.525,0,0,0-.868.072,68.272,68.272,0,0,1-6.738,1.678c-.11.026-.234.053-.323-.06.153-.3.431-.283.638-.312.96-.137,1.917-.413,2.87-.615a19.347,19.347,0,0,0,4.068-1.2c.111-.051.29-.126.309-.209a2,2,0,0,1,.79-1.425c.072-.046.016-.253-.087-.324s-.208-.1-.3-.161a.926.926,0,0,1-.153-.175c.052-.353.458-.4.5-.81a.976.976,0,0,0-.385-.019c-.3.024-.609.048-.7-.443-.033-.181-.371-.059-.574,0-.553.168-1.1.363-1.656.5a2.982,2.982,0,0,1-2.075.061c1.224-.929,2.552-.681,3.7-1.316a.632.632,0,0,0-.214.022.417.417,0,0,1-.509-.154c.741-.406,1.644-.147,2.21-1.029-.087-.3-.329-.186-.515-.151a21.781,21.781,0,0,0-3.131.5,1.02,1.02,0,0,0-.829-.078c-.339.058-.678.118-.938-.18-.13-.147-.324-.089-.5-.077a31.94,31.94,0,0,1-3.663.041,1.2,1.2,0,0,0-.2.014c-.215.023-.425.049-.533-.268-.052-.154-.176-.117-.3-.079a.552.552,0,0,1-.169.032c-.087,0-.174,0-.261,0a1.325,1.325,0,0,1-.6-.068.476.476,0,0,0-.189-.044c-.153,0-.285.1-.417.3" transform="translate(-4.904 -3.396)" fill="none"/>
    </clipPath>
  </defs>
  <g id="Grupo_874907" data-name="Grupo 874907" transform="translate(-748 -2715)">
    <circle id="Elipse_5475" data-name="Elipse 5475" cx="51" cy="51" r="51" transform="translate(748 2715)" fill="#c8cbdb"/>
    <g id="Grupo_874171" data-name="Grupo 874171" transform="translate(758.096 2734.604)">
      <g id="Grupo_874159" data-name="Grupo 874159" transform="translate(4.904 3.396)" clip-path="url(#clip-path)">
        <path id="Trazado_594349" data-name="Trazado 594349" d="M1,17.63,5.4,50.3,24.044,30.9Z" transform="translate(-5.333 -1.121)" fill="#464655"/>
        <path id="Trazado_594350" data-name="Trazado 594350" d="M9.236,9.388,35.25,25,76.941,18.88,74.56,1.183A1.326,1.326,0,0,0,73.074.013Z" transform="translate(-4.427 -3.939)" fill="#ff4b55"/>
        <path id="Trazado_594351" data-name="Trazado 594351" d="M15.505,56.64l20.888-22.5,41.689-6.123,2.38,17.7a1.365,1.365,0,0,1-1.119,1.553Z" transform="translate(-3.738 0.539)" fill="#41479b"/>
        <path id="Trazado_594352" data-name="Trazado 594352" d="M8.226,8.351,1.132,9.393A1.367,1.367,0,0,0,.013,10.946l.751,5.583L26.18,32.09,5.854,54.368l.75,5.583a1.327,1.327,0,0,0,1.486,1.17l7.093-1.042L37.123,36.036,79.6,29.8,78.14,18.907,35.658,25.145Z" transform="translate(-5.443 -2.604)" fill="#73af00"/>
        <path id="Trazado_594353" data-name="Trazado 594353" d="M11.609,7.819l-4.2.617L34.842,25.231l42.482-6.239-.366-2.723L35.383,22.374Z" transform="translate(-4.628 -2.689)" fill="#f5f5f5"/>
        <path id="Trazado_594354" data-name="Trazado 594354" d="M.688,15.4l.467,3.473,20.751,12.7L5.31,49.769l.467,3.473L26.105,30.964Z" transform="translate(-5.368 -1.477)" fill="#ffe15a"/>
        <path id="Trazado_594355" data-name="Trazado 594355" d="M35.617,33.081,13.678,57.125l4.2-.616L36.889,35.671l41.576-6.105L78.1,26.842Z" transform="translate(-3.939 0.351)" fill="#f5f5f5"/>
      </g>
    </g>
  </g>
</svg>
