<svg xmlns="http://www.w3.org/2000/svg" xmlns:xlink="http://www.w3.org/1999/xlink" width="125" height="116.726" viewBox="0 0 125 116.726">
  <defs>
    <clipPath id="clip-path">
      <rect id="Rectángulo_42814" data-name="Rectángulo 42814" width="125" height="116.726" fill="#fff"/>
    </clipPath>
  </defs>
  <g id="Grupo_874908" data-name="Grupo 874908" transform="translate(-734 -3277)">
    <g id="Grupo_874342" data-name="Grupo 874342" transform="translate(734 3277)">
      <g id="Grupo_874113" data-name="Grupo 874113" clip-path="url(#clip-path)">
        <path id="Trazado_594273" data-name="Trazado 594273" d="M49.211,18.858c1.092-.218,2.189-.416,3.274-.668a1.124,1.124,0,0,0,.573-.466c.7-1.021,1.307-2.107,2.07-3.074a2.439,2.439,0,0,1,1.5-.963A2.7,2.7,0,0,0,58.88,12.6a1.325,1.325,0,0,1,.935-.548c1.406.154,1.828-.7,2-1.717l3.544-.85c-.923-.915-1.616-1.442-2.6-.188a1.837,1.837,0,0,1-1.8.2c-1.374-1.2-1.432.2-1.883.823-.09.123-.054.338-.1.667l-1.789-.9.041.041A2.186,2.186,0,0,0,56.4,7.937c-.132-.1-.058-.8.14-.972,1.169-1.023,2.421-.832,3.424.557A8.75,8.75,0,0,1,61.3,5.733a2.057,2.057,0,0,1,1.49-.1c.237.049.389.514.564.769l2.9-2.016a1.417,1.417,0,0,1,1.72-1.537.853.853,0,0,0,.516-.292c.9-.881,1.815-1.186,2.932-.291.186.149.787-.063,1.1-.261,1.082-.679.974.289,1.068.573A32.423,32.423,0,0,0,76.79.567c1.415-1.126,2.5.865,3.823.069l.264.274L80.293,2.8c.871,1.207.645,1.675-1.027,1.968a36.268,36.268,0,0,0-5.122,1.285,5.746,5.746,0,0,0,3.131.383c1.92-.25,3.9-.036,5.848-.1.412-.013.814-.366,1.36-.629.648,1.022,1.462-.089,2.394-.462l.307,1.171c1.4-1.744,2.272-1.924,4.468-1.163.366.127.857-.127,1.293-.179a7.682,7.682,0,0,1,1.639-.047h4.227l.065.109-1.246.164c.16,1.239.309,2.4.455,3.535l-2.3,1.012c.3.131.475.289.625.265,1.69-.272,3.149.456,4.636,1.046,20.993,8.333,34.551,29.63,32.993,51.818-1.81,25.769-20.694,45.722-46.354,49.066a58.48,58.48,0,0,0-13.725,3.018c-1.27.492-2.476,1.146-3.9,1.816V114.11l-1.955.5-.331-1.353c-.19.317-.272.479-.377.625-.154.212-.326.412-.49.618-.193-.171-.513-.314-.557-.518-.2-.935-.6-.532-1.123-.28-1.067.517-2.182.936-3.236,1.378l-.721-2.037H62.38l.981-1.644-2.126-1.778a19.468,19.468,0,0,1-2.551.832c-1.179.213-1.781-.475-1.458-1.563.379-1.276-.916-1.349-1.295-2.059a3.81,3.81,0,0,0-1.395.505c-.619.386-1.165.938-1.73-.022a.967.967,0,0,1-.182-.541c.071-.53.2-1.052.334-1.7-.541.223-.876.473-1.194.455-.232-.013-.649-.548-.632-.569.673-.841.351-2.109,1.429-2.84A9.314,9.314,0,0,0,55.7,97.9a6.013,6.013,0,0,1,2.26-2.412c1.119-.714,1.148-1.587,1.042-2.73-.325-.015-.585-.031-.845-.038-1.735-.043-1.644-.037-1.555-1.7a5.93,5.93,0,0,0-.483-1.954c-.96-.152-1.872-.6-2.468-.335-1.8.8-3.265.316-4.8-.6-.289-.172-.9.2-1.431.332a5.606,5.606,0,0,1-.82-1.055c-.423-.867-.918-.459-1.475-.215a2.244,2.244,0,0,1-1.259.325c-1.532-.4-1.927-.2-2.327,1.4a3.042,3.042,0,0,1-.268.45A17.352,17.352,0,0,1,38.9,88.328c-.62-.384-.907-.972.038-1.451.208-.105.333-.374.585-.672a2.591,2.591,0,0,0-2.975.517c-.784.771-1.09.036-1.447-.261-.141-.117.047-.779.235-1.108a7.7,7.7,0,0,0,1.007-1.9c-.885.309-1.788.574-2.648.942a12.954,12.954,0,0,1-1.9,1c-.428.1-.974-.313-1.467-.5.316-.437.538-1.046.965-1.278,1.206-.655,2.5-1.156,3.849-1.76l-.738-1.1,1.529-1.121-.146-.4c-.488.17-.986.319-1.463.516s-.927.438-1.22.579l-.37-1.526c-1.093.554-2.048,1.042-3.007,1.521-.151.075-.36.067-.477.17-1.721,1.514-1.718,1.517-3.706,1.4l-.222-1.045-1,.6a1.328,1.328,0,0,1,.847-2.119c2.037-.647,3.109-2.406,4.606-3.67a.435.435,0,0,0,.089-.343c-.182-1.209.65-1.7,1.488-2.262a10.268,10.268,0,0,0,1.561-1.5c.749-.784,1.508-1.562,2.2-2.393A10.975,10.975,0,0,0,36.372,67.3a1.543,1.543,0,0,0,.107-1.111c-.068-.2-.543-.31-.85-.354-.721-.1-1.451-.146-2.356-.23-.579.854-.579.854-2.888.682l-.211-.964c-.654.059-1.593.381-1.817.11-.353-.425-.224-1.25-.3-1.9l-3.363-1.648c-.744.922-1.334,1.6-1.863,2.326-.445.609-.82,1.27-1.289,2.009-1.751-.341-2.214-.106-3.9,2.283-.22-.952-.811-1.691.473-2.321a8.016,8.016,0,0,0,1.857-1.7c.833-.835-.138-1.528-.371-2.135-.333-.867-.518-1.284.4-1.9.5-.334.628-1.22.924-1.857L20.7,58.3c-.706.411-1.41.827-2.12,1.23s-1.428.8-2.144,1.192c-.115.063-.326.09-.346.17-.489,2-2.205,1.22-3.552,1.6.654-1.859,2.73-2.1,3.606-3.444.866-1.332,3.006-1.887,2.6-3.893a11.226,11.226,0,0,0-2.151-.572c-.448-.031-.911.364-1.388.486a9.919,9.919,0,0,1-1.362.162c-.021-.581-.288-1.488-.022-1.689,1.5-1.129,2.154-2.833,3.215-4.252.943-1.261,2.088-2.373,2.993-3.658,1.1-1.561,1.985-3.273,3.076-4.841.46-.661,1.286-1.056,1.811-1.684,1.472-1.762,2.833-3.618,4.323-5.364a11.4,11.4,0,0,1,2.235-1.883c.2-.141.691.129,1.095.221l.829-3.156,2.274-.792c.731-1.332.344-3.161,2.43-3.243.119,0,.211-.343.34-.506.677-.857,1.362-1.708,2.043-2.562l.454.2V24.9c1.382-.02,1.139-.9,1.176-1.6.035-.671-.273-1.57,1.089-1.341V18.936c1.087-.377,1.658.072,2.469.661,1.262.916-.694,1.619.064,2.287a24.9,24.9,0,0,0,2.9-1.591c.36-.258.41-.95.6-1.444Z" transform="translate(-9.163 -0.156)" fill="#fff"/>
        <path id="Trazado_594274" data-name="Trazado 594274" d="M160.739,36.929c-.538,1.258-.846,2.668-2.5,3.068-.4.1-.646.694-1.043.919-.728.411-2.882-.378-3-1.2-.062-.409.476-1.081.916-1.355a15.844,15.844,0,0,1,2.513-1.033c.338.545.8.7,1.507-.157.255-.311,1.085-.15,1.653-.205l-.04-.041" transform="translate(-112.715 -26.996)" fill="#fff"/>
        <path id="Trazado_594275" data-name="Trazado 594275" d="M143.514,54.2a4.484,4.484,0,0,0-.936.04,5.228,5.228,0,0,0-.915.422c-.576-3.8.447-6.266,2.72-6.084-.221,1.083-.453,2.138-.638,3.2a1.1,1.1,0,0,0,.159.722c.48.733.172,1.243-.409,1.706l.02-.008" transform="translate(-103.445 -35.502)" fill="#fff"/>
        <path id="Trazado_594276" data-name="Trazado 594276" d="M268.536.57c.663.111,1.48-.36,1.423.786,0,.082.248.252.371.243s.248-.184.318-.315c.838-1.584,1-1.622,2.305-.555l-.611,2.459h-1.711l-1.178,1.391a4.954,4.954,0,0,1-.878-1.452A14.179,14.179,0,0,1,268.536.57" transform="translate(-196.279 0)" fill="#fff"/>
        <path id="Trazado_594277" data-name="Trazado 594277" d="M2.788,208.675a2.686,2.686,0,0,1-2.77,2.276,2.18,2.18,0,0,1,2.77-2.276" transform="translate(0 -152.515)" fill="#fff"/>
        <path id="Trazado_594278" data-name="Trazado 594278" d="M290.2.2c.155.676.282,1.229.473,2.064l-1.011.577c-.145-.344-.507-.854-.394-1,.388-.507-.657-1.854.932-1.64" transform="translate(-211.449 -0.131)" fill="#fff"/>
        <path id="Trazado_594279" data-name="Trazado 594279" d="M308.8,5.415l-1.047-1.1,2.8-.626.263.572L308.8,5.415" transform="translate(-224.974 -2.7)" fill="#fff"/>
        <path id="Trazado_594280" data-name="Trazado 594280" d="M139.317,393.666l1.994-.621c.006.27.129.652,0,.789-.488.506-1.061.919-1.991-.168" transform="translate(-101.845 -287.328)" fill="#fff"/>
        <path id="Trazado_594281" data-name="Trazado 594281" d="M60.809,245.793l-1.915,1.582-.288-.9,1.958-.966.244.279" transform="translate(-42.844 -179.479)" fill="#fff"/>
      </g>
    </g>
    <g id="programador" transform="translate(759 3298.252)">
      <path id="Trazado_595177" data-name="Trazado 595177" d="M76.449,173.412H46.943a4.024,4.024,0,0,0-4.024,4.024v17.436a4.024,4.024,0,0,0,4.024,4.024h10.73v4.024H52.308V205.6H40.237v-7.269a9.431,9.431,0,0,0-6.917-9.06l-7.836-2.132v-2.012a9.376,9.376,0,0,0,4.024-7.693v-1.341a1.341,1.341,0,0,0,1.341-1.341V170.73A10.742,10.742,0,0,0,20.118,160H8.047a2.683,2.683,0,0,0-2.682,2.682v6.706a6.677,6.677,0,0,0,5,6.482c.119.033.243.048.363.074v1.491a9.376,9.376,0,0,0,4.024,7.693v2.012l-7.841,2.133A9.429,9.429,0,0,0,0,198.332v13.975a1.341,1.341,0,0,0,1.341,1.341H79.132a1.341,1.341,0,0,0,1.341-1.341v-5.365a1.341,1.341,0,0,0-1.341-1.341H71.085v-2.682H65.72V198.9h10.73a4.024,4.024,0,0,0,4.024-4.024V177.436A4.024,4.024,0,0,0,76.449,173.412Zm-68.4-4.024v-6.706H20.118a8.055,8.055,0,0,1,8.047,8.047v2.682H27.28a2.691,2.691,0,0,1-2.6-2.027l-.576-2.32a1.343,1.343,0,0,0-1.034-.991,1.311,1.311,0,0,0-.267-.027,1.341,1.341,0,0,0-1.073.536l-.8,1.073a9.791,9.791,0,0,1-1.651,1.7,9.363,9.363,0,0,1-5.86,2.056H12.071a3.606,3.606,0,0,1-1.01-.134,4.006,4.006,0,0,1-3.014-3.889Zm5.365,8.047v-1.341a12.058,12.058,0,0,0,7.55-2.658,12.6,12.6,0,0,0,1.2-1.105,5.365,5.365,0,0,0,4.663,3.726v1.379a6.706,6.706,0,1,1-13.412,0Zm6.706,9.389a9.331,9.331,0,0,0,2.682-.4v1.743a1.327,1.327,0,0,0,.468,1l-3.151,2.625-3.151-2.623a1.326,1.326,0,0,0,.468-1v-1.743a9.331,9.331,0,0,0,2.682.4Zm-12.5,5.036,6.326-1.722,5.311,4.426a1.343,1.343,0,0,0,1.717,0l5.311-4.426,6.322,1.72a6.742,6.742,0,0,1,4.944,6.473V205.6H33.53V198.9H30.848V205.6H9.389V198.9H6.706V205.6H2.682v-7.269a6.738,6.738,0,0,1,4.94-6.472Zm70.168,16.423v2.682H2.682v-2.682Zm-17.436-5.365V188.166h2.682v14.753Zm17.436-8.047a1.341,1.341,0,0,1-1.341,1.341H65.72v-9.389a1.341,1.341,0,0,0-1.341-1.341H59.014a1.341,1.341,0,0,0-1.341,1.341v9.389H46.943a1.341,1.341,0,0,1-1.341-1.341V177.436a1.341,1.341,0,0,1,1.341-1.341H76.449a1.341,1.341,0,0,1,1.341,1.341Zm0,0" transform="translate(0 -133.176)" fill="#486b5a"/>
      <path id="Trazado_595178" data-name="Trazado 595178" d="M289.53,0H265.389a4.024,4.024,0,0,0-4.024,4.024V5.365h-1.341A4.024,4.024,0,0,0,256,9.389V28.166a4.024,4.024,0,0,0,4.024,4.024h24.142a4.024,4.024,0,0,0,4.024-4.024V26.824h1.341a4.024,4.024,0,0,0,4.024-4.024V4.024A4.024,4.024,0,0,0,289.53,0ZM260.024,8.047h24.142a1.341,1.341,0,0,1,1.341,1.341V10.73H258.682V9.389A1.341,1.341,0,0,1,260.024,8.047Zm24.142,21.46H260.024a1.341,1.341,0,0,1-1.341-1.341V13.412h26.824V28.166A1.341,1.341,0,0,1,284.166,29.507Zm6.706-6.706a1.341,1.341,0,0,1-1.341,1.341h-1.341V9.389a4.024,4.024,0,0,0-4.024-4.024H264.047V4.024a1.341,1.341,0,0,1,1.341-1.341H289.53a1.341,1.341,0,0,1,1.341,1.341Zm0,0" transform="translate(-213.081)" fill="#486b5a"/>
      <path id="Trazado_595179" data-name="Trazado 595179" d="M344,112h2.682v2.682H344Zm0,0" transform="translate(-286.328 -93.223)" fill="#486b5a"/>
      <path id="Trazado_595180" data-name="Trazado 595180" d="M376,112h2.682v2.682H376Zm0,0" transform="translate(-312.963 -93.223)" fill="#486b5a"/>
      <path id="Trazado_595181" data-name="Trazado 595181" d="M312,112h2.682v2.682H312Zm0,0" transform="translate(-259.692 -93.223)" fill="#486b5a"/>
      <g id="Elipse_5432" data-name="Elipse 5432" transform="translate(16 2.748)" fill="#fff" stroke="#486b5a" stroke-width="2">
        <circle cx="11" cy="11" r="11" stroke="none"/>
        <circle cx="11" cy="11" r="10" fill="none"/>
      </g>
      <path id="Trazado_595188" data-name="Trazado 595188" d="M27,19.3V13.918h6.232" fill="none" stroke="#486b5a" stroke-width="2"/>
    </g>
  </g>
</svg>
