<svg xmlns="http://www.w3.org/2000/svg" width="60" height="60" viewBox="0 0 60 60">
  <g id="Grupo_874629" data-name="Grupo 874629" transform="translate(-285 -1575)">
    <path id="Trazado_595258" data-name="Trazado 595258" d="M30,0A30,30,0,1,1,0,30,30,30,0,0,1,30,0Z" transform="translate(285 1575)" fill="#e4eadb"/>
    <g id="cita_1_" data-name="cita(1)" transform="translate(295 1585)">
      <path id="Trazado_595234" data-name="Trazado 595234" d="M35.973,29.512a4.921,4.921,0,0,0-4.152-8.345,7.417,7.417,0,0,0-2.107-1.682,4.922,4.922,0,0,0-3.4-8.386,7.434,7.434,0,0,0-2.86-2.71,4.926,4.926,0,1,0-6.995,0A7.46,7.46,0,0,0,13.594,11.1a4.922,4.922,0,0,0-3.4,8.388,7.445,7.445,0,0,0-2.109,1.68,4.923,4.923,0,0,0-4.152,8.345A7.437,7.437,0,0,0,0,36.066v3.84H39.905v-3.84a7.437,7.437,0,0,0-3.933-6.554Zm-.91-3.464a2.588,2.588,0,1,1-2.588-2.588A2.591,2.591,0,0,1,35.063,26.048Zm-7.513,0a4.909,4.909,0,0,0,1.428,3.464,7.486,7.486,0,0,0-2.764,2.557,7.485,7.485,0,0,0-2.763-2.557,4.917,4.917,0,0,0-.506-7.374,5.089,5.089,0,0,1,6.31-.183c.079.059.155.12.229.183A4.92,4.92,0,0,0,27.549,26.048Zm-5.009,0a2.588,2.588,0,1,1-2.588-2.588A2.591,2.591,0,0,1,22.54,26.048ZM28.8,16.022a2.588,2.588,0,1,1-2.588-2.588A2.591,2.591,0,0,1,28.8,16.022ZM17.365,4.926a2.588,2.588,0,1,1,2.588,2.588A2.591,2.591,0,0,1,17.365,4.926Zm2.588,4.926a5.078,5.078,0,0,1,3.917,1.839,4.921,4.921,0,0,0-1.153,7.8,7.443,7.443,0,0,0-2.11,1.68,4.8,4.8,0,0,0-1.308,0,7.436,7.436,0,0,0-2.107-1.683,4.921,4.921,0,0,0-1.156-7.793,5.114,5.114,0,0,1,3.916-1.839Zm-6.261,3.583A2.588,2.588,0,1,1,11.1,16.022,2.591,2.591,0,0,1,13.691,13.434Zm0,7.513a5.045,5.045,0,0,1,3.067,1.027c.069.052.136.107.2.162a4.917,4.917,0,0,0-.507,7.374,7.486,7.486,0,0,0-2.763,2.557,7.485,7.485,0,0,0-2.764-2.557,4.917,4.917,0,0,0-.506-7.374,5.1,5.1,0,0,1,3.27-1.19ZM7.43,23.46a2.588,2.588,0,1,1-2.588,2.588A2.591,2.591,0,0,1,7.43,23.46Zm5.092,14.107H2.338v-1.5a5.092,5.092,0,0,1,10.184,0Zm12.522,0H14.861v-1.5a5.092,5.092,0,0,1,10.184,0Zm12.522,0H27.383v-1.5a5.092,5.092,0,0,1,10.184,0Z" transform="translate(0 0)"/>
    </g>
  </g>
</svg>
