<svg xmlns="http://www.w3.org/2000/svg" xmlns:xlink="http://www.w3.org/1999/xlink" width="102" height="102" viewBox="0 0 102 102">
  <defs>
    <clipPath id="clip-path">
      <rect id="Rectángulo_42831" data-name="Rectángulo 42831" width="70.464" height="56" fill="none"/>
    </clipPath>
  </defs>
  <g id="Grupo_874905" data-name="Grupo 874905" transform="translate(-748 -2063)">
    <circle id="Elipse_5474" data-name="Elipse 5474" cx="51" cy="51" r="51" transform="translate(748 2063)" fill="#c8cbdb"/>
    <g id="Grupo_874169" data-name="Grupo 874169" transform="translate(-2575 11490.155)">
      <g id="Grupo_874149" data-name="Grupo 874149" transform="translate(3339 -9404.155)">
        <g id="Grupo_874148" data-name="Grupo 874148" clip-path="url(#clip-path)">
          <path id="Trazado_594313" data-name="Trazado 594313" d="M40.476,1.465c-.377.074.024.532.087.071.009-.061-.04-.076-.087-.071" transform="translate(1.28 0.372)" fill="#d92624" fill-rule="evenodd"/>
          <path id="Trazado_594314" data-name="Trazado 594314" d="M52.82,5.8c.4-.2.106-.551,0,0" transform="translate(1.677 1.4)" fill="#d41717" fill-rule="evenodd"/>
          <path id="Trazado_594315" data-name="Trazado 594315" d="M59.283,7.238c.473.527.42-.915,0,0" transform="translate(1.882 1.76)" fill="#d41717" fill-rule="evenodd"/>
          <path id="Trazado_594316" data-name="Trazado 594316" d="M40.982.864c-.1-.561-.454.258-.168.163a.2.2,0,0,0,.168-.163" transform="translate(1.292 0.169)" fill="#d92624" fill-rule="evenodd"/>
          <path id="Trazado_594317" data-name="Trazado 594317" d="M60.835,6.823c-.591.482.467-.124,0,0" transform="translate(1.926 1.729)" fill="#d41717" fill-rule="evenodd"/>
          <path id="Trazado_594318" data-name="Trazado 594318" d="M42.684,1.349c.354-.139-.226-.507-.125-.359.07.1.009.295.125.359" transform="translate(1.351 0.243)" fill="#d92624" fill-rule="evenodd"/>
          <path id="Trazado_594319" data-name="Trazado 594319" d="M41.088.35c-.352-.314-.877.147,0,0" transform="translate(1.289 0.061)" fill="#d41717" fill-rule="evenodd"/>
          <path id="Trazado_594320" data-name="Trazado 594320" d="M37.5,1.254c.567-.266-.706-.238,0,0" transform="translate(1.184 0.271)" fill="#d41717" fill-rule="evenodd"/>
          <path id="Trazado_594321" data-name="Trazado 594321" d="M58.029,6.96c-.141.186.319.451.327.3.005-.092-.234-.322-.327-.3" transform="translate(1.842 1.768)" fill="#d92624" fill-rule="evenodd"/>
          <path id="Trazado_594322" data-name="Trazado 594322" d="M42.747,2.363c-.335-.4-.417.571-.225.252.062-.1.2-.083.225-.252" transform="translate(1.347 0.576)" fill="#d92624" fill-rule="evenodd"/>
          <path id="Trazado_594323" data-name="Trazado 594323" d="M44.808.686c.013.477-.54.967.035.37.116-.12.1-.232-.035-.37" transform="translate(1.416 0.174)" fill="#d92624" fill-rule="evenodd"/>
          <path id="Trazado_594324" data-name="Trazado 594324" d="M38.756,1.23c-.391.226.248.551.249.172,0-.213-.184-.065-.249-.172" transform="translate(1.227 0.313)" fill="#d92624" fill-rule="evenodd"/>
          <path id="Trazado_594325" data-name="Trazado 594325" d="M46.593,1.989c-.938.3,1.134.255,0,0" transform="translate(1.471 0.505)" fill="#d41717" fill-rule="evenodd"/>
          <path id="Trazado_594326" data-name="Trazado 594326" d="M49.407.861c-.522.3.12.5.161.084.017-.167-.084-.1-.161-.084" transform="translate(1.562 0.212)" fill="#d92624" fill-rule="evenodd"/>
          <path id="Trazado_594327" data-name="Trazado 594327" d="M40.619,3.022c.779-.549-.013-1.022,0,0" transform="translate(1.29 0.615)" fill="#d41717" fill-rule="evenodd"/>
          <path id="Trazado_594328" data-name="Trazado 594328" d="M49.622,2.28c.827-.2-.432-.788-.181-.128.036.093.115.1.181.128" transform="translate(1.569 0.469)" fill="#d92624" fill-rule="evenodd"/>
          <path id="Trazado_594329" data-name="Trazado 594329" d="M58.237,6.491c-.642-.054.567.562.6.016.014-.26-.515-.045-.6-.016" transform="translate(1.843 1.621)" fill="#d92624" fill-rule="evenodd"/>
          <path id="Trazado_594330" data-name="Trazado 594330" d="M39.5.626c-.405-.386-.865.529-.108.135.051-.028.1-.038.108-.135" transform="translate(1.238 0.134)" fill="#d92624" fill-rule="evenodd"/>
          <path id="Trazado_594331" data-name="Trazado 594331" d="M40.971.425l0-.02c-.884.384.41.409.41.409.163-.327-.25-.415-.408-.389" transform="translate(1.291 0.103)" fill="#d92624" fill-rule="evenodd"/>
          <path id="Trazado_594332" data-name="Trazado 594332" d="M51.993,19.814c-1.09.291,1.319.246,0,0m10.346,2.5a1.367,1.367,0,0,1,.156.125c.5.454.445-.532.98-.186.247.159.376.124.592-.163-.05-.1-.171.013-.229-.1a6.781,6.781,0,0,1,1.871.048c-.08.03-.163.063-.249.1l.5-.071a4.11,4.11,0,0,1,1.664.376c.056.633-2.572,1.154-2.848.776-.166-.228-.765-.031-.621.292.035.079.178.051.134.211a2.279,2.279,0,0,0-.531,0c.376-.846-.242-1.168-.583-1.075.011-.114-.314-.04-.544.015-.208.05-.369.143-.314.212s.192.063.663-.053a.5.5,0,0,0,.16.425c.08.1-.026.345.172.588-.187-.041-.2.171-.318.206.082.147.279.068.3.34-.271-.184-.543.232-.839.023.368-.188.368-.188.106-.569.074.864-.641.408-.772.91-.466-1.028.289-.509-.165-.3-.3.137-1.019.882-1.346.32-.08-.138-.812.267-.921.276.052-1.013-.433.361-1.03.227-1.067-.24-1.2,1.037.026.356a1.017,1.017,0,0,1,1.275.117c.072-.8,3.692-.721,4.422-1.175.272-.171.267.25.463.226-.118.094-.208.235-.368.261a8.274,8.274,0,0,0,2.16.112.665.665,0,0,1,.261-.008c.924-.028,1.968-.089,2.88-.161a.6.6,0,0,1,.128.166c.173.344-1.922.122-1.1.949.373.379-3.089,1.037-3.176,1.012-1.406-.39-1.413.85-2.078.371.631-.729-.457-.183-.268.4.051.157-.534.416-.509.1.037-.436-.642-.261-.243.236-.271.109-.267-.359-.431-.033-.172.342-2.288.736-2.668.833,0,.529-1.065.208-1.1.4-.011.066-1.864.92-.523.75.3.493-.895.243-.5,1,.18.342-2.623.453-1.412,1.711.251.261-1.372.464-1.749,1.137,1.091.25,3.384-.475,4.047-.166-.327.025-.486.8-1.367,1.1-1.076.362,1.353.981,3.058.514-.582.583.542.53.918,1.008.062.08-1.747.976-.96.992.487.009.318,1.163-.024,1.092-.732-.15-.773,1.007-1.347.954-.542-.049-5.86.621-6.175,1.095.393-.064.755-.147,1.008.218-1.588,1.361.2-.968-.579.859-.234.553-7.636.588-7.749,1.506-.071.564-3.005.391-3.005.391a31.5,31.5,0,0,1-6.906,1.556c-.123.321-1.522.542-1.763.307-.4.749-2.2.061-2.385.571-.109.3-3.221.761-3.346.439-.045.191.086.193.079.295a4.7,4.7,0,0,1-1.635.221c-.239.3-3.78.72-3.6,1.174.266.682-1.151.115-1.293.558-.272.849-.379-.711-.589-.025,0,0-1.273-.208-.819.647-.371.015-.24-.737-.66-.173.01-.577-.869-.461-.939.016-.083.572-.3-.1-.526.063-.022.147.132.148.127.3-.151-.055-.348.375-.454-.079-.265.576-.577.312-1.02.549.053-.384-.419-.272-.492-.031-.118.388-.51-.567-.844-.209.24.127.135.3.026.483-.144-.517-.392,0-.74.145.479-.826-1.787.347-1.892-.092-.042-.179-.89.445-1.754.473-1.021.034-1.309-.688-2.961.059-.366.166-.484-.069-1.385.129-.18.039-.433-.8-.519-.6-.1.631-.032.154-.4-.046.279-.463.519-.845-.083-.889-.194-.579-.059-.133-.771-.4-.4-.145.7-.446.69-.505-.021-.193-1.584.055-1.485-.707.021-.164.294-.172.582-.389-1.548-.087.547-1.2-.014-1.511l.006.008c-.042-.312,1.564-1.438.6-1.174.046-.258.046-.258-.189-.145.258-.893,2.442-1.018,2.563-1.591-.329.043-1.2.717-1.232.11-.042-.948-2.016.448-2.022-.035,0-.217.988-.088.8-.543-.082-.2-.552.263-.566-.011-.056-1-2.8.6-2.885-.558-.059-.78.394-.446,1.4-.727.362-.1,3.211-.275,3.145-.922-.038-.379-3.4.419-2.46-.1C3.656,39.893,1,39.917.972,39.9c.313-.286,2.442-.735,2.428-.849-.025-.2,1.345-1.032.373-.969-.407.026.15-.451-.316-.7l1.207-.262a5.871,5.871,0,0,0-1.314.216,3.768,3.768,0,0,0-1.324-.082c-.084.005-.171.034-.248-.06,1.094-.013,1.2-.4.981-.6q.806-.175,1.614-.326a4.161,4.161,0,0,0,.6-.1c2.058-.873,4.2-1,6.279-1.5,1.627-.393,3.251-.855,5.127-1.2-.736-.381-2.144.073-3.252.231.013-.223.41-.465.938-.612,1.39-.389,2.782-.568,4.218-.988.558-.162,1.215-.04.989.277-.283.4.272.426,1.05.316a8.034,8.034,0,0,0,2.747-.819c.723-.424-.357-.228-.729-.291a5,5,0,0,1,2.707-.769,2.013,2.013,0,0,0,.8-.186c1.992-.89,3.732-.656,5.645-1.169.177-.046.545-.021.57.04.181.449,1,.224,2.091-.171a5.78,5.78,0,0,1,1.227-.265c.985-.1,1.666-.211,1.368-.625-.082-.113.334-.27.663-.381a58.718,58.718,0,0,1,6.787-1.8,4.75,4.75,0,0,1,1.554-.013c-.008.275-1.054.43-1.046.678a8.24,8.24,0,0,0,1.773-.355c.737-.2,1.775-.429.725-.573-.228-.03-.065-.174.23-.267A18.035,18.035,0,0,1,52.8,24.454a6.1,6.1,0,0,0,1.369-.266,42.748,42.748,0,0,1,4.688-1.115,20.43,20.43,0,0,0,2.1-.445c-.188-.087-.154-.448.523-.356a.93.93,0,0,1-.217.282c.361-.085.722-.169,1.073-.237M2.62,36.336c.5-.182,1.3-.376,2.1-.567a5.075,5.075,0,0,1-.895.3,7.764,7.764,0,0,1-1.206.262m4.856-1.384a.059.059,0,0,0,.013-.05c-.007-.025-.042-.046-.1-.061-.008-.082.1-.188.445-.346a2.575,2.575,0,0,1,2.147-.1c-.762.245-1,.6-1.988.868-.044-.14-.356-.213-.514-.314Zm-.091-.112c-.025-.006-.054-.01-.086-.015.033.005.061.009.086.015M65.623,24.66a7.921,7.921,0,0,0-.935.045.9.9,0,0,1,.935-.045M57.446,21.7c1.049-1.142-.766.232,0,0m-2.224.231c-.824-.026-.366.5,0,0m.679-1.975a.175.175,0,0,0,.043-.045.175.175,0,0,1-.043.045m-11.059.959c.9-.532-.015-.989,0,0m7.152-1.1c-1.09.291,1.319.246,0,0m-7.152,1.1c.9-.532-.015-.989,0,0" transform="translate(0.03 5.034)" fill="#de0000" fill-rule="evenodd"/>
          <path id="Trazado_594333" data-name="Trazado 594333" d="M62.432,7.481l.019.135s-.754-.143-.348.206c-.162.1-.462-.041-.7-.1.345-.076.689-.157,1.033-.238" transform="translate(1.949 1.901)" fill="#d92624" fill-rule="evenodd"/>
          <path id="Trazado_594334" data-name="Trazado 594334" d="M62.614,7.076c-.005-.023-.011-.044-.018-.063.006.019.012.04.018.063" transform="translate(1.988 1.782)" fill="#d92624" fill-rule="evenodd"/>
          <path id="Trazado_594335" data-name="Trazado 594335" d="M62.847,7.395c-.053.177-.12.342-.308.371a2.154,2.154,0,0,0,.078-.316Z" transform="translate(1.986 1.879)" fill="#d92624" fill-rule="evenodd"/>
          <path id="Trazado_594336" data-name="Trazado 594336" d="M62.092,6.846l0,.01,0-.01" transform="translate(1.971 1.74)" fill="#d92624" fill-rule="evenodd"/>
          <path id="Trazado_594337" data-name="Trazado 594337" d="M63.8,8.2c-.044.238.19.316.217.377l0,.011,0-.011c-.671.186-1.408.334-2.11.5-.348.084-.7.176-1.037.281-.47.149-1.041.327-.767.49s-.375.469-.355.668c-1.2.045-.759-.527-1.433-.714a14.26,14.26,0,0,1-2.273.888c.185.346.7.42,1.875.139.608-.144,1.22-.214,1.83-.317h0a9.715,9.715,0,0,1,2.418-.652q.393-.079.785-.163a.446.446,0,0,0-.023.189.316.316,0,0,0,.264.286l-.384.134A13.742,13.742,0,0,1,59.787,11a19.57,19.57,0,0,0-3.875.8,12.065,12.065,0,0,1-4.936.717l.039.01c1.4-.512,2.924-.657,4.58-1.252-1.153.231-1.816.248-1.654-.148.13-.316-.346-.28-1.111-.08a14.263,14.263,0,0,0-2.054.552,3.668,3.668,0,0,1-1.21.31,4.919,4.919,0,0,0-2.089.49,6.354,6.354,0,0,1-2,.46,7.538,7.538,0,0,0-2.712.661,8.538,8.538,0,0,1-2.677.6c-.935.048-2.207.287-3.282.374a4.079,4.079,0,0,0-1.023.246,24.044,24.044,0,0,1-4.954,1.326c-.348.128-.292.188-.279.251.071.326-.2.475-1.007.513-.825.04-1.59.028-2.353.019a5.035,5.035,0,0,0-3.146.936c-.7-.268-1.481-.288-3.106.36a21.249,21.249,0,0,1-3.2.7,11.5,11.5,0,0,0-2.195.587,8.13,8.13,0,0,1-3.225.725c-.954-.031-2.293.523-3.419.627-.458.041-1.046.228-1.553.233a2.663,2.663,0,0,0-1.459.441,2.84,2.84,0,0,1-.747.4c-.839.31-1.274.346-1.265.028.007-.263-.247-.334-.961-.231a.206.206,0,0,0,.037-.089c0-.158-1.3-1.283-.1-1.738.443-.168-1.425-.35-.7-.616.514-.189-.447-.5-.519-.52a2.092,2.092,0,0,1,1.8-1.164c.017-.064.286-.76.289-.867-.092-.083-.247.05-.325-.14.336,0,1.742-1.333-.427-.8-.118.029-1.683.044-1.7.029.137-.408,1.609-1.127,1.834-1.432L2.6,14.306c.473-.292,1.45-.127,1.573-.858-1.13.27-.3-.626.386-.862.367-.125.094-.191.025-.39.079-.154.259-.152.357-.339-1.578-.177.623-.826.289-1.437a4.946,4.946,0,0,0-1.6-.262c.052-.2.51-.181.206-.474C3.3,9.168,5.638,8.754,5.581,8.4,5.271,6.482,31.614.909,31.516,1.288c-.255.979.307-.2.31-.2.651-.119,7.049-1.484,7.106-.977-.286.082-2.6.282-2.555.65.065.494,2.645-.54,3.01-.064.006.009,1.531-.625,1.628-.247.4,2.138.611-.952.312.213C41.371.112,42.88-.026,43.252.17c0,0-1.046.456-.5.564,0,0,.557-.47.342,0-.158.345,3.153-.44,3.459-.291-.021.154-.155.009-.178.137.216.267.482-.039.753.023-1.061,1.072.317-.158.585-.2A21.085,21.085,0,0,1,51.346.283c-.511,1.724-.326-1.094.071.594.329,1.4-.969-.44.358.638,0,0-.46.557-.08.331.717-.428,1.29.685,2,.01-.259.613.783.236.787.211.066-.454.3-.08.43-.179a15.466,15.466,0,0,0,1.953.265s-5.415.241-4.558.461c1.16.3,2.829-.229,3.96.181-.162.2-1.682.266.26.547,2.723.394,1.809.375-.549.421-.633.013-.984.626-.175.652.776.024,6.168,0,6.078.724-.068.546,1.416,1.537.242,1.166-.123-.039.247-.3-.1-.276-1.208.087-1.508.477-1.048.306a1.753,1.753,0,0,0,.51.606c-.047.739-1.907.482-2.543.608-.2.038-.269.316-.467.355.652.332,5.538-.082,6.447-.307-.1.088-.771-.005-.493.335.2.241-.3.159-.364.308-.111-.033-.055-.43-.267-.035-.237-.1-.418,0-.567.287.232,0,.459.06.57-.3" transform="translate(0.04 0)" fill="#003594" fill-rule="evenodd"/>
          <path id="Trazado_594338" data-name="Trazado 594338" d="M63.238,8.442l-.383.134a13.766,13.766,0,0,1-3.027.69,19.564,19.564,0,0,0-3.876.8,12.09,12.09,0,0,1-4.936.719l.04.009c1.4-.512,2.923-.657,4.58-1.252-1.153.231-1.817.248-1.655-.147.13-.316-.346-.28-1.111-.082a14.465,14.465,0,0,0-2.054.552,3.638,3.638,0,0,1-1.21.31,4.926,4.926,0,0,0-2.089.49,6.313,6.313,0,0,1-2,.46,7.569,7.569,0,0,0-2.712.662,8.528,8.528,0,0,1-2.677.6c-.934.049-2.207.287-3.282.375a4.1,4.1,0,0,0-1.023.245,24.127,24.127,0,0,1-4.954,1.327c-.348.127-.291.187-.278.25.07.327-.2.475-1.008.514-.825.039-1.59.026-2.353.019a5.014,5.014,0,0,0-3.145.936c-.7-.27-1.482-.288-3.107.36a21.414,21.414,0,0,1-3.2.7,11.5,11.5,0,0,0-2.195.587,8.083,8.083,0,0,1-3.225.725c-.954-.03-2.292.523-3.419.627-.458.043-1.045.228-1.553.233a2.67,2.67,0,0,0-1.458.441,2.829,2.829,0,0,1-.748.4c-.839.31-1.274.347-1.265.028.007-.262-.246-.334-.96-.229-.021.034-.048.075-.083.122.387.3.32.421-.7.8a5.8,5.8,0,0,1-.42.423c-1.859.657.219.524-.585,1.2-.916.775.674,1.03.665,1.553a.91.91,0,0,1-.3-.034c-.434-.2-.242,1.053-.178,1.037.7-.177-.231,1.05.142.873.813-.385-.79.848-.833.868.167.26.753-.127.559.626.715.087,1.009.5.2.756.277.113.6-.009.846.233-.364.936-2.185.925-1.932,1.635,0,0-.655.5-.148.38a5.735,5.735,0,0,1,.575-.1c-.079.076-.292.115-.328.235a6.792,6.792,0,0,1,1.859.253c.388.592-2.17,1.22-.336,1.391-.113.181-.322.178-.415.329.079.192.4.256-.029.377a2.634,2.634,0,0,0-.752.369c-.042.171-.094.344-.149.512a1.8,1.8,0,0,0,.453-.046c-.063.308-.314.451-.622.539a4.5,4.5,0,0,0-.271.815,1.857,1.857,0,0,1,.116.742c1.6-.179.23.87-.123.874.092.184.271.056.378.137a1.587,1.587,0,0,1-.1.3c.312.019.506.071.257.212.013.024.028.051.044.083-.02.272-.106.135-.157-.023a2.709,2.709,0,0,0-.356.218c-.01.024-.017.041-.02.049l-.053.009c-.821.731,3.082.154,2.736.48-.411.39,3.8-.186,4.521-.009-.008-.083.1-.189.445-.346a2.577,2.577,0,0,1,2.147-.1c-.762.245-1,.6-1.988.869-.044-.142-.356-.213-.514-.314a10.593,10.593,0,0,1-2.757.818,4.974,4.974,0,0,1-.895.3,7.647,7.647,0,0,1-1.206.262,1.1,1.1,0,0,0-.511.282A.49.49,0,0,1,2.79,39.9q.806-.173,1.614-.325a4.348,4.348,0,0,0,.6-.1c2.057-.873,4.2-1,6.279-1.5,1.627-.391,3.251-.855,5.127-1.2-.736-.381-2.144.073-3.252.231.013-.223.41-.465.937-.613,1.39-.388,2.783-.568,4.219-.987.558-.163,1.215-.041.989.276-.284.4.272.426,1.05.316a8.062,8.062,0,0,0,2.747-.818c.722-.425-.357-.229-.729-.292a5,5,0,0,1,2.707-.767,2.039,2.039,0,0,0,.8-.186c1.992-.892,3.732-.656,5.645-1.17.177-.046.545-.021.57.04.181.449,1,.224,2.091-.171a5.767,5.767,0,0,1,1.227-.265c.985-.1,1.666-.211,1.368-.625-.082-.112.334-.27.663-.38a58.47,58.47,0,0,1,6.787-1.8,4.75,4.75,0,0,1,1.554-.013c-.008.275-1.054.43-1.046.68a8.4,8.4,0,0,0,1.773-.355c.737-.2,1.775-.43.724-.574-.227-.03-.064-.174.231-.266a18.076,18.076,0,0,1,5.368-1.274,6.038,6.038,0,0,0,1.369-.266,42.98,42.98,0,0,1,4.688-1.115,20.74,20.74,0,0,0,2.1-.444c-.188-.088-.154-.448.523-.357a.955.955,0,0,1-.217.283c.361-.087.722-.171,1.073-.238-.664-.461-1.306-.009-2.128.063-1.949.168-.673-.206-1.147.385-.509-.374-1.037.074-1.637-.161.714.741-.386-.246.008.008-.023-.846,2.5-.227,2.643-.776.342.12.42-.051.463-.295-.083-.082-.057-.188.044-.282a.628.628,0,0,1,.265-.475c.009.014.061.134.143.286a1.385,1.385,0,0,1,.249-.028l.224,0c-.032-.2-.028-.371.017-.273a1.072,1.072,0,0,0,.155.27H61.8a.668.668,0,0,0-.094-.425,3.459,3.459,0,0,1-.906-.179c-.024.013-.047.026-.072.041a.272.272,0,0,1,.043-.08.054.054,0,0,1,.03-.033.589.589,0,0,1,.412-.118,1.62,1.62,0,0,0,.358-.11c-.454-.065-.858-.058-.978.211-.2.455-.585-.37-.938.231-.038.063-.144-.27-.033-.608l-.5.024c.475.1-.458.89-.5.622-.077-.558-.315.322-.468.018.138-.092-.061-.385.5-.606l.068-.014a7,7,0,0,1-1.726-.076c-.8-.172,3.081-.355,4.655-.421a.247.247,0,0,0,.021-.061c-.6-.064-1.425-.181-1.612-.213-.013.018-.05.019-.095.01-.157.008-.376-.232-.444.157,0,.024-1.214.39-.913-.2a.934.934,0,0,1-.872.178,16.289,16.289,0,0,0,2.057-.766c.084-.093,1.886.409,1.884-.277h0c-.3-.114.348-.242.381-.319-.979.093.141-.721.243-.986.318.989.32-.066.5-.065.046,0-.149.551,1.713.283,0-.125-.191-.107-.095-.285.221-.41,1.522-.221.257-.425.219-.505.755-.579.728.085-.022.548,1.051.251,1.792.015a1.633,1.633,0,0,0,.421-.242c.022-.035.137-.014.306.029.692-.192-2.328-1.124-2.418-.177-.25-.139-.168-.688-.618-.49-1.233.544-.47.137-.8.117-1.714-.107,1.858-.813,2.282-.85,2.816-.25,1.074-.924.928-.855s-2.835-1.117-1.335-.966c.543.055-.212-.347-.212-.347.111-.242.311-.148.47-.253-.087-.2-.246-.117-.366-.152-.3-.09.083-.326.3-.4-.087-.025-.174-.054-.261-.088.235-.005,2.807-.816,3.116-.947.422-.178.528-.059.493.134a2.494,2.494,0,0,0,.394-.237,3.519,3.519,0,0,1,.025-.68,2.312,2.312,0,0,1-.755.1c-.094.142-.364.209-.889-.019a.984.984,0,0,1,.477-.411c-.2-.573-1.289-1.353-1.573-.453-.056-.273-.385-.347-.825-.316a1.236,1.236,0,0,0-.081.2c-.161.5-.376.229-.43-.133-.121.023-.246.049-.371.079a1.619,1.619,0,0,0,.189.372c-.278.364-.486-.054-.716-.011-.083.015.017-.1.135-.26-.729.2-1.4.449-1.549.47a2.364,2.364,0,0,1-.869.023c-.024.6-.485.184-.577-.073a1.741,1.741,0,0,1-.129.119c-.36.044-.037-.169.113-.213.009-.074.092-.1.3,0,.055-.034.187-.159.254-.1a3.515,3.515,0,0,1,2.32-.73c.19.026.967-.6,1.359-.548a2.7,2.7,0,0,0,2.021-.559c.7.071.452-.767.08-.394.053.082.116.071.174.075.215.016-.136.344-.35-.04-.4.5-.1.288-.246-.015-.892.076-2.735.507-3.557-.093-.115.094-.236.207-.391.35a2.809,2.809,0,0,1-.386.187c-.664-.018-1.327-.054-2.046-.05a7.274,7.274,0,0,0-3.085.612,2.327,2.327,0,0,1-1.628.355,3.773,3.773,0,0,0-1.979.292c-.246.1-.518.084-.523-.065.93-.251,1.7-.668,2.709-.882q3.914-.824,7.826-1.637c.338-.1.668-.2.753-.235-.174-.184-.373-.149-.615-.093.127.1.261-.051.34.087a2.6,2.6,0,0,1-.687.05c.031-.08.131-.025.151-.105A15.943,15.943,0,0,0,63.04,9.5c.018-.133.088-.153.141-.163,1.665-.321,1.176.033.824-.769.3.035.316.026.445-.336a1.84,1.84,0,0,1-1.212.211m.823-1.6c.007.016,0,.03-.028.046.1.223.781-.376,1.137.167-.23.03-.272.268-.337.488L64.6,7.6c.124-.767-.345-1-.222.053-.345.082-.688.162-1.034.238-.161-.041-.3-.046-.351.076-.261.056-.523.112-.785.163a9.664,9.664,0,0,0-2.418.653h0v0c-.612.1-1.224.173-1.83.317-1.172.281-1.691.207-1.875-.139A14.168,14.168,0,0,0,58.36,8.07c.674.188.237.759,1.434.714-.021-.2.631-.5.354-.667s.3-.341.767-.492c.333-.105.69-.2,1.038-.281.7-.169,1.438-.317,2.109-.5m6.173,6.911a.745.745,0,0,0,.087-.1c.226-.283.2.013-.169.369.03-.084.059-.178.083-.272m-4.5,11.59.252.029-.5.07c.087-.035.169-.069.25-.1m-2.533.611a.255.255,0,0,0-.194.173c-.472.117-.615.112-.663.053s.105-.162.314-.212c.23-.055.555-.129.544-.014M3.487,40.686a.76.76,0,0,0-.107-.046,5.943,5.943,0,0,1,1.314-.216Zm58.5-16.74q.415.051.732.092a2.12,2.12,0,0,1-.452.291l-.245,0a.518.518,0,0,0-.035-.386m-.506,1.035.561.008a.4.4,0,0,1-.561-.008m-4.129-1.356c-1.2.167.958.726.548-.016-.055-.1-.423.019-.548.016M56.11,24.993c-.553.164.694.655.621.01-.02-.177-.51.015-.621-.01m1.366.014c1.048-1.142-.766.232,0,0m2.812-.546c.25-.489.249-.5-.107-.512-.02.184-.058.375.107.512m-3.694-.04c.3.527.189-.386.1-.346-.129.06-.137.207-.1.346m-1.342.815c-.824-.025-.367.5,0,0M50.9,26.506c-.359-.019.232.642.191.113-.01-.144-.118-.1-.191-.113m4.762-3.144a.775.775,0,0,0,.257-.09l-.019.011-.241.078Zm.273-.1a.158.158,0,0,0,.043-.045.158.158,0,0,1-.043.045m.043-.046a.093.093,0,0,0,.013-.034.093.093,0,0,1-.013.034m-11.1,1.006c.9-.53-.015-.988,0,0m7.152-1.1c-1.09.291,1.319.247,0,0m-10.9-.937c.661-.258-.819-.232,0,0M45.415,21.1c-.409-.3-1.019.142,0,0m-.134.115,0-.02c-.5.181-.4.28-.165.332.037.009.077.016.12.023a4.465,4.465,0,0,0,.522.04.206.206,0,0,0,.026-.206.21.21,0,0,0-.065-.075.693.693,0,0,0-.434-.094m-1.765.224c-.472-.374-1,.512-.126.13.059-.026.112-.036.126-.13m1.356,2.783c.9-.53-.015-.988,0,0M55.4,21.74c-.608.287.138.484.187.082.019-.162-.1-.1-.187-.082m-3.377,1.376c-1.09.291,1.319.247,0,0m-9.391-.92c-.454.218.289.533.29.166,0-.207-.214-.063-.29-.166m7.252-.661c.015.46-.626.936.04.357.134-.117.122-.224-.04-.357M47.41,23.545c-.39-.382-.484.552-.262.243.072-.1.235-.08.262-.243m-6.29-1.367c.661-.258-.819-.232,0,0M45.415,21.1c-.409-.3-1.019.142,0,0m1.927,1.144c.412-.135-.263-.49-.144-.347.08.1.01.285.144.347M45.295,21.7a.368.368,0,0,0-.063-.154.087.087,0,0,0-.12-.023c-.129.075-.231.4-.013.335.074-.02.175-.046.2-.158m-.6.778c-.438.071.028.515.1.069.01-.059-.047-.074-.1-.069m19.716-5.391c-.405-.361-2.868.015-2.045.492.219.127.457-.591.625-.125.086.235,1.128.326.935-.332.206.31.334-.015.485-.034m-3.96,2.32c-.221.5.285-.069.342-.12-.145.6.988-.556.056-.223-.229.082-2.142.621-2.317.635a2.916,2.916,0,0,0,1.92-.291m.528-2.032c-.846.695.845.135.825.059-.116-.441-.685-.023-.825-.059m-1.7.635c-1.22-.548-.736.919-.462.31a.51.51,0,0,1,.462-.31m1.029.722c1.16.278.647-.685,0,0m-1.946-.219a1.136,1.136,0,0,1-.247-.406c.01.179-.409.456-.286.434.17-.033.326.174.532-.028m-2.45.179c-.621-.163.274.627.218-.005-.011-.134-.165-.02-.218.005m4.4-4.7c.5-.554-.086-.591,0,0M59.842,21.2c-.567.117.746.6,0,0m7.843-10.243c-.3.194.261.561.165.188-.025-.1-.071-.181-.165-.188m-6.159,7.652a1.139,1.139,0,0,0-.017.375c-.412.415.4.719.453.028.026-.31-.131-.207-.252-.179l-.031.019c.124-.255.209-.658-.154-.242m-5.613,9.158v-.024c-.012-.237-.118-.224-.208-.233a2.644,2.644,0,0,1,.473-.2c.5-.128.714-.076.8.046s-.134.255-.523.337a3.355,3.355,0,0,1-.537.076m-8.359-5.411c1.216-.918-.021-1.914,0,0m9.617-1.272c-1.464.43,1.773.635,0,0M42.512,17.957c.889-.419-1.1-.546,0,0m5.774-1.569c-.549-.637-1.371.15,0,0m-.181.2,0-.038c-.674.288-.538.492-.222.623a1.63,1.63,0,0,0,.161.058,4.508,4.508,0,0,0,.7.14.549.549,0,0,0,.036-.4.476.476,0,0,0-.089-.153.777.777,0,0,0-.584-.235m-2.373.221c-.635-.779-1.351.868-.17.238a.236.236,0,0,0,.17-.238m1.822,5.544c1.216-.918-.021-1.914,0,0m9.617-1.272c-1.464.43,1.773.635,0,0M44.545,18.172c-.611.367.388,1.065.389.355,0-.4-.287-.147-.389-.355m9.751-.4c.021.892-.843,1.732.055.695.18-.207.163-.418-.055-.695m-3.327,3.588c-.524-.784-.651,1.01-.352.44.1-.186.317-.127.352-.44m-8.456-3.4c.889-.419-1.1-.546,0,0m5.774-1.569c-.549-.637-1.371.15,0,0m2.591,2.442c.554-.211-.352-.979-.194-.687.109.2.014.552.194.687m-2.752-1.289a.949.949,0,0,0-.085-.3c-.05-.09-.107-.1-.161-.058-.173.128-.311.735-.018.645a.307.307,0,0,0,.263-.282m-.808,1.431c-.59.084.037,1,.135.145a.119.119,0,0,0-.135-.145m6.272-7.287.014-.026-.013.026-.05.029c.017-.009.033-.019.048-.029m.019-.035,0-.019,0,.019m-12.39-.262a1.953,1.953,0,0,0-.893.147c-.166.06-.186.123-.037.108a2.723,2.723,0,0,0,.931-.255M6.6,19.05a2.408,2.408,0,0,0,.921-.171c-.262-.06-.617.13-.921.171m37.221-8.219.314-.124a5.086,5.086,0,0,0-.51.018.773.773,0,0,0-.268.127c.036.074.263.023.464-.02M14.7,38.052c.2-.038.383-.064.558-.11.06-.018.166-.114.134-.128a.783.783,0,0,0-.5.073c-.088.038-.115.1-.2.166m25.126-6.764a1.838,1.838,0,0,0-.94.088c-.388.082-.92.176-.838.364.052.117.461.039.821-.075a2.928,2.928,0,0,0,.956-.376m13.789-3.472c-.385.119-.9.359-.816.371a1.854,1.854,0,0,0,1.158.06c.278-.071.642-.262.538-.3a1.057,1.057,0,0,0-.879-.133M43.168,30.582A5,5,0,0,0,41,30.971c-.169.07-.3.162-.21.217a.515.515,0,0,0,.433.014c.583-.177,1.157-.367,1.946-.62M30.081,33.4a11.651,11.651,0,0,1-1.727.324,1.434,1.434,0,0,0-.737.211c-.093.068-.084.159,0,.192a.958.958,0,0,0,.778-.019,5.506,5.506,0,0,0,1.686-.707m-2.929.831c-.2-.168-.809-.025-1.338.053a2.727,2.727,0,0,0-1.283.411c-.065.053-.14.127-.1.148a2.108,2.108,0,0,0,1.035-.048,4.768,4.768,0,0,0,1.571-.409c.08-.048.075-.1.112-.156m.53.658-6.815,1.588a3.313,3.313,0,0,0,2.237-.35,9.523,9.523,0,0,1,3.172-.784,5.418,5.418,0,0,0,1.389-.3c.005-.05.011-.1.018-.149M13.675,21.73h0a11.122,11.122,0,0,1-2.3.482c-.305-.014-.851.078-.79-.1.08-.229.709-.374,1.148-.465a23,23,0,0,0,3.65-.771.515.515,0,0,1,.437.018c.154.1-.091.268-.4.365-.594.186-1.225.331-1.745.469m24.013-5.885h0c.444-.087.888-.2,1.252-.238.45-.043.624.108.159.275a27.174,27.174,0,0,1-3.859,1.053c-.268.053-.461.008-.475-.088s.2-.2.508-.286c.815-.237,1.626-.482,2.415-.716M27.2,18.248h0c-.006.055-.011.11-.018.166-1.291.355-2.579.714-3.872,1.062a4.416,4.416,0,0,1-1.374.2c-.205-.016-.416-.034-.266-.173a1.148,1.148,0,0,1,.518-.2,42.262,42.262,0,0,0,5.012-1.06m24.811-2.955h0a41.84,41.84,0,0,1,4.649-1.056,20.853,20.853,0,0,1-2.248.577,6.337,6.337,0,0,1-2.4.479M50.2,13.421h0c.249-.291,1.128-.4,1.505-.671A1.478,1.478,0,0,1,52.6,12.6c.151.033.274.1.245.191-.057.166-.485.253-.821.322a9.742,9.742,0,0,1-1.822.312M22.419,18.88h0c-.507.066-.733-.024-.685-.232.034-.144.33-.265.7-.339.641-.127.962-.036,1,.127.034.14-.468.3-1.018.444M34.33,15.8h0a4.926,4.926,0,0,1,2.88-.522,14.711,14.711,0,0,1-2.88.522m9.836-1.323h0c.582-.14,1.008-.171,1.075-.046.056.1-.34.266-.715.361-.47.12-.844.13-.917,0s.3-.25.557-.315M1.747,21.934h0a11.236,11.236,0,0,1,2.71-.582,6.139,6.139,0,0,1-2.71.582m44.56-8.876h0c1.252-.433,1.252-.433,2.013-.347a4.716,4.716,0,0,1-2.013.347" transform="translate(0 1.733)" fill="#fff" fill-rule="evenodd"/>
        </g>
      </g>
    </g>
  </g>
</svg>
