<svg xmlns="http://www.w3.org/2000/svg" xmlns:xlink="http://www.w3.org/1999/xlink" width="190" height="190" viewBox="0 0 190 190">
  <defs>
    <clipPath id="clip-path">
      <rect id="Rectángulo_42775" data-name="Rectángulo 42775" width="104.381" height="74.936" fill="none"/>
    </clipPath>
  </defs>
  <g id="Grupo_874902" data-name="Grupo 874902" transform="translate(-1020 -2508)">
    <g id="Grupo_874901" data-name="Grupo 874901">
      <circle id="Elipse_4732" data-name="Elipse 4732" cx="95" cy="95" r="95" transform="translate(1020 2508)" fill="#ccddc3"/>
      <g id="ahorrar-agua" transform="translate(1023.719 2513)">
        <g id="Grupo_874081" data-name="Grupo 874081" transform="translate(54.127 16.076)">
          <path id="Trazado_594218" data-name="Trazado 594218" d="M243.2,387.155l-24.771,4.926a4.6,4.6,0,0,0,1.66,9.041l7.054-1.188L275.66,391.9l-1.5-10.72Z" transform="translate(-192.557 -263.289)" fill="#ffe0d1"/>
          <path id="Trazado_594219" data-name="Trazado 594219" d="M238.005,415.184l-38.5,6.486a4.964,4.964,0,0,0,1.438,9.821l45.085-2.835,14.879-9.6,3.36-8.279Z" transform="translate(-179.999 -282.484)" fill="#ffe0d1"/>
          <path id="Trazado_594220" data-name="Trazado 594220" d="M173.4,62.087,211.9,55.6a4.964,4.964,0,0,0-1.438-9.821l-43.622,3.84L160.556,64.4Z" transform="translate(-157.424 -45.742)" fill="#ffe0d1"/>
          <path id="Trazado_594221" data-name="Trazado 594221" d="M174.987,89.721l24.771-4.926a4.6,4.6,0,0,0-1.66-9.041l-7.054,1.188L154.52,83.817l-2.875,10.857Z" transform="translate(-151.645 -65.164)" fill="#ffe0d1"/>
        </g>
        <path id="Trazado_594222" data-name="Trazado 594222" d="M157.06,86.534l36.524-6.875,7.054-1.188a4.585,4.585,0,0,1,2.564.305,4.6,4.6,0,0,0-5.1-3.02l-7.054,1.188L154.52,83.819l-2.875,10.857,3.453-.733Z" transform="translate(-97.518 -49.089)" fill="#ffd1c2"/>
        <g id="Grupo_874086" data-name="Grupo 874086" transform="translate(3.917 2.635)">
          <g id="XMLID_535_" transform="translate(0 0)">
            <g id="Grupo_874082" data-name="Grupo 874082">
              <path id="Trazado_594223" data-name="Trazado 594223" d="M179.4,96.576a10.341,10.341,0,0,0-3.953-8.965L154.521,91.55l-2.875,10.857,23.342-4.953Z" transform="translate(-101.435 -59.454)" fill="#ffd1c2"/>
              <path id="Trazado_594224" data-name="Trazado 594224" d="M215.65,48.766a4.973,4.973,0,0,0-5.185-2.987L166.843,49.62,160.556,64.4,173.4,62.087l8.145-1.372a10.5,10.5,0,0,0-1.885-1.28,1.394,1.394,0,0,1-.425-2.148l3.232-3.726a2.59,2.59,0,0,1,1.636-.873Z" transform="translate(-107.214 -32.3)" fill="#ffd1c2"/>
              <path id="Trazado_594225" data-name="Trazado 594225" d="M65.877,43.257l7.078-4.615a6.208,6.208,0,0,1,7.314,10.013L62.766,62.9A39.1,39.1,0,0,1,24.5,69.254l-3.623-1.339H11.509A2.729,2.729,0,0,1,8.78,65.187V37.235a2.729,2.729,0,0,1,2.729-2.729H36.935L66.359,12.473a24.939,24.939,0,0,1,15.7-4.966l36.569,1.1a5.456,5.456,0,0,1,.51,10.867L83.717,23.878a3.066,3.066,0,0,0-1.926,1.03Z" transform="translate(-8.78 -7.496)" fill="#ffe0d1"/>
            </g>
          </g>
          <g id="Grupo_874083" data-name="Grupo 874083">
            <path id="Trazado_594226" data-name="Trazado 594226" d="M41.387,38.925a5.363,5.363,0,0,0,3.261-1.105L71.977,16.892a24.021,24.021,0,0,1,15.349-4.966l35.759,1.1a5.225,5.225,0,0,1,.739.082,5.439,5.439,0,0,0-5.2-4.5l-36.569-1.1a24.939,24.939,0,0,0-15.7,4.966L36.935,34.506H11.509A2.729,2.729,0,0,0,8.78,37.235V65.187a2.729,2.729,0,0,0,2.729,2.729h4.165V43.052a4.168,4.168,0,0,1,4.177-4.169Z" transform="translate(-8.78 -7.496)" fill="#ffd1c2"/>
          </g>
          <g id="XMLID_536_" transform="translate(59.272 111.116)">
            <g id="Grupo_874084" data-name="Grupo 874084" transform="translate(0)">
              <path id="Trazado_594227" data-name="Trazado 594227" d="M274.164,381.18,243.2,387.155l-4.409.877c-.019.259-.032.519-.032.781a10.387,10.387,0,0,0,.607,3.5,1.51,1.51,0,0,1-1.19,1.982l-12.421,2.057L218.7,397.54a4.594,4.594,0,0,1-3.963-1.241,4.334,4.334,0,0,0,.5,2.35,4.87,4.87,0,0,0,5.122,2.428l6.784-1.143,48.518-8.034Z" transform="translate(-201.618 -360.964)" fill="#ffd1c2"/>
              <path id="Trazado_594228" data-name="Trazado 594228" d="M261.242,419.056l3.36-8.28-26.26,4.407-7.489,1.262a10.555,10.555,0,0,0,1.586.948,1.075,1.075,0,0,1,.326,1.671l-4.139,4.773L195.883,427.9a4.978,4.978,0,0,0,5.4,3.588l45.085-2.835Z" transform="translate(-189.397 -380.158)" fill="#ffd1c2"/>
              <path id="Trazado_594229" data-name="Trazado 594229" d="M235.464,352.087l-7.078,4.615a6.208,6.208,0,0,1-7.314-10.013l17.5-14.248a39.1,39.1,0,0,1,38.266-6.351l3.623,1.339h8.562a3.535,3.535,0,0,1,3.535,3.535V357.3a3.534,3.534,0,0,1-3.535,3.535h-24.62l-29.424,22.033a24.939,24.939,0,0,1-15.7,4.966l-36.569-1.1a5.456,5.456,0,0,1-.51-10.867l35.416-4.407a3.066,3.066,0,0,0,1.926-1.03Z" transform="translate(-177.429 -323.658)" fill="#ffe0d1"/>
            </g>
          </g>
          <g id="Grupo_874085" data-name="Grupo 874085" transform="translate(59.273 142.562)">
            <path id="Trazado_594230" data-name="Trazado 594230" d="M263.3,413.3a4.066,4.066,0,0,0-2.438.812l-28.339,21.221a24.939,24.939,0,0,1-15.7,4.966l-36.569-1.1a5.415,5.415,0,0,1-2.743-.843,5.446,5.446,0,0,0,5.2,6.411l36.569,1.1a24.939,24.939,0,0,0,15.7-4.966l29.424-22.033h24.62a3.535,3.535,0,0,0,3.535-3.535v-2.2C292.223,413.24,263.3,413.3,263.3,413.3Z" transform="translate(-177.43 -413.132)" fill="#ffd1c2"/>
          </g>
        </g>
        <g id="Grupo_874087" data-name="Grupo 874087" transform="translate(1.281 0)">
          <path id="Trazado_594233" data-name="Trazado 594233" d="M77.069,45.84a8.818,8.818,0,0,0,2.331-2.9l23.354-4.644a7.231,7.231,0,0,0,5.128-10.184l1.162-.2a7.595,7.595,0,0,0,5.625-10.7,8.09,8.09,0,0,0-.832-16.105L77.271.011A27.737,27.737,0,0,0,59.914,5.5L54.822,9.315a2.636,2.636,0,1,0,3.16,4.22l5.091-3.813a22.328,22.328,0,0,1,14.04-4.441l36.566,1.095a2.82,2.82,0,0,1,.264,5.617L78.527,16.4a5.675,5.675,0,0,0-3.59,1.915L59.265,36.39l-7.717,5.032a2.636,2.636,0,0,0,2.88,4.416l15.1-9.851a3.594,3.594,0,0,1,4.628.625,3.573,3.573,0,0,1-.42,5.138L56.239,56a36.631,36.631,0,0,1-35.689,5.923l-3.621-1.339a2.627,2.627,0,0,0-.914-.164H3.917a2.636,2.636,0,0,0,0,5.272H15.543l3.178,1.176A41.545,41.545,0,0,0,33.144,69.44a41.9,41.9,0,0,0,26.423-9.353Zm23.949-16.575a1.961,1.961,0,0,1,.708,3.856L80.191,37.4a8.773,8.773,0,0,0-2.079-4.28Zm-22.1-7.493a.413.413,0,0,1,.259-.139l28.313-3.525h0a2.328,2.328,0,0,1,.674,4.606l-35.21,5.932Z" transform="translate(-1.281 0)"/>
          <path id="Trazado_594234" data-name="Trazado 594234" d="M3.917,60.954H32.072a2.636,2.636,0,0,0,1.58-.526L48.968,48.959a2.636,2.636,0,1,0-3.16-4.22L31.194,55.682H3.917a2.636,2.636,0,1,0,0,5.272Z" transform="translate(-1.281 -28.674)"/>
          <path id="Trazado_594235" data-name="Trazado 594235" d="M394.294,322.232a36.433,36.433,0,0,1,20.217,1.47l3.621,1.339a2.628,2.628,0,0,0,.914.164h12.1a2.636,2.636,0,0,0,0-5.272H419.518l-3.178-1.176a41.7,41.7,0,0,0-23.139-1.682,2.636,2.636,0,1,0,1.092,5.157Z" transform="translate(-254.104 -205.048)"/>
          <path id="Trazado_594236" data-name="Trazado 594236" d="M287.695,362.222H259.54a2.638,2.638,0,0,0-1.58.526L228.538,384.78a22.357,22.357,0,0,1-14.04,4.442l-36.566-1.095a2.82,2.82,0,0,1-.264-5.617l35.416-4.409a5.673,5.673,0,0,0,3.589-1.915l15.673-18.073,7.716-5.032a2.636,2.636,0,0,0-2.88-4.416l-15.1,9.851a3.594,3.594,0,0,1-4.628-.625,3.573,3.573,0,0,1,.42-5.139l17.5-14.247a36.583,36.583,0,0,1,5.507-3.7,2.636,2.636,0,0,0-2.533-4.624,41.832,41.832,0,0,0-6.3,4.235l-17.5,14.247a8.814,8.814,0,0,0-2.331,2.9l-23.354,4.644a7.231,7.231,0,0,0-5.128,10.184l-1.162.2a7.595,7.595,0,0,0-5.625,10.7,8.09,8.09,0,0,0,.832,16.105l36.566,1.095c.272.008.544.012.816.012A27.694,27.694,0,0,0,231.7,389l28.719-21.505h27.277a2.636,2.636,0,0,0,0-5.272Zm-97.1,3.014a1.961,1.961,0,0,1-.708-3.856L211.42,357.1a8.771,8.771,0,0,0,2.079,4.28Zm-7.15,6.551,35.21-5.931-5.962,6.875a.411.411,0,0,1-.258.138l-28.313,3.525h0a2.328,2.328,0,0,1-.674-4.607Z" transform="translate(-110.655 -213.927)"/>
        </g>
      </g>
    </g>
    <g id="Grupo_874090" data-name="Grupo 874090" transform="translate(1058.309 2565.533)">
      <path id="Trazado_594238" data-name="Trazado 594238" d="M67.284,157.3H9.978l10.586-33.87H56.7Z" transform="translate(-6.848 -84.72)" fill="#ffe76c"/>
      <path id="Trazado_594239" data-name="Trazado 594239" d="M79.864,43.862,121.246,7.5H85.113L43.731,43.862Z" transform="translate(-30.015 -5.149)" fill="#fef2bc"/>
      <path id="Trazado_594240" data-name="Trazado 594240" d="M169.526,77.732,158.94,43.862,200.322,7.5l10.586,33.87Z" transform="translate(-109.091 -5.149)" fill="#ffda00"/>
      <g id="Grupo_874089" data-name="Grupo 874089">
        <g id="Grupo_874088" data-name="Grupo 874088" clip-path="url(#clip-path)">
          <path id="Trazado_594241" data-name="Trazado 594241" d="M203.189,31.794a18.913,18.913,0,0,0,10.3,10.479l.2.082-.1.041a18.911,18.911,0,0,0-10.355,10.42l-.04.1-.04-.1A18.91,18.91,0,0,0,192.793,42.4l-.1-.041.1-.041a18.911,18.911,0,0,0,10.355-10.42Z" transform="translate(-132.258 -21.822)" fill="#fff"/>
          <path id="Trazado_594242" data-name="Trazado 594242" d="M5.4,57.436h0l-4,12.782L0,74.929l18.952.007H45.335l15.505-.005,6.386-5.182,35.49-31.184h.943L104.381,37l-1.013-3.7L93.494,1.7A2.372,2.372,0,0,0,91.231,0H55.1a2.351,2.351,0,0,0-1.553.586L32.853,18.766A2.353,2.353,0,0,0,35.959,22.3L55.984,4.706h29l-9.574,8.412a16.572,16.572,0,0,1-2.3-4.016,2.353,2.353,0,0,0-4.369-.008l-.039.1a16.652,16.652,0,0,1-9.065,9.125,2.364,2.364,0,0,0-.1,4.4l.1.04a16.321,16.321,0,0,1,2.983,1.6L48.963,36.36h-29l5.7-5.005a2.353,2.353,0,1,0-3.106-3.535l-10.37,9.112a2.7,2.7,0,0,0-.713,1.095L8.255,48.3ZM70.93,14.949a21.487,21.487,0,0,0,5.558,5.584,21.481,21.481,0,0,0-5.558,5.583,21.245,21.245,0,0,0-5.558-5.583,21.478,21.478,0,0,0,5.558-5.584m-4.8,12.595a16.583,16.583,0,0,1,2.582,4.328l.04.1a2.353,2.353,0,0,0,2.18,1.474h0a2.353,2.353,0,0,0,2.18-1.469l.042-.1a16.649,16.649,0,0,1,9.062-9.123l.1-.041a2.365,2.365,0,0,0,.014-4.351l-.2-.081A16.335,16.335,0,0,1,78.8,16.406l11.264-9.9,9.05,28.956L61.6,68.426l-9.05-28.955ZM15.445,41.066H48.12l9.112,29.153H6.334Z"/>
        </g>
      </g>
    </g>
  </g>
</svg>
