<svg xmlns="http://www.w3.org/2000/svg" xmlns:xlink="http://www.w3.org/1999/xlink" width="190" height="132.184" viewBox="0 0 190 132.184">
  <defs>
    <clipPath id="clip-path">
      <rect id="Rect치ngulo_42814" data-name="Rect치ngulo 42814" width="141.554" height="132.184" fill="#d38e6c"/>
    </clipPath>
  </defs>
  <g id="Grupo_874747" data-name="Grupo 874747" transform="translate(-390 -1286)">
    <g id="Grupo_874741" data-name="Grupo 874741" transform="translate(-2752.098 10889.697)">
      <g id="Grupo_874740" data-name="Grupo 874740" transform="translate(3166.161 -9603.697)">
        <g id="Grupo_874113" data-name="Grupo 874113" clip-path="url(#clip-path)">
          <path id="Trazado_594273" data-name="Trazado 594273" d="M54.068,21.327c1.237-.246,2.479-.471,3.707-.757a1.273,1.273,0,0,0,.649-.528c.789-1.157,1.48-2.386,2.344-3.481a2.762,2.762,0,0,1,1.7-1.091,3.058,3.058,0,0,0,2.552-1.227,1.5,1.5,0,0,1,1.059-.621c1.592.174,2.071-.788,2.263-1.945l4.014-.962C71.307,9.68,70.523,9.083,69.4,10.5a2.08,2.08,0,0,1-2.037.228c-1.556-1.355-1.622.232-2.132.932-.1.14-.061.383-.109.755L63.1,11.4l.046.047A2.475,2.475,0,0,0,62.2,8.96c-.149-.108-.065-.905.158-1.1,1.324-1.159,2.742-.943,3.877.631a9.909,9.909,0,0,1,1.524-2.026,2.33,2.33,0,0,1,1.687-.11c.269.056.44.582.638.871l3.283-2.283A1.605,1.605,0,0,1,75.319,3.2a.966.966,0,0,0,.584-.331c1.023-1,2.056-1.343,3.32-.33.21.169.891-.072,1.247-.3,1.225-.769,1.1.327,1.21.648A36.717,36.717,0,0,0,85.3.614c1.6-1.275,2.834.98,4.329.079l.3.311-.662,2.142c.986,1.366.73,1.9-1.163,2.229a41.072,41.072,0,0,0-5.8,1.455,6.507,6.507,0,0,0,3.546.433c2.174-.283,4.413-.041,6.623-.109.467-.014.922-.414,1.541-.713.734,1.158,1.656-.1,2.711-.523l.347,1.326c1.582-1.975,2.573-2.179,5.06-1.317.414.143.97-.144,1.464-.2a8.7,8.7,0,0,1,1.856-.053h4.787l.074.124L108.9,5.98c.181,1.4.35,2.716.516,4l-2.6,1.146c.335.149.538.327.707.3,1.914-.308,3.566.517,5.25,1.185,23.773,9.436,39.127,33.554,37.363,58.68-2.049,29.181-23.435,51.777-52.493,55.564-5.267.686-10.543,1.48-15.543,3.417-1.438.557-2.8,1.3-4.421,2.056v-3.138l-2.214.564c-.135-.552-.226-.923-.375-1.532-.215.359-.308.543-.427.707-.175.24-.369.467-.555.7-.218-.194-.581-.356-.631-.587-.231-1.059-.682-.6-1.272-.317-1.209.586-2.471,1.06-3.664,1.56l-.817-2.307h1.26l1.111-1.861-2.407-2.014a22.045,22.045,0,0,1-2.889.942c-1.336.241-2.017-.538-1.651-1.77.429-1.445-1.037-1.528-1.466-2.332a4.315,4.315,0,0,0-1.579.572c-.7.438-1.32,1.062-1.959-.025a1.1,1.1,0,0,1-.206-.612c.08-.6.228-1.191.378-1.923-.613.253-.992.536-1.352.515-.262-.015-.735-.62-.716-.645.762-.952.4-2.388,1.618-3.216a10.548,10.548,0,0,0,3.555-4.777,6.81,6.81,0,0,1,2.559-2.732c1.267-.808,1.3-1.8,1.18-3.091-.369-.017-.663-.036-.957-.043-1.965-.048-1.862-.042-1.761-1.922a6.716,6.716,0,0,0-.547-2.212c-1.087-.172-2.12-.679-2.794-.379-2.038.906-3.7.358-5.439-.674-.328-.194-1.017.221-1.621.376a6.348,6.348,0,0,1-.929-1.194c-.479-.981-1.04-.52-1.67-.243a2.541,2.541,0,0,1-1.425.368c-1.734-.456-2.183-.232-2.635,1.585a3.445,3.445,0,0,1-.3.51A19.649,19.649,0,0,1,42.4,100c-.7-.435-1.028-1.1.044-1.643.235-.119.377-.424.662-.761a2.934,2.934,0,0,0-3.369.585c-.888.873-1.234.041-1.638-.3-.16-.133.053-.883.266-1.254a8.72,8.72,0,0,0,1.14-2.148c-1,.35-2.025.65-3,1.067a14.67,14.67,0,0,1-2.146,1.129c-.484.112-1.1-.355-1.662-.562.358-.495.609-1.185,1.093-1.447,1.366-.742,2.827-1.309,4.359-1.994l-.836-1.242,1.731-1.27-.166-.454c-.553.192-1.116.361-1.657.584s-1.049.5-1.382.656L35.42,89.22c-1.238.628-2.319,1.18-3.405,1.723-.171.085-.407.076-.541.193-1.949,1.715-1.946,1.718-4.2,1.584l-.251-1.183-1.132.677a1.5,1.5,0,0,1,.959-2.4c2.306-.733,3.521-2.724,5.216-4.156a.492.492,0,0,0,.1-.388c-.206-1.369.736-1.921,1.685-2.562A11.627,11.627,0,0,0,35.622,81c.848-.888,1.708-1.768,2.493-2.71a12.429,12.429,0,0,0,1.414-2.113,1.748,1.748,0,0,0,.121-1.258c-.077-.222-.615-.351-.963-.4-.816-.119-1.643-.166-2.668-.261-.655.968-.655.968-3.271.772l-.238-1.092c-.74.067-1.8.431-2.058.125-.4-.482-.253-1.416-.337-2.148l-3.809-1.867c-.842,1.044-1.511,1.814-2.11,2.634-.5.69-.928,1.439-1.46,2.276-1.983-.386-2.507-.12-4.418,2.586-.249-1.078-.919-1.915.536-2.629a9.078,9.078,0,0,0,2.1-1.926c.943-.946-.157-1.731-.421-2.418-.377-.982-.587-1.454.449-2.148.565-.378.712-1.382,1.047-2.1L21.777,66c-.8.465-1.6.936-2.4,1.393s-1.617.9-2.428,1.349c-.13.072-.369.1-.391.193-.554,2.262-2.5,1.381-4.022,1.807.74-2.105,3.092-2.375,4.083-3.9.981-1.508,3.4-2.137,2.945-4.409a12.712,12.712,0,0,0-2.436-.648c-.507-.035-1.032.413-1.572.55a11.233,11.233,0,0,1-1.542.184c-.023-.658-.326-1.685-.025-1.912,1.694-1.279,2.439-3.208,3.641-4.815,1.068-1.428,2.365-2.688,3.389-4.142,1.245-1.768,2.248-3.706,3.484-5.482.521-.748,1.456-1.2,2.051-1.907,1.667-2,3.208-4.1,4.9-6.075a12.911,12.911,0,0,1,2.531-2.133c.231-.159.783.146,1.24.25l.939-3.573,2.576-.9c.828-1.509.39-3.579,2.752-3.673.135-.005.239-.388.385-.574.766-.971,1.542-1.935,2.314-2.9l.514.227v3.255c1.566-.023,1.29-1.018,1.331-1.807.04-.76-.309-1.778,1.234-1.519V21.416c1.231-.427,1.877.082,2.8.748,1.429,1.038-.786,1.833.073,2.59a28.2,28.2,0,0,0,3.281-1.8c.408-.292.464-1.076.68-1.636Z" transform="translate(-8.717 -0.148)" fill="#d38e6c"/>
          <path id="Trazado_594274" data-name="Trazado 594274" d="M161.607,36.929c-.609,1.425-.958,3.021-2.831,3.474-.449.108-.731.786-1.181,1.04-.824.466-3.263-.429-3.4-1.353-.07-.463.539-1.224,1.037-1.534a17.942,17.942,0,0,1,2.846-1.17c.382.617.909.794,1.706-.178.289-.352,1.228-.17,1.871-.232l-.045-.047" transform="translate(-107.223 -25.681)" fill="#d38e6c"/>
          <path id="Trazado_594275" data-name="Trazado 594275" d="M143.78,54.941a5.078,5.078,0,0,0-1.06.045,5.921,5.921,0,0,0-1.036.478c-.652-4.3.507-7.1,3.08-6.889-.25,1.226-.513,2.421-.723,3.626a1.248,1.248,0,0,0,.18.818c.543.831.194,1.408-.463,1.932l.022-.009" transform="translate(-98.404 -33.772)" fill="#d38e6c"/>
          <path id="Trazado_594276" data-name="Trazado 594276" d="M268.541.646c.75.126,1.676-.408,1.612.89,0,.093.281.286.42.276s.281-.208.36-.357c.949-1.794,1.136-1.837,2.611-.629l-.692,2.784h-1.937L269.58,5.185a5.611,5.611,0,0,1-.995-1.644,16.055,16.055,0,0,1-.044-2.9" transform="translate(-186.715 0)" fill="#d38e6c"/>
          <path id="Trazado_594277" data-name="Trazado 594277" d="M3.157,208.681A3.041,3.041,0,0,1,.02,211.259a2.469,2.469,0,0,1,3.137-2.578" transform="translate(0 -145.083)" fill="#d38e6c"/>
          <path id="Trazado_594278" data-name="Trazado 594278" d="M290.327.2c.175.765.319,1.391.536,2.337l-1.145.654c-.164-.389-.574-.967-.447-1.133.44-.574-.744-2.1,1.056-1.857" transform="translate(-201.146 -0.124)" fill="#d38e6c"/>
          <path id="Trazado_594279" data-name="Trazado 594279" d="M308.935,5.643,307.749,4.4l3.171-.709.3.648-2.283,1.3" transform="translate(-214.012 -2.569)" fill="#d38e6c"/>
          <path id="Trazado_594280" data-name="Trazado 594280" d="M139.317,393.748l2.258-.7c.007.305.146.739,0,.894-.553.574-1.2,1.041-2.255-.191" transform="translate(-96.883 -273.328)" fill="#d38e6c"/>
          <path id="Trazado_594281" data-name="Trazado 594281" d="M61.1,245.83l-2.168,1.791-.326-1.014,2.217-1.093.277.316" transform="translate(-40.756 -170.733)" fill="#d38e6c"/>
        </g>
      </g>
      <g id="objetivo_1_" data-name="objetivo(1)" transform="translate(3227.377 -9577.137)">
        <path id="Trazado_594245" data-name="Trazado 594245" d="M130,60.478h20.889L146.314,53.4a1.241,1.241,0,0,1,0-1.324L150.889,45H138.631V56.821a1.1,1.1,0,0,1-1.148,1.127H130Zm0,0" transform="translate(-110.652 -38.303)" fill="#fff"/>
        <path id="Trazado_594246" data-name="Trazado 594246" d="M35.381,17.264H53.687V1.488H35.381v-.3a1.191,1.191,0,1,0-2.381,0V41.076h2.381Zm0,0" transform="translate(-28.089)" fill="#fff"/>
        <path id="Trazado_594247" data-name="Trazado 594247" d="M12.5,291.782V284H0v25.9H12.5Zm0,0" transform="translate(0 -241.734)" fill="#fff"/>
        <path id="Trazado_594248" data-name="Trazado 594248" d="M112.5,351.782V344H100v16.966h12.5Zm0,0" transform="translate(-85.118 -292.804)" fill="#fff"/>
        <path id="Trazado_594249" data-name="Trazado 594249" d="M200,404h12.5v8.037H200Zm0,0" transform="translate(-170.235 -343.875)" fill="#fff"/>
      </g>
    </g>
    <rect id="Rect치ngulo_291643" data-name="Rect치ngulo 291643" width="190" height="132" transform="translate(390 1286)" fill="none"/>
  </g>
</svg>
