<svg xmlns="http://www.w3.org/2000/svg" width="85" height="85" viewBox="0 0 85 85">
  <g id="Grupo_874756" data-name="Grupo 874756" transform="translate(-1254 -1148)">
    <circle id="Elipse_4715" data-name="Elipse 4715" cx="42.5" cy="42.5" r="42.5" transform="translate(1254 1148)" fill="#fff"/>
    <g id="biosfera" transform="translate(1262 1164.346)">
      <path id="Trazado_212272" data-name="Trazado 212272" d="M13.217,59.073a8.673,8.673,0,0,0,3.859-.911l4.181-2.091,2,3h.592a5.537,5.537,0,0,0,0-11.073h-.592l-2,3-4.181-2.091a8.629,8.629,0,0,0-10.763,2.54L4.75,53.537l1.564,2.085a8.674,8.674,0,0,0,6.9,3.452Zm11.2-8.811a3.322,3.322,0,0,1,0,6.549l-1.669-2.5V52.765ZM8.085,52.78a6.412,6.412,0,0,1,8-1.888l4.445,2.221v.846l-4.444,2.221a6.414,6.414,0,0,1-8-1.888l-.567-.756Z" transform="translate(0.51 5.152)"/>
      <circle id="Elipse_4720" data-name="Elipse 4720" cx="1" cy="1" r="1" transform="translate(11 56.654)"/>
      <path id="Trazado_212273" data-name="Trazado 212273" d="M66.44,46.508H48.722V36.441A6.655,6.655,0,0,0,54.167,31a6.447,6.447,0,0,0,1.461-.138,6.634,6.634,0,0,0,1.879-12.285,5.055,5.055,0,0,0,.074-.864A5.522,5.522,0,0,0,54.6,12.8a4.921,4.921,0,0,1-2.071-2.071,5.539,5.539,0,0,0-9.826,0A4.928,4.928,0,0,1,40.631,12.8c-.069.037-.131.082-.2.121a21.061,21.061,0,1,0-.828,17.942,7.492,7.492,0,0,0,1.458.138,6.654,6.654,0,0,0,5.445,5.436V46.508H34.327a3.085,3.085,0,0,1-2.181-.876,5.343,5.343,0,0,0-7.075,0,3.153,3.153,0,0,1-4.362,0,5.344,5.344,0,0,0-7.076,0,3.161,3.161,0,0,1-4.368,0,5.22,5.22,0,0,0-3.54-1.339,5.223,5.223,0,0,0-3.54,1.339A3.089,3.089,0,0,1,0,46.508v2.215a5.223,5.223,0,0,0,3.54-1.339,3.164,3.164,0,0,1,4.371,0,5.349,5.349,0,0,0,7.079,0,3.154,3.154,0,0,1,4.363,0,5.343,5.343,0,0,0,7.075,0,3.154,3.154,0,0,1,4.363,0,5.547,5.547,0,0,0,2.429,1.23V60.9a5.543,5.543,0,0,1-5.537,5.537H0v2.215H27.683A7.76,7.76,0,0,0,35.434,60.9V53.152H66.44a2.217,2.217,0,0,0,2.215-2.215V48.722a2.217,2.217,0,0,0-2.215-2.215ZM37,11.073H34.724a3.52,3.52,0,0,0-3.167,1.958l-.869,1.74A1.318,1.318,0,0,1,29.5,15.5H28.477A1.323,1.323,0,0,1,27.19,14.5L27,13.756a3.537,3.537,0,0,0-3.436-2.683H21.833a1.323,1.323,0,0,1-1.287-1.005l-.186-.741a3.537,3.537,0,0,0-3.436-2.683H14.591a1.323,1.323,0,0,1-1.1-.591l-1.133-1.7A18.773,18.773,0,0,1,37,11.073ZM10.449,5.488l1.2,1.793A3.531,3.531,0,0,0,14.59,8.859h2.333A1.323,1.323,0,0,1,18.21,9.864l.186.741a3.537,3.537,0,0,0,3.436,2.683h1.735a1.323,1.323,0,0,1,1.287,1.005l.186.741a3.537,3.537,0,0,0,3.436,2.683H29.5a3.52,3.52,0,0,0,3.167-1.958l.869-1.74a1.32,1.32,0,0,1,1.187-.732h3.447c.183.4.349.816.5,1.237a5.509,5.509,0,0,0-1.025,3.192,5.077,5.077,0,0,0,.074.865,6.657,6.657,0,0,0-3.269,7.1,6.53,6.53,0,0,0,1.577,3.113H33.12a3.518,3.518,0,0,0-2.5,1.038l-.79.79a1.32,1.32,0,0,1-.938.388H26.771a1.323,1.323,0,0,1-1.1-.591L24.9,29.26a3.533,3.533,0,0,0-2.945-1.577H20.128a3.537,3.537,0,0,0-2.947,1.577l-.77,1.154a1.323,1.323,0,0,1-1.1.591H10.975a3.518,3.518,0,0,0-2.5,1.038L6.989,33.524a18.782,18.782,0,0,1-3.941-6.948H5.908a1.323,1.323,0,0,1,.736.223l2.1,1.4a3.529,3.529,0,0,0,1.964.595h1.282a3.537,3.537,0,0,0,2.947-1.577l.77-1.154a1.32,1.32,0,0,1,1.1-.591H17.5a3.541,3.541,0,0,0,.7-7.014l-2.07-.414a1.332,1.332,0,0,1-1.026-.98l-.274-1.091a3.535,3.535,0,0,0-3.435-2.682H9.163a1.328,1.328,0,0,1-1.152-.669l-1.8-3.143a19.006,19.006,0,0,1,4.233-3.989ZM4.83,11.515l1.259,2.2A3.551,3.551,0,0,0,9.163,15.5h2.224a1.323,1.323,0,0,1,1.287,1.005l.274,1.091a3.556,3.556,0,0,0,2.742,2.613l2.07.414a1.327,1.327,0,0,1-.26,2.628h-.692a3.537,3.537,0,0,0-2.947,1.577l-.77,1.154a1.323,1.323,0,0,1-1.1.591H10.7a1.323,1.323,0,0,1-.736-.223l-2.1-1.4a3.535,3.535,0,0,0-1.966-.595H2.526a18.882,18.882,0,0,1-.311-3.322A18.679,18.679,0,0,1,4.83,11.515ZM21.039,39.864A18.73,18.73,0,0,1,8.554,35.09l1.482-1.482a1.321,1.321,0,0,1,.939-.389h4.333a3.537,3.537,0,0,0,2.947-1.577l.77-1.154a1.32,1.32,0,0,1,1.1-.591h1.824a1.323,1.323,0,0,1,1.1.591l.77,1.154a3.537,3.537,0,0,0,2.947,1.577h2.118a3.518,3.518,0,0,0,2.5-1.038l.79-.79a1.325,1.325,0,0,1,.939-.388h3.85a18.907,18.907,0,0,1-15.932,8.859ZM43.179,30l.037-1.581-1.35.278a4.551,4.551,0,0,1-1.823,0,4.419,4.419,0,0,1-.625-8.466l1.017-.383-.364-1.024a3.263,3.263,0,0,1,1.583-4.056,7.146,7.146,0,0,0,3.012-3.012,3.324,3.324,0,0,1,5.9,0,7.146,7.146,0,0,0,3.012,3.012,3.257,3.257,0,0,1,1.582,4.055l-.364,1.024,1.017.383a4.419,4.419,0,0,1-.625,8.466,4.551,4.551,0,0,1-1.823,0l-1.35-.278.019,1.378c0,.074.01.128.012.1a4.426,4.426,0,0,1-3.322,4.272V24.988l5-3-1.139-1.9-3.86,2.317V19.473l-3.646-3.646L43.51,17.393l3,3v5.337l-3.859-2.315-1.139,1.9,5,3v5.86A4.393,4.393,0,0,1,43.179,30ZM35.434,50.937V48.722H66.44v2.215Z"/>
      <path id="Trazado_212274" data-name="Trazado 212274" d="M62.641,56.644a.178.178,0,0,1-.171-.123l-.52-1.562a2.393,2.393,0,0,0-2.272-1.637H56a.178.178,0,0,1-.171-.123l-.309-.928A3.318,3.318,0,0,0,52.366,50H49.794a3.3,3.3,0,0,0-2.971,1.836L45.576,54.33a.181.181,0,0,1-.161.1H43.685a2.38,2.38,0,0,0-2.142,1.323l-.4.792a.184.184,0,0,1-.162.1H37.25a2.391,2.391,0,0,0-2.323,1.814l-1.208,4.83H65.035v-4.25a2.4,2.4,0,0,0-2.394-2.394Zm.179,4.429H36.556l.519-2.078a.18.18,0,0,1,.175-.136h3.736a2.38,2.38,0,0,0,2.142-1.323l.4-.792a.181.181,0,0,1,.161-.1h1.731a2.38,2.38,0,0,0,2.142-1.323L48.8,52.827a1.1,1.1,0,0,1,.991-.612h2.572a1.106,1.106,0,0,1,1.051.757l.309.928A2.39,2.39,0,0,0,56,55.537h3.681a.178.178,0,0,1,.171.123l.52,1.562a2.393,2.393,0,0,0,2.272,1.637.18.18,0,0,1,.179.179Z" transform="translate(3.619 5.366)"/>
      <path id="Trazado_212275" data-name="Trazado 212275" d="M0,0H2.215V1.566H0Z" transform="translate(47.928 65.007) rotate(-45)"/>
      <path id="Trazado_212276" data-name="Trazado 212276" d="M0,0H1.566V2.215H0Z" transform="translate(52.357 61.226) rotate(-45)"/>
      <path id="Trazado_212277" data-name="Trazado 212277" d="M0,0H2.215V1.566H0Z" transform="translate(55.678 62.793) rotate(-45)"/>
      <path id="Trazado_212278" data-name="Trazado 212278" d="M0,0H1.566V2.215H0Z" transform="translate(60.107 63.442) rotate(-45)"/>
    </g>
  </g>
</svg>
