<svg xmlns="http://www.w3.org/2000/svg" xmlns:xlink="http://www.w3.org/1999/xlink" width="190" height="132" viewBox="0 0 190 132">
  <defs>
    <clipPath id="clip-path">
      <rect id="Rect치ngulo_42814" data-name="Rect치ngulo 42814" width="137.78" height="128.66" fill="#707175"/>
    </clipPath>
  </defs>
  <g id="Grupo_874746" data-name="Grupo 874746" transform="translate(-2698 10414)">
    <g id="Grupo_874745" data-name="Grupo 874745" transform="translate(-466.07 -1053.375)">
      <g id="Grupo_874743" data-name="Grupo 874743" transform="translate(3190.07 -9358.822)">
        <g id="Grupo_874113" data-name="Grupo 874113" clip-path="url(#clip-path)">
          <path id="Trazado_594273" data-name="Trazado 594273" d="M106.173,20.765c-1.2-.24-2.413-.459-3.608-.736a1.239,1.239,0,0,1-.632-.514c-.768-1.126-1.441-2.323-2.282-3.388A2.689,2.689,0,0,0,98,15.064a2.976,2.976,0,0,1-2.484-1.195,1.46,1.46,0,0,0-1.031-.6c-1.55.17-2.015-.767-2.2-1.893l-3.907-.937c1.017-1.008,1.781-1.589,2.87-.207a2.024,2.024,0,0,0,1.982.222c1.514-1.319,1.579.226,2.075.907.1.136.06.373.106.735l1.972-.994-.045.045a2.409,2.409,0,0,1,.918-2.416c.145-.106.063-.881-.154-1.072-1.289-1.128-2.669-.918-3.774.614A9.644,9.644,0,0,0,92.843,6.3,2.268,2.268,0,0,0,91.2,6.191c-.262.055-.428.567-.621.848l-3.2-2.222a1.562,1.562,0,0,0-1.9-1.694.94.94,0,0,1-.569-.322c-1-.971-2-1.307-3.232-.321-.2.164-.867-.07-1.214-.287-1.192-.749-1.074.319-1.178.631A35.737,35.737,0,0,1,75.774.6c-1.56-1.241-2.759.953-4.214.076l-.291.3.644,2.084c-.96,1.33-.711,1.846,1.132,2.17a39.977,39.977,0,0,1,5.645,1.417,6.334,6.334,0,0,1-3.451.422c-2.116-.276-4.3-.04-6.446-.106-.454-.014-.9-.4-1.5-.694-.714,1.127-1.612-.1-2.639-.509l-.338,1.29c-1.54-1.922-2.5-2.121-4.925-1.282-.4.14-.945-.141-1.425-.2a8.468,8.468,0,0,0-1.806-.052H51.5l-.072.12,1.373.181c-.176,1.365-.341,2.644-.5,3.9l2.533,1.116c-.326.145-.524.319-.688.292-1.863-.3-3.471.5-5.11,1.153C25.9,21.468,10.952,44.944,12.669,69.4c1.995,28.4,22.81,50.4,51.093,54.082,5.127.668,10.262,1.441,15.129,3.326,1.4.542,2.73,1.263,4.3,2v-3.055l2.155.549c.131-.537.22-.9.365-1.491.209.349.3.528.416.688.17.234.359.454.54.681.213-.189.565-.347.614-.571.225-1.031.664-.586,1.238-.308,1.176.57,2.406,1.032,3.567,1.519l.795-2.245H91.657l-1.082-1.812,2.343-1.96a21.459,21.459,0,0,0,2.812.917c1.3.235,1.964-.523,1.607-1.723-.418-1.407,1.009-1.487,1.427-2.269a4.2,4.2,0,0,1,1.537.557c.683.426,1.285,1.034,1.907-.025a1.065,1.065,0,0,0,.2-.6c-.078-.584-.222-1.159-.368-1.872.6.246.965.522,1.316.5.255-.015.715-.6.7-.627-.741-.927-.387-2.324-1.575-3.13a10.266,10.266,0,0,1-3.461-4.649,6.628,6.628,0,0,0-2.491-2.659c-1.233-.787-1.266-1.749-1.149-3.009.359-.016.645-.035.932-.042,1.913-.047,1.813-.041,1.714-1.871a6.536,6.536,0,0,1,.532-2.153c1.058-.168,2.063-.661,2.72-.369,1.983.881,3.6.349,5.294-.656.319-.189.99.215,1.578.366a6.179,6.179,0,0,0,.9-1.162c.467-.955,1.012-.506,1.626-.237a2.473,2.473,0,0,0,1.387.358c1.688-.444,2.124-.226,2.565,1.543a3.353,3.353,0,0,0,.3.5,19.124,19.124,0,0,0,2.609-1.157c.683-.424,1-1.072-.042-1.6-.229-.116-.367-.412-.645-.741a2.856,2.856,0,0,1,3.279.57c.864.85,1.2.04,1.595-.288.155-.129-.052-.859-.259-1.221a8.487,8.487,0,0,1-1.11-2.091c.975.341,1.971.633,2.918,1.039a14.28,14.28,0,0,0,2.089,1.1c.471.109,1.074-.345,1.617-.547-.348-.481-.593-1.153-1.063-1.409-1.329-.722-2.751-1.274-4.243-1.94L122.483,89,120.8,87.764l.161-.442c.538.187,1.087.352,1.613.568s1.021.483,1.345.638l.408-1.682c1.2.611,2.257,1.149,3.315,1.677.166.083.4.074.526.188,1.9,1.669,1.894,1.672,4.085,1.542l.245-1.151,1.1.659a1.464,1.464,0,0,0-.934-2.336c-2.245-.713-3.427-2.652-5.077-4.045a.479.479,0,0,1-.1-.378c.2-1.333-.716-1.87-1.64-2.493a11.317,11.317,0,0,1-1.72-1.658c-.825-.864-1.663-1.721-2.427-2.638a12.1,12.1,0,0,1-1.376-2.056,1.7,1.7,0,0,1-.118-1.225c.075-.216.6-.341.937-.391.795-.116,1.6-.161,2.6-.254.638.942.638.942,3.184.751l.232-1.063c.72.065,1.755.42,2,.121.389-.469.247-1.378.328-2.091l3.707-1.817c.82,1.017,1.47,1.766,2.054,2.564.491.671.9,1.4,1.421,2.215,1.93-.375,2.44-.117,4.3,2.517.242-1.049.894-1.864-.521-2.559a8.836,8.836,0,0,1-2.047-1.875c-.918-.921.152-1.685.409-2.354.367-.956.571-1.415-.437-2.09-.55-.368-.693-1.345-1.019-2.047l.247-.316c.779.453,1.554.911,2.337,1.356s1.574.878,2.363,1.313c.127.07.359.1.381.187.539,2.2,2.431,1.344,3.915,1.759-.72-2.049-3.009-2.311-3.974-3.8-.955-1.468-3.313-2.08-2.867-4.291a12.373,12.373,0,0,1,2.371-.63c.494-.034,1,.4,1.53.535a10.933,10.933,0,0,0,1.5.179c.023-.64.317-1.64.024-1.861-1.649-1.245-2.374-3.122-3.544-4.687-1.039-1.39-2.3-2.616-3.3-4.032-1.212-1.721-2.188-3.607-3.391-5.336-.507-.728-1.417-1.164-2-1.856-1.623-1.942-3.123-3.988-4.765-5.913a12.566,12.566,0,0,0-2.464-2.076c-.225-.155-.762.142-1.207.243l-.914-3.478-2.507-.873c-.806-1.468-.379-3.484-2.679-3.575-.131-.005-.232-.378-.374-.558-.746-.945-1.5-1.883-2.252-2.824l-.5.221v3.168c-1.524-.023-1.256-.991-1.3-1.759-.039-.74.3-1.731-1.2-1.478V20.85c-1.2-.416-1.827.079-2.721.728-1.391,1.01.765,1.784-.071,2.521a27.45,27.45,0,0,1-3.193-1.753c-.4-.285-.452-1.047-.662-1.592Z" transform="translate(-12.535 -0.15)" fill="#3d6e57"/>
          <path id="Trazado_594274" data-name="Trazado 594274" d="M154.231,36.929c.593,1.387.933,2.941,2.755,3.381.437.106.712.765,1.15,1.012.8.453,3.176-.417,3.312-1.317.068-.451-.524-1.192-1.009-1.493a17.464,17.464,0,0,0-2.77-1.139c-.372.6-.885.773-1.661-.173-.281-.343-1.2-.166-1.821-.226l.044-.046" transform="translate(-69.385 -25.981)" fill="#707175"/>
          <path id="Trazado_594275" data-name="Trazado 594275" d="M142.463,54.771a4.943,4.943,0,0,1,1.032.044,5.763,5.763,0,0,1,1.008.465c.634-4.184-.493-6.906-3-6.706.243,1.193.5,2.357.7,3.529a1.214,1.214,0,0,1-.175.8c-.529.808-.189,1.371.451,1.88l-.022-.009" transform="translate(-48.848 -34.166)" fill="#707175"/>
          <path id="Trazado_594276" data-name="Trazado 594276" d="M273.365.628c-.73.122-1.631-.4-1.569.866,0,.091-.273.278-.409.268s-.274-.2-.35-.347C270.114-.33,269.931-.372,268.5.8l.674,2.71h1.886l1.3,1.533a5.461,5.461,0,0,0,.968-1.6,15.627,15.627,0,0,0,.043-2.818" transform="translate(-215.229 0)" fill="#707175"/>
          <path id="Trazado_594277" data-name="Trazado 594277" d="M0,208.68a2.96,2.96,0,0,0,3.054,2.509A2.4,2.4,0,0,0,0,208.68" transform="translate(134.708 -146.777)" fill="#707175"/>
          <path id="Trazado_594278" data-name="Trazado 594278" d="M289.768.2c-.17.745-.31,1.354-.521,2.275l1.114.636c.16-.379.559-.941.435-1.1-.428-.559.724-2.044-1.028-1.808" transform="translate(-238.791 -0.126)" fill="#707175"/>
          <path id="Trazado_594279" data-name="Trazado 594279" d="M309.971,5.591l1.154-1.207-3.087-.69-.29.63,2.222,1.267" transform="translate(-264.583 -2.599)" fill="#707175"/>
          <path id="Trazado_594280" data-name="Trazado 594280" d="M141.579,393.73l-2.2-.685c-.007.3-.143.719,0,.87.538.558,1.169,1.013,2.195-.186" transform="translate(-45.101 -276.52)" fill="#707175"/>
          <path id="Trazado_594281" data-name="Trazado 594281" d="M58.607,245.821l2.111,1.743.317-.987-2.158-1.064-.269.307" transform="translate(59.371 -172.727)" fill="#707175"/>
        </g>
      </g>
      <g id="planta-arbol" transform="translate(3213.658 -9325.491)">
        <g id="Grupo_874103" data-name="Grupo 874103" transform="translate(20.333 0)">
          <g id="Grupo_874102" data-name="Grupo 874102" transform="translate(0 0)">
            <path id="Trazado_594250" data-name="Trazado 594250" d="M196.944,39.754v-5.2c0-2.331.994-3.682,2.475-5.162A11.841,11.841,0,0,0,210.5,17.606a1.693,1.693,0,0,0-1.694-1.694,11.841,11.841,0,0,0-11.782,11.08,11.749,11.749,0,0,0-1.773,2.04,11.752,11.752,0,0,0-1.773-2.04,11.841,11.841,0,0,0-11.782-11.08A1.693,1.693,0,0,0,180,17.606a11.841,11.841,0,0,0,11.08,11.782c1.48,1.48,2.475,2.832,2.475,5.162v5.223h.018a15.211,15.211,0,0,0-7.327,2.866,15.161,15.161,0,0,1,7.216,3.492l.306.276c3.374,0,4.83-.02,4.83-.02a6.827,6.827,0,0,1,6.617,5.159l3.469-3.725A15.236,15.236,0,0,0,196.944,39.754Z" transform="translate(-180 -15.912)" fill="#fff"/>
          </g>
        </g>
        <g id="Grupo_874105" data-name="Grupo 874105" transform="translate(0 29.838)">
          <g id="Grupo_874104" data-name="Grupo 874104" transform="translate(0 0)">
            <path id="Trazado_594251" data-name="Trazado 594251" d="M55.857,282.917a3.126,3.126,0,0,0-3.432.779l-8.6,8.984a5.1,5.1,0,0,1-3.72,1.618H30.317a1.705,1.705,0,0,0-1.514.937,1.694,1.694,0,0,1-3.031-1.512,5.068,5.068,0,0,1,4.545-2.836c.874,0,7.789.011,8.654-.02a3.378,3.378,0,1,0,0-6.755c-1.383.016-.708.02-5.5.02-.827,0-1.277-.56-1.916-1.122a11.887,11.887,0,0,0-15.67,0l-1.276,1.122H1.694A1.693,1.693,0,0,0,0,285.827v13.555a1.674,1.674,0,0,0,1.694,1.672H12.041l.194,0a18.808,18.808,0,0,0,10.717,3.41H38.971a11.914,11.914,0,0,0,9.488-4.744l8.36-10.842h0C58.336,286.862,58.262,283.864,55.857,282.917Z" transform="translate(0 -280.064)" fill="#fff"/>
          </g>
        </g>
      </g>
    </g>
    <rect id="Rect치ngulo_291645" data-name="Rect치ngulo 291645" width="190" height="132" transform="translate(2698 -10414)" fill="none"/>
  </g>
</svg>
