<svg xmlns="http://www.w3.org/2000/svg" width="102" height="102" viewBox="0 0 102 102">
  <g id="Grupo_874904" data-name="Grupo 874904" transform="translate(-748 -2226)">
    <circle id="Elipse_5477" data-name="Elipse 5477" cx="51" cy="51" r="51" transform="translate(748 2226)" fill="#c8cbdb"/>
    <g id="Grupo_874166" data-name="Grupo 874166" transform="translate(268 243.899)">
      <g id="Grupo_874162" data-name="Grupo 874162" transform="translate(495 2004.1)">
        <g id="Grupo_874151" data-name="Grupo 874151" transform="translate(0)">
          <g id="Grupo_874149" data-name="Grupo 874149" transform="translate(0 0)">
            <g id="Grupo_874152" data-name="Grupo 874152" transform="translate(0 0)">
              <path id="Trazado_594313" data-name="Trazado 594313" d="M40.479,1.465c-.384.075.024.542.088.073.009-.063-.041-.078-.088-.073" transform="translate(2.086 0.407)" fill="#d92624" fill-rule="evenodd"/>
              <path id="Trazado_594314" data-name="Trazado 594314" d="M52.82,5.809c.4-.2.108-.561,0,0" transform="translate(2.733 1.533)" fill="#d41717" fill-rule="evenodd"/>
              <path id="Trazado_594315" data-name="Trazado 594315" d="M59.283,7.244c.482.537.428-.933,0,0" transform="translate(3.067 1.927)" fill="#d41717" fill-rule="evenodd"/>
              <path id="Trazado_594316" data-name="Trazado 594316" d="M40.987.868c-.1-.571-.463.263-.171.166a.2.2,0,0,0,.171-.166" transform="translate(2.106 0.185)" fill="#d92624" fill-rule="evenodd"/>
              <path id="Trazado_594317" data-name="Trazado 594317" d="M60.838,6.824c-.6.491.476-.127,0,0" transform="translate(3.138 1.894)" fill="#d41717" fill-rule="evenodd"/>
              <path id="Trazado_594318" data-name="Trazado 594318" d="M42.687,1.356c.361-.142-.23-.516-.127-.366.072.1.009.3.127.366" transform="translate(2.201 0.265)" fill="#d92624" fill-rule="evenodd"/>
              <path id="Trazado_594319" data-name="Trazado 594319" d="M41.1.352c-.359-.32-.894.15,0,0" transform="translate(2.101 0.066)" fill="#d41717" fill-rule="evenodd"/>
              <path id="Trazado_594320" data-name="Trazado 594320" d="M37.5,1.258c.578-.271-.719-.243,0,0" transform="translate(1.929 0.296)" fill="#d41717" fill-rule="evenodd"/>
              <path id="Trazado_594321" data-name="Trazado 594321" d="M58.029,6.96c-.144.189.325.46.333.3.005-.093-.239-.329-.333-.3" transform="translate(3.001 1.937)" fill="#d92624" fill-rule="evenodd"/>
              <path id="Trazado_594322" data-name="Trazado 594322" d="M42.753,2.364c-.342-.4-.425.582-.229.257.063-.106.206-.084.229-.257" transform="translate(2.195 0.63)" fill="#d92624" fill-rule="evenodd"/>
              <path id="Trazado_594323" data-name="Trazado 594323" d="M44.812.686c.014.486-.55.986.036.377.118-.123.106-.236-.036-.377" transform="translate(2.307 0.19)" fill="#d92624" fill-rule="evenodd"/>
              <path id="Trazado_594324" data-name="Trazado 594324" d="M38.758,1.23c-.4.23.252.561.253.175,0-.217-.187-.066-.253-.175" transform="translate(1.999 0.342)" fill="#d92624" fill-rule="evenodd"/>
              <path id="Trazado_594325" data-name="Trazado 594325" d="M46.6,1.989c-.956.307,1.156.26,0,0" transform="translate(2.398 0.553)" fill="#d41717" fill-rule="evenodd"/>
              <path id="Trazado_594326" data-name="Trazado 594326" d="M49.411.861c-.532.3.122.51.164.086.017-.17-.085-.106-.164-.086" transform="translate(2.546 0.231)" fill="#d92624" fill-rule="evenodd"/>
              <path id="Trazado_594327" data-name="Trazado 594327" d="M40.619,3.034c.794-.56-.014-1.042,0,0" transform="translate(2.101 0.673)" fill="#d41717" fill-rule="evenodd"/>
              <path id="Trazado_594328" data-name="Trazado 594328" d="M49.626,2.288c.843-.206-.441-.8-.184-.13.037.095.117.1.184.13" transform="translate(2.556 0.514)" fill="#d92624" fill-rule="evenodd"/>
              <path id="Trazado_594329" data-name="Trazado 594329" d="M58.24,6.494c-.654-.055.578.573.611.017.015-.265-.525-.046-.611-.017" transform="translate(3.003 1.776)" fill="#d92624" fill-rule="evenodd"/>
              <path id="Trazado_594330" data-name="Trazado 594330" d="M39.515.628c-.413-.394-.881.539-.11.138.052-.028.1-.038.11-.138" transform="translate(2.017 0.147)" fill="#d92624" fill-rule="evenodd"/>
              <path id="Trazado_594331" data-name="Trazado 594331" d="M40.977.425l0-.02c-.9.391.418.417.418.417.166-.334-.255-.423-.415-.4" transform="translate(2.104 0.112)" fill="#d92624" fill-rule="evenodd"/>
              <path id="Trazado_594332" data-name="Trazado 594332" d="M52.982,19.814c-1.111.3,1.344.251,0,0m10.547,2.552a1.391,1.391,0,0,1,.159.128c.506.463.453-.542,1-.189.251.162.383.127.6-.166-.05-.1-.175.013-.233-.1a6.913,6.913,0,0,1,1.907.049c-.082.031-.166.064-.253.1l.51-.073a4.189,4.189,0,0,1,1.7.384c.057.646-2.622,1.176-2.9.791-.169-.233-.779-.032-.633.3.036.081.182.052.137.215a2.323,2.323,0,0,0-.542,0c.383-.863-.247-1.19-.594-1.1.012-.116-.32-.041-.554.015-.212.051-.377.146-.32.216s.2.064.676-.054a.51.51,0,0,0,.163.433c.082.1-.026.352.176.6-.19-.042-.2.174-.324.21.083.15.284.069.3.346-.277-.188-.553.236-.855.023.375-.192.375-.192.108-.58.076.881-.653.415-.787.928-.475-1.048.294-.519-.168-.311-.308.139-1.039.9-1.373.326-.082-.141-.828.272-.939.281.053-1.033-.442.368-1.05.231-1.088-.244-1.227,1.057.026.363a1.036,1.036,0,0,1,1.3.119c.074-.81,3.763-.735,4.508-1.2.278-.174.272.254.472.23-.12.1-.212.239-.375.266a8.434,8.434,0,0,0,2.2.114.678.678,0,0,1,.266-.008c.942-.028,2.006-.091,2.935-.164a.606.606,0,0,1,.13.169c.177.35-1.959.124-1.124.968.381.386-3.149,1.057-3.237,1.032-1.434-.4-1.441.867-2.118.378.644-.743-.466-.187-.273.405.052.16-.545.424-.519.106.038-.445-.654-.266-.248.24-.277.111-.272-.366-.44-.033-.176.349-2.333.75-2.72.849,0,.539-1.085.212-1.121.41-.012.068-1.9.938-.533.764.307.5-.912.248-.51,1.019.183.349-2.674.461-1.44,1.744.256.266-1.4.473-1.783,1.159,1.112.254,3.45-.485,4.125-.169-.333.026-.5.816-1.394,1.117-1.1.369,1.379,1,3.117.524-.593.594.552.541.936,1.028.063.082-1.781.995-.978,1.011.5.009.324,1.185-.024,1.113-.746-.153-.788,1.027-1.374.973-.552-.05-5.974.633-6.295,1.116.4-.065.77-.15,1.028.222-1.619,1.387.2-.987-.59.876-.239.564-7.784.6-7.9,1.535-.073.575-3.064.4-3.064.4a32.108,32.108,0,0,1-7.039,1.586c-.125.327-1.551.552-1.8.313-.407.763-2.245.063-2.432.582-.111.311-3.284.776-3.411.447-.046.194.087.2.081.3a4.79,4.79,0,0,1-1.667.225c-.244.307-3.854.734-3.673,1.2.271.7-1.174.118-1.318.569-.278.865-.386-.725-.6-.026,0,0-1.3-.212-.835.66-.379.015-.245-.752-.673-.176.011-.588-.886-.47-.957.017-.084.583-.31-.1-.536.064-.022.15.135.151.129.306-.154-.056-.354.382-.463-.081-.27.587-.588.318-1.04.56.054-.391-.427-.277-.5-.032-.12.4-.52-.578-.86-.213.245.129.138.308.026.492-.147-.527-.4,0-.754.148.488-.842-1.822.354-1.929-.093-.043-.183-.908.454-1.788.482-1.041.035-1.335-.7-3.018.06-.373.169-.493-.07-1.411.132-.183.04-.442-.816-.529-.607-.1.643-.033.157-.406-.047.284-.472.529-.862-.084-.906-.2-.591-.06-.136-.786-.4-.406-.148.71-.455.7-.515-.021-.2-1.614.056-1.513-.721.021-.167.3-.175.593-.4-1.578-.088.557-1.227-.015-1.54l.006.008c-.043-.318,1.594-1.466.611-1.2.047-.263.047-.263-.192-.148.263-.91,2.489-1.038,2.613-1.622-.336.043-1.227.731-1.256.112-.043-.966-2.055.456-2.061-.036,0-.221,1.008-.089.817-.554-.083-.2-.563.268-.577-.012-.057-1.019-2.852.612-2.941-.569-.06-.8.4-.455,1.423-.741.369-.1,3.273-.28,3.206-.94-.039-.386-3.47.427-2.507-.1.646-.353-2.061-.329-2.09-.344.319-.291,2.489-.749,2.475-.865-.025-.208,1.371-1.052.381-.988-.414.027.153-.46-.322-.712l1.231-.267a5.985,5.985,0,0,0-1.34.22,3.841,3.841,0,0,0-1.349-.083c-.085.005-.175.035-.252-.061,1.115-.013,1.22-.407,1-.608q.822-.178,1.645-.332a4.242,4.242,0,0,0,.616-.1c2.1-.89,4.276-1.023,6.4-1.534,1.659-.4,3.314-.872,5.226-1.222-.75-.389-2.186.074-3.315.235.014-.228.418-.474.956-.624,1.417-.4,2.835-.579,4.3-1.007.569-.165,1.239-.041,1.009.283-.288.407.278.435,1.071.322a8.19,8.19,0,0,0,2.8-.835c.737-.432-.364-.233-.744-.3a5.094,5.094,0,0,1,2.76-.784,2.052,2.052,0,0,0,.811-.189c2.031-.908,3.8-.669,5.754-1.191.181-.047.555-.022.581.041.184.458,1.022.229,2.132-.174a5.893,5.893,0,0,1,1.251-.27c1-.1,1.7-.215,1.395-.637-.083-.115.341-.275.676-.389a59.855,59.855,0,0,1,6.918-1.836,4.842,4.842,0,0,1,1.584-.013c-.008.28-1.075.438-1.066.692a8.4,8.4,0,0,0,1.807-.362c.751-.2,1.809-.437.739-.584-.232-.031-.066-.178.235-.272a18.384,18.384,0,0,1,5.472-1.3,6.215,6.215,0,0,0,1.4-.271,43.577,43.577,0,0,1,4.779-1.136,20.824,20.824,0,0,0,2.141-.454c-.191-.088-.157-.456.533-.363a.948.948,0,0,1-.221.288c.368-.087.736-.173,1.094-.242M2.652,36.656c.51-.185,1.321-.384,2.141-.578a5.172,5.172,0,0,1-.912.311,7.915,7.915,0,0,1-1.229.267M7.6,35.245a.06.06,0,0,0,.014-.051c-.007-.026-.043-.047-.1-.063-.008-.083.106-.192.453-.353a2.625,2.625,0,0,1,2.189-.1c-.777.249-1.019.607-2.027.885-.045-.143-.363-.217-.524-.32Zm-.093-.114c-.025-.006-.055-.01-.087-.015.034.005.062.009.087.015M66.876,24.754a8.074,8.074,0,0,0-.953.046.913.913,0,0,1,.953-.046M58.541,21.74c1.07-1.165-.78.236,0,0m-2.268.235c-.84-.027-.373.5,0,0m.692-2.013a.179.179,0,0,0,.044-.046.179.179,0,0,1-.044.046m-11.274.978c.922-.542-.016-1.009,0,0m7.291-1.126c-1.111.3,1.344.251,0,0M45.692,20.94c.922-.542-.016-1.009,0,0" transform="translate(0.048 5.515)" fill="#de0000" fill-rule="evenodd"/>
              <path id="Trazado_594333" data-name="Trazado 594333" d="M62.452,7.481l.019.138s-.769-.146-.354.21c-.165.1-.471-.042-.717-.1.351-.078.7-.16,1.053-.243" transform="translate(3.177 2.082)" fill="#d92624" fill-rule="evenodd"/>
              <path id="Trazado_594334" data-name="Trazado 594334" d="M62.614,7.077c-.005-.023-.012-.045-.018-.064.006.019.013.041.018.064" transform="translate(3.239 1.952)" fill="#d92624" fill-rule="evenodd"/>
              <path id="Trazado_594335" data-name="Trazado 594335" d="M62.853,7.395c-.054.18-.122.349-.314.378a2.2,2.2,0,0,0,.08-.322Z" transform="translate(3.236 2.058)" fill="#d92624" fill-rule="evenodd"/>
              <path id="Trazado_594336" data-name="Trazado 594336" d="M62.092,6.846l0,.01,0-.01" transform="translate(3.212 1.905)" fill="#d92624" fill-rule="evenodd"/>
              <path id="Trazado_594337" data-name="Trazado 594337" d="M65.016,8.355c-.045.243.194.322.221.385l0,.012,0-.012c-.684.189-1.436.34-2.151.513-.354.086-.717.179-1.057.286-.48.152-1.061.334-.781.5s-.382.478-.362.681c-1.219.046-.774-.537-1.461-.727a14.536,14.536,0,0,1-2.317.905c.188.353.717.428,1.911.142.619-.147,1.243-.219,1.866-.323h0a9.9,9.9,0,0,1,2.465-.665q.4-.081.8-.166a.454.454,0,0,0-.023.193.322.322,0,0,0,.269.291l-.391.137a14.009,14.009,0,0,1-3.086.7,19.949,19.949,0,0,0-3.95.816,12.3,12.3,0,0,1-5.032.731l.04.01c1.427-.522,2.981-.67,4.669-1.276-1.176.235-1.851.253-1.686-.151.133-.322-.352-.285-1.133-.082a14.539,14.539,0,0,0-2.094.562,3.739,3.739,0,0,1-1.234.316,5.014,5.014,0,0,0-2.13.5,6.477,6.477,0,0,1-2.036.469,7.684,7.684,0,0,0-2.765.674,8.7,8.7,0,0,1-2.729.612c-.953.049-2.25.293-3.346.381a4.158,4.158,0,0,0-1.043.251,24.509,24.509,0,0,1-5.05,1.351c-.354.13-.3.192-.284.256.073.332-.2.485-1.027.523-.841.041-1.621.028-2.4.019a5.132,5.132,0,0,0-3.207.954c-.715-.274-1.509-.294-3.166.367a21.66,21.66,0,0,1-3.257.713,11.724,11.724,0,0,0-2.237.6,8.287,8.287,0,0,1-3.288.739c-.973-.032-2.337.533-3.485.639-.467.042-1.066.233-1.583.238a2.714,2.714,0,0,0-1.487.45,2.9,2.9,0,0,1-.761.408c-.855.316-1.3.353-1.289.028.007-.268-.251-.34-.979-.235a.21.21,0,0,0,.038-.091c0-.161-1.329-1.308-.1-1.772.451-.171-1.452-.357-.712-.628.524-.193-.455-.509-.529-.531a2.132,2.132,0,0,1,1.833-1.186c.017-.065.291-.775.294-.883-.094-.084-.251.051-.331-.143.343,0,1.775-1.359-.435-.813-.12.029-1.715.045-1.733.029.14-.415,1.64-1.149,1.87-1.46l-.515-.012c.482-.3,1.478-.129,1.6-.874-1.152.275-.3-.638.393-.878.374-.128.1-.194.025-.4.081-.157.264-.155.364-.345-1.608-.18.635-.842.294-1.465a5.041,5.041,0,0,0-1.631-.267c.053-.206.52-.184.21-.483-.548-.527,1.834-.949,1.775-1.309C5.348,6.608,32.2.927,32.1,1.313c-.26,1,.313-.2.316-.2C33.081.989,39.6-.4,39.66.115c-.291.083-2.654.288-2.6.662.066.5,2.7-.551,3.068-.065.006.009,1.561-.637,1.66-.252.411,2.18.623-.97.318.217.046-.564,1.585-.7,1.964-.5,0,0-1.066.465-.51.575,0,0,.568-.479.348,0C43.742,1.1,47.117.3,47.43.452c-.021.157-.158.009-.182.139.22.272.491-.04.768.023-1.081,1.093.323-.161.6-.208a21.493,21.493,0,0,1,3.7-.118c-.521,1.758-.332-1.115.073.606.336,1.424-.988-.449.365.651,0,0-.469.568-.082.337.731-.436,1.315.7,2.044.01-.264.625.8.24.8.215.067-.463.3-.082.439-.183a15.766,15.766,0,0,0,1.991.27s-5.52.245-4.647.47c1.182.3,2.884-.234,4.037.184-.165.2-1.714.271.265.557,2.776.4,1.844.382-.56.43-.646.013-1,.638-.179.665.791.024,6.287,0,6.2.738-.069.556,1.443,1.567.247,1.189-.125-.04.251-.306-.1-.281-1.232.088-1.538.486-1.069.312a1.787,1.787,0,0,0,.52.617c-.048.753-1.944.491-2.593.62-.2.038-.275.322-.476.362.665.339,5.646-.083,6.572-.313-.1.089-.786-.005-.5.341.2.245-.31.162-.371.314-.114-.033-.056-.438-.272-.036-.242-.1-.426,0-.578.293.237,0,.468.061.581-.3" transform="translate(0.066 0)" fill="#fff" fill-rule="evenodd"/>
              <path id="Trazado_594338" data-name="Trazado 594338" d="M64.463,8.473l-.39.137a14.033,14.033,0,0,1-3.086.7,19.943,19.943,0,0,0-3.951.816A12.324,12.324,0,0,1,52,10.861l.041.009c1.426-.522,2.98-.67,4.669-1.276-1.176.235-1.852.253-1.687-.15.133-.322-.352-.285-1.133-.083a14.745,14.745,0,0,0-2.094.562,3.708,3.708,0,0,1-1.234.316,5.021,5.021,0,0,0-2.13.5,6.435,6.435,0,0,1-2.036.469,7.715,7.715,0,0,0-2.765.675,8.693,8.693,0,0,1-2.729.611c-.952.05-2.25.293-3.346.382a4.178,4.178,0,0,0-1.043.249,24.6,24.6,0,0,1-5.05,1.353c-.354.129-.3.19-.283.254.072.334-.2.485-1.028.524-.841.04-1.621.027-2.4.019a5.111,5.111,0,0,0-3.206.954c-.716-.275-1.51-.294-3.167.367a21.829,21.829,0,0,1-3.257.712,11.723,11.723,0,0,0-2.237.6,8.239,8.239,0,0,1-3.288.739c-.973-.031-2.336.533-3.485.639-.467.043-1.065.233-1.583.238a2.721,2.721,0,0,0-1.486.45,2.884,2.884,0,0,1-.763.408c-.855.316-1.3.354-1.289.028.007-.267-.25-.34-.978-.234-.021.035-.049.077-.084.124.394.311.326.43-.711.819a5.911,5.911,0,0,1-.428.431c-1.9.67.223.534-.6,1.226-.934.79.687,1.05.678,1.583a.927.927,0,0,1-.307-.035c-.443-.2-.247,1.074-.182,1.057.714-.18-.236,1.07.145.89.829-.392-.806.864-.849.885.17.265.768-.129.57.638.729.088,1.029.5.2.771.282.115.609-.009.862.238-.371.954-2.228.943-1.97,1.667,0,0-.668.506-.15.387a5.846,5.846,0,0,1,.586-.1c-.081.078-.3.118-.334.239a6.924,6.924,0,0,1,1.9.258c.4.6-2.212,1.244-.343,1.418-.116.184-.328.182-.423.335.081.2.406.261-.029.385a2.685,2.685,0,0,0-.767.376c-.043.174-.1.35-.151.522a1.837,1.837,0,0,0,.462-.047c-.064.314-.32.46-.634.55a4.586,4.586,0,0,0-.277.831,1.893,1.893,0,0,1,.118.757c1.627-.183.235.887-.125.891.094.188.277.058.385.139a1.618,1.618,0,0,1-.106.3c.318.019.515.073.262.216.014.024.028.052.045.084-.02.277-.108.138-.16-.023a2.761,2.761,0,0,0-.363.222c-.011.024-.017.042-.02.05l-.054.009c-.837.745,3.142.157,2.789.49-.419.4,3.876-.189,4.609-.009-.008-.084.106-.193.453-.353a2.627,2.627,0,0,1,2.189-.1c-.777.249-1.019.607-2.027.886-.045-.144-.363-.217-.524-.32a10.8,10.8,0,0,1-2.81.833,5.069,5.069,0,0,1-.912.311,7.8,7.8,0,0,1-1.229.267,1.118,1.118,0,0,0-.521.288.5.5,0,0,1,.664-.019q.822-.176,1.645-.331a4.431,4.431,0,0,0,.616-.106c2.1-.89,4.276-1.023,6.4-1.534,1.659-.4,3.314-.872,5.226-1.221-.75-.389-2.186.074-3.315.235.014-.228.418-.474.955-.625,1.417-.4,2.837-.579,4.3-1.006.569-.166,1.239-.042,1.009.281-.289.407.278.435,1.071.322a8.218,8.218,0,0,0,2.8-.833c.736-.433-.364-.234-.744-.3a5.093,5.093,0,0,1,2.76-.782,2.079,2.079,0,0,0,.811-.189c2.031-.909,3.8-.669,5.754-1.193.181-.047.555-.022.581.041.184.458,1.022.229,2.132-.174a5.878,5.878,0,0,1,1.251-.27c1-.1,1.7-.215,1.395-.637-.083-.114.341-.275.676-.387A59.6,59.6,0,0,1,45.085,30a4.842,4.842,0,0,1,1.584-.013c-.008.28-1.075.438-1.066.693a8.558,8.558,0,0,0,1.807-.362c.751-.2,1.809-.438.738-.585-.231-.031-.065-.178.236-.271a18.426,18.426,0,0,1,5.472-1.3,6.155,6.155,0,0,0,1.4-.271,43.813,43.813,0,0,1,4.779-1.136,21.14,21.14,0,0,0,2.141-.453c-.191-.089-.157-.456.533-.364a.973.973,0,0,1-.221.289c.368-.088.736-.174,1.094-.243-.677-.47-1.332-.009-2.17.064-1.987.171-.686-.21-1.17.392-.519-.381-1.057.075-1.669-.164.728.756-.393-.251.008.008-.023-.863,2.552-.231,2.695-.791.348.123.428-.052.472-.3-.084-.083-.058-.192.045-.288a.64.64,0,0,1,.27-.484c.009.014.062.137.146.291a1.412,1.412,0,0,1,.253-.028l.228,0c-.033-.207-.028-.378.017-.279a1.093,1.093,0,0,0,.158.275H63a.681.681,0,0,0-.1-.433,3.526,3.526,0,0,1-.923-.183c-.024.013-.048.027-.074.042a.278.278,0,0,1,.044-.082.055.055,0,0,1,.031-.033.6.6,0,0,1,.42-.12,1.651,1.651,0,0,0,.365-.112c-.463-.066-.875-.059-1,.215-.206.464-.6-.377-.956.235-.039.064-.147-.275-.034-.62l-.506.024c.484.1-.467.908-.5.634-.079-.569-.321.329-.477.018.141-.093-.062-.392.51-.617l.069-.014a7.134,7.134,0,0,1-1.76-.078c-.814-.175,3.141-.362,4.745-.43a.252.252,0,0,0,.021-.063c-.607-.065-1.452-.184-1.643-.217-.014.018-.05.019-.1.01-.16.008-.383-.237-.452.16,0,.024-1.238.4-.931-.208a.953.953,0,0,1-.889.182,16.6,16.6,0,0,0,2.1-.781c.085-.095,1.923.417,1.92-.283h0c-.309-.116.354-.247.388-.325-1,.095.144-.735.248-1,.324,1.009.326-.068.512-.066.047,0-.151.561,1.746.289,0-.128-.195-.109-.1-.29.225-.418,1.551-.225.262-.433.223-.515.77-.591.743.087-.022.559,1.072.256,1.827.015a1.665,1.665,0,0,0,.429-.247c.022-.036.14-.014.312.029.706-.2-2.373-1.145-2.465-.18-.255-.142-.171-.7-.63-.5-1.257.555-.48.139-.811.119-1.747-.109,1.894-.828,2.326-.867,2.87-.254,1.095-.942.946-.872s-2.89-1.139-1.361-.984c.553.056-.216-.354-.216-.354.114-.247.317-.151.48-.258-.088-.2-.25-.119-.373-.155-.31-.092.084-.332.308-.4-.088-.026-.178-.055-.266-.089.24-.005,2.862-.832,3.176-.965.43-.182.538-.06.5.137a2.542,2.542,0,0,0,.4-.242,3.586,3.586,0,0,1,.025-.693,2.357,2.357,0,0,1-.77.1c-.1.144-.371.213-.907-.019a1,1,0,0,1,.486-.419c-.208-.584-1.314-1.379-1.6-.461-.057-.279-.392-.354-.841-.322a1.259,1.259,0,0,0-.083.206c-.164.508-.383.234-.439-.136-.123.023-.25.05-.379.081a1.65,1.65,0,0,0,.192.38c-.283.371-.5-.055-.73-.012-.084.015.017-.1.138-.265-.744.2-1.429.458-1.579.479a2.41,2.41,0,0,1-.886.023c-.024.616-.494.188-.588-.074a1.774,1.774,0,0,1-.131.121c-.367.045-.038-.173.116-.217.009-.075.094-.1.3,0,.056-.035.19-.162.259-.1a3.583,3.583,0,0,1,2.365-.744c.194.027.985-.61,1.385-.559a2.756,2.756,0,0,0,2.06-.57c.709.073.461-.782.082-.4.054.083.118.073.178.077.219.017-.139.35-.357-.041-.409.508-.1.294-.25-.015-.91.078-2.788.516-3.626-.095-.117.1-.241.211-.4.357a2.864,2.864,0,0,1-.393.19c-.677-.018-1.353-.055-2.086-.051a7.415,7.415,0,0,0-3.145.624,2.372,2.372,0,0,1-1.66.362,3.846,3.846,0,0,0-2.017.3c-.25.1-.528.086-.533-.066.948-.256,1.733-.681,2.762-.9q3.99-.84,7.977-1.668c.345-.106.68-.2.768-.239-.178-.188-.381-.152-.627-.095.129.1.266-.052.347.088a2.65,2.65,0,0,1-.7.051c.032-.082.134-.026.154-.107a16.251,16.251,0,0,0-1.883.029c.018-.136.089-.156.144-.166,1.7-.327,1.2.033.84-.784.309.036.322.027.453-.343a1.875,1.875,0,0,1-1.236.215M65.3,6.842c.007.017,0,.031-.028.047.1.228.8-.384,1.159.17-.235.031-.278.274-.344.5l-.235.056c.126-.782-.351-1.016-.226.054-.351.083-.7.165-1.054.243-.164-.042-.3-.047-.358.078-.266.058-.533.114-.8.166a9.851,9.851,0,0,0-2.465.666h0v0c-.624.1-1.247.176-1.866.323-1.195.286-1.724.211-1.911-.142a14.442,14.442,0,0,0,2.316-.905c.687.192.242.773,1.462.727-.021-.2.644-.514.361-.68s.3-.348.781-.5c.34-.107.7-.2,1.058-.286.715-.173,1.466-.323,2.15-.513M71.6,13.887a.759.759,0,0,0,.088-.1c.23-.289.2.013-.172.376.031-.086.06-.182.084-.277M67.013,25.7l.257.029-.511.072c.088-.036.172-.07.255-.1m-2.582.623a.26.26,0,0,0-.2.176c-.481.119-.627.114-.676.054s.107-.165.32-.216c.235-.056.566-.132.554-.014M3.555,41.342a.776.776,0,0,0-.109-.047,6.058,6.058,0,0,1,1.34-.22ZM63.193,24.277q.423.052.746.093a2.161,2.161,0,0,1-.461.3l-.249,0a.528.528,0,0,0-.036-.394m-.515,1.055.572.008a.411.411,0,0,1-.572-.008M58.468,23.95c-1.227.17.977.74.558-.017-.056-.1-.431.019-.558.017M57.2,25.345c-.564.167.708.667.633.01-.02-.18-.52.015-.633-.01m1.393.014c1.069-1.165-.78.237,0,0m2.866-.556c.255-.5.253-.5-.109-.522-.02.188-.059.382.109.522m-3.765-.041c.3.537.192-.394.1-.353-.131.061-.14.211-.1.353m-1.368.831c-.84-.026-.374.506,0,0m-4.44,1.295c-.366-.019.237.655.195.115-.011-.147-.12-.1-.195-.115m4.854-3.2A.79.79,0,0,0,57,23.591l-.019.012-.246.079Zm.279-.1a.161.161,0,0,0,.044-.046.161.161,0,0,1-.044.046m.044-.047a.1.1,0,0,0,.014-.035.1.1,0,0,1-.014.035M45.74,24.557c.922-.541-.016-1.007,0,0m7.291-1.126c-1.111.3,1.344.252,0,0m-11.114-.955c.674-.263-.835-.236,0,0m4.377-1.1c-.416-.309-1.039.144,0,0m-.137.118,0-.02c-.511.184-.408.285-.168.339.038.009.079.017.122.023a4.552,4.552,0,0,0,.532.041.21.21,0,0,0,.026-.21.214.214,0,0,0-.066-.077.707.707,0,0,0-.443-.1m-1.8.229c-.481-.381-1.024.522-.128.133.06-.027.115-.037.128-.133m1.382,2.837c.922-.541-.016-1.007,0,0m10.733-2.529c-.619.293.141.493.19.083.019-.165-.1-.1-.19-.083m-3.442,1.4c-1.111.3,1.344.252,0,0m-9.573-.938c-.463.222.294.543.3.169,0-.211-.218-.064-.3-.169m7.393-.674c.016.469-.638.954.041.364.137-.119.124-.229-.041-.364M48.328,23.87c-.4-.39-.493.562-.267.248.074-.1.24-.082.267-.248m-6.411-1.393c.674-.263-.835-.236,0,0m4.377-1.1c-.416-.309-1.039.144,0,0m1.965,1.166c.42-.138-.268-.5-.147-.354.082.1.011.29.147.354m-2.087-.55a.375.375,0,0,0-.064-.157.089.089,0,0,0-.122-.023c-.131.077-.236.4-.014.341.076-.02.179-.047.2-.161m-.613.793c-.447.073.028.525.1.07.011-.06-.048-.075-.1-.07m20.1-5.5c-.413-.368-2.924.015-2.085.5.223.129.466-.6.637-.128.087.239,1.15.332.953-.339.21.316.341-.015.494-.035M61.62,19.652c-.225.509.29-.07.348-.123-.148.614,1.008-.566.057-.228-.233.083-2.183.633-2.362.647a2.972,2.972,0,0,0,1.957-.3m.538-2.071c-.862.708.861.138.841.06-.118-.45-.7-.023-.841-.06m-1.737.647c-1.243-.559-.75.937-.471.316a.52.52,0,0,1,.471-.316m1.049.736c1.182.284.659-.7,0,0m-1.984-.224a1.158,1.158,0,0,1-.251-.414c.011.183-.416.465-.291.442.174-.033.332.178.543-.028m-2.5.183c-.633-.166.28.639.222-.005-.012-.137-.168-.02-.222.005m4.488-4.794c.511-.565-.087-.6,0,0M61,21.48c-.578.119.76.611,0,0m8-10.442c-.306.2.266.571.168.192-.025-.1-.073-.184-.168-.192m-6.278,7.8a1.161,1.161,0,0,0-.017.382c-.42.423.4.733.462.028.026-.316-.134-.211-.257-.183l-.032.019c.126-.26.214-.671-.157-.247M57,28.175v-.024c-.013-.242-.12-.229-.212-.238a2.7,2.7,0,0,1,.482-.207c.509-.13.728-.078.812.047s-.137.26-.533.344a3.421,3.421,0,0,1-.547.078m-8.521-5.516c1.24-.936-.021-1.951,0,0m9.8-1.3c-1.492.438,1.807.647,0,0m-14.943-3.19c.907-.427-1.122-.556,0,0m5.886-1.6c-.56-.649-1.4.153,0,0m-.184.208,0-.038c-.687.294-.548.5-.226.635a1.663,1.663,0,0,0,.164.059,4.6,4.6,0,0,0,.715.143.56.56,0,0,0,.037-.4.485.485,0,0,0-.09-.156.792.792,0,0,0-.6-.239m-2.419.225c-.647-.794-1.377.885-.174.243a.24.24,0,0,0,.174-.243m1.857,5.652c1.24-.936-.021-1.951,0,0m9.8-1.3c-1.492.438,1.807.647,0,0M45.408,18.392c-.623.375.4,1.085.4.362,0-.407-.292-.15-.4-.362m9.94-.409c.021.909-.859,1.765.056.708.183-.211.166-.426-.056-.708M51.956,21.64c-.534-.8-.664,1.029-.359.449.1-.189.323-.129.359-.449m-8.62-3.467c.907-.427-1.122-.556,0,0m5.886-1.6c-.56-.649-1.4.153,0,0m2.641,2.489c.565-.215-.359-1-.2-.7.111.2.015.562.2.7m-2.8-1.314a.968.968,0,0,0-.086-.311c-.05-.092-.109-.1-.164-.059-.177.13-.317.749-.018.657a.313.313,0,0,0,.268-.288m-.824,1.459c-.6.086.038,1.018.138.148a.121.121,0,0,0-.138-.148m6.394-7.429.015-.027-.014.027-.05.029c.017-.009.034-.019.049-.029m.019-.036,0-.019,0,.019m-12.63-.267a1.991,1.991,0,0,0-.911.15c-.169.061-.189.125-.038.11a2.776,2.776,0,0,0,.949-.26M6.724,19.287a2.455,2.455,0,0,0,.939-.174c-.267-.061-.629.133-.939.174m37.943-8.378.32-.127a5.184,5.184,0,0,0-.52.018.788.788,0,0,0-.273.129c.037.075.268.023.473-.02M14.982,38.658c.2-.038.39-.065.569-.112.061-.018.169-.116.137-.13a.8.8,0,0,0-.507.074c-.089.038-.117.1-.2.169m25.613-6.9a1.874,1.874,0,0,0-.958.089c-.4.083-.938.179-.854.371.053.119.47.04.837-.077a2.984,2.984,0,0,0,.975-.384m14.057-3.54c-.392.121-.916.366-.832.378a1.89,1.89,0,0,0,1.18.061c.283-.073.654-.267.548-.3a1.078,1.078,0,0,0-.9-.136M44,31.043a5.092,5.092,0,0,0-2.211.4c-.172.072-.308.165-.215.221a.525.525,0,0,0,.442.014c.594-.18,1.179-.375,1.984-.632M30.663,33.919a11.876,11.876,0,0,1-1.761.33,1.462,1.462,0,0,0-.751.215c-.095.069-.085.162,0,.2a.976.976,0,0,0,.793-.019,5.613,5.613,0,0,0,1.719-.721m-2.986.848c-.208-.171-.825-.026-1.364.054a2.78,2.78,0,0,0-1.308.419c-.066.054-.143.129-.1.151a2.149,2.149,0,0,0,1.055-.049,4.86,4.86,0,0,0,1.6-.417c.082-.049.077-.1.115-.159m.541.671-6.947,1.618a3.377,3.377,0,0,0,2.28-.357,9.707,9.707,0,0,1,3.233-.8A5.523,5.523,0,0,0,28.2,35.59c.005-.051.012-.1.018-.152M13.94,22.019h0a11.337,11.337,0,0,1-2.344.491c-.311-.014-.868.079-.806-.1.082-.234.723-.381,1.171-.474a23.447,23.447,0,0,0,3.721-.786.525.525,0,0,1,.446.018c.157.1-.093.274-.409.372-.606.189-1.248.337-1.778.478m24.478-6h0c.452-.088.906-.208,1.276-.243.459-.043.636.11.162.28a27.7,27.7,0,0,1-3.934,1.074c-.273.054-.47.008-.484-.089s.205-.2.517-.291c.831-.242,1.658-.491,2.462-.73M27.731,18.47h0c-.006.056-.012.112-.018.169-1.316.362-2.629.727-3.947,1.083a4.5,4.5,0,0,1-1.4.206c-.209-.017-.424-.035-.271-.176a1.17,1.17,0,0,1,.528-.2,43.08,43.08,0,0,0,5.109-1.08m25.291-3.012h0a42.65,42.65,0,0,1,4.739-1.076,21.256,21.256,0,0,1-2.292.588,6.46,6.46,0,0,1-2.447.488M51.17,13.549h0c.253-.3,1.15-.41,1.534-.684a1.507,1.507,0,0,1,.911-.157c.154.033.28.106.249.194-.058.169-.494.258-.837.329a9.931,9.931,0,0,1-1.857.318M22.853,19.114h0c-.516.068-.747-.024-.7-.236.035-.147.337-.27.716-.345.653-.129.98-.037,1.02.129.035.143-.477.307-1.038.453M35,15.971h0a5.022,5.022,0,0,1,2.935-.532A15,15,0,0,1,35,15.971m10.026-1.349h0c.593-.143,1.028-.174,1.1-.047.057.1-.347.271-.729.368-.48.123-.86.133-.935,0s.308-.254.568-.321M1.781,22.227h0a11.453,11.453,0,0,1,2.763-.593,6.258,6.258,0,0,1-2.763.593M47.2,13.179h0c1.276-.441,1.276-.441,2.052-.354a4.807,4.807,0,0,1-2.052.354" transform="translate(0 1.898)" fill="#003594" fill-rule="evenodd"/>
            </g>
          </g>
        </g>
      </g>
    </g>
  </g>
</svg>
