<svg xmlns="http://www.w3.org/2000/svg" width="85" height="85" viewBox="0 0 85 85">
  <g id="Grupo_874900" data-name="Grupo 874900" transform="translate(-1020 -2257)">
    <circle id="Elipse_4722" data-name="Elipse 4722" cx="42.5" cy="42.5" r="42.5" transform="translate(1020 2257)" fill="#ccddc3"/>
    <g id="_13-eco_friendly_product" data-name="13-eco friendly product" transform="translate(1029.532 2270.03)">
      <path id="Trazado_212473" data-name="Trazado 212473" d="M56.732,53.98,32,67.47V40.49L56.732,27Z" transform="translate(2.856 3.356)" fill="#ebd557"/>
      <path id="Trazado_212474" data-name="Trazado 212474" d="M10,53.98,34.732,67.47V40.49L10,27Z" transform="translate(0.124 3.356)" fill="#fcea81"/>
      <path id="Trazado_212475" data-name="Trazado 212475" d="M10,28.49,34.732,41.98,59.464,28.49,34.732,15Z" transform="translate(0.124 1.866)" fill="#ebd557"/>
      <path id="Trazado_212476" data-name="Trazado 212476" d="M24.869,46.111V35.993l7.869-4.5L24.869,27,17,31.5V41.614Z" transform="translate(0.993 3.356)" fill="#e36861"/>
      <path id="Trazado_212477" data-name="Trazado 212477" d="M33.159,20.515s2.383-8.746-3.98-15.1-15.131-3.98-15.131-3.98-2.383,8.746,3.968,15.1S33.159,20.515,33.159,20.515Z" transform="translate(0.573 0.128)" fill="#95c590"/>
      <path id="Trazado_212478" data-name="Trazado 212478" d="M32.55,19.162s5.722,3.181,10.59.371,4.98-9.364,4.98-9.364S42.387,6.988,37.553,9.8,32.55,19.162,32.55,19.162Z" transform="translate(2.924 1.076)" fill="#899c69"/>
      <path id="Trazado_212479" data-name="Trazado 212479" d="M60.127,26.881,47.761,20.136a1.138,1.138,0,1,0-1.124,1.979l10.6,5.756L34.856,40.079,29.775,37.3a1.138,1.138,0,1,0-1.124,1.979l5.081,2.743V66.452L11.248,54.188V29.759l3.957,2.158a1.057,1.057,0,0,0,.54.146,1.124,1.124,0,0,0,.54-2.113l-3.811-2.08L23.03,22.115a1.138,1.138,0,1,0-1.124-1.979L9.54,26.881a1.124,1.124,0,0,0-.54.989v26.98a1.124,1.124,0,0,0,.585.989L34.316,69.33h.259a1.192,1.192,0,0,0,.562,0H35.4L60.127,55.84a1.124,1.124,0,0,0,.585-.989V27.871a1.124,1.124,0,0,0-.585-.989ZM35.98,66.452V42.024L58.464,29.759V54.188Z" transform="translate(0 2.486)"/>
      <path id="Trazado_212480" data-name="Trazado 212480" d="M25.555,26.147a1.124,1.124,0,0,0-1.124,0l-7.869,4.5a1.124,1.124,0,0,0-.562.978V41.739a1.124,1.124,0,0,0,.562.978l7.869,4.5a1.124,1.124,0,0,0,1.686-.978V36.77L33.425,32.6a1.124,1.124,0,0,0,0-1.956ZM24.431,35.14a1.124,1.124,0,0,0-.562.978V44.3l-5.621-3.215V32.273l6.745-3.856,5.621,3.2Z" transform="translate(0.869 3.232)"/>
      <path id="Trazado_212481" data-name="Trazado 212481" d="M49.432,42.147l-7.869,4.5A1.128,1.128,0,1,0,42.687,48.6l7.869-4.5a1.128,1.128,0,1,0-1.124-1.956Z" transform="translate(3.973 5.218)"/>
      <path id="Trazado_212482" data-name="Trazado 212482" d="M49.432,47.147l-7.869,4.5A1.128,1.128,0,1,0,42.687,53.6l7.869-4.5a1.128,1.128,0,1,0-1.124-1.956Z" transform="translate(3.973 5.839)"/>
      <path id="Trazado_212483" data-name="Trazado 212483" d="M29.262,22.229a17.986,17.986,0,0,0,4.025-.427v8.555h2.248V21.723a14.749,14.749,0,0,0,5.553,1.18,10.039,10.039,0,0,0,5.092-1.315c5.362-3.1,5.542-10.028,5.542-10.32a1.124,1.124,0,0,0-.573-1C50.891,10.121,44.8,6.8,39.435,9.9a10.781,10.781,0,0,0-4.654,5.846A16.255,16.255,0,0,0,30.06,4.725C23.315-2.02,14.254.352,13.872.465a1.124,1.124,0,0,0-.8.787c-.1.382-2.473,9.443,4.272,16.188a16.48,16.48,0,0,0,11.916,4.789ZM40.5,11.852c3.373-1.945,7.341-.585,8.858.079-.191,1.641-.989,5.756-4.362,7.7a9.387,9.387,0,0,1-7.487.427l7.757-4.5a1.128,1.128,0,0,0-1.124-1.956l-7.757,4.5a9.4,9.4,0,0,1,4.171-6.25Zm-25.4-9.331c2.057-.36,8.521-1.023,13.366,3.822a14.929,14.929,0,0,1,4,11.95L21.314,7.142a1.124,1.124,0,0,0-1.585,1.585L30.88,19.89a14.9,14.9,0,0,1-11.95-4c-4.845-4.845-4.182-11.309-3.822-13.366Z" transform="translate(0.446)"/>
    </g>
  </g>
</svg>
