<svg xmlns="http://www.w3.org/2000/svg" xmlns:xlink="http://www.w3.org/1999/xlink" width="102" height="102" viewBox="0 0 102 102">
  <defs>
    <clipPath id="clip-path">
      <rect id="Rectángulo_42833" data-name="Rectángulo 42833" width="72.517" height="56" fill="none"/>
    </clipPath>
  </defs>
  <g id="Grupo_874908" data-name="Grupo 874908" transform="translate(-748 -2878)">
    <circle id="Elipse_5479" data-name="Elipse 5479" cx="51" cy="51" r="51" transform="translate(748 2878)" fill="#c8cbdb"/>
    <g id="Grupo_874168" data-name="Grupo 874168" transform="translate(-2653 11185.827)">
      <g id="Grupo_874157" data-name="Grupo 874157" transform="translate(3416 -8284.827)">
        <g id="Grupo_874156" data-name="Grupo 874156" transform="translate(0 0)" clip-path="url(#clip-path)">
          <path id="Trazado_594346" data-name="Trazado 594346" d="M65.706,8.2c-.057.3.337.345.193.424.1.223.8-.377,1.171.166-.429.055-.226.79-.665.859.351-1.041-.339-1.477-.13-.127,0,0-.776-.143-.359.206-.317.187-1.151-.494-1.109.163.034.527,1.207.295,1.519.076-.132.362-.145.371-.458.336.363.8.865.448-.848.769-.054.01-.127.029-.144.162a17.489,17.489,0,0,1,1.9-.029c-.021.08-.123.026-.155.107a2.693,2.693,0,0,0,.706-.051c-.081-.137-.219.01-.35-.085.25-.056.454-.093.634.093-.2.083-1.695.46-1.649.593.43,1.26,2.925.663,4.022.571.154.3-.159.514.253.016.22.384.581.056.36.04a.185.185,0,0,1-.179-.076c.382-.372.634.467-.083.4a2.834,2.834,0,0,1-2.08.559c-.4-.05-1.2.574-1.4.548-1.371-.184-3.894,1.328-1.449.978.347-.049,3.569-1.3,3.756-.4.316-.972,1.593.015,1.651.584.054.517,1.076.237,1.37.145,0,0-.132.561.186.173.419-.512-.017.865-1.8,1.072-.426.05-1.494.9-2.34.611-.108-.038-.824.3-.432.413.123.035.288-.048.377.152-.166.105-.371.01-.485.253,0,0,.776.4.218.347-1.543-.152,1.222,1.036,1.374.966s1.943.606-.955.855c-.436.038-4.112.744-2.348.85.333.02-.451.428.819-.117.463-.2.378.351.635.489.1-.978,3.416.05,2.4.2-.337.048-2.539.952-2.507.181.028-.665-.525-.592-.751-.087,1.3.206-.037.016-.264.425-.1.179.1.161.1.286C64.5,22.548,64.7,22,64.65,22c-.188,0-.19,1.053-.516.065-.106.265-1.258,1.078-.251.986-.034.075-.705.2-.392.319l0,0c0,.687-1.854.186-1.939.278a17.265,17.265,0,0,1-2.118.765.986.986,0,0,0,.9-.177c-.309.593.937.228.941.2.07-.389.294-.148.456-.157.047.01.084.009.1-.009.192.031,1.046.149,1.66.213a.368.368,0,0,1-.021.061c-1.621.066-5.613.25-4.792.42a7.409,7.409,0,0,0,1.776.078l-.07.013c-.578.222-.372.515-.515.607.159.3.4-.576.483-.018.037.267,1-.52.509-.622.171-.009.342-.018.512-.024-.115.337-.005.671.033.607.364-.6.757.226.965-.229.124-.27.54-.276,1.008-.211a1.821,1.821,0,0,1-.37.109.623.623,0,0,0-.423.118q-.029.017-.032.034a.253.253,0,0,0-.044.079c.024-.015.05-.028.074-.04a3.636,3.636,0,0,0,.932.179.639.639,0,0,1,.1.424l-.139,0a1.125,1.125,0,0,1-.159-.27c-.045-.1-.049.069-.017.272l-.23,0a1.374,1.374,0,0,0-.256.028c-.085-.152-.137-.272-.148-.286a.623.623,0,0,0-.272.475c-.1.094-.132.2-.046.282-.045.242-.126.415-.477.295-.144.549-2.745-.07-2.721.776-.406-.253.727.732-.009-.009.618.236,1.162-.212,1.686.161.487-.589-.826-.216,1.18-.384.912-.078,1.609-.6,2.352.063.51.454.458-.532,1.008-.186.254.159.388.124.611-.163-.052-.1-.176.013-.237-.1.312-.177,3.873.189,3.9.453.057.632-2.647,1.152-2.931.775-.171-.228-.786-.031-.639.292.036.079.184.051.138.211a2.413,2.413,0,0,0-.547,0c.621-1.358-1.392-1.363-.635-.475.083.1-.027.345.177.588-.191-.041-.2.172-.326.206.084.147.286.068.3.341-.279-.186-.557.231-.863.021.379-.188.379-.188.11-.569.075.864-.659.408-.8.91-.48-1.028.3-.509-.17-.3-.311.137-1.048.882-1.386.32-.082-.138-.835.267-.948.276.053-1.012-.446.361-1.06.227-1.1-.24-1.238,1.037.027.356a1.074,1.074,0,0,1,1.313.117c.073-.8,3.8-.721,4.55-1.175.28-.171.275.25.477.226-.12.1-.213.235-.379.261a26.235,26.235,0,0,0,5.456-.056.588.588,0,0,1,.133.167c.178.342-1.979.12-1.136.948.384.379-3.179,1.037-3.268,1.012-1.447-.39-1.455.85-2.138.371.65-.729-.469-.183-.276.4.052.156-.55.415-.523.1.038-.436-.66-.261-.251.236-.278.109-.275-.359-.444-.033-.177.342-2.355.736-2.746.833,0,.529-1.095.208-1.132.4-.012.066-1.919.92-.538.75.31.493-.921.243-.514,1,.184.342-2.7.453-1.455,1.711.258.261-1.412.464-1.8,1.137,1.122.25,3.482-.475,4.163-.166-.337.025-.5.8-1.407,1.1-1.107.362,1.392.981,3.148.514-.6.583.556.53.944,1.008.065.08-1.8.977-.987.992.5.009.327,1.163-.024,1.092-.753-.15-.8,1.007-1.386.954-.557-.049-6.031.621-6.356,1.095.4-.064.777-.147,1.037.218-1.634,1.361.2-.968-.6.859-.241.554-7.857.588-7.975,1.506-.072.564-3.092.391-3.092.391a33.248,33.248,0,0,1-7.107,1.556c-.126.322-1.567.542-1.816.307-.411.749-2.267.061-2.455.571-.113.3-3.314.761-3.443.44-.046.189.089.192.082.293a4.933,4.933,0,0,1-1.683.221c-.246.3-3.89.72-3.708,1.174.274.683-1.185.115-1.33.558-.279.85-.389-.711-.606-.025,0,0-1.309-.208-.843.647-.381.015-.247-.737-.68-.173.011-.577-.894-.461-.965.016-.085.572-.314-.1-.542.063-.023.147.135.148.13.3-.154-.055-.358.376-.467-.079-.273.576-.594.312-1.05.549.054-.384-.43-.272-.505-.031-.121.388-.526-.567-.87-.209.247.127.14.3.027.483-.149-.517-.4,0-.76.145.492-.826-1.84.347-1.948-.092-.044-.179-.915.445-1.805.473-1.05.034-1.347-.688-3.046.059-.378.166-.5-.069-1.426.129-.184.04-.446-.8-.534-.6-.1.631-.032.154-.41-.046.287-.463.534-.845-.085-.889-.2-.579-.061-.133-.793-.394-.41-.147.718-.448.711-.507-.021-.193-1.631.055-1.529-.707.022-.164.3-.172.6-.389-1.593-.087.563-1.2-.015-1.511l.007.008c-.045-.312,1.609-1.438.617-1.174.047-.258.047-.258-.194-.145.264-.893,2.512-1.018,2.638-1.591-.34.043-1.24.719-1.268.11-.045-.948-2.076.448-2.082-.035,0-.217,1.017-.088.825-.543-.084-.2-.567.263-.583-.011-.057-1-2.88.6-2.969-.558-.061-.78.406-.446,1.438-.727.372-.1,3.3-.275,3.236-.922-.04-.379-3.5.419-2.532-.1.653-.346-2.081-.322-2.11-.337.322-.286,2.513-.735,2.5-.849-.025-.2,1.385-1.031.384-.969-.606.039.872-.983-1.8-.826-.086.005-.176.034-.254-.06,1.866-.013.929-1.078.339-.578.31-.529,5.639-1.307,5.537-1.717-.085-.341-5.216.371-4.757-.051.355-.326-3.661.251-2.816-.48l.054-.009a.433.433,0,0,1,.019-.049,3.1,3.1,0,0,1,.366-.219c.053.159.142.3.161.024-.016-.031-.031-.059-.046-.083.257-.14.057-.194-.264-.212a1.589,1.589,0,0,0,.108-.3c-.11-.08-.3.048-.389-.137.362,0,1.768-1.052.125-.874A1.772,1.772,0,0,0,.183,36.8a4.437,4.437,0,0,1,.279-.816c.319-.087.577-.231.641-.538a1.976,1.976,0,0,1-.466.046c.056-.168.108-.341.152-.512a2.71,2.71,0,0,1,.774-.369c.44-.123.113-.186.03-.379.1-.149.31-.147.427-.327-1.886-.171.745-.8.346-1.391a7.124,7.124,0,0,0-1.913-.253c.038-.119.256-.158.339-.235-.208.025-.407.058-.591.1-.523.118.151-.379.151-.379-.259-.711,1.614-.7,1.989-1.635-.256-.243-.585-.12-.871-.233.838-.261.534-.67-.2-.757.2-.751-.4-.365-.576-.626.044-.019,1.694-1.252.857-.867-.384.177.576-1.05-.147-.873-.066.016-.262-1.237.185-1.037a.952.952,0,0,0,.309.034c.01-.523-1.628-.778-.684-1.553.826-.678-1.312-.547.6-1.2a8.454,8.454,0,0,0,1.273-1.437c0-.158-1.342-1.283-.1-1.738.456-.168-1.466-.35-.72-.616.53-.189-.46-.5-.533-.52A2.158,2.158,0,0,1,3.58,17.525c.016-.064.294-.76.3-.867-.095-.083-.254.05-.334-.14.345,0,1.791-1.333-.44-.8-.122.029-1.732.044-1.751.029.141-.408,1.655-1.127,1.888-1.432l-.519-.011c.486-.292,1.492-.127,1.619-.858-1.163.27-.307-.626.4-.862.378-.125.1-.191.025-.39.082-.154.267-.152.367-.339-1.624-.177.641-.826.3-1.437a5.218,5.218,0,0,0-1.646-.262c.053-.2.525-.181.211-.474C3.44,9.168,5.845,8.754,5.786,8.4,5.466,6.482,32.577.909,32.476,1.288c-.262.979.316-.2.319-.2.67-.119,7.254-1.484,7.313-.977-.294.082-2.68.282-2.63.65.068.494,2.724-.54,3.1-.064.007.009,1.577-.625,1.676-.247.416,2.138.63-.952.322.213.047-.553,1.6-.691,1.982-.494,0,0-1.077.456-.516.564,0,0,.573-.47.353,0-.164.345,3.245-.44,3.56-.291-.021.154-.159.009-.184.137.222.267.5-.039.774.023-1.09,1.072.326-.158.6-.2A22.343,22.343,0,0,1,52.884.283c-.526,1.724-.337-1.094.073.594.339,1.4-1-.44.368.638,0,0-.474.557-.084.331.738-.428,1.327.685,2.064.01-.267.613.8.236.809.211.068-.454.3-.08.443-.179a16.374,16.374,0,0,0,2.011.265s-5.573.241-4.691.461c1.192.3,2.911-.229,4.074.181-.166.2-1.731.266.269.547,2.8.394,1.861.375-.566.421-.651.013-1.013.626-.179.652.8.024,6.346,0,6.254.724-.069.546,1.458,1.537.251,1.166-.127-.039.253-.3-.1-.276-1.243.087-1.553.477-1.08.306a1.78,1.78,0,0,0,.526.606c-.049.739-1.962.482-2.617.608-.2.038-.277.316-.481.355.671.332,5.7-.082,6.635-.307-.105.088-.793-.005-.508.335.2.241-.313.159-.376.308-.114-.033-.055-.43-.274-.035-.244-.1-.43,0-.584.287.239,0,.473.06.586-.3M63.8,25.678c.286.034.536.064.754.092a2.217,2.217,0,0,1-.465.291l-.252,0a.509.509,0,0,0-.037-.386m-.52,1.035.578.008a.425.425,0,0,1-.578-.008m4.288,2.982a7.847,7.847,0,0,0-.962.045.939.939,0,0,1,.962-.045M52.726,45.74c-.884-.083-14.327,1.865-14.17,2.378.074.24,13.056-2.032,14.17-2.378M64.3,31.952c-.382.693.638.467.374.2-.792-.8.272-.365-2.048-.123-.827.087-1.735.924-1.08.581.613-.322,1.831-.731,2.033.087.35-.164.248-.389.148-.25-.068-.2.432-.621.573-.494m-5.275-6.6c-1.239.167.986.726.564-.015-.056-.1-.435.019-.564.015m-1.285,1.369c-.569.164.715.655.64.01-.021-.177-.526.015-.64-.01m1.5,7.631c-.189-.291-.692.391-.511.479.152.074.514-.246.511-.479m-.092-7.618c1.08-1.142-.788.232,0,0m2.893-.544c.257-.49.256-.5-.109-.512-.02.184-.061.375.109.512m.466,3.156c.018-.071.231-.912-.115-.475-.192.245.175.263.115.475m-4.267-3.2c.3.528.194-.386.1-.345-.133.059-.141.207-.1.345m2.233,6.781c.384-.166-.864-.542,0,0m-3.613-5.964c-.848-.026-.378.5,0,0m7.09,2.331c.538-.025-.208-.5-.2-.093.005.186.109.135.2.093M52.379,28.238c-.371-.018.238.642.2.114-.012-.144-.122-.1-.2-.114m14.648-.725c-.331-.656-.322.959,0,0M63.061,30.8c.721-.726-.217-.315,0,0M60.3,33.975s-.378.386-.029.339c.154-.021.216-.384.029-.339m-.871-3.886c.025.316.576-.107.131-.168-.091-.013-.126.051-.131.168m2.067-.841c-.017.12.015.645.164.309.1-.229-.143-.173-.164-.309m2.54-.932c-.29.063.278.569.211.243a.282.282,0,0,0-.211-.243M11.282,55.259c-.6-.642-.005.4,0,0M61.773,29.184c.021-.218.229-.275.173-.523-.1.159-.4.148-.173.523m4.044,3.044c.452-.231-.1-.411-.117-.075,0,.074.048.1.117.075m-1.143-3.672c-.255-.518-.114.788,0,0m-.032,3.227c.629.014.3-.271,0,0m3.267-1.5c-.768-.051.677.544.716.016.018-.252-.615-.043-.716-.016M57.278,25.094A.808.808,0,0,0,57.543,25l-.019.011-.248.076Zm.281-.1a.177.177,0,0,0,.045-.045.177.177,0,0,1-.045.045m.046-.046a.087.087,0,0,0,.013-.035.087.087,0,0,1-.013.035M46.178,25.953c.931-.532-.015-.989,0,0m7.362-1.1c-1.121.291,1.356.246,0,0m14.119,6.033c-.169.179.381.436.392.29.006-.089-.28-.312-.392-.29M42.319,23.91c.681-.258-.843-.231,0,0m4.419-1.08c-.42-.3-1.05.142,0,0m22.468,8.312c.566.509.5-.887,0,0m-7.974-1.737c.472-.191.127-.533,0,0M46.6,22.944l0-.019c-.516.181-.413.28-.171.332.038.009.081.016.123.023a5.079,5.079,0,0,0,.537.04.185.185,0,0,0-.04-.281.732.732,0,0,0-.447-.1m-1.817.224c-.484-.374-1.033.512-.13.132.062-.026.116-.036.13-.132m1.4,2.784c.931-.532-.015-.989,0,0m10.836-2.481c-.624.287.143.484.192.082.02-.162-.1-.1-.192-.082M53.54,24.848c-1.121.291,1.356.246,0,0m-9.665-.922c-.468.219.3.534.3.167,0-.207-.22-.063-.3-.167m7.463-.66c.015.46-.646.934.041.357.138-.117.125-.224-.041-.357m-2.547,2.01c-.4-.381-.5.553-.269.245.074-.1.242-.08.269-.245M42.319,23.91c.681-.258-.843-.231,0,0m4.419-1.08c-.42-.3-1.05.142,0,0m1.982,1.144c.424-.135-.27-.49-.149-.347.084.1.011.285.149.347m-2.107-.539a.363.363,0,0,0-.065-.154.091.091,0,0,0-.123-.023c-.133.074-.238.4-.014.335.076-.02.182-.048.2-.158M46,24.212c-.451.071.028.514.1.069.01-.059-.049-.074-.1-.069M66.285,18.82c-.416-.361-2.952.015-2.1.493.224.127.469-.591.643-.127.087.235,1.16.326.962-.332.211.311.343-.015.5-.034M62.21,21.14c-.227.5.293-.068.353-.119-.151.6,1.016-.557.056-.223-.236.082-2.2.621-2.385.635a3.078,3.078,0,0,0,1.976-.292m.545-2.032c-.872.7.869.135.848.06-.119-.441-.7-.023-.848-.06M61,19.744c-1.256-.548-.758.918-.476.31a.518.518,0,0,1,.476-.31M43.493.528l0-.02c-.911.384.422.409.422.409C44.08.589,43.655.5,43.493.528M62.058,20.466c1.195.278.666-.685,0,0M41.93.76c-.417-.386-.89.529-.111.135.052-.026.1-.038.111-.135m19.9,7.353c-.661-.054.583.562.616.016.016-.26-.53-.045-.616-.016M60.056,20.247a1.143,1.143,0,0,1-.254-.406c.012.179-.419.456-.294.434.176-.033.336.173.548-.028m-7.374-17.5c.852-.2-.445-.788-.185-.128.036.093.118.1.185.128m-9.551.888c.8-.549-.014-1.022,0,0m9.324-2.563c-.537.3.123.5.166.084.017-.167-.086-.1-.166-.084m-2.99,1.421c-.964.3,1.167.255,0,0m8.07,17.932c-.639-.163.282.626.225-.005-.013-.134-.171-.021-.225.005M41.147,1.542c-.4.226.256.552.257.172,0-.213-.189-.065-.257-.172M62.065,15.723c.517-.554-.088-.592,0,0m-.479,7.21c-.584.118.767.6,0,0M47.57.86c.014.475-.555.967.036.369.119-.119.108-.231-.036-.369M2.883,14.715c.517-.061.568-.093.584-.366-.167.2-.407.148-.584.366m42.5-11.777c-.345-.394-.429.571-.231.252.064-.1.208-.083.231-.252M61.615,8.729c-.145.184.329.45.338.3,0-.092-.241-.322-.338-.3m-21.805-7.2c.585-.267-.725-.24,0,0m23.98,13.432c.635-.53-.6.07,0,0m5.868-2.269c-.309.2.269.562.17.189-.025-.1-.072-.181-.17-.189M43.612.41c-.362-.314-.9.147,0,0m1.706,1.181c.365-.139-.231-.507-.127-.359.071.1.008.295.127.359M64.589,8.553c-.608.482.481-.124,0,0M43.505,1.033c-.1-.561-.467.26-.173.164.065-.021.155-.049.173-.164M62.947,9c.486.527.432-.915,0,0m.372,11.344c-.185,1.242.687-.765,0,0M56.085,7.2c.407-.2.109-.552,0,0M42.973,1.837c-.389.074.024.532.089.071.008-.061-.042-.076-.089-.071M4.052,17.273c-.371-.833-.038.625,0,0" transform="translate(0 0)" fill="#ededed" fill-rule="evenodd"/>
          <path id="Trazado_594347" data-name="Trazado 594347" d="M.609,35.578A.546.546,0,0,1,.444,35.4c.115-.183.374-.2.515-.423l-.206,0,0-.029c-.017-.031-.032-.058-.047-.083.257-.14.057-.193-.264-.212a1.622,1.622,0,0,0,.108-.3c.446-.321,1.052-.71.822-1.016a3.352,3.352,0,0,0-1.084-.123A1.686,1.686,0,0,0,.172,32.6a4.318,4.318,0,0,1,.279-.815,1.4,1.4,0,0,0,.342-.138c.59-.233,1.117-.448,1.084-.6-.447-2.1,37.531-11.524,37.389-11.09-.367,1.125.444-.258.447-.258.938-.212,10.162-2.513,10.243-1.954a30.965,30.965,0,0,0-3.405.8c-.313-.09-.6.105-.206.113-.053.041-.079.082-.072.122a.107.107,0,0,0,.037.064c-.182.108-.078.173.105.213.038.009.08.016.123.023a4.713,4.713,0,0,0,.537.04.2.2,0,0,0,.027-.206.194.194,0,0,0-.051-.063c1.144-.2,3.182-.86,3.56-.508.01.009,2.208-.883,2.348-.474.582,2.338.881-1.137.45.2.066-.622,2.24-.959,2.777-.785,0,0-1.508.637-.722.69,0,0,.8-.591.493-.04-.185.329,2.925-.451,4.34-.688a2.751,2.751,0,0,0,.505.043c-.051,0-.1.009-.115.075.31.272.694-.1,1.085-.066-1.528,1.326.457-.214.843-.3A21.074,21.074,0,0,1,65.5,16.6c.022.049.165.085.473.1.334.02-.45.428.819-.117.463-.2.379.351.636.49l0-.015c.038.1.135.06.308-.331a.731.731,0,0,1,.082-.025,2.431,2.431,0,0,1,.143.374c.465,1.487-1.319-.3.4.606-.443.1-.845.125-.986-.05a.31.31,0,0,0,.113-.2c.019-.154-.073-.128-.168-.1-.039-.537-.537-.443-.749.031.294.045.452.071.52.089-.019.015-.036.029-.051.043-.189.029-.615.078-.734.293-.1.178.1.159.1.285-1.914.267-1.714-.282-1.762-.283-.189,0-.19,1.055-.517.065-.105.265-1.258,1.078-.251.986-.034.076-.705.2-.392.319h0a.28.28,0,0,1-.058.181c-.08-.016-.194-.031-.353-.046-.453.15-.418.217-.234.233-.544.015-1.242-.147-1.294-.09a17.048,17.048,0,0,1-2.118.766.986.986,0,0,0,.9-.178c-.31.594.935.228.94.2.07-.389.294-.149.457-.157.047.009.084.008.1-.01.192.033,1.046.149,1.659.213a.243.243,0,0,1-.021.061c-1.621.066-5.613.25-4.792.421a7.412,7.412,0,0,0,1.776.076l-.069.014c-.579.221-.373.514-.515.606.158.3.4-.576.482-.018.038.268,1-.519.509-.622l.512-.024c-.115.339-.005.671.033.608.364-.6.757.224.965-.231.124-.268.54-.276,1.008-.211a1.721,1.721,0,0,1-.368.11.617.617,0,0,0-.424.118c-.018.01-.03.021-.031.033a.27.27,0,0,0-.045.08c.025-.015.05-.029.074-.041a3.649,3.649,0,0,0,.932.179.644.644,0,0,1,.1.425h-.139a1.134,1.134,0,0,1-.159-.27c-.045-.1-.049.07-.017.273l-.23,0a1.488,1.488,0,0,0-.256.028c-.084-.152-.137-.272-.147-.286a.624.624,0,0,0-.273.475c-.1.094-.131.2-.046.282-.045.243-.125.415-.477.295-.144.549-2.745-.07-2.721.776-.4-.253.727.734-.007-.008.618.235,1.161-.213,1.685.161.488-.591-.826-.217,1.18-.385.913-.076,1.609-.6,2.352.063.511.454.458-.53,1.009-.186.254.159.387.124.609-.163-.052-.1-.176.014-.236-.1.311-.176,3.872.189,3.9.453.057.633-2.647,1.152-2.93.776-.171-.228-.787-.033-.639.292.035.078.184.05.138.209a2.422,2.422,0,0,0-.548,0c.621-1.357-1.391-1.363-.635-.475.084.1-.025.346.178.588-.192-.04-.2.172-.327.207.084.147.287.068.3.34-.278-.186-.557.231-.863.021.38-.187.38-.187.11-.569.076.864-.659.409-.794.91-.48-1.028.3-.508-.17-.3-.311.135-1.049.88-1.387.319-.082-.137-.835.267-.947.276.052-1.012-.446.362-1.061.228-1.1-.241-1.238,1.036.028.355a1.073,1.073,0,0,1,1.312.117c.074-.8,3.8-.721,4.55-1.175.281-.169.275.25.478.227-.121.094-.214.233-.38.26a26.147,26.147,0,0,0,5.456-.056.588.588,0,0,1,.133.167c.178.342-1.979.122-1.136.949.385.377-3.178,1.036-3.267,1.012-1.447-.391-1.455.849-2.138.37.649-.729-.47-.183-.277.4.053.157-.55.416-.522.1.037-.435-.66-.261-.251.236-.279.109-.275-.359-.444-.033-.177.342-2.355.737-2.746.834,0,.529-1.1.207-1.132.4-.013.066-1.92.919-.539.749.31.494-.921.243-.514,1,.184.342-2.7.454-1.455,1.711.258.261-1.411.464-1.8,1.139,1.122.248,3.482-.475,4.164-.166-.337.025-.5.8-1.407,1.095-1.109.364,1.392.982,3.147.515-.6.582.557.53.944,1.008.065.079-1.8.976-.986.991.5.01.326,1.164-.025,1.092-.752-.149-.794,1.008-1.386.956-.557-.05-6.031.62-6.355,1.094.4-.064.777-.145,1.037.218-1.635,1.361.2-.968-.6.86-.242.553-7.858.587-7.976,1.5-.072.564-3.092.393-3.092.393a33.385,33.385,0,0,1-7.107,1.556c-.126.321-1.566.542-1.815.306-.411.749-2.267.061-2.455.571-.114.306-3.315.762-3.443.44-.047.189.088.193.082.295a4.935,4.935,0,0,1-1.683.219c-.246.3-3.89.72-3.709,1.174.275.683-1.184.117-1.329.558-.28.85-.39-.711-.606-.025,0,0-1.31-.208-.843.648-.382.014-.247-.737-.68-.173.01-.578-.9-.461-.966.015-.085.572-.313-.1-.542.064-.023.145.136.147.131.3-.155-.055-.358.376-.468-.078-.272.574-.594.311-1.049.548.054-.382-.431-.272-.506-.03-.121.386-.526-.568-.869-.211.247.128.139.3.027.483-.149-.517-.4,0-.761.147.493-.828-1.839.347-1.947-.093-.045-.179-.916.446-1.805.474-1.051.033-1.347-.688-3.047.058-.377.166-.5-.069-1.426.129-.184.04-.445-.8-.533-.6-.1.631-.033.154-.41-.045.287-.463.534-.845-.085-.89-.2-.578-.061-.133-.793-.394-.41-.147.717-.446.71-.507-.021-.193-1.63.056-1.529-.707.022-.164.3-.172.6-.389-1.593-.085.563-1.2-.015-1.511L4,46.764c-.044-.314,1.61-1.438.617-1.174.048-.26.048-.26-.194-.145.265-.893,2.513-1.018,2.638-1.591-.339.043-1.239.717-1.268.109-.044-.948-2.076.448-2.081-.034,0-.218,1.017-.089.825-.544-.084-.2-.568.263-.584-.011-.056-1-2.879.6-2.968-.557-.061-.781.406-.448,1.437-.727.373-.1,3.3-.275,3.236-.923-.039-.379-3.5.419-2.532-.1.653-.347-2.08-.324-2.109-.337.322-.287,2.513-.735,2.5-.85-.025-.2,1.384-1.031.384-.968-.607.038.871-.984-1.8-.828-.087.005-.176.034-.255-.06,1.866-.013.93-1.078.34-.578.31-.529,5.638-1.305,5.537-1.716-.085-.342-5.217.37-4.758-.053.236-.216-1.444-.036-2.361-.1m0-.611-.087-.006.071-.038ZM46.552,18.542a.993.993,0,0,0-.206.113c-.4-.008-.107-.2.206-.113m17.234,2.932c.286.034.536.064.754.092a2.191,2.191,0,0,1-.465.291l-.252,0a.5.5,0,0,0-.037-.386m-.519,1.035.578.008a.424.424,0,0,1-.578-.008m4.288,2.982a7.823,7.823,0,0,0-.962.045.942.942,0,0,1,.962-.045M52.715,41.536c-.883-.083-14.326,1.865-14.169,2.379.073.24,13.056-2.033,14.169-2.379M64.293,27.748c-.381.693.639.467.375.2-.793-.8.271-.365-2.049-.123-.827.087-1.734.925-1.079.581.612-.321,1.829-.731,2.033.088.35-.166.248-.389.148-.25-.068-.2.432-.622.572-.5m-5.275-6.6c-1.239.167.986.726.564-.016-.056-.1-.435.019-.564.016m-1.285,1.368c-.569.164.715.655.64.01-.02-.177-.525.015-.64-.01m1.5,7.632c-.189-.291-.692.391-.512.479.153.074.515-.247.512-.479m-.092-7.618c1.079-1.142-.789.232,0,0m2.892-.546c.258-.489.257-.5-.109-.512-.02.184-.059.375.109.512m.467,3.156c.017-.071.231-.912-.115-.474-.192.243.174.263.115.474m-4.267-3.2c.3.527.194-.386.1-.346-.132.06-.14.207-.1.346m2.232,6.779c.384-.166-.864-.542,0,0M56.85,22.764c-.848-.025-.378.5,0,0M63.94,25.1c.538-.025-.207-.5-.2-.093.005.186.109.135.2.093M52.367,24.034c-.37-.019.239.642.2.113-.012-.144-.122-.1-.2-.113m14.648-.726c-.331-.655-.321.961,0,0M63.049,26.6c.721-.727-.216-.316,0,0m-2.762,3.177s-.379.386-.03.337c.154-.021.217-.384.03-.337m-.871-3.888c.024.316.574-.107.131-.168-.092-.013-.126.051-.131.168m2.066-.841c-.017.122.015.645.165.31.1-.231-.144-.174-.165-.31m2.541-.932c-.291.063.278.569.21.243a.283.283,0,0,0-.21-.243M11.271,51.056c-.6-.642-.006.4,0,0M61.761,24.98c.022-.217.229-.275.173-.523-.1.161-.4.148-.173.523m4.044,3.044c.452-.231-.1-.411-.117-.074,0,.074.048.1.117.074m-1.141-3.671c-.255-.519-.114.786,0,0m-.033,3.225c.63.015.3-.27,0,0m3.267-1.5c-.768-.053.678.543.717.015.018-.251-.616-.043-.717-.015M57.268,20.891a.813.813,0,0,0,.264-.09l-.019.011-.248.078Zm.28-.1a.151.151,0,0,0,.046-.045.151.151,0,0,1-.046.045m.046-.046a.091.091,0,0,0,.014-.034.091.091,0,0,1-.014.034M46.168,21.748c.931-.53-.016-.988,0,0m7.36-1.1c-1.121.291,1.356.247,0,0m14.12,6.035c-.17.178.381.436.392.288.005-.088-.28-.312-.392-.288m-25.34-6.971c.681-.258-.843-.232,0,0M69.2,26.938c.565.509.5-.885,0,0M61.222,25.2c.471-.189.126-.533,0,0m-16.45-6.235c-.485-.374-1.034.512-.131.13.062-.026.117-.036.131-.13m1.4,2.783c.931-.53-.016-.988,0,0M57,19.268c-.624.287.143.484.193.082.019-.162-.1-.1-.193-.082m-3.474,1.376c-1.121.291,1.356.247,0,0m-9.665-.92c-.467.218.3.533.3.166,0-.207-.22-.063-.3-.166m7.463-.661a.629.629,0,0,1-.048.25.146.146,0,0,0-.047.1c-.137.266-.336.405.04.085.124.127.5.144.5-.125,0-.206-.2-.094-.312-.132a.311.311,0,0,0-.135-.182m-2.546,2.012c-.4-.382-.5.552-.27.243.074-.1.242-.08.27-.243m-6.473-1.367c.681-.258-.843-.232,0,0m6.4.063c.425-.135-.27-.49-.149-.347.084.1.012.285.149.347M46.6,19.23a.351.351,0,0,0-.064-.154.091.091,0,0,0-.123-.023c-.133.075-.238.4-.014.335.076-.02.181-.046.2-.158m-.618.778c-.451.071.029.515.1.069.011-.059-.049-.074-.1-.069M61.574,18.73c-.584.117.768.6,0,0M54.7,17.8l0-.021c-1.276.535.589.406.589.406.236-.385-.359-.433-.587-.385m-2.189.444c-.585-.382-1.247.695-.156.164.074-.036.14-.054.156-.164m1.682,3.069c1.122-.707-.019-1.139,0,0m6.22-3.623c.019.53-.777,1.145.05.409.167-.148.152-.271-.05-.409m-3.07,2.58c-.484-.4-.6.687-.325.307.09-.123.292-.115.325-.307m-7.8-.92c.82-.366-1.016-.181,0,0m5.327-1.694c-.508-.307-1.266.27,0,0m2.39,1.117c.511-.2-.325-.538-.179-.385.1.105.013.327.179.385m-2.54-.409c-.144-.613-.654.344-.242.2.091-.03.218-.071.242-.2m-.745.961c-.544.128.035.591.125.069.013-.069-.058-.08-.125-.069" transform="translate(0.01 4.203)" fill="#e53824" fill-rule="evenodd"/>
          <path id="Trazado_594348" data-name="Trazado 594348" d="M25.933,18.953c-.175.4.261.406.071.537.039.258,1.047-.579,1.261.078-.5.119-.539,1.03-1.063,1.171.777-1.371.142-1.841-.1-.157,0,0-.825-.084-.475.3-.429.28-1.135-.5-1.309.326-.143.682,1.237.253,1.681-.059-.277.469-.309.5-.642.485.12.978.81.482-1.23,1.076a.314.314,0,0,0-.229.2c.721-.092,1.451-.206,2.142-.232-.056.1-.143.043-.222.147a2.589,2.589,0,0,0,.817-.138c-.032-.158-.254.05-.349-.058.3-.108.548-.176.674.038a12.758,12.758,0,0,0-2.126.92c-.1,1.55,2.975.512,4.292.164.039.339-.444.678.293-.045.072.435.658-.046.4-.023-.071.006-.151.033-.174-.055.642-.557.515.439-.286.5a4.972,4.972,0,0,1-2.674,1.1c-.42,0-1.609.849-1.8.839-1.436-.082-4.815,1.979-2.031,1.4.389-.08,4.537-2.038,4.324-.968.825-1.287,1.823-.326,1.6.37-.2.628,1.127.058,1.515-.134,0,0-.45.736.126.183.763-.732-.516,1.071-2.674,1.727-.515.157-2.209,1.482-2.974,1.215-.1-.035-1.04.468-.69.554.126.031.341-.094.333.142-.238.159-.413.054-.674.379,0,0,.626.405.055.409-1.57.005.745,1.109.96.988s1.8.339-1.539,1.214c-.476.125-4.7,1.407-2.959,1.356.341-.01-.708.569.928-.267.592-.3.19.4.373.532.674-1.213,3.626-.544,2.443-.147-.4.133-3.249,1.585-2.768.635.415-.824-.2-.671-.722-.02,1.23.093-.047.038-.516.568-.2.233.016.191-.055.334-2.1.572-1.6-.122-1.65-.119-.19.014-.761,1.318-.547.107-.254.334-1.84,1.413-.786,1.239-.08.1-.817.3-.571.424h-.007c-.373.85-1.917.326-2.047.451a20.882,20.882,0,0,1-2.435,1.07.983.983,0,0,0,.937-.247c-.6.755.775.222.792.191.285-.493.374-.2.523-.213a.165.165,0,0,0,.12-.029c.158.026.912.123,1.475.157-.016.033-.039.056-.048.079-1.6.2-5.474.569-4.807.779a4.471,4.471,0,0,0,1.618.053.222.222,0,0,0-.064.02c-.658.3-.626.656-.8.775-.016.389.674-.725.451-.04-.11.342,1.23-.71.825-.809.175-.028.333-.051.5-.068-.286.43-.371.848-.3.767.685-.789.6.2,1.04-.365a1.118,1.118,0,0,1,1.095-.332,2.269,2.269,0,0,1-.429.178.723.723,0,0,0-.467.164.287.287,0,0,0-.048.038,1.135,1.135,0,0,0-.087.115.533.533,0,0,1,.095-.065,1.981,1.981,0,0,0,.793.161,1.167,1.167,0,0,1-.158.533.606.606,0,0,0-.135,0,1.225,1.225,0,0,1,.007-.326c.01-.113-.087.1-.166.341-.088.014-.159.019-.23.025a1.556,1.556,0,0,0-.254.05c.007-.184.023-.329.016-.337a1.6,1.6,0,0,0-.516.6c-.151.135-.238.261-.2.366-.182.312-.348.522-.611.39-.451.72-2.514.077-2.951,1.15-.23-.308.262.9.007-.011.429.278,1.167-.3,1.444.12.777-.781-.642-.221,1.309-.579.9-.167,1.853-.864,2.165-.094.211.519.755-.7,1.08-.341.143.158.3.1.689-.28.008-.133-.182.039-.174-.1.4-.266,3.7-.365,3.561-.056-.35.773-3.35,1.864-3.379,1.441-.018-.261-.738.064-.793.449-.016.093.142.029,0,.243-.071-.05-.381.069-.532.073,1.444-1.769-.494-1.516-.309-.5.021.119-.238.443-.19.71-.143-.018-.286.248-.42.29-.016.186.222.056.071.4-.151-.2-.651.355-.8.114.445-.262.445-.262.429-.706-.436,1.063-.849.548-1.269,1.193.166-1.234.569-.667.023-.369-.366.2-1.455,1.191-1.436.518,0-.163-.912.406-1.016.423.611-1.264-.606.513-1.079.381-.837-.233-1.634,1.372-.167.443.659-.418,1.024-.271,1.1.041.515-1,3.855-1.263,4.839-1.933.373-.253.111.267.309.216a2.166,2.166,0,0,1-.515.375c.357.188,3.1-.4,5.314-1.082a.6.6,0,0,1,.008.182c-.062.376-2.025.6-1.762,1.433.118.372-3.689,1.879-3.751,1.864-1.088-.262-1.857,1.285-2.175.776,1.024-.992-.319-.156-.491.533-.05.2-.734.589-.525.2.3-.548-.42-.271-.357.31-.3.158-.033-.436-.381,0A12.129,12.129,0,0,1,7.909,51.81c-.293.665-1.05.352-1.182.611-.042.084-2.055,1.3-.849.986a.427.427,0,0,1-.154.346c-.084-.15-.156-.261-.194-.172-.1.632-.033.154-.41-.045.287-.463.534-.845-.085-.89-.2-.578-.061-.132-.793-.394-.41-.145.717-.446.71-.507-.021-.193-1.63.056-1.528-.707.021-.163.3-.172.6-.389-1.593-.085.563-1.2-.015-1.511l.006.009c-.044-.312,1.61-1.438.617-1.174.048-.258.048-.258-.194-.145.265-.893,2.513-1.018,2.638-1.591-.339.043-1.239.717-1.268.109-.044-.947-2.075.448-2.081-.034,0-.218,1.017-.089.825-.544-.084-.2-.568.263-.583-.01-.057-1-2.88.6-2.969-.558-.061-.78.406-.446,1.437-.727.373-.1,3.3-.275,3.236-.923-.039-.379-3.5.419-2.531-.1.652-.346-2.081-.324-2.11-.337.322-.287,2.513-.735,2.5-.85-.025-.2,1.384-1.031.384-.968-.607.038.871-.984-1.8-.828-.086.006-.176.034-.255-.06,1.867-.013.93-1.077.34-.578.31-.529,5.638-1.305,5.537-1.716-.085-.342-5.216.37-4.758-.051.24-.221-1.507-.03-2.411-.107a.4.4,0,0,0-.005-.088C.548,37.8.5,37.807.445,37.827a.439.439,0,0,0-.1.1c-.29-.051-.408-.153-.184-.346l.054-.009a.507.507,0,0,1,.02-.05,3.114,3.114,0,0,1,.366-.218.639.639,0,0,0,.052.123c-.452.2-.393.322-.212.4a.827.827,0,0,0,.119.041c.119.038.46.092.46.092a.429.429,0,0,0,.111-.272.278.278,0,0,0-.024-.108.414.414,0,0,0-.357-.157.712.712,0,0,0,.013-.1L.75,37.3c.049,0,.1-.005.164-.011a.416.416,0,0,0-.1-.1c.092-.093-.09-.133-.357-.148a1.482,1.482,0,0,0,.107-.3c-.109-.08-.294.048-.389-.137.363,0,1.769-1.053.126-.874a1.809,1.809,0,0,0-.119-.742,4.408,4.408,0,0,1,.279-.815c.317-.088.576-.231.64-.539a1.906,1.906,0,0,1-.466.046c.056-.168.109-.341.153-.51a2.747,2.747,0,0,1,.774-.37c.439-.122.111-.186.03-.377.1-.149.31-.147.427-.329-1.887-.169.745-.8.346-1.391a7.231,7.231,0,0,0-1.913-.253c.037-.118.256-.158.338-.235-.208.026-.406.059-.591.1-.522.117.152-.38.152-.38-.26-.71,1.613-.7,1.989-1.635-.256-.242-.586-.12-.871-.233.837-.261.533-.67-.2-.756.2-.752-.4-.366-.575-.626.044-.019,1.694-1.252.857-.868-.384.177.574-1.05-.147-.873-.066.016-.263-1.235.184-1.037a1,1,0,0,0,.31.035c.008-.524-1.628-.779-.685-1.553.827-.68-1.311-.547.6-1.2a8.453,8.453,0,0,0,1.272-1.437c0-.159-1.342-1.283-.1-1.739.456-.168-1.465-.349-.719-.616.53-.188-.46-.5-.534-.519A2.159,2.159,0,0,1,3.58,15.7c.016-.064.293-.76.3-.867-.095-.083-.254.049-.333-.142.345,0,1.791-1.332-.441-.8-.121.029-1.731.044-1.75.029C1.494,13.52,3.008,12.8,3.241,12.5l-.52-.011c.487-.293,1.493-.127,1.62-.858-1.164.268-.308-.627.4-.862.378-.127.1-.192.025-.39.082-.156.267-.153.367-.34-1.624-.176.641-.826.3-1.437A5.189,5.189,0,0,0,3.78,8.338c.054-.2.526-.182.212-.474-.273-.256.177-.487.694-.7.462.262,3.406-.071,3.7.166-.039.2-.167-.025-.206.154.222.413.523.03.809.178-1.206,1.285.357-.173.642-.192a21.107,21.107,0,0,1,3.935.434c-.667,2.287-.275-1.56.039.826.257,1.953-1.024-.755.341.912,0,0-.533.693-.1.434.792-.479,1.348,1.11,2.158.293-.317.8.842.4.849.365.1-.6.325-.082.483-.217a14.69,14.69,0,0,0,2.118.523s-5.908-.243-5.005.169c1.215.557,3.1.005,4.3.642-.19.252-1.883.252.214.749,2.948.7,1.927.633-.69.513-.706-.031-1.221.766-.341.857.857.087,6.917.192,6.639,1.139-.206.7,1.254,1.943,0,1.514-.134-.045.348-.384-.04-.349-1.388.12-1.816.628-1.253.4a1.526,1.526,0,0,0,.436.786c-.3.951-2.317.645-3.07.793-.238.058-.413.43-.643.467.619.431,6.315-.253,7.473-.637-.158.117-.906.073-.706.477.141.283-.412.227-.547.44-.1-.045.1-.544-.286-.026-.239-.105-.5.048-.778.436a.733.733,0,0,0,.778-.456M.75,37.3l-.029-.051a.45.45,0,0,0,.092-.064.416.416,0,0,1,.1.1C.853,37.292.8,37.3.75,37.3m2.132-24.4c.518-.061.569-.092.585-.365-.168.2-.407.148-.585.365m1.17,2.56c-.371-.834-.038.623,0,0M15.374,41.037c.246.033.468.039.651.071a4.607,4.607,0,0,1-.6.389,1.594,1.594,0,0,1-.238.026.976.976,0,0,0,.19-.487m-1.087,1.328c.143-.013.333-.021.525-.021-.278.227-.436.181-.525.021m2.253,3.194c-.364.066-.7.129-.944.2.548-.34.818-.321.944-.2m-4.4,3.266c-.754.9.279.52.206.222-.228-.925.46-.512-1.729.016-.778.187-2.04,1.343-1.286.85.714-.467,2.031-1.1,1.73-.087.4-.236.452-.518.277-.339.064-.243.745-.806.8-.663m-1.1-7.924c-1.238.233.522.9.522-.02,0-.122-.4.033-.522.02m-1.9,1.769c-.595.235.317.814.587,0,.071-.214-.492.036-.587,0M6.394,52.311c.007-.367-.777.537-.674.633.08.1.555-.341.674-.633m4.03-9.649c1.6-1.479-.848.315,0,0m2.983-.852c.523-.64.523-.64.183-.637-.119.231-.262.478-.183.637M12.05,45.719c.055-.079.729-1.15.158-.573-.309.312.016.3-.158.573M9.893,41.932c.016.667.373-.494.27-.439a.61.61,0,0,0-.27.439m-1.682,8.49c.436-.251-.436-.622,0,0m.007-7.417c-.753-.025-.6.652,0,0m5.172,2.536c.516-.07.1-.592-.119-.1-.1.231.016.159.119.1m-9.773-.894c-.317-.023-.09.843.119.153.059-.194-.055-.133-.119-.153m13.788-1.712c.071-.752-.913,1.239,0,0m-5.7,4.556c1.086-.972-.008-.375,0,0M7.48,51.765s-.523.509-.206.419c.143-.041.4-.51.206-.419m1.381-4.878c-.143.4.57-.159.206-.214-.072-.02-.135.071-.206.214m2.316-1.2c-.08.154-.341.8-.023.37.222-.3-.032-.2.023-.37m2.871-1.372c-.3.1-.079.693.056.286.055-.161.039-.271-.056-.286m-2.578,1.265c.143-.266.365-.361.461-.671-.183.2-.461.224-.461.671m1.856,3.4c.555-.361.169-.49-.047-.084-.054.1-.016.114.047.084M14.5,44.566c.08-.632-.571.983,0,0M12.542,48.58c.555-.078.436-.374,0,0m3.966-2.345c-.7.048.282.569.651-.082.179-.317-.548.034-.651.082M9.536,40.605a2.011,2.011,0,0,0,.293-.107c-.008-.009-.024,0-.024,0-.087.034-.182.079-.269.1m.309-.129a.215.215,0,0,0,.079-.063.215.215,0,0,1-.079.063m.079-.063a.232.232,0,0,1,.032-.046.232.232,0,0,0-.032.046m-3.7-.135c-1.15.342,1.118.344,0,0M15.881,47c-.27.256.08.485.174.309.064-.112-.063-.346-.174-.309m1.293.083c.206.507,1.079-1.214,0,0m-6.322-1.179c.531-.286.42-.675,0,0m-.746-7.36c-.729.367-.11.607.143.1.1-.209-.039-.125-.143-.1M6.227,40.278c-1.15.342,1.118.344,0,0m15.54-8.008c-.261-.406-3.066.258-2.475.813.161.15.8-.746.722-.184-.036.278,1.048.273,1.2-.522.064.346.381-.059.555-.107m-5.441,3.194c-.484.635.325-.09.412-.166-.46.762,1.317-.737.174-.281-.277.11-2.514.889-2.689.927a3.22,3.22,0,0,0,2.1-.48m1.617-2.558c-1.244.905.823.124.841.031.109-.546-.714,0-.841-.031m-2.11.878c-.976-.671-1.214,1.2-.634.4a.994.994,0,0,1,.634-.4m.7.846c1.047.283,1.04-.884,0,0M21.68,18.975c-.7-.054.45.717.674.016.1-.315-.563-.044-.674-.016m-7.036,15.47a1.188,1.188,0,0,1-.056-.509c-.071.214-.634.577-.5.546.183-.039.245.216.555-.036M13.161,11.251c.935-.167-.385-1.141-.183-.206.027.125.1.147.183.206m-.1-2.331c-.579.345.1.717.167.137.04-.209-.079-.149-.167-.137M9.8,10.414c-1.071.238,1.182.558,0,0m2.284,24.248c-.547-.209-.012.8.23-.005.051-.168-.158-.036-.23.005m6.806-6c.81-.7.191-.73,0,0m-4.124,9.1c-.628.168.428.695,0,0M7.965,7.834c-.023.675-.647,1.247.008.518.131-.145.126-.295-.008-.518M5.426,10.312c-.293-.614-.537.709-.285.31.089-.142.229-.076.285-.31m15.818,9.452c-.213.247.207.588.255.388.039-.118-.136-.406-.255-.388m-.166,7.889c.92-.682-.674.1,0,0m7.536-3.511c-.46.326.034.642.1.2.018-.118,0-.214-.1-.2M5.553,8.455c.389-.122-.206-.761-.1-.543.064.163-.007.418.1.543m18.99,11.06c-.832.627.587-.193,0,0m-1.943.6c.349.657.793-1.19,0,0m-4.744,14.3c-.856,1.576,1.111-.986,0,0M15.794,17.566c.492-.228.293-.726,0,0" transform="translate(0 1.821)" fill="#0d99d4" fill-rule="evenodd"/>
        </g>
      </g>
    </g>
  </g>
</svg>
