<svg xmlns="http://www.w3.org/2000/svg" width="85" height="63" viewBox="0 0 85 63">
  <g id="Grupo_874818" data-name="Grupo 874818" transform="translate(-0.5)">
    <g id="Grupo_874814" data-name="Grupo 874814">
      <g id="Grupo_874804" data-name="Grupo 874804">
        <rect id="Rectángulo_291666" data-name="Rectángulo 291666" width="85" height="63" transform="translate(0.5)" fill="none"/>
      </g>
    </g>
    <ellipse id="Elipse_5453" data-name="Elipse 5453" cx="32" cy="2.5" rx="32" ry="2.5" transform="translate(11.5 58)" fill="#afafaf"/>
    <g id="mono_3_" data-name="mono(3)" transform="translate(11 6.093)">
      <path id="Trazado_595996" data-name="Trazado 595996" d="M51.4,69.407c3.185,10.465,4.9,14.709,4.9,22.1a4.776,4.776,0,0,1-4.771,4.771H50.57a3.82,3.82,0,0,1-3.817-3.817,1.908,1.908,0,1,1,3.817,0h.954a.955.955,0,0,0,.954-.954c0-6.726-1.488-10.332-4.733-20.991-.11-.361-.209-.725-.295-1.09-1.215,2.631-.363,1.059-3.479,6.254a6.658,6.658,0,0,1-.435,3.245c-3.429,8.573-1.782,4.9-6.1,13.536h6.454a1.908,1.908,0,1,1,0,3.817c-10.25,0-9.993.12-10.645-.351A6.428,6.428,0,0,1,30.764,88.6l.62-1.862-1.312.788A7.893,7.893,0,0,1,18.4,82.814,12.045,12.045,0,0,1,8.443,67.636c1.663-5.937,3.007-9.818,3.007-16.2a3.817,3.817,0,1,0-7.633,0V54.3A1.908,1.908,0,0,1,0,54.3V51.436a7.633,7.633,0,0,1,15.266,0c0,6.912-1.445,11.145-3.147,17.229a8.224,8.224,0,0,0,6.1,10.24,21.822,21.822,0,0,1,9.318-15.2l11.169-7.818a5.444,5.444,0,0,0,2.321-4.457,9.264,9.264,0,0,1,9.256-9.532c1.92,0,2.836-.1,4.153.435A6.014,6.014,0,0,1,58.2,47.908v1.783l1.316,1.316a5.289,5.289,0,0,1-3.734,9.017,11.148,11.148,0,0,1-3.84-.329A14.038,14.038,0,0,0,51.4,69.407Z" transform="translate(0 -41.888)" fill="#a07765"/>
      <path id="Trazado_595997" data-name="Trazado 595997" d="M390.249,54.742a5.288,5.288,0,0,1-5.281,5.281,11.148,11.148,0,0,1-3.84-.329l-.051.111c-.373.884-.182-1.066-.369-.14-2.839-1.717-5.522-2.575-6.679-4.89-1.271-2.543,2.276-8.9,4.784-12.857.218-.015.437-.024.656-.024,1.92,0,2.836-.1,4.153.435a6.014,6.014,0,0,1,3.765,5.578v1.783C388.734,51.038,390.249,52.2,390.249,54.742Z" transform="translate(-329.184 -41.888)" fill="#ffdfba"/>
      <g id="Grupo_874817" data-name="Grupo 874817" transform="translate(19.759 0)">
        <path id="Trazado_595998" data-name="Trazado 595998" d="M196.481,57.638c.954,2.862-5.725,6.679-7.633,9.541s-7.633,2.862-2.862,4.771,0,9.541,0,9.541,0-3.817-1.908-5.725-5.725,1.908-12.4,4.771c-3.566,1.528-5.228-2.926-6-7.411a22.916,22.916,0,0,1,7.779-9.425l11.169-7.818a5.47,5.47,0,0,0,2.321-4.733,9.256,9.256,0,0,1,9.256-9.256c1.92,0,2.836-.1,4.153.435a52.985,52.985,0,0,0-4.822,3.858c-3.817,3.817,0,8.587.954,11.45Z" transform="translate(-165.67 -41.888)" fill="#c79a83"/>
        <path id="Trazado_595999" data-name="Trazado 595999" d="M236.4,292.463a1.91,1.91,0,0,1-1.771-2.618l2.645-6.611a2.879,2.879,0,0,0-2.932-3.935l-8.263.751a1.908,1.908,0,0,1-.346-3.8L234,275.5a6.7,6.7,0,0,1,6.822,9.153l-2.645,6.611A1.909,1.909,0,0,1,236.4,292.463Z" transform="translate(-217.042 -247.611)" fill="#c79a83"/>
        <path id="Trazado_596000" data-name="Trazado 596000" d="M395.56,102.345a6.951,6.951,0,0,1-6.81-8.308l.512-2.562a1.908,1.908,0,0,1,3.743.749l-.513,2.562a3.131,3.131,0,0,0,3.068,3.742,1.908,1.908,0,1,1,0,3.817Z" transform="translate(-362.023 -84.209)" fill="#c79a83"/>
      </g>
    </g>
  </g>
</svg>
