<svg xmlns="http://www.w3.org/2000/svg" width="62" height="62" viewBox="0 0 62 62">
  <g id="Grupo_874898" data-name="Grupo 874898" transform="translate(-186 -3773)">
    <circle id="Elipse_4726" data-name="Elipse 4726" cx="31" cy="31" r="31" transform="translate(186 3773)" fill="#edf3ea"/>
    <g id="Human_Resource" data-name="Human Resource" transform="translate(193.118 3779.913)">
      <path id="Trazado_212550" data-name="Trazado 212550" d="M30.764,10.321A3.126,3.126,0,1,1,33.89,7.2a3.126,3.126,0,0,1-3.126,3.126Zm0-4.818A1.692,1.692,0,1,0,32.457,7.2,1.692,1.692,0,0,0,30.764,5.5Z" transform="translate(-6 0)"/>
      <path id="Trazado_212551" data-name="Trazado 212551" d="M40.928,12.571A2.712,2.712,0,1,1,43.64,9.859,2.712,2.712,0,0,1,40.928,12.571Zm0-3.991a1.279,1.279,0,1,0,1.279,1.279A1.279,1.279,0,0,0,40.928,8.58Z" transform="translate(-8.996 -0.872)"/>
      <path id="Trazado_212552" data-name="Trazado 212552" d="M20.928,12.571A2.712,2.712,0,1,1,23.64,9.859a2.712,2.712,0,0,1-2.712,2.712Zm0-3.991a1.279,1.279,0,1,0,1.279,1.279A1.279,1.279,0,0,0,20.928,8.58Z" transform="translate(-3.33 -0.872)"/>
      <path id="Trazado_212553" data-name="Trazado 212553" d="M36.956,15.323H32.563a1.711,1.711,0,0,0-.459.069,2.01,2.01,0,0,0-1.86-1.307h-5.3a2.01,2.01,0,0,0-1.86,1.307,1.713,1.713,0,0,0-.459-.068H18.23a1.818,1.818,0,0,0-1.786,1.845v4.576c0,.633.464.979.933,1.474v6.074a1.238,1.238,0,0,0,1.222,1.25h3.654a1.237,1.237,0,0,0,1.222-1.25V23.219l.2-.214.383.4V30.8a1.346,1.346,0,0,0,1.327,1.361H29.8A1.346,1.346,0,0,0,31.125,30.8V23.409l.383-.4.2.214v6.074a1.237,1.237,0,0,0,1.222,1.25h3.654a1.238,1.238,0,0,0,1.222-1.25V23.219c.469-.5.933-.842.933-1.474V17.168A1.818,1.818,0,0,0,36.956,15.323ZM22.042,23.137V29.11H18.81V23.137c0-.634-.464-.98-.933-1.475V17.168a.386.386,0,0,1,.352-.412h4.393a.353.353,0,0,1,.312.233V21.7C22.485,22.18,22.042,22.506,22.042,23.137Zm7.65.233v7.359h-4.2V23.37c0-.729-.587-1.152-1.126-1.721V16.164a.614.614,0,0,1,.574-.646h5.3a.614.614,0,0,1,.574.646v5.485C30.279,22.218,29.692,22.641,29.692,23.37Zm7.617-1.707c-.468.495-.933.841-.933,1.475V29.11H33.144V23.137c0-.631-.443-.957-.894-1.434V16.99a.353.353,0,0,1,.312-.233h4.393a.386.386,0,0,1,.352.412Z" transform="translate(-2.828 -2.838)"/>
      <path id="Trazado_212554" data-name="Trazado 212554" d="M50.354,24.895a1.191,1.191,0,0,0-1.7-.839,4.9,4.9,0,0,0-2.576,6.09.929.929,0,0,1-.015.661l-.612,1.449a2.431,2.431,0,0,0-1.321.623l-2.574,2.394a.467.467,0,0,1-.3.125,5.992,5.992,0,0,0-5.4,4.048,2.818,2.818,0,0,0-.182.987l-.02,3.86h-.476a.717.717,0,0,0-.717.717v4.007a.717.717,0,0,0,.717.717h9.7a.717.717,0,0,0,.717-.717V45.009a.717.717,0,0,0-.717-.717H44.2a.908.908,0,0,1,.268-.566l5.226-5.03a3.314,3.314,0,0,0,.985-1.947A37.593,37.593,0,0,0,50.354,24.895Zm-6.2,23.4H35.9V45.725h8.262Zm5.1-11.736a1.874,1.874,0,0,1-.558,1.1l-5.226,5.03a2.336,2.336,0,0,0-.719,1.6H37.086V40.283a4.607,4.607,0,0,1,4.24-3.454,1.9,1.9,0,0,0,1.208-.507l2.574-2.394a1.017,1.017,0,0,1,1.1-.182c.406.171.256.8-.036,1.121l-3.212,3.556a.717.717,0,1,0,1.064.961l3.211-3.556a2.114,2.114,0,0,0-.328-3.328l.479-1.135a2.363,2.363,0,0,0,.051-1.68,3.448,3.448,0,0,1,1.57-4.191,36.168,36.168,0,0,1,.25,11.069Z" transform="translate(-7.933 -5.627)"/>
      <path id="Trazado_212555" data-name="Trazado 212555" d="M6.784,36.749A3.314,3.314,0,0,0,7.769,38.7L13,43.726a.908.908,0,0,1,.268.566h-.676a.717.717,0,0,0-.717.717v4.007a.717.717,0,0,0,.717.717h9.7A.717.717,0,0,0,23,49.015V45.009a.717.717,0,0,0-.717-.717h-.476l-.02-3.86a2.819,2.819,0,0,0-.182-.987A5.992,5.992,0,0,0,16.2,35.4a.467.467,0,0,1-.3-.125l-2.574-2.394a2.431,2.431,0,0,0-1.321-.623L11.4,30.806a.929.929,0,0,1-.015-.661,4.9,4.9,0,0,0-2.576-6.09,1.191,1.191,0,0,0-1.7.839,37.589,37.589,0,0,0-.324,11.854ZM13.3,45.725h8.262V48.3H13.3ZM8.456,25.493a3.448,3.448,0,0,1,1.57,4.191,2.363,2.363,0,0,0,.051,1.68l.479,1.135a2.114,2.114,0,0,0-.328,3.328l3.212,3.556a.717.717,0,1,0,1.064-.961l-3.212-3.556c-.293-.324-.442-.95-.036-1.121a1.017,1.017,0,0,1,1.1.182c2.711,2.521,2.88,2.86,3.782,2.9a4.608,4.608,0,0,1,4.24,3.454v4.009H14.709a2.336,2.336,0,0,0-.719-1.6l-5.226-5.03a1.874,1.874,0,0,1-.558-1.1,36.168,36.168,0,0,1,.25-11.069Z" transform="translate(0 -5.627)"/>
    </g>
  </g>
</svg>
