<svg xmlns="http://www.w3.org/2000/svg" xmlns:xlink="http://www.w3.org/1999/xlink" width="1030" height="253" viewBox="0 0 1030 253"><defs><linearGradient id="a" x1="0.5" x2="0.5" y2="1" gradientUnits="objectBoundingBox"><stop offset="0" stop-color="#fff"/><stop offset="1" stop-color="#f1f2f6"/></linearGradient><clipPath id="b"><rect width="125" height="116.726" fill="#ccddc3"/></clipPath></defs><g transform="translate(-285 -4395)"><rect width="1030" height="253" transform="translate(285 4395)" fill="url(#a)"/><path d="M39.145,7.523H35.66V17H33.316V7.523H29.879v-1.9h9.266Zm5.078,9.633A4.15,4.15,0,0,1,41.2,16.016a4.054,4.054,0,0,1-1.168-3.039v-.219a5.106,5.106,0,0,1,.492-2.277,3.612,3.612,0,0,1,1.395-1.547,3.914,3.914,0,0,1,2.059-.543A3.508,3.508,0,0,1,46.7,9.484a4.444,4.444,0,0,1,1,3.1v.922H42.316a2.1,2.1,0,0,0,.66,1.328,2,2,0,0,0,1.395.5,2.437,2.437,0,0,0,2.039-.945l1.109,1.242a3.389,3.389,0,0,1-1.375,1.121A4.511,4.511,0,0,1,44.223,17.156Zm-.258-6.945a1.411,1.411,0,0,0-1.09.455,2.357,2.357,0,0,0-.535,1.3H45.48v-.181a1.681,1.681,0,0,0-.406-1.165A1.456,1.456,0,0,0,43.965,10.211ZM44.168,5h2.461L44.465,7.422H42.629ZM52.5,15.336a1.481,1.481,0,0,0,1.016-.344,1.2,1.2,0,0,0,.406-.914h2.117a2.9,2.9,0,0,1-.469,1.574A3.093,3.093,0,0,1,54.3,16.762a3.949,3.949,0,0,1-1.77.395A3.67,3.67,0,0,1,49.676,16a4.56,4.56,0,0,1-1.047-3.184v-.148a4.508,4.508,0,0,1,1.039-3.117A3.627,3.627,0,0,1,52.52,8.391a3.555,3.555,0,0,1,2.543.9,3.2,3.2,0,0,1,.973,2.4H53.918a1.551,1.551,0,0,0-.406-1.072,1.51,1.51,0,0,0-2.223.163,3.333,3.333,0,0,0-.4,1.866v.235a3.375,3.375,0,0,0,.4,1.878A1.377,1.377,0,0,0,52.5,15.336ZM59.4,8.547l.07.977A2.951,2.951,0,0,1,61.9,8.391a2.453,2.453,0,0,1,2,.789,3.682,3.682,0,0,1,.672,2.359V17H62.316V11.594A1.465,1.465,0,0,0,62,10.551a1.4,1.4,0,0,0-1.039-.324,1.553,1.553,0,0,0-1.43.813V17H57.277V8.547ZM68.668,17H66.4V8.547h2.266ZM66.27,6.359a1.112,1.112,0,0,1,.34-.836,1.465,1.465,0,0,1,1.848,0,1.105,1.105,0,0,1,.344.836,1.108,1.108,0,0,1-.348.844,1.448,1.448,0,0,1-1.836,0A1.108,1.108,0,0,1,66.27,6.359Zm7.773,8.977a1.481,1.481,0,0,0,1.016-.344,1.2,1.2,0,0,0,.406-.914h2.117a2.9,2.9,0,0,1-.469,1.574,3.093,3.093,0,0,1-1.262,1.109,3.949,3.949,0,0,1-1.77.395A3.67,3.67,0,0,1,71.223,16a4.56,4.56,0,0,1-1.047-3.184v-.148a4.508,4.508,0,0,1,1.039-3.117,3.627,3.627,0,0,1,2.852-1.164,3.555,3.555,0,0,1,2.543.9,3.2,3.2,0,0,1,.973,2.4H75.465a1.551,1.551,0,0,0-.406-1.072,1.51,1.51,0,0,0-2.223.163,3.333,3.333,0,0,0-.4,1.866v.235a3.375,3.375,0,0,0,.4,1.878A1.377,1.377,0,0,0,74.043,15.336ZM83.77,17a2.507,2.507,0,0,1-.227-.758,2.732,2.732,0,0,1-2.133.914,3,3,0,0,1-2.059-.719,2.312,2.312,0,0,1-.816-1.812,2.389,2.389,0,0,1,1-2.062,4.915,4.915,0,0,1,2.879-.727h1.039v-.484a1.393,1.393,0,0,0-.3-.937,1.183,1.183,0,0,0-.949-.352,1.345,1.345,0,0,0-.895.273.929.929,0,0,0-.324.75H78.723a2.268,2.268,0,0,1,.453-1.359,3,3,0,0,1,1.281-.98,4.669,4.669,0,0,1,1.859-.355,3.689,3.689,0,0,1,2.48.785,2.747,2.747,0,0,1,.918,2.207v3.664a4.041,4.041,0,0,0,.336,1.82V17ZM81.9,15.43a1.945,1.945,0,0,0,.922-.223,1.462,1.462,0,0,0,.625-.6V13.156h-.844q-1.7,0-1.8,1.172l-.008.133a.9.9,0,0,0,.3.7A1.153,1.153,0,0,0,81.9,15.43Zm10.125-.766a.727.727,0,0,0-.41-.652,4.659,4.659,0,0,0-1.316-.426q-3.016-.633-3.016-2.562a2.323,2.323,0,0,1,.934-1.879,3.766,3.766,0,0,1,2.441-.754,4.053,4.053,0,0,1,2.574.758,2.388,2.388,0,0,1,.965,1.969H91.941a1.092,1.092,0,0,0-.312-.8A1.322,1.322,0,0,0,90.652,10a1.351,1.351,0,0,0-.883.258.814.814,0,0,0-.312.656.7.7,0,0,0,.355.605,3.657,3.657,0,0,0,1.2.4,9.8,9.8,0,0,1,1.422.379,2.336,2.336,0,0,1,1.789,2.273,2.2,2.2,0,0,1-.992,1.871,4.28,4.28,0,0,1-2.562.715,4.47,4.47,0,0,1-1.887-.379,3.166,3.166,0,0,1-1.293-1.039,2.414,2.414,0,0,1-.469-1.426H89.16a1.179,1.179,0,0,0,.445.922,1.766,1.766,0,0,0,1.109.32,1.635,1.635,0,0,0,.98-.246A.766.766,0,0,0,92.027,14.664Zm15.242-1.812a5.07,5.07,0,0,1-.887,3.129,2.843,2.843,0,0,1-2.395,1.176,2.633,2.633,0,0,1-2.07-.891V20.25H99.66V8.547h2.094l.078.828a2.654,2.654,0,0,1,2.141-.984,2.862,2.862,0,0,1,2.43,1.156,5.207,5.207,0,0,1,.867,3.188Zm-2.258-.164a3.327,3.327,0,0,0-.418-1.82,1.361,1.361,0,0,0-1.215-.641,1.478,1.478,0,0,0-1.461.813V14.5a1.5,1.5,0,0,0,1.477.836Q105.012,15.336,105.012,12.688ZM113.566,17a2.507,2.507,0,0,1-.227-.758,2.732,2.732,0,0,1-2.133.914,3,3,0,0,1-2.059-.719,2.312,2.312,0,0,1-.816-1.812,2.389,2.389,0,0,1,1-2.062,4.915,4.915,0,0,1,2.879-.727h1.039v-.484a1.393,1.393,0,0,0-.3-.937,1.183,1.183,0,0,0-.949-.352,1.345,1.345,0,0,0-.895.273.929.929,0,0,0-.324.75H108.52a2.268,2.268,0,0,1,.453-1.359,3,3,0,0,1,1.281-.98,4.669,4.669,0,0,1,1.859-.355,3.689,3.689,0,0,1,2.48.785,2.747,2.747,0,0,1,.918,2.207v3.664a4.041,4.041,0,0,0,.336,1.82V17ZM111.7,15.43a1.945,1.945,0,0,0,.922-.223,1.462,1.462,0,0,0,.625-.6V13.156H112.4q-1.7,0-1.8,1.172l-.008.133a.9.9,0,0,0,.3.7A1.153,1.153,0,0,0,111.7,15.43ZM122,10.664a6.134,6.134,0,0,0-.812-.062,1.654,1.654,0,0,0-1.68.867V17h-2.258V8.547h2.133l.063,1.008a2.092,2.092,0,0,1,1.883-1.164,2.366,2.366,0,0,1,.7.1ZM127.746,17a2.507,2.507,0,0,1-.227-.758,2.732,2.732,0,0,1-2.133.914,3,3,0,0,1-2.059-.719,2.312,2.312,0,0,1-.816-1.812,2.389,2.389,0,0,1,1-2.062,4.915,4.915,0,0,1,2.879-.727h1.039v-.484a1.393,1.393,0,0,0-.3-.937,1.183,1.183,0,0,0-.949-.352,1.345,1.345,0,0,0-.895.273.929.929,0,0,0-.324.75H122.7a2.268,2.268,0,0,1,.453-1.359,3,3,0,0,1,1.281-.98,4.669,4.669,0,0,1,1.859-.355,3.689,3.689,0,0,1,2.48.785,2.747,2.747,0,0,1,.918,2.207v3.664a4.041,4.041,0,0,0,.336,1.82V17Zm-1.867-1.57a1.945,1.945,0,0,0,.922-.223,1.462,1.462,0,0,0,.625-.6V13.156h-.844q-1.7,0-1.8,1.172l-.008.133a.9.9,0,0,0,.3.7A1.153,1.153,0,0,0,125.879,15.43ZM139.3,17.156a4.15,4.15,0,0,1-3.027-1.141,4.054,4.054,0,0,1-1.168-3.039v-.219a5.106,5.106,0,0,1,.492-2.277,3.612,3.612,0,0,1,1.395-1.547,3.914,3.914,0,0,1,2.059-.543,3.508,3.508,0,0,1,2.73,1.094,4.444,4.444,0,0,1,1,3.1v.922h-5.383a2.1,2.1,0,0,0,.66,1.328,2,2,0,0,0,1.395.5,2.437,2.437,0,0,0,2.039-.945l1.109,1.242a3.389,3.389,0,0,1-1.375,1.121A4.511,4.511,0,0,1,139.3,17.156Zm-.258-6.945a1.411,1.411,0,0,0-1.09.455,2.357,2.357,0,0,0-.535,1.3h3.141v-.181a1.681,1.681,0,0,0-.406-1.165A1.456,1.456,0,0,0,139.043,10.211Zm7.4,6.789h-2.266V5h2.266ZM21.875,41a2.507,2.507,0,0,1-.227-.758,2.732,2.732,0,0,1-2.133.914,3,3,0,0,1-2.059-.719,2.312,2.312,0,0,1-.816-1.812,2.389,2.389,0,0,1,1-2.062,4.915,4.915,0,0,1,2.879-.727h1.039v-.484a1.393,1.393,0,0,0-.3-.937,1.183,1.183,0,0,0-.949-.352,1.345,1.345,0,0,0-.895.273.929.929,0,0,0-.324.75H16.828a2.268,2.268,0,0,1,.453-1.359,3,3,0,0,1,1.281-.98,4.669,4.669,0,0,1,1.859-.355,3.689,3.689,0,0,1,2.48.785,2.747,2.747,0,0,1,.918,2.207v3.664a4.041,4.041,0,0,0,.336,1.82V41Zm-1.867-1.57a1.945,1.945,0,0,0,.922-.223,1.462,1.462,0,0,0,.625-.6V37.156h-.844q-1.7,0-1.8,1.172l-.008.133a.9.9,0,0,0,.3.7A1.153,1.153,0,0,0,20.008,39.43Zm13.156-2.578a5.07,5.07,0,0,1-.887,3.129,2.843,2.843,0,0,1-2.395,1.176,2.633,2.633,0,0,1-2.07-.891V44.25H25.555v-11.7h2.094l.078.828a2.654,2.654,0,0,1,2.141-.984,2.862,2.862,0,0,1,2.43,1.156,5.207,5.207,0,0,1,.867,3.188Zm-2.258-.164a3.327,3.327,0,0,0-.418-1.82,1.361,1.361,0,0,0-1.215-.641,1.478,1.478,0,0,0-1.461.813V38.5a1.5,1.5,0,0,0,1.477.836Q30.906,39.336,30.906,36.688Zm8.406-2.023A6.134,6.134,0,0,0,38.5,34.6a1.654,1.654,0,0,0-1.68.867V41H34.563V32.547H36.7l.063,1.008a2.092,2.092,0,0,1,1.883-1.164,2.366,2.366,0,0,1,.7.1Zm4.977,6.492a4.15,4.15,0,0,1-3.027-1.141,4.054,4.054,0,0,1-1.168-3.039v-.219a5.106,5.106,0,0,1,.492-2.277,3.612,3.612,0,0,1,1.395-1.547,3.914,3.914,0,0,1,2.059-.543,3.508,3.508,0,0,1,2.73,1.094,4.444,4.444,0,0,1,1,3.1v.922H42.383a2.1,2.1,0,0,0,.66,1.328,2,2,0,0,0,1.395.5,2.437,2.437,0,0,0,2.039-.945l1.109,1.242a3.389,3.389,0,0,1-1.375,1.121A4.511,4.511,0,0,1,44.289,41.156Zm-.258-6.945a1.411,1.411,0,0,0-1.09.455,2.357,2.357,0,0,0-.535,1.3h3.141v-.181a1.681,1.681,0,0,0-.406-1.165A1.456,1.456,0,0,0,44.031,34.211Zm7.094-1.664.07.977a2.951,2.951,0,0,1,2.43-1.133,2.453,2.453,0,0,1,2,.789,3.682,3.682,0,0,1,.672,2.359V41H54.039V35.594a1.465,1.465,0,0,0-.312-1.043,1.4,1.4,0,0,0-1.039-.324,1.553,1.553,0,0,0-1.43.813V41H49V32.547Zm6.531,4.164a5.094,5.094,0,0,1,.887-3.148,2.877,2.877,0,0,1,2.426-1.172,2.589,2.589,0,0,1,2.039.922V29h2.266V41H63.234l-.109-.9a2.657,2.657,0,0,1-2.172,1.055,2.869,2.869,0,0,1-2.395-1.176A5.258,5.258,0,0,1,57.656,36.711Zm2.258.168a3.337,3.337,0,0,0,.414,1.823,1.349,1.349,0,0,0,1.2.634,1.511,1.511,0,0,0,1.477-.884V35.111a1.489,1.489,0,0,0-1.461-.884Q59.914,34.227,59.914,36.879ZM69.406,41H67.141V32.547h2.266Zm-2.4-10.641a1.112,1.112,0,0,1,.34-.836,1.465,1.465,0,0,1,1.848,0,1.193,1.193,0,0,1,0,1.68,1.448,1.448,0,0,1-1.836,0A1.108,1.108,0,0,1,67.008,30.359Zm6.852,8.82h4.133V41H70.977V39.625l3.977-5.258H71.094v-1.82h6.773v1.33ZM84.3,41a2.507,2.507,0,0,1-.227-.758,2.732,2.732,0,0,1-2.133.914,3,3,0,0,1-2.059-.719,2.312,2.312,0,0,1-.816-1.812,2.389,2.389,0,0,1,1-2.062,4.915,4.915,0,0,1,2.879-.727h1.039v-.484a1.393,1.393,0,0,0-.3-.937,1.183,1.183,0,0,0-.949-.352,1.345,1.345,0,0,0-.895.273.929.929,0,0,0-.324.75H79.258a2.268,2.268,0,0,1,.453-1.359,3,3,0,0,1,1.281-.98,4.669,4.669,0,0,1,1.859-.355,3.689,3.689,0,0,1,2.48.785,2.747,2.747,0,0,1,.918,2.207v3.664a4.041,4.041,0,0,0,.336,1.82V41Zm-1.867-1.57a1.945,1.945,0,0,0,.922-.223,1.462,1.462,0,0,0,.625-.6V37.156h-.844q-1.7,0-1.8,1.172l-.008.133a.9.9,0,0,0,.3.7A1.153,1.153,0,0,0,82.438,39.43Zm7.938-6.883v8.914a3.024,3.024,0,0,1-.742,2.176,2.821,2.821,0,0,1-2.141.777,4.591,4.591,0,0,1-1.117-.133V42.492a4.238,4.238,0,0,0,.711.07q1.023,0,1.023-1.086v-8.93ZM87.93,30.359a1.112,1.112,0,0,1,.34-.836,1.47,1.47,0,0,1,1.852,0,1.2,1.2,0,0,1-.008,1.68,1.448,1.448,0,0,1-1.836,0A1.108,1.108,0,0,1,87.93,30.359Zm8.1,10.8A4.15,4.15,0,0,1,93,40.016a4.054,4.054,0,0,1-1.168-3.039v-.219a5.106,5.106,0,0,1,.492-2.277,3.612,3.612,0,0,1,1.395-1.547,3.914,3.914,0,0,1,2.059-.543,3.508,3.508,0,0,1,2.73,1.094,4.444,4.444,0,0,1,1,3.1v.922H94.125a2.1,2.1,0,0,0,.66,1.328,2,2,0,0,0,1.395.5,2.437,2.437,0,0,0,2.039-.945l1.109,1.242a3.389,3.389,0,0,1-1.375,1.121A4.511,4.511,0,0,1,96.031,41.156Zm-.258-6.945a1.411,1.411,0,0,0-1.09.455,2.357,2.357,0,0,0-.535,1.3h3.141v-.181a1.681,1.681,0,0,0-.406-1.165A1.456,1.456,0,0,0,95.773,34.211ZM109.672,41a2.507,2.507,0,0,1-.227-.758,2.732,2.732,0,0,1-2.133.914,3,3,0,0,1-2.059-.719,2.312,2.312,0,0,1-.816-1.812,2.389,2.389,0,0,1,1-2.062,4.915,4.915,0,0,1,2.879-.727h1.039v-.484a1.393,1.393,0,0,0-.3-.937,1.183,1.183,0,0,0-.949-.352,1.345,1.345,0,0,0-.895.273.929.929,0,0,0-.324.75h-2.258a2.268,2.268,0,0,1,.453-1.359,3,3,0,0,1,1.281-.98,4.669,4.669,0,0,1,1.859-.355,3.689,3.689,0,0,1,2.48.785,2.747,2.747,0,0,1,.918,2.207v3.664a4.041,4.041,0,0,0,.336,1.82V41ZM107.8,39.43a1.945,1.945,0,0,0,.922-.223,1.462,1.462,0,0,0,.625-.6V37.156h-.844q-1.7,0-1.8,1.172l-.008.133a.9.9,0,0,0,.3.7A1.153,1.153,0,0,0,107.8,39.43Zm10.125-.766a.727.727,0,0,0-.41-.652,4.659,4.659,0,0,0-1.316-.426q-3.016-.633-3.016-2.562a2.323,2.323,0,0,1,.934-1.879,3.766,3.766,0,0,1,2.441-.754,4.053,4.053,0,0,1,2.574.758,2.388,2.388,0,0,1,.965,1.969h-2.258a1.092,1.092,0,0,0-.312-.8,1.322,1.322,0,0,0-.977-.316,1.351,1.351,0,0,0-.883.258.814.814,0,0,0-.312.656.7.7,0,0,0,.355.605,3.657,3.657,0,0,0,1.2.4,9.8,9.8,0,0,1,1.422.379,2.336,2.336,0,0,1,1.789,2.273,2.2,2.2,0,0,1-.992,1.871,4.28,4.28,0,0,1-2.562.715,4.47,4.47,0,0,1-1.887-.379,3.166,3.166,0,0,1-1.293-1.039,2.414,2.414,0,0,1-.469-1.426h2.141a1.179,1.179,0,0,0,.445.922,1.766,1.766,0,0,0,1.109.32,1.635,1.635,0,0,0,.98-.246A.766.766,0,0,0,117.93,38.664ZM123.961,41H121.7V32.547h2.266Zm-2.4-10.641a1.112,1.112,0,0,1,.34-.836,1.465,1.465,0,0,1,1.848,0,1.193,1.193,0,0,1,0,1.68,1.448,1.448,0,0,1-1.836,0A1.108,1.108,0,0,1,121.563,30.359Zm8.836,8.3a.727.727,0,0,0-.41-.652,4.659,4.659,0,0,0-1.316-.426q-3.016-.633-3.016-2.562a2.323,2.323,0,0,1,.934-1.879,3.766,3.766,0,0,1,2.441-.754,4.053,4.053,0,0,1,2.574.758,2.388,2.388,0,0,1,.965,1.969h-2.258a1.092,1.092,0,0,0-.312-.8,1.322,1.322,0,0,0-.977-.316,1.351,1.351,0,0,0-.883.258.814.814,0,0,0-.312.656.7.7,0,0,0,.355.605,3.657,3.657,0,0,0,1.2.4,9.8,9.8,0,0,1,1.422.379,2.336,2.336,0,0,1,1.789,2.273,2.205,2.205,0,0,1-.992,1.871,4.28,4.28,0,0,1-2.562.715,4.47,4.47,0,0,1-1.887-.379,3.166,3.166,0,0,1-1.293-1.039,2.414,2.414,0,0,1-.469-1.426h2.141a1.179,1.179,0,0,0,.445.922,1.766,1.766,0,0,0,1.109.32,1.635,1.635,0,0,0,.98-.246A.766.766,0,0,0,130.4,38.664Zm6.352-8.2v2.078H138.2V34.2H136.75v4.219a1.007,1.007,0,0,0,.18.672.9.9,0,0,0,.688.2,3.6,3.6,0,0,0,.664-.055v1.711a4.648,4.648,0,0,1-1.367.2,2.156,2.156,0,0,1-2.422-2.4V34.2h-1.234V32.547h1.234V30.469ZM141.836,41H139.57V32.547h2.266Zm-2.4-10.641a1.112,1.112,0,0,1,.34-.836,1.465,1.465,0,0,1,1.848,0,1.193,1.193,0,0,1,0,1.68,1.448,1.448,0,0,1-1.836,0A1.109,1.109,0,0,1,139.438,30.359Zm3.906,6.352a5.094,5.094,0,0,1,.887-3.148,2.877,2.877,0,0,1,2.426-1.172,2.589,2.589,0,0,1,2.039.922V29h2.266V41h-2.039l-.109-.9a2.657,2.657,0,0,1-2.172,1.055,2.869,2.869,0,0,1-2.395-1.176A5.258,5.258,0,0,1,143.344,36.711Zm2.258.168a3.337,3.337,0,0,0,.414,1.823,1.349,1.349,0,0,0,1.2.634,1.511,1.511,0,0,0,1.477-.884V35.111a1.489,1.489,0,0,0-1.461-.884Q145.6,34.227,145.6,36.879Zm6.758-.184a5.013,5.013,0,0,1,.484-2.242,3.546,3.546,0,0,1,1.395-1.523,4.069,4.069,0,0,1,2.113-.539,3.849,3.849,0,0,1,2.793,1.047,4.2,4.2,0,0,1,1.207,2.844l.016.578a4.418,4.418,0,0,1-1.086,3.121,4.209,4.209,0,0,1-5.832,0,4.5,4.5,0,0,1-1.09-3.187Zm2.258.16a3.16,3.16,0,0,0,.453,1.843,1.628,1.628,0,0,0,2.578.008,3.457,3.457,0,0,0,.461-2.015,3.128,3.128,0,0,0-.461-1.831,1.5,1.5,0,0,0-1.3-.649,1.474,1.474,0,0,0-1.281.646A3.516,3.516,0,0,0,154.617,36.856Z" transform="translate(326 4534)" fill="#12263f"/><path d="M39.145,7.523H35.66V17H33.316V7.523H29.879v-1.9h9.266Zm5.078,9.633A4.15,4.15,0,0,1,41.2,16.016a4.054,4.054,0,0,1-1.168-3.039v-.219a5.106,5.106,0,0,1,.492-2.277,3.612,3.612,0,0,1,1.395-1.547,3.914,3.914,0,0,1,2.059-.543A3.508,3.508,0,0,1,46.7,9.484a4.444,4.444,0,0,1,1,3.1v.922H42.316a2.1,2.1,0,0,0,.66,1.328,2,2,0,0,0,1.395.5,2.437,2.437,0,0,0,2.039-.945l1.109,1.242a3.389,3.389,0,0,1-1.375,1.121A4.511,4.511,0,0,1,44.223,17.156Zm-.258-6.945a1.411,1.411,0,0,0-1.09.455,2.357,2.357,0,0,0-.535,1.3H45.48v-.181a1.681,1.681,0,0,0-.406-1.165A1.456,1.456,0,0,0,43.965,10.211ZM44.168,5h2.461L44.465,7.422H42.629ZM52.5,15.336a1.481,1.481,0,0,0,1.016-.344,1.2,1.2,0,0,0,.406-.914h2.117a2.9,2.9,0,0,1-.469,1.574A3.093,3.093,0,0,1,54.3,16.762a3.949,3.949,0,0,1-1.77.395A3.67,3.67,0,0,1,49.676,16a4.56,4.56,0,0,1-1.047-3.184v-.148a4.508,4.508,0,0,1,1.039-3.117A3.627,3.627,0,0,1,52.52,8.391a3.555,3.555,0,0,1,2.543.9,3.2,3.2,0,0,1,.973,2.4H53.918a1.551,1.551,0,0,0-.406-1.072,1.51,1.51,0,0,0-2.223.163,3.333,3.333,0,0,0-.4,1.866v.235a3.375,3.375,0,0,0,.4,1.878A1.377,1.377,0,0,0,52.5,15.336ZM59.4,8.547l.07.977A2.951,2.951,0,0,1,61.9,8.391a2.453,2.453,0,0,1,2,.789,3.682,3.682,0,0,1,.672,2.359V17H62.316V11.594A1.465,1.465,0,0,0,62,10.551a1.4,1.4,0,0,0-1.039-.324,1.553,1.553,0,0,0-1.43.813V17H57.277V8.547ZM68.668,17H66.4V8.547h2.266ZM66.27,6.359a1.112,1.112,0,0,1,.34-.836,1.465,1.465,0,0,1,1.848,0,1.105,1.105,0,0,1,.344.836,1.108,1.108,0,0,1-.348.844,1.448,1.448,0,0,1-1.836,0A1.108,1.108,0,0,1,66.27,6.359Zm7.773,8.977a1.481,1.481,0,0,0,1.016-.344,1.2,1.2,0,0,0,.406-.914h2.117a2.9,2.9,0,0,1-.469,1.574,3.093,3.093,0,0,1-1.262,1.109,3.949,3.949,0,0,1-1.77.395A3.67,3.67,0,0,1,71.223,16a4.56,4.56,0,0,1-1.047-3.184v-.148a4.508,4.508,0,0,1,1.039-3.117,3.627,3.627,0,0,1,2.852-1.164,3.555,3.555,0,0,1,2.543.9,3.2,3.2,0,0,1,.973,2.4H75.465a1.551,1.551,0,0,0-.406-1.072,1.51,1.51,0,0,0-2.223.163,3.333,3.333,0,0,0-.4,1.866v.235a3.375,3.375,0,0,0,.4,1.878A1.377,1.377,0,0,0,74.043,15.336ZM83.77,17a2.507,2.507,0,0,1-.227-.758,2.732,2.732,0,0,1-2.133.914,3,3,0,0,1-2.059-.719,2.312,2.312,0,0,1-.816-1.812,2.389,2.389,0,0,1,1-2.062,4.915,4.915,0,0,1,2.879-.727h1.039v-.484a1.393,1.393,0,0,0-.3-.937,1.183,1.183,0,0,0-.949-.352,1.345,1.345,0,0,0-.895.273.929.929,0,0,0-.324.75H78.723a2.268,2.268,0,0,1,.453-1.359,3,3,0,0,1,1.281-.98,4.669,4.669,0,0,1,1.859-.355,3.689,3.689,0,0,1,2.48.785,2.747,2.747,0,0,1,.918,2.207v3.664a4.041,4.041,0,0,0,.336,1.82V17ZM81.9,15.43a1.945,1.945,0,0,0,.922-.223,1.462,1.462,0,0,0,.625-.6V13.156h-.844q-1.7,0-1.8,1.172l-.008.133a.9.9,0,0,0,.3.7A1.153,1.153,0,0,0,81.9,15.43Zm10.125-.766a.727.727,0,0,0-.41-.652,4.659,4.659,0,0,0-1.316-.426q-3.016-.633-3.016-2.562a2.323,2.323,0,0,1,.934-1.879,3.766,3.766,0,0,1,2.441-.754,4.053,4.053,0,0,1,2.574.758,2.388,2.388,0,0,1,.965,1.969H91.941a1.092,1.092,0,0,0-.312-.8A1.322,1.322,0,0,0,90.652,10a1.351,1.351,0,0,0-.883.258.814.814,0,0,0-.312.656.7.7,0,0,0,.355.605,3.657,3.657,0,0,0,1.2.4,9.8,9.8,0,0,1,1.422.379,2.336,2.336,0,0,1,1.789,2.273,2.2,2.2,0,0,1-.992,1.871,4.28,4.28,0,0,1-2.562.715,4.47,4.47,0,0,1-1.887-.379,3.166,3.166,0,0,1-1.293-1.039,2.414,2.414,0,0,1-.469-1.426H89.16a1.179,1.179,0,0,0,.445.922,1.766,1.766,0,0,0,1.109.32,1.635,1.635,0,0,0,.98-.246A.766.766,0,0,0,92.027,14.664Zm15.242-1.812a5.07,5.07,0,0,1-.887,3.129,2.843,2.843,0,0,1-2.395,1.176,2.633,2.633,0,0,1-2.07-.891V20.25H99.66V8.547h2.094l.078.828a2.654,2.654,0,0,1,2.141-.984,2.862,2.862,0,0,1,2.43,1.156,5.207,5.207,0,0,1,.867,3.188Zm-2.258-.164a3.327,3.327,0,0,0-.418-1.82,1.361,1.361,0,0,0-1.215-.641,1.478,1.478,0,0,0-1.461.813V14.5a1.5,1.5,0,0,0,1.477.836Q105.012,15.336,105.012,12.688ZM113.566,17a2.507,2.507,0,0,1-.227-.758,2.732,2.732,0,0,1-2.133.914,3,3,0,0,1-2.059-.719,2.312,2.312,0,0,1-.816-1.812,2.389,2.389,0,0,1,1-2.062,4.915,4.915,0,0,1,2.879-.727h1.039v-.484a1.393,1.393,0,0,0-.3-.937,1.183,1.183,0,0,0-.949-.352,1.345,1.345,0,0,0-.895.273.929.929,0,0,0-.324.75H108.52a2.268,2.268,0,0,1,.453-1.359,3,3,0,0,1,1.281-.98,4.669,4.669,0,0,1,1.859-.355,3.689,3.689,0,0,1,2.48.785,2.747,2.747,0,0,1,.918,2.207v3.664a4.041,4.041,0,0,0,.336,1.82V17ZM111.7,15.43a1.945,1.945,0,0,0,.922-.223,1.462,1.462,0,0,0,.625-.6V13.156H112.4q-1.7,0-1.8,1.172l-.008.133a.9.9,0,0,0,.3.7A1.153,1.153,0,0,0,111.7,15.43ZM122,10.664a6.134,6.134,0,0,0-.812-.062,1.654,1.654,0,0,0-1.68.867V17h-2.258V8.547h2.133l.063,1.008a2.092,2.092,0,0,1,1.883-1.164,2.366,2.366,0,0,1,.7.1ZM127.746,17a2.507,2.507,0,0,1-.227-.758,2.732,2.732,0,0,1-2.133.914,3,3,0,0,1-2.059-.719,2.312,2.312,0,0,1-.816-1.812,2.389,2.389,0,0,1,1-2.062,4.915,4.915,0,0,1,2.879-.727h1.039v-.484a1.393,1.393,0,0,0-.3-.937,1.183,1.183,0,0,0-.949-.352,1.345,1.345,0,0,0-.895.273.929.929,0,0,0-.324.75H122.7a2.268,2.268,0,0,1,.453-1.359,3,3,0,0,1,1.281-.98,4.669,4.669,0,0,1,1.859-.355,3.689,3.689,0,0,1,2.48.785,2.747,2.747,0,0,1,.918,2.207v3.664a4.041,4.041,0,0,0,.336,1.82V17Zm-1.867-1.57a1.945,1.945,0,0,0,.922-.223,1.462,1.462,0,0,0,.625-.6V13.156h-.844q-1.7,0-1.8,1.172l-.008.133a.9.9,0,0,0,.3.7A1.153,1.153,0,0,0,125.879,15.43ZM139.3,17.156a4.15,4.15,0,0,1-3.027-1.141,4.054,4.054,0,0,1-1.168-3.039v-.219a5.106,5.106,0,0,1,.492-2.277,3.612,3.612,0,0,1,1.395-1.547,3.914,3.914,0,0,1,2.059-.543,3.508,3.508,0,0,1,2.73,1.094,4.444,4.444,0,0,1,1,3.1v.922h-5.383a2.1,2.1,0,0,0,.66,1.328,2,2,0,0,0,1.395.5,2.437,2.437,0,0,0,2.039-.945l1.109,1.242a3.389,3.389,0,0,1-1.375,1.121A4.511,4.511,0,0,1,139.3,17.156Zm-.258-6.945a1.411,1.411,0,0,0-1.09.455,2.357,2.357,0,0,0-.535,1.3h3.141v-.181a1.681,1.681,0,0,0-.406-1.165A1.456,1.456,0,0,0,139.043,10.211Zm7.4,6.789h-2.266V5h2.266ZM5.813,41a2.507,2.507,0,0,1-.227-.758,2.732,2.732,0,0,1-2.133.914,3,3,0,0,1-2.059-.719,2.312,2.312,0,0,1-.816-1.812,2.389,2.389,0,0,1,1-2.062,4.915,4.915,0,0,1,2.879-.727H5.492v-.484a1.393,1.393,0,0,0-.3-.937,1.183,1.183,0,0,0-.949-.352,1.345,1.345,0,0,0-.895.273.929.929,0,0,0-.324.75H.766a2.268,2.268,0,0,1,.453-1.359,3,3,0,0,1,1.281-.98,4.669,4.669,0,0,1,1.859-.355,3.689,3.689,0,0,1,2.48.785,2.747,2.747,0,0,1,.918,2.207v3.664a4.041,4.041,0,0,0,.336,1.82V41ZM3.945,39.43a1.945,1.945,0,0,0,.922-.223,1.462,1.462,0,0,0,.625-.6V37.156H4.648q-1.7,0-1.8,1.172l-.008.133a.9.9,0,0,0,.3.7A1.153,1.153,0,0,0,3.945,39.43ZM17.1,36.852a5.07,5.07,0,0,1-.887,3.129,2.843,2.843,0,0,1-2.395,1.176,2.633,2.633,0,0,1-2.07-.891V44.25H9.492v-11.7h2.094l.078.828a2.654,2.654,0,0,1,2.141-.984,2.862,2.862,0,0,1,2.43,1.156,5.207,5.207,0,0,1,.867,3.188Zm-2.258-.164a3.327,3.327,0,0,0-.418-1.82,1.361,1.361,0,0,0-1.215-.641,1.478,1.478,0,0,0-1.461.813V38.5a1.5,1.5,0,0,0,1.477.836Q14.844,39.336,14.844,36.688Zm8.406-2.023a6.134,6.134,0,0,0-.812-.062,1.654,1.654,0,0,0-1.68.867V41H18.5V32.547h2.133l.063,1.008a2.092,2.092,0,0,1,1.883-1.164,2.366,2.366,0,0,1,.7.1Zm4.977,6.492A4.15,4.15,0,0,1,25.2,40.016a4.054,4.054,0,0,1-1.168-3.039v-.219a5.106,5.106,0,0,1,.492-2.277,3.612,3.612,0,0,1,1.395-1.547,3.914,3.914,0,0,1,2.059-.543,3.508,3.508,0,0,1,2.73,1.094,4.444,4.444,0,0,1,1,3.1v.922H26.32a2.1,2.1,0,0,0,.66,1.328,2,2,0,0,0,1.395.5,2.437,2.437,0,0,0,2.039-.945l1.109,1.242a3.389,3.389,0,0,1-1.375,1.121A4.511,4.511,0,0,1,28.227,41.156Zm-.258-6.945a1.411,1.411,0,0,0-1.09.455,2.357,2.357,0,0,0-.535,1.3h3.141v-.181a1.681,1.681,0,0,0-.406-1.165A1.456,1.456,0,0,0,27.969,34.211Zm7.094-1.664.07.977a2.951,2.951,0,0,1,2.43-1.133,2.453,2.453,0,0,1,2,.789,3.682,3.682,0,0,1,.672,2.359V41H37.977V35.594a1.465,1.465,0,0,0-.312-1.043,1.4,1.4,0,0,0-1.039-.324,1.553,1.553,0,0,0-1.43.813V41H32.938V32.547Zm6.531,4.164a5.094,5.094,0,0,1,.887-3.148,2.877,2.877,0,0,1,2.426-1.172,2.589,2.589,0,0,1,2.039.922V29h2.266V41H47.172l-.109-.9a2.657,2.657,0,0,1-2.172,1.055A2.869,2.869,0,0,1,42.5,39.98,5.258,5.258,0,0,1,41.594,36.711Zm2.258.168a3.337,3.337,0,0,0,.414,1.823,1.349,1.349,0,0,0,1.2.634,1.511,1.511,0,0,0,1.477-.884V35.111a1.489,1.489,0,0,0-1.461-.884Q43.852,34.227,43.852,36.879ZM53.344,41H51.078V32.547h2.266Zm-2.4-10.641a1.112,1.112,0,0,1,.34-.836,1.465,1.465,0,0,1,1.848,0,1.193,1.193,0,0,1,0,1.68,1.448,1.448,0,0,1-1.836,0A1.108,1.108,0,0,1,50.945,30.359ZM57.8,39.18H61.93V41H54.914V39.625l3.977-5.258H55.031v-1.82H61.8v1.33ZM68.242,41a2.507,2.507,0,0,1-.227-.758,2.732,2.732,0,0,1-2.133.914,3,3,0,0,1-2.059-.719,2.312,2.312,0,0,1-.816-1.812,2.389,2.389,0,0,1,1-2.062,4.915,4.915,0,0,1,2.879-.727h1.039v-.484a1.393,1.393,0,0,0-.3-.937,1.183,1.183,0,0,0-.949-.352,1.345,1.345,0,0,0-.895.273.929.929,0,0,0-.324.75H63.2a2.268,2.268,0,0,1,.453-1.359,3,3,0,0,1,1.281-.98,4.669,4.669,0,0,1,1.859-.355,3.689,3.689,0,0,1,2.48.785,2.747,2.747,0,0,1,.918,2.207v3.664a4.041,4.041,0,0,0,.336,1.82V41Zm-1.867-1.57a1.945,1.945,0,0,0,.922-.223,1.462,1.462,0,0,0,.625-.6V37.156h-.844q-1.7,0-1.8,1.172l-.008.133a.9.9,0,0,0,.3.7A1.153,1.153,0,0,0,66.375,39.43Zm7.938-6.883v8.914a3.024,3.024,0,0,1-.742,2.176,2.821,2.821,0,0,1-2.141.777,4.591,4.591,0,0,1-1.117-.133V42.492a4.238,4.238,0,0,0,.711.07q1.023,0,1.023-1.086v-8.93Zm-2.445-2.187a1.112,1.112,0,0,1,.34-.836,1.47,1.47,0,0,1,1.852,0,1.2,1.2,0,0,1-.008,1.68,1.448,1.448,0,0,1-1.836,0A1.108,1.108,0,0,1,71.867,30.359Zm8.1,10.8a4.15,4.15,0,0,1-3.027-1.141,4.054,4.054,0,0,1-1.168-3.039v-.219a5.106,5.106,0,0,1,.492-2.277,3.612,3.612,0,0,1,1.395-1.547,3.914,3.914,0,0,1,2.059-.543,3.508,3.508,0,0,1,2.73,1.094,4.444,4.444,0,0,1,1,3.1v.922H78.063a2.1,2.1,0,0,0,.66,1.328,2,2,0,0,0,1.395.5,2.437,2.437,0,0,0,2.039-.945l1.109,1.242a3.389,3.389,0,0,1-1.375,1.121A4.511,4.511,0,0,1,79.969,41.156Zm-.258-6.945a1.411,1.411,0,0,0-1.09.455,2.357,2.357,0,0,0-.535,1.3h3.141v-.181a1.681,1.681,0,0,0-.406-1.165A1.456,1.456,0,0,0,79.711,34.211Zm12.516,5.125a1.481,1.481,0,0,0,1.016-.344,1.2,1.2,0,0,0,.406-.914h2.117a2.9,2.9,0,0,1-.469,1.574,3.093,3.093,0,0,1-1.262,1.109,3.949,3.949,0,0,1-1.77.395A3.67,3.67,0,0,1,89.406,40a4.56,4.56,0,0,1-1.047-3.184v-.148A4.508,4.508,0,0,1,89.4,33.555a3.627,3.627,0,0,1,2.852-1.164,3.555,3.555,0,0,1,2.543.9,3.2,3.2,0,0,1,.973,2.4H93.648a1.551,1.551,0,0,0-.406-1.072,1.51,1.51,0,0,0-2.223.163,3.333,3.333,0,0,0-.4,1.866v.235a3.375,3.375,0,0,0,.4,1.878A1.377,1.377,0,0,0,92.227,39.336ZM96.7,36.7a5.013,5.013,0,0,1,.484-2.242,3.546,3.546,0,0,1,1.395-1.523,4.069,4.069,0,0,1,2.113-.539,3.849,3.849,0,0,1,2.793,1.047,4.2,4.2,0,0,1,1.207,2.844l.016.578a4.418,4.418,0,0,1-1.086,3.121,4.209,4.209,0,0,1-5.832,0A4.5,4.5,0,0,1,96.7,36.8Zm2.258.16a3.16,3.16,0,0,0,.453,1.843,1.628,1.628,0,0,0,2.578.008,3.457,3.457,0,0,0,.461-2.015,3.128,3.128,0,0,0-.461-1.831,1.5,1.5,0,0,0-1.3-.649,1.474,1.474,0,0,0-1.281.646A3.516,3.516,0,0,0,98.961,36.856ZM108.484,41h-2.266V29h2.266Zm6.758,0a2.507,2.507,0,0,1-.227-.758,2.732,2.732,0,0,1-2.133.914,3,3,0,0,1-2.059-.719,2.312,2.312,0,0,1-.816-1.812,2.389,2.389,0,0,1,1-2.062,4.915,4.915,0,0,1,2.879-.727h1.039v-.484a1.393,1.393,0,0,0-.3-.937,1.183,1.183,0,0,0-.949-.352,1.345,1.345,0,0,0-.895.273.929.929,0,0,0-.324.75H110.2a2.268,2.268,0,0,1,.453-1.359,3,3,0,0,1,1.281-.98,4.669,4.669,0,0,1,1.859-.355,3.689,3.689,0,0,1,2.48.785,2.747,2.747,0,0,1,.918,2.207v3.664a4.041,4.041,0,0,0,.336,1.82V41Zm-1.867-1.57a1.945,1.945,0,0,0,.922-.223,1.462,1.462,0,0,0,.625-.6V37.156h-.844q-1.7,0-1.8,1.172l-.008.133a.9.9,0,0,0,.3.7A1.153,1.153,0,0,0,113.375,39.43Zm13.164-2.578a5.119,5.119,0,0,1-.867,3.168,2.872,2.872,0,0,1-2.422,1.137,2.639,2.639,0,0,1-2.2-1.055l-.1.9h-2.031V29h2.258v4.3a2.571,2.571,0,0,1,2.055-.914,2.9,2.9,0,0,1,2.426,1.137,5.126,5.126,0,0,1,.879,3.2Zm-2.258-.164a3.363,3.363,0,0,0-.406-1.871,1.374,1.374,0,0,0-1.211-.59,1.489,1.489,0,0,0-1.484.883v3.336a1.509,1.509,0,0,0,1.5.891,1.394,1.394,0,0,0,1.438-1.078A5.562,5.562,0,0,0,124.281,36.688Zm3.3.008a5.013,5.013,0,0,1,.484-2.242,3.546,3.546,0,0,1,1.395-1.523,4.069,4.069,0,0,1,2.113-.539,3.849,3.849,0,0,1,2.793,1.047,4.2,4.2,0,0,1,1.207,2.844l.016.578A4.418,4.418,0,0,1,134.5,39.98a4.209,4.209,0,0,1-5.832,0,4.5,4.5,0,0,1-1.09-3.187Zm2.258.16a3.16,3.16,0,0,0,.453,1.843,1.628,1.628,0,0,0,2.578.008,3.457,3.457,0,0,0,.461-2.015,3.128,3.128,0,0,0-.461-1.831,1.5,1.5,0,0,0-1.3-.649,1.474,1.474,0,0,0-1.281.646A3.516,3.516,0,0,0,129.836,36.856Zm11.891-2.192a6.134,6.134,0,0,0-.812-.062,1.654,1.654,0,0,0-1.68.867V41h-2.258V32.547h2.133l.063,1.008a2.092,2.092,0,0,1,1.883-1.164,2.366,2.366,0,0,1,.7.1ZM147.477,41a2.507,2.507,0,0,1-.227-.758,2.732,2.732,0,0,1-2.133.914,3,3,0,0,1-2.059-.719,2.312,2.312,0,0,1-.816-1.812,2.389,2.389,0,0,1,1-2.062,4.915,4.915,0,0,1,2.879-.727h1.039v-.484a1.393,1.393,0,0,0-.3-.937,1.183,1.183,0,0,0-.949-.352,1.345,1.345,0,0,0-.895.273.929.929,0,0,0-.324.75H142.43a2.268,2.268,0,0,1,.453-1.359,3,3,0,0,1,1.281-.98,4.669,4.669,0,0,1,1.859-.355,3.689,3.689,0,0,1,2.48.785,2.747,2.747,0,0,1,.918,2.207v3.664a4.041,4.041,0,0,0,.336,1.82V41Zm-1.867-1.57a1.945,1.945,0,0,0,.922-.223,1.462,1.462,0,0,0,.625-.6V37.156h-.844q-1.7,0-1.8,1.172l-.008.133a.9.9,0,0,0,.3.7A1.153,1.153,0,0,0,145.609,39.43Zm8.25-8.961v2.078H155.3V34.2h-1.445v4.219a1.007,1.007,0,0,0,.18.672.9.9,0,0,0,.688.2,3.6,3.6,0,0,0,.664-.055v1.711a4.648,4.648,0,0,1-1.367.2,2.156,2.156,0,0,1-2.422-2.4V34.2h-1.234V32.547H151.6V30.469ZM158.945,41H156.68V32.547h2.266Zm-2.4-10.641a1.112,1.112,0,0,1,.34-.836,1.465,1.465,0,0,1,1.848,0,1.193,1.193,0,0,1,0,1.68,1.448,1.448,0,0,1-1.836,0A1.109,1.109,0,0,1,156.547,30.359Zm7.422,7.883,1.57-5.7H167.9L165.047,41h-2.156l-2.852-8.453H162.4Zm4.453-1.547a5.013,5.013,0,0,1,.484-2.242A3.546,3.546,0,0,1,170.3,32.93a4.069,4.069,0,0,1,2.113-.539,3.849,3.849,0,0,1,2.793,1.047,4.2,4.2,0,0,1,1.207,2.844l.016.578a4.418,4.418,0,0,1-1.086,3.121,4.209,4.209,0,0,1-5.832,0,4.5,4.5,0,0,1-1.09-3.187Zm2.258.16a3.16,3.16,0,0,0,.453,1.843,1.628,1.628,0,0,0,2.578.008,3.457,3.457,0,0,0,.461-2.015,3.128,3.128,0,0,0-.461-1.831,1.5,1.5,0,0,0-1.3-.649,1.474,1.474,0,0,0-1.281.646A3.516,3.516,0,0,0,170.68,36.856Z" transform="translate(583 4534)" fill="#12263f"/><path d="M49.145,7.523H45.66V17H43.316V7.523H39.879v-1.9h9.266Zm5.078,9.633A4.15,4.15,0,0,1,51.2,16.016a4.054,4.054,0,0,1-1.168-3.039v-.219a5.106,5.106,0,0,1,.492-2.277,3.612,3.612,0,0,1,1.395-1.547,3.914,3.914,0,0,1,2.059-.543A3.508,3.508,0,0,1,56.7,9.484a4.444,4.444,0,0,1,1,3.1v.922H52.316a2.1,2.1,0,0,0,.66,1.328,2,2,0,0,0,1.395.5,2.437,2.437,0,0,0,2.039-.945l1.109,1.242a3.389,3.389,0,0,1-1.375,1.121A4.511,4.511,0,0,1,54.223,17.156Zm-.258-6.945a1.411,1.411,0,0,0-1.09.455,2.357,2.357,0,0,0-.535,1.3H55.48v-.181a1.681,1.681,0,0,0-.406-1.165A1.456,1.456,0,0,0,53.965,10.211ZM54.168,5h2.461L54.465,7.422H52.629ZM62.5,15.336a1.481,1.481,0,0,0,1.016-.344,1.2,1.2,0,0,0,.406-.914h2.117a2.9,2.9,0,0,1-.469,1.574A3.093,3.093,0,0,1,64.3,16.762a3.949,3.949,0,0,1-1.77.395A3.67,3.67,0,0,1,59.676,16a4.56,4.56,0,0,1-1.047-3.184v-.148a4.508,4.508,0,0,1,1.039-3.117A3.627,3.627,0,0,1,62.52,8.391a3.555,3.555,0,0,1,2.543.9,3.2,3.2,0,0,1,.973,2.4H63.918a1.551,1.551,0,0,0-.406-1.072,1.51,1.51,0,0,0-2.223.163,3.333,3.333,0,0,0-.4,1.866v.235a3.375,3.375,0,0,0,.4,1.878A1.377,1.377,0,0,0,62.5,15.336ZM69.4,8.547l.07.977A2.951,2.951,0,0,1,71.9,8.391a2.453,2.453,0,0,1,2,.789,3.682,3.682,0,0,1,.672,2.359V17H72.316V11.594A1.465,1.465,0,0,0,72,10.551a1.4,1.4,0,0,0-1.039-.324,1.553,1.553,0,0,0-1.43.813V17H67.277V8.547ZM78.668,17H76.4V8.547h2.266ZM76.27,6.359a1.112,1.112,0,0,1,.34-.836,1.465,1.465,0,0,1,1.848,0,1.105,1.105,0,0,1,.344.836,1.108,1.108,0,0,1-.348.844,1.448,1.448,0,0,1-1.836,0A1.108,1.108,0,0,1,76.27,6.359Zm7.773,8.977a1.481,1.481,0,0,0,1.016-.344,1.2,1.2,0,0,0,.406-.914h2.117a2.9,2.9,0,0,1-.469,1.574,3.093,3.093,0,0,1-1.262,1.109,3.949,3.949,0,0,1-1.77.395A3.67,3.67,0,0,1,81.223,16a4.56,4.56,0,0,1-1.047-3.184v-.148a4.508,4.508,0,0,1,1.039-3.117,3.627,3.627,0,0,1,2.852-1.164,3.555,3.555,0,0,1,2.543.9,3.2,3.2,0,0,1,.973,2.4H85.465a1.551,1.551,0,0,0-.406-1.072,1.51,1.51,0,0,0-2.223.163,3.333,3.333,0,0,0-.4,1.866v.235a3.375,3.375,0,0,0,.4,1.878A1.377,1.377,0,0,0,84.043,15.336ZM93.77,17a2.507,2.507,0,0,1-.227-.758,2.732,2.732,0,0,1-2.133.914,3,3,0,0,1-2.059-.719,2.312,2.312,0,0,1-.816-1.812,2.389,2.389,0,0,1,1-2.062,4.915,4.915,0,0,1,2.879-.727h1.039v-.484a1.393,1.393,0,0,0-.3-.937,1.183,1.183,0,0,0-.949-.352,1.345,1.345,0,0,0-.895.273.929.929,0,0,0-.324.75H88.723a2.268,2.268,0,0,1,.453-1.359,3,3,0,0,1,1.281-.98,4.669,4.669,0,0,1,1.859-.355,3.689,3.689,0,0,1,2.48.785,2.747,2.747,0,0,1,.918,2.207v3.664a4.041,4.041,0,0,0,.336,1.82V17ZM91.9,15.43a1.945,1.945,0,0,0,.922-.223,1.462,1.462,0,0,0,.625-.6V13.156h-.844q-1.7,0-1.8,1.172l-.008.133a.9.9,0,0,0,.3.7A1.153,1.153,0,0,0,91.9,15.43Zm10.125-.766a.727.727,0,0,0-.41-.652,4.659,4.659,0,0,0-1.316-.426q-3.016-.633-3.016-2.562a2.323,2.323,0,0,1,.934-1.879,3.766,3.766,0,0,1,2.441-.754,4.053,4.053,0,0,1,2.574.758,2.388,2.388,0,0,1,.965,1.969h-2.258a1.092,1.092,0,0,0-.312-.8,1.322,1.322,0,0,0-.977-.316,1.351,1.351,0,0,0-.883.258.814.814,0,0,0-.312.656.7.7,0,0,0,.355.605,3.657,3.657,0,0,0,1.2.4,9.8,9.8,0,0,1,1.422.379,2.336,2.336,0,0,1,1.789,2.273,2.2,2.2,0,0,1-.992,1.871,4.28,4.28,0,0,1-2.562.715,4.47,4.47,0,0,1-1.887-.379,3.166,3.166,0,0,1-1.293-1.039,2.414,2.414,0,0,1-.469-1.426H99.16a1.179,1.179,0,0,0,.445.922,1.766,1.766,0,0,0,1.109.32,1.635,1.635,0,0,0,.98-.246A.766.766,0,0,0,102.027,14.664Zm15.242-1.812a5.07,5.07,0,0,1-.887,3.129,2.843,2.843,0,0,1-2.395,1.176,2.633,2.633,0,0,1-2.07-.891V20.25H109.66V8.547h2.094l.078.828a2.654,2.654,0,0,1,2.141-.984,2.862,2.862,0,0,1,2.43,1.156,5.207,5.207,0,0,1,.867,3.188Zm-2.258-.164a3.327,3.327,0,0,0-.418-1.82,1.361,1.361,0,0,0-1.215-.641,1.478,1.478,0,0,0-1.461.813V14.5a1.5,1.5,0,0,0,1.477.836Q115.012,15.336,115.012,12.688ZM123.566,17a2.507,2.507,0,0,1-.227-.758,2.732,2.732,0,0,1-2.133.914,3,3,0,0,1-2.059-.719,2.312,2.312,0,0,1-.816-1.812,2.389,2.389,0,0,1,1-2.062,4.915,4.915,0,0,1,2.879-.727h1.039v-.484a1.393,1.393,0,0,0-.3-.937,1.183,1.183,0,0,0-.949-.352,1.345,1.345,0,0,0-.895.273.929.929,0,0,0-.324.75H118.52a2.268,2.268,0,0,1,.453-1.359,3,3,0,0,1,1.281-.98,4.669,4.669,0,0,1,1.859-.355,3.689,3.689,0,0,1,2.48.785,2.747,2.747,0,0,1,.918,2.207v3.664a4.041,4.041,0,0,0,.336,1.82V17ZM121.7,15.43a1.945,1.945,0,0,0,.922-.223,1.462,1.462,0,0,0,.625-.6V13.156H122.4q-1.7,0-1.8,1.172l-.008.133a.9.9,0,0,0,.3.7A1.153,1.153,0,0,0,121.7,15.43ZM132,10.664a6.134,6.134,0,0,0-.812-.062,1.654,1.654,0,0,0-1.68.867V17h-2.258V8.547h2.133l.063,1.008a2.092,2.092,0,0,1,1.883-1.164,2.366,2.366,0,0,1,.7.1ZM137.746,17a2.507,2.507,0,0,1-.227-.758,2.732,2.732,0,0,1-2.133.914,3,3,0,0,1-2.059-.719,2.312,2.312,0,0,1-.816-1.812,2.389,2.389,0,0,1,1-2.062,4.915,4.915,0,0,1,2.879-.727h1.039v-.484a1.393,1.393,0,0,0-.3-.937,1.183,1.183,0,0,0-.949-.352,1.345,1.345,0,0,0-.895.273.929.929,0,0,0-.324.75H132.7a2.268,2.268,0,0,1,.453-1.359,3,3,0,0,1,1.281-.98,4.669,4.669,0,0,1,1.859-.355,3.689,3.689,0,0,1,2.48.785,2.747,2.747,0,0,1,.918,2.207v3.664a4.041,4.041,0,0,0,.336,1.82V17Zm-1.867-1.57a1.945,1.945,0,0,0,.922-.223,1.462,1.462,0,0,0,.625-.6V13.156h-.844q-1.7,0-1.8,1.172l-.008.133a.9.9,0,0,0,.3.7A1.153,1.153,0,0,0,135.879,15.43ZM149.3,17.156a4.15,4.15,0,0,1-3.027-1.141,4.054,4.054,0,0,1-1.168-3.039v-.219a5.106,5.106,0,0,1,.492-2.277,3.612,3.612,0,0,1,1.395-1.547,3.914,3.914,0,0,1,2.059-.543,3.508,3.508,0,0,1,2.73,1.094,4.444,4.444,0,0,1,1,3.1v.922h-5.383a2.1,2.1,0,0,0,.66,1.328,2,2,0,0,0,1.395.5,2.437,2.437,0,0,0,2.039-.945l1.109,1.242a3.389,3.389,0,0,1-1.375,1.121A4.511,4.511,0,0,1,149.3,17.156Zm-.258-6.945a1.411,1.411,0,0,0-1.09.455,2.357,2.357,0,0,0-.535,1.3h3.141v-.181a1.681,1.681,0,0,0-.406-1.165A1.456,1.456,0,0,0,149.043,10.211Zm7.4,6.789h-2.266V5h2.266ZM12.75,41a2.507,2.507,0,0,1-.227-.758,2.732,2.732,0,0,1-2.133.914,3,3,0,0,1-2.059-.719,2.312,2.312,0,0,1-.816-1.812,2.389,2.389,0,0,1,1-2.062,4.915,4.915,0,0,1,2.879-.727H12.43v-.484a1.393,1.393,0,0,0-.3-.937,1.183,1.183,0,0,0-.949-.352,1.345,1.345,0,0,0-.895.273.929.929,0,0,0-.324.75H7.7a2.268,2.268,0,0,1,.453-1.359,3,3,0,0,1,1.281-.98,4.669,4.669,0,0,1,1.859-.355,3.689,3.689,0,0,1,2.48.785,2.747,2.747,0,0,1,.918,2.207v3.664a4.041,4.041,0,0,0,.336,1.82V41Zm-1.867-1.57a1.945,1.945,0,0,0,.922-.223,1.462,1.462,0,0,0,.625-.6V37.156h-.844q-1.7,0-1.8,1.172l-.008.133a.9.9,0,0,0,.3.7A1.153,1.153,0,0,0,10.883,39.43Zm13.156-2.578a5.07,5.07,0,0,1-.887,3.129,2.843,2.843,0,0,1-2.395,1.176,2.633,2.633,0,0,1-2.07-.891V44.25H16.43v-11.7h2.094l.078.828a2.654,2.654,0,0,1,2.141-.984,2.862,2.862,0,0,1,2.43,1.156,5.207,5.207,0,0,1,.867,3.188Zm-2.258-.164a3.327,3.327,0,0,0-.418-1.82,1.361,1.361,0,0,0-1.215-.641,1.478,1.478,0,0,0-1.461.813V38.5a1.5,1.5,0,0,0,1.477.836Q21.781,39.336,21.781,36.688Zm8.406-2.023a6.134,6.134,0,0,0-.812-.062,1.654,1.654,0,0,0-1.68.867V41H25.438V32.547H27.57l.063,1.008a2.092,2.092,0,0,1,1.883-1.164,2.366,2.366,0,0,1,.7.1Zm4.977,6.492a4.15,4.15,0,0,1-3.027-1.141,4.054,4.054,0,0,1-1.168-3.039v-.219a5.106,5.106,0,0,1,.492-2.277,3.612,3.612,0,0,1,1.395-1.547,3.914,3.914,0,0,1,2.059-.543,3.508,3.508,0,0,1,2.73,1.094,4.444,4.444,0,0,1,1,3.1v.922H33.258a2.1,2.1,0,0,0,.66,1.328,2,2,0,0,0,1.395.5,2.437,2.437,0,0,0,2.039-.945l1.109,1.242a3.389,3.389,0,0,1-1.375,1.121A4.511,4.511,0,0,1,35.164,41.156Zm-.258-6.945a1.411,1.411,0,0,0-1.09.455,2.357,2.357,0,0,0-.535,1.3h3.141v-.181a1.681,1.681,0,0,0-.406-1.165A1.456,1.456,0,0,0,34.906,34.211ZM42,32.547l.07.977a2.951,2.951,0,0,1,2.43-1.133,2.453,2.453,0,0,1,2,.789,3.682,3.682,0,0,1,.672,2.359V41H44.914V35.594a1.465,1.465,0,0,0-.312-1.043,1.4,1.4,0,0,0-1.039-.324,1.553,1.553,0,0,0-1.43.813V41H39.875V32.547Zm6.531,4.164a5.094,5.094,0,0,1,.887-3.148,2.877,2.877,0,0,1,2.426-1.172,2.589,2.589,0,0,1,2.039.922V29h2.266V41H54.109L54,40.1a2.657,2.657,0,0,1-2.172,1.055,2.869,2.869,0,0,1-2.395-1.176A5.258,5.258,0,0,1,48.531,36.711Zm2.258.168A3.337,3.337,0,0,0,51.2,38.7a1.349,1.349,0,0,0,1.2.634,1.511,1.511,0,0,0,1.477-.884V35.111a1.489,1.489,0,0,0-1.461-.884Q50.789,34.227,50.789,36.879ZM60.281,41H58.016V32.547h2.266Zm-2.4-10.641a1.112,1.112,0,0,1,.34-.836,1.465,1.465,0,0,1,1.848,0,1.193,1.193,0,0,1,0,1.68,1.448,1.448,0,0,1-1.836,0A1.108,1.108,0,0,1,57.883,30.359Zm6.852,8.82h4.133V41H61.852V39.625l3.977-5.258H61.969v-1.82h6.773v1.33ZM75.18,41a2.507,2.507,0,0,1-.227-.758,2.732,2.732,0,0,1-2.133.914,3,3,0,0,1-2.059-.719,2.312,2.312,0,0,1-.816-1.812,2.389,2.389,0,0,1,1-2.062,4.915,4.915,0,0,1,2.879-.727h1.039v-.484a1.393,1.393,0,0,0-.3-.937,1.183,1.183,0,0,0-.949-.352,1.345,1.345,0,0,0-.895.273.929.929,0,0,0-.324.75H70.133a2.268,2.268,0,0,1,.453-1.359,3,3,0,0,1,1.281-.98,4.669,4.669,0,0,1,1.859-.355,3.689,3.689,0,0,1,2.48.785,2.747,2.747,0,0,1,.918,2.207v3.664a4.041,4.041,0,0,0,.336,1.82V41Zm-1.867-1.57a1.945,1.945,0,0,0,.922-.223,1.462,1.462,0,0,0,.625-.6V37.156h-.844q-1.7,0-1.8,1.172l-.008.133a.9.9,0,0,0,.3.7A1.153,1.153,0,0,0,73.313,39.43Zm7.938-6.883v8.914a3.024,3.024,0,0,1-.742,2.176,2.821,2.821,0,0,1-2.141.777,4.591,4.591,0,0,1-1.117-.133V42.492a4.238,4.238,0,0,0,.711.07q1.023,0,1.023-1.086v-8.93ZM78.8,30.359a1.112,1.112,0,0,1,.34-.836,1.47,1.47,0,0,1,1.852,0,1.2,1.2,0,0,1-.008,1.68,1.448,1.448,0,0,1-1.836,0A1.108,1.108,0,0,1,78.8,30.359Zm8.1,10.8a4.15,4.15,0,0,1-3.027-1.141,4.054,4.054,0,0,1-1.168-3.039v-.219A5.106,5.106,0,0,1,83.2,34.48,3.612,3.612,0,0,1,84.6,32.934a3.914,3.914,0,0,1,2.059-.543,3.508,3.508,0,0,1,2.73,1.094,4.444,4.444,0,0,1,1,3.1v.922H85a2.1,2.1,0,0,0,.66,1.328,2,2,0,0,0,1.395.5,2.437,2.437,0,0,0,2.039-.945L90.2,39.633a3.389,3.389,0,0,1-1.375,1.121A4.511,4.511,0,0,1,86.906,41.156Zm-.258-6.945a1.411,1.411,0,0,0-1.09.455,2.357,2.357,0,0,0-.535,1.3h3.141v-.181a1.681,1.681,0,0,0-.406-1.165A1.456,1.456,0,0,0,86.648,34.211Zm8.648,2.5a5.094,5.094,0,0,1,.887-3.148,2.877,2.877,0,0,1,2.426-1.172,2.589,2.589,0,0,1,2.039.922V29h2.266V41h-2.039l-.109-.9a2.657,2.657,0,0,1-2.172,1.055A2.869,2.869,0,0,1,96.2,39.98,5.258,5.258,0,0,1,95.3,36.711Zm2.258.168a3.337,3.337,0,0,0,.414,1.823,1.349,1.349,0,0,0,1.2.634,1.511,1.511,0,0,0,1.477-.884V35.111a1.489,1.489,0,0,0-1.461-.884Q97.555,34.227,97.555,36.879Zm11,4.277a4.15,4.15,0,0,1-3.027-1.141,4.054,4.054,0,0,1-1.168-3.039v-.219a5.106,5.106,0,0,1,.492-2.277,3.612,3.612,0,0,1,1.395-1.547,3.914,3.914,0,0,1,2.059-.543,3.508,3.508,0,0,1,2.73,1.094,4.444,4.444,0,0,1,1,3.1v.922h-5.383a2.1,2.1,0,0,0,.66,1.328,2,2,0,0,0,1.395.5,2.437,2.437,0,0,0,2.039-.945l1.109,1.242a3.389,3.389,0,0,1-1.375,1.121A4.511,4.511,0,0,1,108.555,41.156Zm-.258-6.945a1.411,1.411,0,0,0-1.09.455,2.357,2.357,0,0,0-.535,1.3h3.141v-.181a1.681,1.681,0,0,0-.406-1.165A1.456,1.456,0,0,0,108.3,34.211ZM122.2,41a2.507,2.507,0,0,1-.227-.758,2.732,2.732,0,0,1-2.133.914,3,3,0,0,1-2.059-.719,2.312,2.312,0,0,1-.816-1.812,2.389,2.389,0,0,1,1-2.062,4.915,4.915,0,0,1,2.879-.727h1.039v-.484a1.393,1.393,0,0,0-.3-.937,1.183,1.183,0,0,0-.949-.352,1.345,1.345,0,0,0-.895.273.929.929,0,0,0-.324.75h-2.258a2.268,2.268,0,0,1,.453-1.359,3,3,0,0,1,1.281-.98,4.669,4.669,0,0,1,1.859-.355,3.689,3.689,0,0,1,2.48.785,2.747,2.747,0,0,1,.918,2.207v3.664a4.041,4.041,0,0,0,.336,1.82V41Zm-1.867-1.57a1.945,1.945,0,0,0,.922-.223,1.462,1.462,0,0,0,.625-.6V37.156h-.844q-1.7,0-1.8,1.172l-.008.133a.9.9,0,0,0,.3.7A1.153,1.153,0,0,0,120.328,39.43Zm13.156-2.578a5.07,5.07,0,0,1-.887,3.129,2.843,2.843,0,0,1-2.395,1.176,2.633,2.633,0,0,1-2.07-.891V44.25h-2.258v-11.7h2.094l.078.828a2.654,2.654,0,0,1,2.141-.984,2.862,2.862,0,0,1,2.43,1.156,5.207,5.207,0,0,1,.867,3.188Zm-2.258-.164a3.327,3.327,0,0,0-.418-1.82,1.361,1.361,0,0,0-1.215-.641,1.479,1.479,0,0,0-1.461.813V38.5a1.5,1.5,0,0,0,1.477.836Q131.227,39.336,131.227,36.688ZM137.266,41H135V29h2.266Zm4.242,0h-2.266V32.547h2.266Zm-2.4-10.641a1.112,1.112,0,0,1,.34-.836,1.465,1.465,0,0,1,1.848,0,1.193,1.193,0,0,1,0,1.68,1.448,1.448,0,0,1-1.836,0A1.109,1.109,0,0,1,139.109,30.359Zm7.773,8.977a1.481,1.481,0,0,0,1.016-.344,1.2,1.2,0,0,0,.406-.914h2.117a2.9,2.9,0,0,1-.469,1.574,3.093,3.093,0,0,1-1.262,1.109,3.949,3.949,0,0,1-1.77.395A3.67,3.67,0,0,1,144.063,40a4.56,4.56,0,0,1-1.047-3.184v-.148a4.508,4.508,0,0,1,1.039-3.117,3.627,3.627,0,0,1,2.852-1.164,3.555,3.555,0,0,1,2.543.9,3.2,3.2,0,0,1,.973,2.4H148.3a1.551,1.551,0,0,0-.406-1.072,1.51,1.51,0,0,0-2.223.163,3.333,3.333,0,0,0-.4,1.866v.235a3.375,3.375,0,0,0,.4,1.878A1.377,1.377,0,0,0,146.883,39.336ZM156.609,41a2.507,2.507,0,0,1-.227-.758,2.732,2.732,0,0,1-2.133.914,3,3,0,0,1-2.059-.719,2.312,2.312,0,0,1-.816-1.812,2.389,2.389,0,0,1,1-2.062,4.915,4.915,0,0,1,2.879-.727h1.039v-.484a1.393,1.393,0,0,0-.3-.937,1.183,1.183,0,0,0-.949-.352,1.345,1.345,0,0,0-.895.273.929.929,0,0,0-.324.75h-2.258a2.268,2.268,0,0,1,.453-1.359,3,3,0,0,1,1.281-.98,4.669,4.669,0,0,1,1.859-.355,3.689,3.689,0,0,1,2.48.785,2.747,2.747,0,0,1,.918,2.207v3.664a4.041,4.041,0,0,0,.336,1.82V41Zm-1.867-1.57a1.945,1.945,0,0,0,.922-.223,1.462,1.462,0,0,0,.625-.6V37.156h-.844q-1.7,0-1.8,1.172l-.008.133a.9.9,0,0,0,.3.7A1.153,1.153,0,0,0,154.742,39.43Zm9.063-.094a1.481,1.481,0,0,0,1.016-.344,1.2,1.2,0,0,0,.406-.914h2.117a2.9,2.9,0,0,1-.469,1.574,3.093,3.093,0,0,1-1.262,1.109,3.949,3.949,0,0,1-1.77.395A3.67,3.67,0,0,1,160.984,40a4.56,4.56,0,0,1-1.047-3.184v-.148a4.508,4.508,0,0,1,1.039-3.117,3.627,3.627,0,0,1,2.852-1.164,3.555,3.555,0,0,1,2.543.9,3.2,3.2,0,0,1,.973,2.4h-2.117a1.551,1.551,0,0,0-.406-1.072,1.51,1.51,0,0,0-2.223.163,3.333,3.333,0,0,0-.4,1.866v.235a3.375,3.375,0,0,0,.4,1.878A1.377,1.377,0,0,0,163.8,39.336ZM171.016,41H168.75V32.547h2.266Zm-2.4-10.641a1.112,1.112,0,0,1,.34-.836,1.465,1.465,0,0,1,1.848,0,1.193,1.193,0,0,1,0,1.68,1.448,1.448,0,0,1-1.836,0A1.109,1.109,0,0,1,168.617,30.359Zm3.906,6.336a5.013,5.013,0,0,1,.484-2.242A3.546,3.546,0,0,1,174.4,32.93a4.069,4.069,0,0,1,2.113-.539,3.849,3.849,0,0,1,2.793,1.047,4.2,4.2,0,0,1,1.207,2.844l.016.578a4.418,4.418,0,0,1-1.086,3.121,4.209,4.209,0,0,1-5.832,0,4.5,4.5,0,0,1-1.09-3.187Zm2.258.16a3.16,3.16,0,0,0,.453,1.843,1.628,1.628,0,0,0,2.578.008,3.457,3.457,0,0,0,.461-2.015,3.128,3.128,0,0,0-.461-1.831,1.5,1.5,0,0,0-1.3-.649,1.474,1.474,0,0,0-1.281.646A3.516,3.516,0,0,0,174.781,36.856ZM176.961,29h2.461l-2.164,2.422h-1.836ZM184,32.547l.07.977a2.951,2.951,0,0,1,2.43-1.133,2.453,2.453,0,0,1,2,.789,3.682,3.682,0,0,1,.672,2.359V41h-2.258V35.594a1.465,1.465,0,0,0-.312-1.043,1.4,1.4,0,0,0-1.039-.324,1.553,1.553,0,0,0-1.43.813V41h-2.258V32.547Z" transform="translate(835 4534)" fill="#12263f"/><path d="M39.145,7.523H35.66V17H33.316V7.523H29.879v-1.9h9.266Zm5.078,9.633A4.15,4.15,0,0,1,41.2,16.016a4.054,4.054,0,0,1-1.168-3.039v-.219a5.106,5.106,0,0,1,.492-2.277,3.612,3.612,0,0,1,1.395-1.547,3.914,3.914,0,0,1,2.059-.543A3.508,3.508,0,0,1,46.7,9.484a4.444,4.444,0,0,1,1,3.1v.922H42.316a2.1,2.1,0,0,0,.66,1.328,2,2,0,0,0,1.395.5,2.437,2.437,0,0,0,2.039-.945l1.109,1.242a3.389,3.389,0,0,1-1.375,1.121A4.511,4.511,0,0,1,44.223,17.156Zm-.258-6.945a1.411,1.411,0,0,0-1.09.455,2.357,2.357,0,0,0-.535,1.3H45.48v-.181a1.681,1.681,0,0,0-.406-1.165A1.456,1.456,0,0,0,43.965,10.211ZM44.168,5h2.461L44.465,7.422H42.629ZM52.5,15.336a1.481,1.481,0,0,0,1.016-.344,1.2,1.2,0,0,0,.406-.914h2.117a2.9,2.9,0,0,1-.469,1.574A3.093,3.093,0,0,1,54.3,16.762a3.949,3.949,0,0,1-1.77.395A3.67,3.67,0,0,1,49.676,16a4.56,4.56,0,0,1-1.047-3.184v-.148a4.508,4.508,0,0,1,1.039-3.117A3.627,3.627,0,0,1,52.52,8.391a3.555,3.555,0,0,1,2.543.9,3.2,3.2,0,0,1,.973,2.4H53.918a1.551,1.551,0,0,0-.406-1.072,1.51,1.51,0,0,0-2.223.163,3.333,3.333,0,0,0-.4,1.866v.235a3.375,3.375,0,0,0,.4,1.878A1.377,1.377,0,0,0,52.5,15.336ZM59.4,8.547l.07.977A2.951,2.951,0,0,1,61.9,8.391a2.453,2.453,0,0,1,2,.789,3.682,3.682,0,0,1,.672,2.359V17H62.316V11.594A1.465,1.465,0,0,0,62,10.551a1.4,1.4,0,0,0-1.039-.324,1.553,1.553,0,0,0-1.43.813V17H57.277V8.547ZM68.668,17H66.4V8.547h2.266ZM66.27,6.359a1.112,1.112,0,0,1,.34-.836,1.465,1.465,0,0,1,1.848,0,1.105,1.105,0,0,1,.344.836,1.108,1.108,0,0,1-.348.844,1.448,1.448,0,0,1-1.836,0A1.108,1.108,0,0,1,66.27,6.359Zm7.773,8.977a1.481,1.481,0,0,0,1.016-.344,1.2,1.2,0,0,0,.406-.914h2.117a2.9,2.9,0,0,1-.469,1.574,3.093,3.093,0,0,1-1.262,1.109,3.949,3.949,0,0,1-1.77.395A3.67,3.67,0,0,1,71.223,16a4.56,4.56,0,0,1-1.047-3.184v-.148a4.508,4.508,0,0,1,1.039-3.117,3.627,3.627,0,0,1,2.852-1.164,3.555,3.555,0,0,1,2.543.9,3.2,3.2,0,0,1,.973,2.4H75.465a1.551,1.551,0,0,0-.406-1.072,1.51,1.51,0,0,0-2.223.163,3.333,3.333,0,0,0-.4,1.866v.235a3.375,3.375,0,0,0,.4,1.878A1.377,1.377,0,0,0,74.043,15.336ZM83.77,17a2.507,2.507,0,0,1-.227-.758,2.732,2.732,0,0,1-2.133.914,3,3,0,0,1-2.059-.719,2.312,2.312,0,0,1-.816-1.812,2.389,2.389,0,0,1,1-2.062,4.915,4.915,0,0,1,2.879-.727h1.039v-.484a1.393,1.393,0,0,0-.3-.937,1.183,1.183,0,0,0-.949-.352,1.345,1.345,0,0,0-.895.273.929.929,0,0,0-.324.75H78.723a2.268,2.268,0,0,1,.453-1.359,3,3,0,0,1,1.281-.98,4.669,4.669,0,0,1,1.859-.355,3.689,3.689,0,0,1,2.48.785,2.747,2.747,0,0,1,.918,2.207v3.664a4.041,4.041,0,0,0,.336,1.82V17ZM81.9,15.43a1.945,1.945,0,0,0,.922-.223,1.462,1.462,0,0,0,.625-.6V13.156h-.844q-1.7,0-1.8,1.172l-.008.133a.9.9,0,0,0,.3.7A1.153,1.153,0,0,0,81.9,15.43Zm10.125-.766a.727.727,0,0,0-.41-.652,4.659,4.659,0,0,0-1.316-.426q-3.016-.633-3.016-2.562a2.323,2.323,0,0,1,.934-1.879,3.766,3.766,0,0,1,2.441-.754,4.053,4.053,0,0,1,2.574.758,2.388,2.388,0,0,1,.965,1.969H91.941a1.092,1.092,0,0,0-.312-.8A1.322,1.322,0,0,0,90.652,10a1.351,1.351,0,0,0-.883.258.814.814,0,0,0-.312.656.7.7,0,0,0,.355.605,3.657,3.657,0,0,0,1.2.4,9.8,9.8,0,0,1,1.422.379,2.336,2.336,0,0,1,1.789,2.273,2.2,2.2,0,0,1-.992,1.871,4.28,4.28,0,0,1-2.562.715,4.47,4.47,0,0,1-1.887-.379,3.166,3.166,0,0,1-1.293-1.039,2.414,2.414,0,0,1-.469-1.426H89.16a1.179,1.179,0,0,0,.445.922,1.766,1.766,0,0,0,1.109.32,1.635,1.635,0,0,0,.98-.246A.766.766,0,0,0,92.027,14.664Zm15.242-1.812a5.07,5.07,0,0,1-.887,3.129,2.843,2.843,0,0,1-2.395,1.176,2.633,2.633,0,0,1-2.07-.891V20.25H99.66V8.547h2.094l.078.828a2.654,2.654,0,0,1,2.141-.984,2.862,2.862,0,0,1,2.43,1.156,5.207,5.207,0,0,1,.867,3.188Zm-2.258-.164a3.327,3.327,0,0,0-.418-1.82,1.361,1.361,0,0,0-1.215-.641,1.478,1.478,0,0,0-1.461.813V14.5a1.5,1.5,0,0,0,1.477.836Q105.012,15.336,105.012,12.688ZM113.566,17a2.507,2.507,0,0,1-.227-.758,2.732,2.732,0,0,1-2.133.914,3,3,0,0,1-2.059-.719,2.312,2.312,0,0,1-.816-1.812,2.389,2.389,0,0,1,1-2.062,4.915,4.915,0,0,1,2.879-.727h1.039v-.484a1.393,1.393,0,0,0-.3-.937,1.183,1.183,0,0,0-.949-.352,1.345,1.345,0,0,0-.895.273.929.929,0,0,0-.324.75H108.52a2.268,2.268,0,0,1,.453-1.359,3,3,0,0,1,1.281-.98,4.669,4.669,0,0,1,1.859-.355,3.689,3.689,0,0,1,2.48.785,2.747,2.747,0,0,1,.918,2.207v3.664a4.041,4.041,0,0,0,.336,1.82V17ZM111.7,15.43a1.945,1.945,0,0,0,.922-.223,1.462,1.462,0,0,0,.625-.6V13.156H112.4q-1.7,0-1.8,1.172l-.008.133a.9.9,0,0,0,.3.7A1.153,1.153,0,0,0,111.7,15.43ZM122,10.664a6.134,6.134,0,0,0-.812-.062,1.654,1.654,0,0,0-1.68.867V17h-2.258V8.547h2.133l.063,1.008a2.092,2.092,0,0,1,1.883-1.164,2.366,2.366,0,0,1,.7.1ZM127.746,17a2.507,2.507,0,0,1-.227-.758,2.732,2.732,0,0,1-2.133.914,3,3,0,0,1-2.059-.719,2.312,2.312,0,0,1-.816-1.812,2.389,2.389,0,0,1,1-2.062,4.915,4.915,0,0,1,2.879-.727h1.039v-.484a1.393,1.393,0,0,0-.3-.937,1.183,1.183,0,0,0-.949-.352,1.345,1.345,0,0,0-.895.273.929.929,0,0,0-.324.75H122.7a2.268,2.268,0,0,1,.453-1.359,3,3,0,0,1,1.281-.98,4.669,4.669,0,0,1,1.859-.355,3.689,3.689,0,0,1,2.48.785,2.747,2.747,0,0,1,.918,2.207v3.664a4.041,4.041,0,0,0,.336,1.82V17Zm-1.867-1.57a1.945,1.945,0,0,0,.922-.223,1.462,1.462,0,0,0,.625-.6V13.156h-.844q-1.7,0-1.8,1.172l-.008.133a.9.9,0,0,0,.3.7A1.153,1.153,0,0,0,125.879,15.43ZM139.3,17.156a4.15,4.15,0,0,1-3.027-1.141,4.054,4.054,0,0,1-1.168-3.039v-.219a5.106,5.106,0,0,1,.492-2.277,3.612,3.612,0,0,1,1.395-1.547,3.914,3.914,0,0,1,2.059-.543,3.508,3.508,0,0,1,2.73,1.094,4.444,4.444,0,0,1,1,3.1v.922h-5.383a2.1,2.1,0,0,0,.66,1.328,2,2,0,0,0,1.395.5,2.437,2.437,0,0,0,2.039-.945l1.109,1.242a3.389,3.389,0,0,1-1.375,1.121A4.511,4.511,0,0,1,139.3,17.156Zm-.258-6.945a1.411,1.411,0,0,0-1.09.455,2.357,2.357,0,0,0-.535,1.3h3.141v-.181a1.681,1.681,0,0,0-.406-1.165A1.456,1.456,0,0,0,139.043,10.211Zm7.4,6.789h-2.266V5h2.266ZM13.922,41a2.507,2.507,0,0,1-.227-.758,2.732,2.732,0,0,1-2.133.914A3,3,0,0,1,9.5,40.438a2.312,2.312,0,0,1-.816-1.812,2.389,2.389,0,0,1,1-2.062,4.915,4.915,0,0,1,2.879-.727H13.6v-.484a1.393,1.393,0,0,0-.3-.937,1.183,1.183,0,0,0-.949-.352,1.345,1.345,0,0,0-.895.273.929.929,0,0,0-.324.75H8.875a2.268,2.268,0,0,1,.453-1.359,3,3,0,0,1,1.281-.98,4.669,4.669,0,0,1,1.859-.355,3.689,3.689,0,0,1,2.48.785,2.747,2.747,0,0,1,.918,2.207v3.664a4.041,4.041,0,0,0,.336,1.82V41Zm-1.867-1.57a1.945,1.945,0,0,0,.922-.223,1.462,1.462,0,0,0,.625-.6V37.156h-.844q-1.7,0-1.8,1.172l-.008.133a.9.9,0,0,0,.3.7A1.153,1.153,0,0,0,12.055,39.43Zm13.156-2.578a5.07,5.07,0,0,1-.887,3.129,2.843,2.843,0,0,1-2.395,1.176,2.633,2.633,0,0,1-2.07-.891V44.25H17.6v-11.7H19.7l.078.828a2.654,2.654,0,0,1,2.141-.984,2.862,2.862,0,0,1,2.43,1.156,5.207,5.207,0,0,1,.867,3.188Zm-2.258-.164a3.327,3.327,0,0,0-.418-1.82,1.361,1.361,0,0,0-1.215-.641,1.478,1.478,0,0,0-1.461.813V38.5a1.5,1.5,0,0,0,1.477.836Q22.953,39.336,22.953,36.688Zm8.406-2.023a6.134,6.134,0,0,0-.812-.062,1.654,1.654,0,0,0-1.68.867V41H26.609V32.547h2.133l.063,1.008a2.092,2.092,0,0,1,1.883-1.164,2.366,2.366,0,0,1,.7.1Zm4.977,6.492a4.15,4.15,0,0,1-3.027-1.141,4.054,4.054,0,0,1-1.168-3.039v-.219a5.106,5.106,0,0,1,.492-2.277,3.612,3.612,0,0,1,1.395-1.547,3.914,3.914,0,0,1,2.059-.543,3.508,3.508,0,0,1,2.73,1.094,4.444,4.444,0,0,1,1,3.1v.922H34.43a2.1,2.1,0,0,0,.66,1.328,2,2,0,0,0,1.395.5,2.437,2.437,0,0,0,2.039-.945l1.109,1.242a3.389,3.389,0,0,1-1.375,1.121A4.511,4.511,0,0,1,36.336,41.156Zm-.258-6.945a1.411,1.411,0,0,0-1.09.455,2.357,2.357,0,0,0-.535,1.3h3.141v-.181a1.681,1.681,0,0,0-.406-1.165A1.456,1.456,0,0,0,36.078,34.211Zm7.094-1.664.07.977a2.951,2.951,0,0,1,2.43-1.133,2.453,2.453,0,0,1,2,.789,3.682,3.682,0,0,1,.672,2.359V41H46.086V35.594a1.465,1.465,0,0,0-.312-1.043,1.4,1.4,0,0,0-1.039-.324,1.553,1.553,0,0,0-1.43.813V41H41.047V32.547ZM49.7,36.711a5.094,5.094,0,0,1,.887-3.148,2.877,2.877,0,0,1,2.426-1.172,2.589,2.589,0,0,1,2.039.922V29H57.32V41H55.281l-.109-.9A2.657,2.657,0,0,1,53,41.156a2.869,2.869,0,0,1-2.395-1.176A5.258,5.258,0,0,1,49.7,36.711Zm2.258.168a3.337,3.337,0,0,0,.414,1.823,1.349,1.349,0,0,0,1.2.634,1.511,1.511,0,0,0,1.477-.884V35.111a1.489,1.489,0,0,0-1.461-.884Q51.961,34.227,51.961,36.879ZM61.453,41H59.188V32.547h2.266Zm-2.4-10.641a1.112,1.112,0,0,1,.34-.836,1.465,1.465,0,0,1,1.848,0,1.193,1.193,0,0,1,0,1.68,1.448,1.448,0,0,1-1.836,0A1.108,1.108,0,0,1,59.055,30.359Zm6.852,8.82h4.133V41H63.023V39.625L67,34.367H63.141v-1.82h6.773v1.33ZM76.352,41a2.507,2.507,0,0,1-.227-.758,2.732,2.732,0,0,1-2.133.914,3,3,0,0,1-2.059-.719,2.312,2.312,0,0,1-.816-1.812,2.389,2.389,0,0,1,1-2.062,4.915,4.915,0,0,1,2.879-.727h1.039v-.484a1.393,1.393,0,0,0-.3-.937,1.183,1.183,0,0,0-.949-.352,1.345,1.345,0,0,0-.895.273.929.929,0,0,0-.324.75H71.3a2.268,2.268,0,0,1,.453-1.359,3,3,0,0,1,1.281-.98,4.669,4.669,0,0,1,1.859-.355,3.689,3.689,0,0,1,2.48.785,2.747,2.747,0,0,1,.918,2.207v3.664a4.041,4.041,0,0,0,.336,1.82V41Zm-1.867-1.57a1.945,1.945,0,0,0,.922-.223,1.462,1.462,0,0,0,.625-.6V37.156h-.844q-1.7,0-1.8,1.172l-.008.133a.9.9,0,0,0,.3.7A1.153,1.153,0,0,0,74.484,39.43Zm7.938-6.883v8.914a3.024,3.024,0,0,1-.742,2.176,2.821,2.821,0,0,1-2.141.777,4.591,4.591,0,0,1-1.117-.133V42.492a4.238,4.238,0,0,0,.711.07q1.023,0,1.023-1.086v-8.93Zm-2.445-2.187a1.112,1.112,0,0,1,.34-.836,1.47,1.47,0,0,1,1.852,0,1.2,1.2,0,0,1-.008,1.68,1.448,1.448,0,0,1-1.836,0A1.108,1.108,0,0,1,79.977,30.359Zm8.1,10.8a4.15,4.15,0,0,1-3.027-1.141,4.054,4.054,0,0,1-1.168-3.039v-.219a5.106,5.106,0,0,1,.492-2.277,3.612,3.612,0,0,1,1.395-1.547,3.914,3.914,0,0,1,2.059-.543,3.508,3.508,0,0,1,2.73,1.094,4.444,4.444,0,0,1,1,3.1v.922H86.172a2.1,2.1,0,0,0,.66,1.328,2,2,0,0,0,1.395.5,2.437,2.437,0,0,0,2.039-.945l1.109,1.242A3.389,3.389,0,0,1,90,40.754,4.511,4.511,0,0,1,88.078,41.156Zm-.258-6.945a1.411,1.411,0,0,0-1.09.455,2.357,2.357,0,0,0-.535,1.3h3.141v-.181a1.681,1.681,0,0,0-.406-1.165A1.456,1.456,0,0,0,87.82,34.211ZM101.719,41a2.507,2.507,0,0,1-.227-.758,2.732,2.732,0,0,1-2.133.914,3,3,0,0,1-2.059-.719,2.312,2.312,0,0,1-.816-1.812,2.389,2.389,0,0,1,1-2.062,4.915,4.915,0,0,1,2.879-.727H101.4v-.484a1.393,1.393,0,0,0-.3-.937,1.183,1.183,0,0,0-.949-.352,1.345,1.345,0,0,0-.895.273.929.929,0,0,0-.324.75H96.672a2.268,2.268,0,0,1,.453-1.359,3,3,0,0,1,1.281-.98,4.669,4.669,0,0,1,1.859-.355,3.689,3.689,0,0,1,2.48.785,2.747,2.747,0,0,1,.918,2.207v3.664a4.041,4.041,0,0,0,.336,1.82V41Zm-1.867-1.57a1.945,1.945,0,0,0,.922-.223,1.462,1.462,0,0,0,.625-.6V37.156h-.844q-1.7,0-1.8,1.172l-.008.133a.9.9,0,0,0,.3.7A1.153,1.153,0,0,0,99.852,39.43Zm10.609.711a2.831,2.831,0,0,1-2.312,1.016,2.67,2.67,0,0,1-2.074-.781,3.335,3.335,0,0,1-.73-2.289V32.547H107.6v5.467q0,1.322,1.2,1.322a1.63,1.63,0,0,0,1.578-.8V32.547h2.266V41h-2.125Zm6.594-9.672v2.078H118.5V34.2h-1.445v4.219a1.007,1.007,0,0,0,.18.672.9.9,0,0,0,.688.2,3.6,3.6,0,0,0,.664-.055v1.711a4.648,4.648,0,0,1-1.367.2,2.156,2.156,0,0,1-2.422-2.4V34.2h-1.234V32.547H114.8V30.469Zm2.352,6.227a5.013,5.013,0,0,1,.484-2.242,3.546,3.546,0,0,1,1.395-1.523,4.069,4.069,0,0,1,2.113-.539,3.849,3.849,0,0,1,2.793,1.047,4.2,4.2,0,0,1,1.207,2.844l.016.578a4.418,4.418,0,0,1-1.086,3.121,4.209,4.209,0,0,1-5.832,0,4.5,4.5,0,0,1-1.09-3.187Zm2.258.16a3.16,3.16,0,0,0,.453,1.843,1.628,1.628,0,0,0,2.578.008,3.457,3.457,0,0,0,.461-2.015,3.128,3.128,0,0,0-.461-1.831,1.5,1.5,0,0,0-1.3-.649,1.474,1.474,0,0,0-1.281.646A3.516,3.516,0,0,0,121.664,36.856ZM123.844,29H126.3l-2.164,2.422H122.3Zm7.039,3.547.07.977a2.951,2.951,0,0,1,2.43-1.133,2.453,2.453,0,0,1,2,.789,3.682,3.682,0,0,1,.672,2.359V41H133.8V35.594a1.465,1.465,0,0,0-.312-1.043,1.4,1.4,0,0,0-1.039-.324,1.553,1.553,0,0,0-1.43.813V41h-2.258V32.547Zm6.531,4.148a5.013,5.013,0,0,1,.484-2.242,3.546,3.546,0,0,1,1.395-1.523,4.069,4.069,0,0,1,2.113-.539,3.849,3.849,0,0,1,2.793,1.047,4.2,4.2,0,0,1,1.207,2.844l.016.578a4.418,4.418,0,0,1-1.086,3.121,4.209,4.209,0,0,1-5.832,0,4.5,4.5,0,0,1-1.09-3.187Zm2.258.16a3.16,3.16,0,0,0,.453,1.843,1.628,1.628,0,0,0,2.578.008,3.457,3.457,0,0,0,.461-2.015,3.128,3.128,0,0,0-.461-1.831,1.5,1.5,0,0,0-1.3-.649,1.474,1.474,0,0,0-1.281.646A3.516,3.516,0,0,0,139.672,36.856Zm9.258-4.309.07.945a2.971,2.971,0,0,1,2.43-1.1,2.255,2.255,0,0,1,2.242,1.289,2.9,2.9,0,0,1,2.539-1.289,2.521,2.521,0,0,1,2.047.8,3.681,3.681,0,0,1,.672,2.41V41h-2.266V35.609a1.61,1.61,0,0,0-.281-1.051,1.246,1.246,0,0,0-.992-.332,1.409,1.409,0,0,0-1.406.969l.008,5.8h-2.258V35.617a1.59,1.59,0,0,0-.289-1.062,1.259,1.259,0,0,0-.984-.328,1.463,1.463,0,0,0-1.391.8V41h-2.258V32.547ZM160.313,36.7a5.013,5.013,0,0,1,.484-2.242,3.546,3.546,0,0,1,1.395-1.523,4.069,4.069,0,0,1,2.113-.539,3.849,3.849,0,0,1,2.793,1.047,4.2,4.2,0,0,1,1.207,2.844l.016.578a4.418,4.418,0,0,1-1.086,3.121,4.209,4.209,0,0,1-5.832,0,4.5,4.5,0,0,1-1.09-3.187Zm2.258.16a3.16,3.16,0,0,0,.453,1.843,1.628,1.628,0,0,0,2.578.008,3.457,3.457,0,0,0,.461-2.015,3.128,3.128,0,0,0-.461-1.831,1.5,1.5,0,0,0-1.3-.649,1.474,1.474,0,0,0-1.281.646A3.516,3.516,0,0,0,162.57,36.856Z" transform="translate(1098 4534)" fill="#12263f"/><g transform="translate(352 4407)"><g clip-path="url(#b)"><path d="M49.211,18.858c1.092-.218,2.189-.416,3.274-.668a1.124,1.124,0,0,0,.573-.466c.7-1.021,1.307-2.107,2.07-3.074a2.439,2.439,0,0,1,1.5-.963A2.7,2.7,0,0,0,58.88,12.6a1.325,1.325,0,0,1,.935-.548c1.406.154,1.828-.7,2-1.717l3.544-.85c-.923-.915-1.616-1.442-2.6-.188a1.837,1.837,0,0,1-1.8.2c-1.374-1.2-1.432.2-1.883.823-.09.123-.054.338-.1.667l-1.789-.9.041.041A2.186,2.186,0,0,0,56.4,7.937c-.132-.1-.058-.8.14-.972,1.169-1.023,2.421-.832,3.424.557A8.75,8.75,0,0,1,61.3,5.733a2.057,2.057,0,0,1,1.49-.1c.237.049.389.514.564.769l2.9-2.016a1.417,1.417,0,0,1,1.72-1.537.853.853,0,0,0,.516-.292c.9-.881,1.815-1.186,2.932-.291.186.149.787-.063,1.1-.261,1.082-.679.974.289,1.068.573A32.423,32.423,0,0,0,76.79.567c1.415-1.126,2.5.865,3.823.069l.264.274L80.293,2.8c.871,1.207.645,1.675-1.027,1.968a36.268,36.268,0,0,0-5.122,1.285,5.746,5.746,0,0,0,3.131.383c1.92-.25,3.9-.036,5.848-.1.412-.013.814-.366,1.36-.629.648,1.022,1.462-.089,2.394-.462l.307,1.171c1.4-1.744,2.272-1.924,4.468-1.163.366.127.857-.127,1.293-.179a7.682,7.682,0,0,1,1.639-.047h4.227l.065.109-1.246.164c.16,1.239.309,2.4.455,3.535l-2.3,1.012c.3.131.475.289.625.265,1.69-.272,3.149.456,4.636,1.046,20.993,8.333,34.551,29.63,32.993,51.818-1.81,25.769-20.694,45.722-46.354,49.066a58.48,58.48,0,0,0-13.725,3.018c-1.27.492-2.476,1.146-3.9,1.816V114.11l-1.955.5-.331-1.353c-.19.317-.272.479-.377.625-.154.212-.326.412-.49.618-.193-.171-.513-.314-.557-.518-.2-.935-.6-.532-1.123-.28-1.067.517-2.182.936-3.236,1.378l-.721-2.037H62.38l.981-1.644-2.126-1.778a19.468,19.468,0,0,1-2.551.832c-1.179.213-1.781-.475-1.458-1.563.379-1.276-.916-1.349-1.295-2.059a3.81,3.81,0,0,0-1.395.505c-.619.386-1.165.938-1.73-.022a.967.967,0,0,1-.182-.541c.071-.53.2-1.052.334-1.7-.541.223-.876.473-1.194.455-.232-.013-.649-.548-.632-.569.673-.841.351-2.109,1.429-2.84A9.314,9.314,0,0,0,55.7,97.9a6.013,6.013,0,0,1,2.26-2.412c1.119-.714,1.148-1.587,1.042-2.73-.325-.015-.585-.031-.845-.038-1.735-.043-1.644-.037-1.555-1.7a5.93,5.93,0,0,0-.483-1.954c-.96-.152-1.872-.6-2.468-.335-1.8.8-3.265.316-4.8-.6-.289-.172-.9.2-1.431.332a5.606,5.606,0,0,1-.82-1.055c-.423-.867-.918-.459-1.475-.215a2.244,2.244,0,0,1-1.259.325c-1.532-.4-1.927-.2-2.327,1.4a3.042,3.042,0,0,1-.268.45A17.352,17.352,0,0,1,38.9,88.328c-.62-.384-.907-.972.038-1.451.208-.105.333-.374.585-.672a2.591,2.591,0,0,0-2.975.517c-.784.771-1.09.036-1.447-.261-.141-.117.047-.779.235-1.108a7.7,7.7,0,0,0,1.007-1.9c-.885.309-1.788.574-2.648.942a12.954,12.954,0,0,1-1.9,1c-.428.1-.974-.313-1.467-.5.316-.437.538-1.046.965-1.278,1.206-.655,2.5-1.156,3.849-1.76l-.738-1.1,1.529-1.121-.146-.4c-.488.17-.986.319-1.463.516s-.927.438-1.22.579l-.37-1.526c-1.093.554-2.048,1.042-3.007,1.521-.151.075-.36.067-.477.17-1.721,1.514-1.718,1.517-3.706,1.4l-.222-1.045-1,.6a1.328,1.328,0,0,1,.847-2.119c2.037-.647,3.109-2.406,4.606-3.67a.435.435,0,0,0,.089-.343c-.182-1.209.65-1.7,1.488-2.262a10.268,10.268,0,0,0,1.561-1.5c.749-.784,1.508-1.562,2.2-2.393A10.975,10.975,0,0,0,36.372,67.3a1.543,1.543,0,0,0,.107-1.111c-.068-.2-.543-.31-.85-.354-.721-.1-1.451-.146-2.356-.23-.579.854-.579.854-2.888.682l-.211-.964c-.654.059-1.593.381-1.817.11-.353-.425-.224-1.25-.3-1.9l-3.363-1.648c-.744.922-1.334,1.6-1.863,2.326-.445.609-.82,1.27-1.289,2.009-1.751-.341-2.214-.106-3.9,2.283-.22-.952-.811-1.691.473-2.321a8.016,8.016,0,0,0,1.857-1.7c.833-.835-.138-1.528-.371-2.135-.333-.867-.518-1.284.4-1.9.5-.334.628-1.22.924-1.857L20.7,58.3c-.706.411-1.41.827-2.12,1.23s-1.428.8-2.144,1.192c-.115.063-.326.09-.346.17-.489,2-2.205,1.22-3.552,1.6.654-1.859,2.73-2.1,3.606-3.444.866-1.332,3.006-1.887,2.6-3.893a11.226,11.226,0,0,0-2.151-.572c-.448-.031-.911.364-1.388.486a9.919,9.919,0,0,1-1.362.162c-.021-.581-.288-1.488-.022-1.689,1.5-1.129,2.154-2.833,3.215-4.252.943-1.261,2.088-2.373,2.993-3.658,1.1-1.561,1.985-3.273,3.076-4.841.46-.661,1.286-1.056,1.811-1.684,1.472-1.762,2.833-3.618,4.323-5.364a11.4,11.4,0,0,1,2.235-1.883c.2-.141.691.129,1.095.221l.829-3.156,2.274-.792c.731-1.332.344-3.161,2.43-3.243.119,0,.211-.343.34-.506.677-.857,1.362-1.708,2.043-2.562l.454.2V24.9c1.382-.02,1.139-.9,1.176-1.6.035-.671-.273-1.57,1.089-1.341V18.936c1.087-.377,1.658.072,2.469.661,1.262.916-.694,1.619.064,2.287a24.9,24.9,0,0,0,2.9-1.591c.36-.258.41-.95.6-1.444Z" transform="translate(-9.163 -0.156)" fill="#ccddc3"/><path d="M160.739,36.929c-.538,1.258-.846,2.668-2.5,3.068-.4.1-.646.694-1.043.919-.728.411-2.882-.378-3-1.2-.062-.409.476-1.081.916-1.355a15.844,15.844,0,0,1,2.513-1.033c.338.545.8.7,1.507-.157.255-.311,1.085-.15,1.653-.205l-.04-.041" transform="translate(-112.715 -26.996)" fill="#ccddc3"/><path d="M143.514,54.2a4.484,4.484,0,0,0-.936.04,5.228,5.228,0,0,0-.915.422c-.576-3.8.447-6.266,2.72-6.084-.221,1.083-.453,2.138-.638,3.2a1.1,1.1,0,0,0,.159.722c.48.733.172,1.243-.409,1.706l.02-.008" transform="translate(-103.445 -35.502)" fill="#ccddc3"/><path d="M268.536.57c.663.111,1.48-.36,1.423.786,0,.082.248.252.371.243s.248-.184.318-.315c.838-1.584,1-1.622,2.305-.555l-.611,2.459h-1.711l-1.178,1.391a4.954,4.954,0,0,1-.878-1.452A14.179,14.179,0,0,1,268.536.57" transform="translate(-196.279 0)" fill="#ccddc3"/><path d="M2.788,208.675a2.686,2.686,0,0,1-2.77,2.276,2.18,2.18,0,0,1,2.77-2.276" transform="translate(0 -152.515)" fill="#ccddc3"/><path d="M290.2.2c.155.676.282,1.229.473,2.064l-1.011.577c-.145-.344-.507-.854-.394-1,.388-.507-.657-1.854.932-1.64" transform="translate(-211.449 -0.131)" fill="#ccddc3"/><path d="M308.8,5.415l-1.047-1.1,2.8-.626.263.572L308.8,5.415" transform="translate(-224.974 -2.7)" fill="#ccddc3"/><path d="M139.317,393.666l1.994-.621c.006.27.129.652,0,.789-.488.506-1.061.919-1.991-.168" transform="translate(-101.845 -287.328)" fill="#ccddc3"/><path d="M60.809,245.793l-1.915,1.582-.288-.9,1.958-.966.244.279" transform="translate(-42.844 -179.479)" fill="#ccddc3"/></g></g><g transform="translate(609 4407)"><g clip-path="url(#b)"><path d="M49.211,18.858c1.092-.218,2.189-.416,3.274-.668a1.124,1.124,0,0,0,.573-.466c.7-1.021,1.307-2.107,2.07-3.074a2.439,2.439,0,0,1,1.5-.963A2.7,2.7,0,0,0,58.88,12.6a1.325,1.325,0,0,1,.935-.548c1.406.154,1.828-.7,2-1.717l3.544-.85c-.923-.915-1.616-1.442-2.6-.188a1.837,1.837,0,0,1-1.8.2c-1.374-1.2-1.432.2-1.883.823-.09.123-.054.338-.1.667l-1.789-.9.041.041A2.186,2.186,0,0,0,56.4,7.937c-.132-.1-.058-.8.14-.972,1.169-1.023,2.421-.832,3.424.557A8.75,8.75,0,0,1,61.3,5.733a2.057,2.057,0,0,1,1.49-.1c.237.049.389.514.564.769l2.9-2.016a1.417,1.417,0,0,1,1.72-1.537.853.853,0,0,0,.516-.292c.9-.881,1.815-1.186,2.932-.291.186.149.787-.063,1.1-.261,1.082-.679.974.289,1.068.573A32.423,32.423,0,0,0,76.79.567c1.415-1.126,2.5.865,3.823.069l.264.274L80.293,2.8c.871,1.207.645,1.675-1.027,1.968a36.268,36.268,0,0,0-5.122,1.285,5.746,5.746,0,0,0,3.131.383c1.92-.25,3.9-.036,5.848-.1.412-.013.814-.366,1.36-.629.648,1.022,1.462-.089,2.394-.462l.307,1.171c1.4-1.744,2.272-1.924,4.468-1.163.366.127.857-.127,1.293-.179a7.682,7.682,0,0,1,1.639-.047h4.227l.065.109-1.246.164c.16,1.239.309,2.4.455,3.535l-2.3,1.012c.3.131.475.289.625.265,1.69-.272,3.149.456,4.636,1.046,20.993,8.333,34.551,29.63,32.993,51.818-1.81,25.769-20.694,45.722-46.354,49.066a58.48,58.48,0,0,0-13.725,3.018c-1.27.492-2.476,1.146-3.9,1.816V114.11l-1.955.5-.331-1.353c-.19.317-.272.479-.377.625-.154.212-.326.412-.49.618-.193-.171-.513-.314-.557-.518-.2-.935-.6-.532-1.123-.28-1.067.517-2.182.936-3.236,1.378l-.721-2.037H62.38l.981-1.644-2.126-1.778a19.468,19.468,0,0,1-2.551.832c-1.179.213-1.781-.475-1.458-1.563.379-1.276-.916-1.349-1.295-2.059a3.81,3.81,0,0,0-1.395.505c-.619.386-1.165.938-1.73-.022a.967.967,0,0,1-.182-.541c.071-.53.2-1.052.334-1.7-.541.223-.876.473-1.194.455-.232-.013-.649-.548-.632-.569.673-.841.351-2.109,1.429-2.84A9.314,9.314,0,0,0,55.7,97.9a6.013,6.013,0,0,1,2.26-2.412c1.119-.714,1.148-1.587,1.042-2.73-.325-.015-.585-.031-.845-.038-1.735-.043-1.644-.037-1.555-1.7a5.93,5.93,0,0,0-.483-1.954c-.96-.152-1.872-.6-2.468-.335-1.8.8-3.265.316-4.8-.6-.289-.172-.9.2-1.431.332a5.606,5.606,0,0,1-.82-1.055c-.423-.867-.918-.459-1.475-.215a2.244,2.244,0,0,1-1.259.325c-1.532-.4-1.927-.2-2.327,1.4a3.042,3.042,0,0,1-.268.45A17.352,17.352,0,0,1,38.9,88.328c-.62-.384-.907-.972.038-1.451.208-.105.333-.374.585-.672a2.591,2.591,0,0,0-2.975.517c-.784.771-1.09.036-1.447-.261-.141-.117.047-.779.235-1.108a7.7,7.7,0,0,0,1.007-1.9c-.885.309-1.788.574-2.648.942a12.954,12.954,0,0,1-1.9,1c-.428.1-.974-.313-1.467-.5.316-.437.538-1.046.965-1.278,1.206-.655,2.5-1.156,3.849-1.76l-.738-1.1,1.529-1.121-.146-.4c-.488.17-.986.319-1.463.516s-.927.438-1.22.579l-.37-1.526c-1.093.554-2.048,1.042-3.007,1.521-.151.075-.36.067-.477.17-1.721,1.514-1.718,1.517-3.706,1.4l-.222-1.045-1,.6a1.328,1.328,0,0,1,.847-2.119c2.037-.647,3.109-2.406,4.606-3.67a.435.435,0,0,0,.089-.343c-.182-1.209.65-1.7,1.488-2.262a10.268,10.268,0,0,0,1.561-1.5c.749-.784,1.508-1.562,2.2-2.393A10.975,10.975,0,0,0,36.372,67.3a1.543,1.543,0,0,0,.107-1.111c-.068-.2-.543-.31-.85-.354-.721-.1-1.451-.146-2.356-.23-.579.854-.579.854-2.888.682l-.211-.964c-.654.059-1.593.381-1.817.11-.353-.425-.224-1.25-.3-1.9l-3.363-1.648c-.744.922-1.334,1.6-1.863,2.326-.445.609-.82,1.27-1.289,2.009-1.751-.341-2.214-.106-3.9,2.283-.22-.952-.811-1.691.473-2.321a8.016,8.016,0,0,0,1.857-1.7c.833-.835-.138-1.528-.371-2.135-.333-.867-.518-1.284.4-1.9.5-.334.628-1.22.924-1.857L20.7,58.3c-.706.411-1.41.827-2.12,1.23s-1.428.8-2.144,1.192c-.115.063-.326.09-.346.17-.489,2-2.205,1.22-3.552,1.6.654-1.859,2.73-2.1,3.606-3.444.866-1.332,3.006-1.887,2.6-3.893a11.226,11.226,0,0,0-2.151-.572c-.448-.031-.911.364-1.388.486a9.919,9.919,0,0,1-1.362.162c-.021-.581-.288-1.488-.022-1.689,1.5-1.129,2.154-2.833,3.215-4.252.943-1.261,2.088-2.373,2.993-3.658,1.1-1.561,1.985-3.273,3.076-4.841.46-.661,1.286-1.056,1.811-1.684,1.472-1.762,2.833-3.618,4.323-5.364a11.4,11.4,0,0,1,2.235-1.883c.2-.141.691.129,1.095.221l.829-3.156,2.274-.792c.731-1.332.344-3.161,2.43-3.243.119,0,.211-.343.34-.506.677-.857,1.362-1.708,2.043-2.562l.454.2V24.9c1.382-.02,1.139-.9,1.176-1.6.035-.671-.273-1.57,1.089-1.341V18.936c1.087-.377,1.658.072,2.469.661,1.262.916-.694,1.619.064,2.287a24.9,24.9,0,0,0,2.9-1.591c.36-.258.41-.95.6-1.444Z" transform="translate(-9.163 -0.156)" fill="#ccddc3"/><path d="M160.739,36.929c-.538,1.258-.846,2.668-2.5,3.068-.4.1-.646.694-1.043.919-.728.411-2.882-.378-3-1.2-.062-.409.476-1.081.916-1.355a15.844,15.844,0,0,1,2.513-1.033c.338.545.8.7,1.507-.157.255-.311,1.085-.15,1.653-.205l-.04-.041" transform="translate(-112.715 -26.996)" fill="#ccddc3"/><path d="M143.514,54.2a4.484,4.484,0,0,0-.936.04,5.228,5.228,0,0,0-.915.422c-.576-3.8.447-6.266,2.72-6.084-.221,1.083-.453,2.138-.638,3.2a1.1,1.1,0,0,0,.159.722c.48.733.172,1.243-.409,1.706l.02-.008" transform="translate(-103.445 -35.502)" fill="#ccddc3"/><path d="M268.536.57c.663.111,1.48-.36,1.423.786,0,.082.248.252.371.243s.248-.184.318-.315c.838-1.584,1-1.622,2.305-.555l-.611,2.459h-1.711l-1.178,1.391a4.954,4.954,0,0,1-.878-1.452A14.179,14.179,0,0,1,268.536.57" transform="translate(-196.279 0)" fill="#ccddc3"/><path d="M2.788,208.675a2.686,2.686,0,0,1-2.77,2.276,2.18,2.18,0,0,1,2.77-2.276" transform="translate(0 -152.515)" fill="#ccddc3"/><path d="M290.2.2c.155.676.282,1.229.473,2.064l-1.011.577c-.145-.344-.507-.854-.394-1,.388-.507-.657-1.854.932-1.64" transform="translate(-211.449 -0.131)" fill="#ccddc3"/><path d="M308.8,5.415l-1.047-1.1,2.8-.626.263.572L308.8,5.415" transform="translate(-224.974 -2.7)" fill="#ccddc3"/><path d="M139.317,393.666l1.994-.621c.006.27.129.652,0,.789-.488.506-1.061.919-1.991-.168" transform="translate(-101.845 -287.328)" fill="#ccddc3"/><path d="M60.809,245.793l-1.915,1.582-.288-.9,1.958-.966.244.279" transform="translate(-42.844 -179.479)" fill="#ccddc3"/></g></g><g transform="translate(875 4407)"><g clip-path="url(#b)"><path d="M49.211,18.858c1.092-.218,2.189-.416,3.274-.668a1.124,1.124,0,0,0,.573-.466c.7-1.021,1.307-2.107,2.07-3.074a2.439,2.439,0,0,1,1.5-.963A2.7,2.7,0,0,0,58.88,12.6a1.325,1.325,0,0,1,.935-.548c1.406.154,1.828-.7,2-1.717l3.544-.85c-.923-.915-1.616-1.442-2.6-.188a1.837,1.837,0,0,1-1.8.2c-1.374-1.2-1.432.2-1.883.823-.09.123-.054.338-.1.667l-1.789-.9.041.041A2.186,2.186,0,0,0,56.4,7.937c-.132-.1-.058-.8.14-.972,1.169-1.023,2.421-.832,3.424.557A8.75,8.75,0,0,1,61.3,5.733a2.057,2.057,0,0,1,1.49-.1c.237.049.389.514.564.769l2.9-2.016a1.417,1.417,0,0,1,1.72-1.537.853.853,0,0,0,.516-.292c.9-.881,1.815-1.186,2.932-.291.186.149.787-.063,1.1-.261,1.082-.679.974.289,1.068.573A32.423,32.423,0,0,0,76.79.567c1.415-1.126,2.5.865,3.823.069l.264.274L80.293,2.8c.871,1.207.645,1.675-1.027,1.968a36.268,36.268,0,0,0-5.122,1.285,5.746,5.746,0,0,0,3.131.383c1.92-.25,3.9-.036,5.848-.1.412-.013.814-.366,1.36-.629.648,1.022,1.462-.089,2.394-.462l.307,1.171c1.4-1.744,2.272-1.924,4.468-1.163.366.127.857-.127,1.293-.179a7.682,7.682,0,0,1,1.639-.047h4.227l.065.109-1.246.164c.16,1.239.309,2.4.455,3.535l-2.3,1.012c.3.131.475.289.625.265,1.69-.272,3.149.456,4.636,1.046,20.993,8.333,34.551,29.63,32.993,51.818-1.81,25.769-20.694,45.722-46.354,49.066a58.48,58.48,0,0,0-13.725,3.018c-1.27.492-2.476,1.146-3.9,1.816V114.11l-1.955.5-.331-1.353c-.19.317-.272.479-.377.625-.154.212-.326.412-.49.618-.193-.171-.513-.314-.557-.518-.2-.935-.6-.532-1.123-.28-1.067.517-2.182.936-3.236,1.378l-.721-2.037H62.38l.981-1.644-2.126-1.778a19.468,19.468,0,0,1-2.551.832c-1.179.213-1.781-.475-1.458-1.563.379-1.276-.916-1.349-1.295-2.059a3.81,3.81,0,0,0-1.395.505c-.619.386-1.165.938-1.73-.022a.967.967,0,0,1-.182-.541c.071-.53.2-1.052.334-1.7-.541.223-.876.473-1.194.455-.232-.013-.649-.548-.632-.569.673-.841.351-2.109,1.429-2.84A9.314,9.314,0,0,0,55.7,97.9a6.013,6.013,0,0,1,2.26-2.412c1.119-.714,1.148-1.587,1.042-2.73-.325-.015-.585-.031-.845-.038-1.735-.043-1.644-.037-1.555-1.7a5.93,5.93,0,0,0-.483-1.954c-.96-.152-1.872-.6-2.468-.335-1.8.8-3.265.316-4.8-.6-.289-.172-.9.2-1.431.332a5.606,5.606,0,0,1-.82-1.055c-.423-.867-.918-.459-1.475-.215a2.244,2.244,0,0,1-1.259.325c-1.532-.4-1.927-.2-2.327,1.4a3.042,3.042,0,0,1-.268.45A17.352,17.352,0,0,1,38.9,88.328c-.62-.384-.907-.972.038-1.451.208-.105.333-.374.585-.672a2.591,2.591,0,0,0-2.975.517c-.784.771-1.09.036-1.447-.261-.141-.117.047-.779.235-1.108a7.7,7.7,0,0,0,1.007-1.9c-.885.309-1.788.574-2.648.942a12.954,12.954,0,0,1-1.9,1c-.428.1-.974-.313-1.467-.5.316-.437.538-1.046.965-1.278,1.206-.655,2.5-1.156,3.849-1.76l-.738-1.1,1.529-1.121-.146-.4c-.488.17-.986.319-1.463.516s-.927.438-1.22.579l-.37-1.526c-1.093.554-2.048,1.042-3.007,1.521-.151.075-.36.067-.477.17-1.721,1.514-1.718,1.517-3.706,1.4l-.222-1.045-1,.6a1.328,1.328,0,0,1,.847-2.119c2.037-.647,3.109-2.406,4.606-3.67a.435.435,0,0,0,.089-.343c-.182-1.209.65-1.7,1.488-2.262a10.268,10.268,0,0,0,1.561-1.5c.749-.784,1.508-1.562,2.2-2.393A10.975,10.975,0,0,0,36.372,67.3a1.543,1.543,0,0,0,.107-1.111c-.068-.2-.543-.31-.85-.354-.721-.1-1.451-.146-2.356-.23-.579.854-.579.854-2.888.682l-.211-.964c-.654.059-1.593.381-1.817.11-.353-.425-.224-1.25-.3-1.9l-3.363-1.648c-.744.922-1.334,1.6-1.863,2.326-.445.609-.82,1.27-1.289,2.009-1.751-.341-2.214-.106-3.9,2.283-.22-.952-.811-1.691.473-2.321a8.016,8.016,0,0,0,1.857-1.7c.833-.835-.138-1.528-.371-2.135-.333-.867-.518-1.284.4-1.9.5-.334.628-1.22.924-1.857L20.7,58.3c-.706.411-1.41.827-2.12,1.23s-1.428.8-2.144,1.192c-.115.063-.326.09-.346.17-.489,2-2.205,1.22-3.552,1.6.654-1.859,2.73-2.1,3.606-3.444.866-1.332,3.006-1.887,2.6-3.893a11.226,11.226,0,0,0-2.151-.572c-.448-.031-.911.364-1.388.486a9.919,9.919,0,0,1-1.362.162c-.021-.581-.288-1.488-.022-1.689,1.5-1.129,2.154-2.833,3.215-4.252.943-1.261,2.088-2.373,2.993-3.658,1.1-1.561,1.985-3.273,3.076-4.841.46-.661,1.286-1.056,1.811-1.684,1.472-1.762,2.833-3.618,4.323-5.364a11.4,11.4,0,0,1,2.235-1.883c.2-.141.691.129,1.095.221l.829-3.156,2.274-.792c.731-1.332.344-3.161,2.43-3.243.119,0,.211-.343.34-.506.677-.857,1.362-1.708,2.043-2.562l.454.2V24.9c1.382-.02,1.139-.9,1.176-1.6.035-.671-.273-1.57,1.089-1.341V18.936c1.087-.377,1.658.072,2.469.661,1.262.916-.694,1.619.064,2.287a24.9,24.9,0,0,0,2.9-1.591c.36-.258.41-.95.6-1.444Z" transform="translate(-9.163 -0.156)" fill="#ccddc3"/><path d="M160.739,36.929c-.538,1.258-.846,2.668-2.5,3.068-.4.1-.646.694-1.043.919-.728.411-2.882-.378-3-1.2-.062-.409.476-1.081.916-1.355a15.844,15.844,0,0,1,2.513-1.033c.338.545.8.7,1.507-.157.255-.311,1.085-.15,1.653-.205l-.04-.041" transform="translate(-112.715 -26.996)" fill="#ccddc3"/><path d="M143.514,54.2a4.484,4.484,0,0,0-.936.04,5.228,5.228,0,0,0-.915.422c-.576-3.8.447-6.266,2.72-6.084-.221,1.083-.453,2.138-.638,3.2a1.1,1.1,0,0,0,.159.722c.48.733.172,1.243-.409,1.706l.02-.008" transform="translate(-103.445 -35.502)" fill="#ccddc3"/><path d="M268.536.57c.663.111,1.48-.36,1.423.786,0,.082.248.252.371.243s.248-.184.318-.315c.838-1.584,1-1.622,2.305-.555l-.611,2.459h-1.711l-1.178,1.391a4.954,4.954,0,0,1-.878-1.452A14.179,14.179,0,0,1,268.536.57" transform="translate(-196.279 0)" fill="#ccddc3"/><path d="M2.788,208.675a2.686,2.686,0,0,1-2.77,2.276,2.18,2.18,0,0,1,2.77-2.276" transform="translate(0 -152.515)" fill="#ccddc3"/><path d="M290.2.2c.155.676.282,1.229.473,2.064l-1.011.577c-.145-.344-.507-.854-.394-1,.388-.507-.657-1.854.932-1.64" transform="translate(-211.449 -0.131)" fill="#ccddc3"/><path d="M308.8,5.415l-1.047-1.1,2.8-.626.263.572L308.8,5.415" transform="translate(-224.974 -2.7)" fill="#ccddc3"/><path d="M139.317,393.666l1.994-.621c.006.27.129.652,0,.789-.488.506-1.061.919-1.991-.168" transform="translate(-101.845 -287.328)" fill="#ccddc3"/><path d="M60.809,245.793l-1.915,1.582-.288-.9,1.958-.966.244.279" transform="translate(-42.844 -179.479)" fill="#ccddc3"/></g></g><g transform="translate(1124 4407)"><g clip-path="url(#b)"><path d="M49.211,18.858c1.092-.218,2.189-.416,3.274-.668a1.124,1.124,0,0,0,.573-.466c.7-1.021,1.307-2.107,2.07-3.074a2.439,2.439,0,0,1,1.5-.963A2.7,2.7,0,0,0,58.88,12.6a1.325,1.325,0,0,1,.935-.548c1.406.154,1.828-.7,2-1.717l3.544-.85c-.923-.915-1.616-1.442-2.6-.188a1.837,1.837,0,0,1-1.8.2c-1.374-1.2-1.432.2-1.883.823-.09.123-.054.338-.1.667l-1.789-.9.041.041A2.186,2.186,0,0,0,56.4,7.937c-.132-.1-.058-.8.14-.972,1.169-1.023,2.421-.832,3.424.557A8.75,8.75,0,0,1,61.3,5.733a2.057,2.057,0,0,1,1.49-.1c.237.049.389.514.564.769l2.9-2.016a1.417,1.417,0,0,1,1.72-1.537.853.853,0,0,0,.516-.292c.9-.881,1.815-1.186,2.932-.291.186.149.787-.063,1.1-.261,1.082-.679.974.289,1.068.573A32.423,32.423,0,0,0,76.79.567c1.415-1.126,2.5.865,3.823.069l.264.274L80.293,2.8c.871,1.207.645,1.675-1.027,1.968a36.268,36.268,0,0,0-5.122,1.285,5.746,5.746,0,0,0,3.131.383c1.92-.25,3.9-.036,5.848-.1.412-.013.814-.366,1.36-.629.648,1.022,1.462-.089,2.394-.462l.307,1.171c1.4-1.744,2.272-1.924,4.468-1.163.366.127.857-.127,1.293-.179a7.682,7.682,0,0,1,1.639-.047h4.227l.065.109-1.246.164c.16,1.239.309,2.4.455,3.535l-2.3,1.012c.3.131.475.289.625.265,1.69-.272,3.149.456,4.636,1.046,20.993,8.333,34.551,29.63,32.993,51.818-1.81,25.769-20.694,45.722-46.354,49.066a58.48,58.48,0,0,0-13.725,3.018c-1.27.492-2.476,1.146-3.9,1.816V114.11l-1.955.5-.331-1.353c-.19.317-.272.479-.377.625-.154.212-.326.412-.49.618-.193-.171-.513-.314-.557-.518-.2-.935-.6-.532-1.123-.28-1.067.517-2.182.936-3.236,1.378l-.721-2.037H62.38l.981-1.644-2.126-1.778a19.468,19.468,0,0,1-2.551.832c-1.179.213-1.781-.475-1.458-1.563.379-1.276-.916-1.349-1.295-2.059a3.81,3.81,0,0,0-1.395.505c-.619.386-1.165.938-1.73-.022a.967.967,0,0,1-.182-.541c.071-.53.2-1.052.334-1.7-.541.223-.876.473-1.194.455-.232-.013-.649-.548-.632-.569.673-.841.351-2.109,1.429-2.84A9.314,9.314,0,0,0,55.7,97.9a6.013,6.013,0,0,1,2.26-2.412c1.119-.714,1.148-1.587,1.042-2.73-.325-.015-.585-.031-.845-.038-1.735-.043-1.644-.037-1.555-1.7a5.93,5.93,0,0,0-.483-1.954c-.96-.152-1.872-.6-2.468-.335-1.8.8-3.265.316-4.8-.6-.289-.172-.9.2-1.431.332a5.606,5.606,0,0,1-.82-1.055c-.423-.867-.918-.459-1.475-.215a2.244,2.244,0,0,1-1.259.325c-1.532-.4-1.927-.2-2.327,1.4a3.042,3.042,0,0,1-.268.45A17.352,17.352,0,0,1,38.9,88.328c-.62-.384-.907-.972.038-1.451.208-.105.333-.374.585-.672a2.591,2.591,0,0,0-2.975.517c-.784.771-1.09.036-1.447-.261-.141-.117.047-.779.235-1.108a7.7,7.7,0,0,0,1.007-1.9c-.885.309-1.788.574-2.648.942a12.954,12.954,0,0,1-1.9,1c-.428.1-.974-.313-1.467-.5.316-.437.538-1.046.965-1.278,1.206-.655,2.5-1.156,3.849-1.76l-.738-1.1,1.529-1.121-.146-.4c-.488.17-.986.319-1.463.516s-.927.438-1.22.579l-.37-1.526c-1.093.554-2.048,1.042-3.007,1.521-.151.075-.36.067-.477.17-1.721,1.514-1.718,1.517-3.706,1.4l-.222-1.045-1,.6a1.328,1.328,0,0,1,.847-2.119c2.037-.647,3.109-2.406,4.606-3.67a.435.435,0,0,0,.089-.343c-.182-1.209.65-1.7,1.488-2.262a10.268,10.268,0,0,0,1.561-1.5c.749-.784,1.508-1.562,2.2-2.393A10.975,10.975,0,0,0,36.372,67.3a1.543,1.543,0,0,0,.107-1.111c-.068-.2-.543-.31-.85-.354-.721-.1-1.451-.146-2.356-.23-.579.854-.579.854-2.888.682l-.211-.964c-.654.059-1.593.381-1.817.11-.353-.425-.224-1.25-.3-1.9l-3.363-1.648c-.744.922-1.334,1.6-1.863,2.326-.445.609-.82,1.27-1.289,2.009-1.751-.341-2.214-.106-3.9,2.283-.22-.952-.811-1.691.473-2.321a8.016,8.016,0,0,0,1.857-1.7c.833-.835-.138-1.528-.371-2.135-.333-.867-.518-1.284.4-1.9.5-.334.628-1.22.924-1.857L20.7,58.3c-.706.411-1.41.827-2.12,1.23s-1.428.8-2.144,1.192c-.115.063-.326.09-.346.17-.489,2-2.205,1.22-3.552,1.6.654-1.859,2.73-2.1,3.606-3.444.866-1.332,3.006-1.887,2.6-3.893a11.226,11.226,0,0,0-2.151-.572c-.448-.031-.911.364-1.388.486a9.919,9.919,0,0,1-1.362.162c-.021-.581-.288-1.488-.022-1.689,1.5-1.129,2.154-2.833,3.215-4.252.943-1.261,2.088-2.373,2.993-3.658,1.1-1.561,1.985-3.273,3.076-4.841.46-.661,1.286-1.056,1.811-1.684,1.472-1.762,2.833-3.618,4.323-5.364a11.4,11.4,0,0,1,2.235-1.883c.2-.141.691.129,1.095.221l.829-3.156,2.274-.792c.731-1.332.344-3.161,2.43-3.243.119,0,.211-.343.34-.506.677-.857,1.362-1.708,2.043-2.562l.454.2V24.9c1.382-.02,1.139-.9,1.176-1.6.035-.671-.273-1.57,1.089-1.341V18.936c1.087-.377,1.658.072,2.469.661,1.262.916-.694,1.619.064,2.287a24.9,24.9,0,0,0,2.9-1.591c.36-.258.41-.95.6-1.444Z" transform="translate(-9.163 -0.156)" fill="#ccddc3"/><path d="M160.739,36.929c-.538,1.258-.846,2.668-2.5,3.068-.4.1-.646.694-1.043.919-.728.411-2.882-.378-3-1.2-.062-.409.476-1.081.916-1.355a15.844,15.844,0,0,1,2.513-1.033c.338.545.8.7,1.507-.157.255-.311,1.085-.15,1.653-.205l-.04-.041" transform="translate(-112.715 -26.996)" fill="#ccddc3"/><path d="M143.514,54.2a4.484,4.484,0,0,0-.936.04,5.228,5.228,0,0,0-.915.422c-.576-3.8.447-6.266,2.72-6.084-.221,1.083-.453,2.138-.638,3.2a1.1,1.1,0,0,0,.159.722c.48.733.172,1.243-.409,1.706l.02-.008" transform="translate(-103.445 -35.502)" fill="#ccddc3"/><path d="M268.536.57c.663.111,1.48-.36,1.423.786,0,.082.248.252.371.243s.248-.184.318-.315c.838-1.584,1-1.622,2.305-.555l-.611,2.459h-1.711l-1.178,1.391a4.954,4.954,0,0,1-.878-1.452A14.179,14.179,0,0,1,268.536.57" transform="translate(-196.279 0)" fill="#ccddc3"/><path d="M2.788,208.675a2.686,2.686,0,0,1-2.77,2.276,2.18,2.18,0,0,1,2.77-2.276" transform="translate(0 -152.515)" fill="#ccddc3"/><path d="M290.2.2c.155.676.282,1.229.473,2.064l-1.011.577c-.145-.344-.507-.854-.394-1,.388-.507-.657-1.854.932-1.64" transform="translate(-211.449 -0.131)" fill="#ccddc3"/><path d="M308.8,5.415l-1.047-1.1,2.8-.626.263.572L308.8,5.415" transform="translate(-224.974 -2.7)" fill="#ccddc3"/><path d="M139.317,393.666l1.994-.621c.006.27.129.652,0,.789-.488.506-1.061.919-1.991-.168" transform="translate(-101.845 -287.328)" fill="#ccddc3"/><path d="M60.809,245.793l-1.915,1.582-.288-.9,1.958-.966.244.279" transform="translate(-42.844 -179.479)" fill="#ccddc3"/></g></g><g transform="translate(390 4432.098)"><g transform="translate(0 11.088)"><path d="M63.02,95.922a8.871,8.871,0,1,0-11.208-.4h-5.89l-7.437-7.437a1.108,1.108,0,0,0-1.568,0l-4.435,4.435a1.108,1.108,0,0,0,0,1.568l9.98,9.98a1.1,1.1,0,0,0,.784.325h8.871v7.762h-19l5.5-8.255-1.845-1.23-6.324,9.485H27.721v-5.544a1.108,1.108,0,0,0-1.109-1.109H17.742v-4.435a5.545,5.545,0,0,0-3.511-5.146,8.871,8.871,0,1,0-10.72,0A5.545,5.545,0,0,0,0,101.068v15.524a5.551,5.551,0,0,0,5.544,5.544v13.306H7.762V122.136h7.762v12.2a1.108,1.108,0,0,0,1.109,1.109h7.762a1.108,1.108,0,0,0,1.109-1.109V117.7a5.515,5.515,0,0,0-1.111-3.327h7.764v18.85H27.721v2.218H38.81v-2.218H34.374v-18.85h7.791a5.487,5.487,0,0,0-1.138,3.327v16.633a1.108,1.108,0,0,0,1.109,1.109H49.9a1.108,1.108,0,0,0,1.109-1.109v-12.2h7.762v13.306h2.218V122.136a5.551,5.551,0,0,0,5.544-5.544V101.068A5.545,5.545,0,0,0,63.02,95.922Zm-60.8-7.051a6.653,6.653,0,1,1,6.653,6.653A6.66,6.66,0,0,1,2.218,88.871ZM25.5,112.157H11.088v-8.871H8.871v9.98a1.108,1.108,0,0,0,1.109,1.109h9.98a3.331,3.331,0,0,1,3.327,3.327v15.524H17.742v-12.2a1.108,1.108,0,0,0-1.109-1.109H5.544a3.331,3.331,0,0,1-3.327-3.327V101.068a3.331,3.331,0,0,1,3.327-3.327H12.2a3.331,3.331,0,0,1,3.327,3.327v5.544a1.108,1.108,0,0,0,1.109,1.109H25.5Zm25.5-23.286a6.653,6.653,0,1,1,6.653,6.653A6.66,6.66,0,0,1,51.007,88.871Zm13.306,27.721a3.331,3.331,0,0,1-3.327,3.327H49.9a1.108,1.108,0,0,0-1.109,1.109v12.2H43.245V117.7a3.331,3.331,0,0,1,3.327-3.327h6.653a1.108,1.108,0,0,0,1.109-1.109v-9.98a1.108,1.108,0,0,0-1.109-1.109H43.7l-8.871-8.871L37.7,90.439l6.978,6.978a1.1,1.1,0,0,0,.784.325H60.987a3.331,3.331,0,0,1,3.327,3.327Z" transform="translate(0 -80)"/></g><g transform="translate(18.85)"><path d="M161.5,0H139.327A3.331,3.331,0,0,0,136,3.327V12.2a3.331,3.331,0,0,0,3.327,3.327h1.109v6.653a1.108,1.108,0,0,0,.684,1.025,1.1,1.1,0,0,0,.425.084,1.109,1.109,0,0,0,.784-.325l7.437-7.437H161.5A3.331,3.331,0,0,0,164.83,12.2V3.327A3.331,3.331,0,0,0,161.5,0Zm1.109,12.2a1.109,1.109,0,0,1-1.109,1.109h-12.2a1.1,1.1,0,0,0-.784.325L142.653,19.5V14.415a1.108,1.108,0,0,0-1.109-1.109h-2.218a1.109,1.109,0,0,1-1.109-1.109V3.327a1.109,1.109,0,0,1,1.109-1.109H161.5a1.109,1.109,0,0,1,1.109,1.109Z" transform="translate(-136 0)"/></g><g transform="translate(23.329 4.32)"><g transform="translate(0 0)"><rect width="7" height="2" transform="translate(0.202 0.21)"/></g></g><g transform="translate(23.329 8.64)"><g transform="translate(0 0)"><rect width="20" height="3" transform="translate(0.202 -0.11)"/></g></g><g transform="translate(31.969 4.32)"><g transform="translate(0 0)"><rect width="12" height="2" transform="translate(-0.438 0.21)"/></g></g></g><g transform="translate(645.497 4432.098)"><g transform="translate(0.003 0)"><g transform="translate(0)"><path d="M48.792,18.851A1.108,1.108,0,0,0,49.9,17.742V14.749l15.238,4.064a1.107,1.107,0,0,0,.961-.192,1.109,1.109,0,0,0,.434-.879V1.11A1.109,1.109,0,0,0,65.138.038l-16.491,4.4H44.356a1.108,1.108,0,0,0-1.109,1.109V12.2H38.213a6.653,6.653,0,1,0-9.891,0H25.506A1.109,1.109,0,0,1,24.4,11.089V1.11A1.108,1.108,0,0,0,23.289,0H18.853A1.108,1.108,0,0,0,17.744,1.11v9.98a7.772,7.772,0,0,0,7.762,7.762h1.109v6.527l-3.1,13.432h-.226a1.11,1.11,0,0,0-.857.406L1.854,64.313H0v2.218h66.53V64.313H64.682L44.1,39.216a1.11,1.11,0,0,0-.857-.406h-.226l-3.1-13.432V18.851ZM49.9,6.4,64.315,2.553V16.3L49.9,12.454Zm-4.435.256h2.218V12.2H45.465Zm-12.2-3.327a4.435,4.435,0,1,1-4.435,4.435A4.44,4.44,0,0,1,33.268,3.327ZM61.814,64.313H4.722L16.876,49.489l4.52,4.52a1.108,1.108,0,0,0,1.568,0l4.76-4.76,4.76,4.76a1.108,1.108,0,0,0,1.568,0l4.76-4.76,4.76,4.76a1.108,1.108,0,0,0,1.568,0l4.52-4.52ZM42.722,41.028l5.525,6.738-3.891,3.891L39.6,46.9a1.108,1.108,0,0,0-1.568,0l-4.76,4.76-4.76-4.76a1.108,1.108,0,0,0-1.568,0l-4.76,4.76-3.891-3.891,5.525-6.738H42.722ZM31.393,38.81l1.875-6.874,1.875,6.874Zm6.338-13.057L40.745,38.81h-3.3l-3.1-11.38a1.109,1.109,0,0,0-2.14,0l-3.1,11.38h-3.3L28.8,25.753a1.186,1.186,0,0,0,.028-.249V17.742a1.108,1.108,0,0,0-1.109-1.109H25.506a5.55,5.55,0,0,1-5.544-5.544V2.218H22.18v8.871a3.331,3.331,0,0,0,3.327,3.327H47.683v2.218H38.812A1.108,1.108,0,0,0,37.7,17.742V25.5A1.186,1.186,0,0,0,37.731,25.753Z" transform="translate(-0.003 0)"/></g></g><g transform="translate(32.159 59.878)"><rect width="2.218" height="2.218"/></g><g transform="translate(36.595 59.878)"><rect width="2.218" height="2.218"/></g><g transform="translate(27.724 59.878)"><rect width="2.218" height="2.218"/></g><g transform="translate(0.003 21.069)"><g transform="translate(0)"><path d="M24.288,152.633a1.11,1.11,0,0,0-1-.628H3.329A3.331,3.331,0,0,0,0,155.332V164.2a3.331,3.331,0,0,0,3.327,3.326H16.636a3.331,3.331,0,0,0,3.327-3.326v-5.155l4.193-5.24A1.112,1.112,0,0,0,24.288,152.633Zm-6.3,5.332a1.108,1.108,0,0,0-.243.693V164.2a1.109,1.109,0,0,1-1.109,1.109H3.329A1.109,1.109,0,0,1,2.221,164.2v-8.871a1.109,1.109,0,0,1,1.109-1.109H20.981Z" transform="translate(-0.003 -152.005)"/></g></g><g transform="translate(4.438 25.504)"><rect width="11.088" height="2.218"/></g><g transform="translate(4.438 29.939)"><rect width="11.088" height="2.218"/></g></g><g transform="translate(915 4429.598)"><path d="M69.016,13.735a1.141,1.141,0,0,0-.062-.3.954.954,0,0,0-.039-.109A1.121,1.121,0,0,0,68.7,13l0,0L56.039.338l-.006,0a1.151,1.151,0,0,0-.328-.221.936.936,0,0,0-.1-.036,1.121,1.121,0,0,0-.319-.064c-.022,0-.04-.013-.062-.013H11.505a1.15,1.15,0,0,0-1.151,1.151V27.716a6.885,6.885,0,0,0-3.981,11.4H5.753A5.759,5.759,0,0,0,0,44.87v8.054a1.15,1.15,0,0,0,1.151,1.151H4.6V67.88A1.15,1.15,0,0,0,5.753,69.03H67.88A1.15,1.15,0,0,0,69.03,67.88V13.806C69.03,13.781,69.018,13.76,69.016,13.735ZM56.375,3.928,65.1,12.656H56.375ZM11.505,29.913a4.6,4.6,0,1,1-4.6,4.6A4.607,4.607,0,0,1,11.505,29.913Zm4.6,14.957v21.86H12.656V54.074h-2.3V66.729H6.9V44.87H4.6v6.9H2.3v-6.9a3.456,3.456,0,0,1,3.452-3.452H23.01a1.147,1.147,0,0,0,.813-.337l6.09-6.09,1.825,1.825-6.9,6.9H17.258A1.15,1.15,0,0,0,16.107,44.87Zm50.622,21.86H18.408V46.02h6.9a1.147,1.147,0,0,0,.813-.337l8.054-8.054a1.149,1.149,0,0,0,0-1.627l-3.452-3.452a1.149,1.149,0,0,0-1.627,0l-6.566,6.566h-5.9a6.885,6.885,0,0,0-3.981-11.4V2.3H54.074V13.806a1.15,1.15,0,0,0,1.151,1.151H66.729Z"/><g transform="translate(18.408 9.204)"><path d="M170.569,72.054a3.449,3.449,0,0,0-3.319,2.555l-9.665,2.9a3.414,3.414,0,0,0-5.249-1.251L145.193,68.1a3.5,3.5,0,0,0,.064-.644,3.452,3.452,0,1,0-6.844.583L132.6,76.867a3.4,3.4,0,0,0-1.148-.212,3.452,3.452,0,1,0,3.452,3.452,3.417,3.417,0,0,0-.51-1.78l5.349-8.126a3.381,3.381,0,0,0,4.19-.052l7.142,8.163a3.5,3.5,0,0,0-.064.644,3.444,3.444,0,0,0,6.771.9l9.665-2.9a3.447,3.447,0,1,0,3.122-4.9Zm-39.117,9.2a1.151,1.151,0,1,1,1.151-1.151A1.152,1.152,0,0,1,131.451,81.258ZM141.806,68.6a1.151,1.151,0,1,1,1.15-1.151A1.152,1.152,0,0,1,141.806,68.6Zm12.656,11.505a1.151,1.151,0,1,1,1.15-1.151A1.152,1.152,0,0,1,154.462,80.107Zm16.107-3.452a1.151,1.151,0,1,1,1.151-1.151A1.152,1.152,0,0,1,170.569,76.656Z" transform="translate(-128 -64)"/></g><g transform="translate(27.612 28.763)"><path d="M224.214,233.365V201.15a1.15,1.15,0,0,0-1.15-1.15h-6.9a1.15,1.15,0,0,0-1.15,1.15v16.107h-4.6V209.2a1.15,1.15,0,0,0-1.15-1.151h-6.9A1.15,1.15,0,0,0,201.2,209.2V221.86h-5.753a1.15,1.15,0,0,0-1.151,1.15v10.355H192v2.3h34.515v-2.3Zm-23.01,0h-4.6v-9.2h4.6Zm6.9-14.957v14.957h-4.6v-23.01h4.6Zm6.9,14.957h-4.6V219.559h4.6Zm6.9,0h-4.6V202.3h4.6Z" transform="translate(-192 -200)"/></g></g><g transform="translate(1159.993 4430.359)"><path d="M54.839,0a15.161,15.161,0,0,0-1.167,30.277v7.06H40.208a7,7,0,1,0-10.408,0H16.335v-7.06a15.168,15.168,0,1,0-2.334,0V44.338A1.166,1.166,0,0,0,15.168,45.5H28v8.079l-2.32,15.08a1.165,1.165,0,0,0,1.153,1.344H32.67a1.167,1.167,0,0,0,1.153-.989L35,61.345l1.181,7.673a1.167,1.167,0,0,0,1.153.989h5.834a1.167,1.167,0,0,0,1.153-1.345L42,53.584V45.5H54.839a1.166,1.166,0,0,0,1.167-1.167V30.277A15.161,15.161,0,0,0,54.839,0ZM35,28a4.667,4.667,0,1,1-4.667,4.667A4.672,4.672,0,0,1,35,28ZM2.334,15.168A12.835,12.835,0,1,1,15.168,28,12.85,12.85,0,0,1,2.334,15.168Zm51.339,28H40.838a1.166,1.166,0,0,0-1.167,1.167v9.334a1.124,1.124,0,0,0,.014.177l2.126,13.824H38.338L36.156,53.495a1.166,1.166,0,0,0-2.306,0L31.669,67.674H28.2L30.323,53.85a1.124,1.124,0,0,0,.014-.177V44.338a1.166,1.166,0,0,0-1.167-1.167H16.335v-3.5H53.672ZM54.839,28A12.835,12.835,0,1,1,67.674,15.168,12.85,12.85,0,0,1,54.839,28Z"/><g transform="translate(7.001 7.001)"><path d="M56.168,48a8.168,8.168,0,1,0,8.168,8.168A8.178,8.178,0,0,0,56.168,48Zm0,14A5.834,5.834,0,1,1,62,56.168,5.841,5.841,0,0,1,56.168,62Z" transform="translate(-48 -48)"/></g><g transform="translate(48.18 8.509)"><path d="M343.662,59.994l-1.65-1.65L337,63.353l-5.009-5.009-1.65,1.65L335.353,65l-5.009,5.009,1.65,1.65L337,66.653l5.009,5.009,1.65-1.65L338.653,65Z" transform="translate(-330.344 -58.344)"/></g></g></g></svg>