<svg xmlns="http://www.w3.org/2000/svg" xmlns:xlink="http://www.w3.org/1999/xlink" width="190" height="102" viewBox="0 0 190 102">
  <defs>
    <clipPath id="clip-path">
      <rect id="Rect치ngulo_291709" data-name="Rect치ngulo 291709" width="116.89" height="75.39" transform="translate(0 12)" fill="#ba4f7e"/>
    </clipPath>
  </defs>
  <g id="Grupo_874884" data-name="Grupo 874884" transform="translate(-1020 -5077)">
    <circle id="Elipse_5467" data-name="Elipse 5467" cx="51" cy="51" r="51" transform="translate(1064 5077)" fill="#fff"/>
    <g id="Grupo_874856" data-name="Grupo 874856" transform="translate(1057 5078)">
      <g id="Grupo_874855" data-name="Grupo 874855" clip-path="url(#clip-path)">
        <path id="Trazado_596051" data-name="Trazado 596051" d="M138.23,35.717V70.449c0,.906-.092.981-1.205.981H113c-1.029,0-1.178-.121-1.178-.97q0-34.759,0-69.519c0-.828.137-.941,1.132-.941h24.16c1.046,0,1.119.062,1.119.93q0,17.393,0,34.786m-10.7-23.258c0,.792.016,1.584-.007,2.375-.012.394.162.545.651.54q2.568-.023,5.137,0c.47,0,.61-.158.607-.517-.012-1.583-.014-3.167,0-4.75,0-.369-.151-.518-.609-.515q-2.569.017-5.137,0c-.486,0-.662.154-.651.547.023.773.007,1.547.007,2.321m6.383,24.179c0-.794-.019-1.588.008-2.381.014-.407-.186-.536-.661-.532-1.673.014-3.345.018-5.018,0-.552-.006-.727.164-.721.606.023,1.533.02,3.066,0,4.6-.005.407.134.588.671.582q2.541-.03,5.084,0c.505.006.652-.161.642-.545-.021-.775-.006-1.551-.006-2.327m-11.292-.006c0-.793-.018-1.587.008-2.379.012-.369-.139-.525-.6-.522q-2.573.015-5.146,0c-.439,0-.632.123-.629.5q.024,2.379,0,4.758c0,.366.142.518.606.514q2.573-.021,5.146,0c.447,0,.634-.111.621-.5-.027-.792-.008-1.586-.008-2.379m0-24.113c0-.811-.015-1.622.007-2.433.01-.35-.151-.489-.572-.488q-2.606.01-5.212,0c-.416,0-.59.13-.588.482q.019,2.406,0,4.812c0,.347.151.484.578.481q2.606-.016,5.212,0c.421,0,.59-.119.581-.475-.022-.793-.007-1.586-.007-2.379m0,48.247c0-.793-.019-1.587.008-2.38.013-.373-.149-.523-.6-.521q-2.574.013-5.149,0c-.443,0-.626.133-.623.511q.025,2.38,0,4.76c0,.366.152.524.611.522q2.574-.015,5.149,0c.458,0,.623-.141.613-.513-.023-.793-.007-1.587-.007-2.38m0-36.192c0-.811-.014-1.622.007-2.432.009-.349-.148-.484-.575-.482q-2.605.015-5.211,0c-.424,0-.587.132-.585.48q.017,2.406,0,4.811c0,.351.156.474.581.471q2.605-.019,5.211,0c.423,0,.59-.112.58-.469-.023-.792-.007-1.586-.007-2.379m4.909,0c0,.775.018,1.55-.008,2.324-.013.4.163.536.652.53q2.539-.027,5.078,0c.475,0,.669-.109.664-.518-.02-1.567-.016-3.135,0-4.7,0-.382-.14-.552-.643-.547q-2.539.027-5.078,0c-.54-.006-.681.188-.67.588.022.774.006,1.549.007,2.324m6.378,24.1c0-.775-.013-1.55.006-2.324.009-.38-.133-.555-.639-.55q-2.539.027-5.078,0c-.537-.006-.678.182-.674.586q.025,2.324,0,4.648c0,.4.155.539.648.533,1.692-.019,3.386-.023,5.077,0,.544.008.681-.167.667-.571-.025-.774-.007-1.549-.007-2.324m-11.287.064c0-.811-.018-1.622.008-2.433.012-.38-.165-.507-.617-.5q-2.572.019-5.145,0c-.465,0-.613.15-.61.515q.021,2.379,0,4.758c0,.333.108.494.557.49q2.638-.02,5.277,0c.4,0,.544-.12.536-.447-.019-.793-.006-1.586-.006-2.379m11.287,12.044c0-.775-.026-1.551.01-2.325.021-.461-.208-.593-.736-.587q-2.441.026-4.882,0c-.552-.007-.79.125-.781.614.029,1.532.026,3.064,0,4.6-.007.459.217.595.744.589q2.474-.025,4.948,0c.509.005.715-.138.7-.563-.025-.775-.007-1.55-.007-2.325" transform="translate(-81.029 15.735)" fill="#ba4f7e"/>
        <path id="Trazado_596052" data-name="Trazado 596052" d="M246.545,93q0,17.266,0,34.532c0,1.07-.1,1.177-1.161,1.177H221.353c-1.049,0-1.178-.128-1.178-1.169q0-18.751-.009-37.5a1.911,1.911,0,0,1,.43-1.265q12.308-15.595,24.6-31.2c.218-.277.447-.51.826-.392a.775.775,0,0,1,.522.829c0,.2,0,.4,0,.594V93M232.17,87.3c0-1.627,0-3.253,0-4.88,0-.383.017-.776-.418-.946-.459-.18-.735.107-1,.434-2.206,2.765-4.406,5.536-6.633,8.284a2.679,2.679,0,0,0-.658,1.989c.058.789.2,1,.963,1q3.4.012,6.792,0c.762,0,.946-.207.948-1q0-2.44,0-4.88m-4.41,23.183c1.165,0,2.329,0,3.494,0,.707,0,.889-.189.892-.9q.009-2.044,0-4.088c0-.712-.185-.9-.9-.9-2.307-.006-4.614,0-6.922-.006-.615,0-.878.275-.873.879q.016,2.077,0,4.153c-.005.612.27.879.879.872,1.142-.015,2.285,0,3.428,0m11.441,0c1.164,0,2.329.006,3.493,0,.726,0,.889-.167.893-.9q.012-2.043,0-4.087c0-.739-.164-.905-.886-.907-2.307-.006-4.614,0-6.921-.007-.613,0-.872.253-.863.873.021,1.384,0,2.768.009,4.153,0,.713.169.87.913.874,1.12.006,2.241,0,3.361,0M227.823,95.957c-1.186,0-2.373.013-3.559-.006-.555-.009-.812.219-.81.776q.011,2.142,0,4.284c0,.546.252.8.8.8q3.559-.011,7.118,0c.515,0,.772-.235.771-.758q-.005-2.175,0-4.35c0-.516-.235-.756-.767-.749-1.186.016-2.372,0-3.559,0m-.012,17.3c-1.164,0-2.329.011-3.493,0-.616-.008-.873.267-.866.878q.024,2.076,0,4.153c-.007.583.25.861.82.862q3.526,0,7.053,0c.569,0,.835-.268.829-.853-.015-1.384,0-2.769-.007-4.153,0-.71-.175-.878-.908-.883-1.142-.007-2.285,0-3.427,0m11.461-34.643c-1.164,0-2.328.014-3.491-.006-.612-.01-.875.233-.864.86q.036,2.075,0,4.15c-.01.619.245.875.86.871q3.491-.019,6.982,0c.589,0,.836-.259.832-.835-.01-1.405-.012-2.811,0-4.216.006-.583-.242-.838-.83-.829-1.163.018-2.327.005-3.491.005m.023,8.646c-1.166,0-2.333.01-3.5,0-.6-.007-.889.224-.879.858q.033,2.079,0,4.159c-.011.627.248.868.863.865q3.465-.021,6.931,0c.6,0,.894-.215.885-.848-.019-1.386-.017-2.773,0-4.159.007-.61-.246-.886-.867-.876-1.144.018-2.288.005-3.432.005m-.027,8.7c-1.188,0-2.375.013-3.563-.006-.568-.009-.79.243-.785.795.013,1.429.01,2.859,0,4.289,0,.521.232.773.754.773q3.563,0,7.125,0c.559,0,.793-.269.79-.812-.007-1.408-.01-2.815,0-4.223,0-.579-.228-.838-.829-.826-1.165.025-2.331.007-3.5.007m.038,17.3c-1.144,0-2.288,0-3.432,0-.807,0-.944.132-.947.906-.006,1.364.016,2.729-.009,4.093-.012.62.248.893.853.892q3.5,0,7,0c.573,0,.835-.267.828-.853-.016-1.386,0-2.773-.008-4.159,0-.728-.161-.873-.914-.878-1.122-.007-2.244,0-3.367,0m4.283-42.1q0-1.779,0-3.558c0-.387-.023-.767-.455-.93s-.7.111-.941.415q-2.949,3.672-5.9,7.341c-.232.288-.425.589-.251.957s.533.4.9.4c1.867-.008,3.734,0,5.6,0,.837,0,1.037-.2,1.044-1.058.01-1.186,0-2.372,0-3.558" transform="translate(-159.542 -41.411)" fill="#ba4f7e"/>
        <path id="Trazado_596053" data-name="Trazado 596053" d="M326.662,232.073q0-6.237,0-12.474c0-.923.136-1.064,1.072-1.065q12.406,0,24.812,0c.934,0,1.057.131,1.057,1.068q0,12.539,0,25.079c0,.937-.121,1.065-1.06,1.065q-12.406,0-24.813,0c-.932,0-1.068-.142-1.068-1.068q0-6.3,0-12.606m19.545-1.846c-1.188,0-2.376.012-3.564-.005-.6-.009-.92.237-.922.846,0,1.408-.006,2.816,0,4.224a.725.725,0,0,0,.823.805q3.63,0,7.26,0c.563,0,.853-.252.849-.84q-.016-2.079,0-4.158c0-.608-.275-.881-.884-.875-1.188.013-2.376,0-3.564,0m-.049-2.754c1.188,0,2.375.006,3.563,0,.742,0,.926-.193.93-.944q.009-1.98,0-3.959c0-.763-.178-.943-.926-.944q-3.53-.008-7.06,0c-.742,0-.936.192-.943.939q-.016,1.98,0,3.959c.006.738.214.945.938.949,1.166.007,2.331,0,3.5,0M334.5,221.621c-1.187,0-2.375,0-3.563,0-.744,0-.915.159-.921.878-.012,1.364,0,2.727-.007,4.091-.005.6.243.889.865.886q3.6-.017,7.191,0c.618,0,.868-.278.861-.886-.017-1.364,0-2.727-.008-4.091,0-.7-.186-.873-.921-.876-1.166-.006-2.331,0-3.5,0m-.07,8.605c-1.166,0-2.331-.006-3.5,0-.728,0-.912.178-.918.891-.011,1.364.006,2.727-.007,4.091-.006.607.258.89.868.889q3.6-.01,7.191,0c.6,0,.868-.28.859-.894-.021-1.341,0-2.683-.008-4.025,0-.75-.189-.945-.926-.949-1.187-.008-2.375,0-3.563,0" transform="translate(-236.713 -158.358)" fill="#ba4f7e"/>
        <path id="Trazado_596054" data-name="Trazado 596054" d="M13.669,237.892H26.076c1.067,0,1.2.12,1.2,1.156q0,9.67,0,19.339c0,.965-.157,1.122-1.105,1.122-2.508,0-5.016-.012-7.524.012-.5,0-.633-.142-.631-.634.019-3.894.011-7.788.01-11.683,0-.979-.126-1.1-1.1-1.1h-6.8c-.977,0-1.122.148-1.123,1.156,0,3.85-.01,7.7.011,11.551,0,.528-.108.721-.68.714-2.442-.031-4.884-.01-7.326-.015-.839,0-1.007-.172-1.008-1q0-9.8,0-19.6c0-.843.159-1.007,1-1.008q6.336,0,12.671,0" transform="translate(0 -172.386)" fill="#ba4f7e"/>
        <path id="Trazado_596055" data-name="Trazado 596055" d="M14.081,181.679q-6.236,0-12.471,0c-.385,0-.825.1-1.038-.367-.191-.422.107-.708.329-1q6.092-8,12.19-16c.08-.1.161-.209.245-.311.513-.615.87-.619,1.375.025,1.058,1.35,2.1,2.71,3.151,4.067q4.679,6.054,9.357,12.109a4.17,4.17,0,0,1,.387.533.607.607,0,0,1-.463.935,3.832,3.832,0,0,1-.593.013H14.081" transform="translate(-0.371 -118.506)" fill="#ba4f7e"/>
        <path id="Trazado_596056" data-name="Trazado 596056" d="M340.108,194.722H327.7c-.957,0-1.038-.083-1.039-1.065,0-1.408,0-2.816,0-4.224,0-.834.112-.94.964-.94q12.539,0,25.079,0c.8,0,.871.069.873.865q0,2.244,0,4.488c0,.8-.071.874-.865.875q-6.3,0-12.606,0" transform="translate(-236.712 -136.589)" fill="#ba4f7e"/>
      </g>
    </g>
    <rect id="Rect치ngulo_291777" data-name="Rect치ngulo 291777" width="190" height="102" transform="translate(1020 5077)" fill="none"/>
  </g>
</svg>
