<svg xmlns="http://www.w3.org/2000/svg" xmlns:xlink="http://www.w3.org/1999/xlink" width="190" height="102" viewBox="0 0 190 102">
  <defs>
    <clipPath id="clip-path">
      <rect id="Rect치ngulo_291705" data-name="Rect치ngulo 291705" width="92.267" height="92.239" fill="#ba4f7e"/>
    </clipPath>
  </defs>
  <g id="Grupo_874888" data-name="Grupo 874888" transform="translate(-180 -5077)">
    <circle id="Elipse_5465" data-name="Elipse 5465" cx="51" cy="51" r="51" transform="translate(224 5077)" fill="#fff"/>
    <g id="Grupo_874848" data-name="Grupo 874848" transform="translate(229 5082)">
      <g id="Grupo_874847" data-name="Grupo 874847" clip-path="url(#clip-path)">
        <path id="Trazado_596027" data-name="Trazado 596027" d="M120.014,94.257A26.528,26.528,0,1,1,92.857,67.785a26.536,26.536,0,0,1,27.157,26.471M89.362,83.906c0-.98-.035-1.637.01-2.288.043-.627-.2-.675-.679-.44-.1.051-.218.081-.326.126a13.762,13.762,0,1,0,18.5,9.59,13.376,13.376,0,0,0-8.6-9.729c-.5-.2-.7-.15-.679.459.04,1.238.03,2.479,0,3.719a.971.971,0,0,0,.548.994A9.038,9.038,0,1,1,85.148,97.574a8.729,8.729,0,0,1,2.637-10.423c1.35-1.013,1.9-2,1.577-3.244m6.088-1.076c0-1.427.008-2.854,0-4.282A2,2,0,0,0,93.5,76.418a2.07,2.07,0,0,0-1.96,2.121q.1,4.245,0,8.492a2.066,2.066,0,0,0,1.95,2.14,2.011,2.011,0,0,0,1.956-2.129c.009-1.4,0-2.808,0-4.212" transform="translate(-47.357 -47.938)" fill="#ba4f7e"/>
        <path id="Trazado_596028" data-name="Trazado 596028" d="M260.989,213.079a2.207,2.207,0,0,1-3.206,2q-5-2.814-9.966-5.7A2.195,2.195,0,0,1,250,205.569q5,2.826,9.971,5.695a2.148,2.148,0,0,1,1.023,1.815" transform="translate(-174.52 -145.198)" fill="#ba4f7e"/>
        <path id="Trazado_596029" data-name="Trazado 596029" d="M31.754,85.545a2.245,2.245,0,0,1-1.023-.333q-4.83-2.769-9.664-5.532a2.205,2.205,0,1,1,2.177-3.828q4.866,2.777,9.724,5.565A2.172,2.172,0,0,1,34,83.934a2.27,2.27,0,0,1-2.242,1.611" transform="translate(-14.045 -53.416)" fill="#ba4f7e"/>
        <path id="Trazado_596030" data-name="Trazado 596030" d="M77.722,260.879a2.19,2.19,0,0,1-1.971-3.191c1.882-3.358,3.806-6.692,5.735-10.024a2.2,2.2,0,0,1,3.752,2.3c-1.506,2.659-3.035,5.306-4.554,7.958-.348.607-.7,1.213-1.038,1.825a2.1,2.1,0,0,1-1.924,1.132" transform="translate(-53.387 -174.459)" fill="#ba4f7e"/>
        <path id="Trazado_596031" data-name="Trazado 596031" d="M207.545,33.981A2.179,2.179,0,0,1,205.6,30.8q2.826-5.038,5.74-10.027a2.192,2.192,0,0,1,3.814,2.149c-1.9,3.377-3.832,6.736-5.766,10.093a2.081,2.081,0,0,1-1.84.97" transform="translate(-145.222 -13.973)" fill="#ba4f7e"/>
        <path id="Trazado_596032" data-name="Trazado 596032" d="M248.9,85.219a2.187,2.187,0,0,1-1.185-4.053q4.935-2.861,9.89-5.686a2.2,2.2,0,0,1,2.188,3.81c-3.27,1.9-6.552,3.769-9.825,5.658a1.831,1.831,0,0,1-1.067.272" transform="translate(-174.455 -53.184)" fill="#ba4f7e"/>
        <path id="Trazado_596033" data-name="Trazado 596033" d="M34.2,207.924a2.056,2.056,0,0,1-1.069,1.707c-3.276,1.886-6.55,3.776-9.835,5.646a2.2,2.2,0,1,1-2.18-3.818q4.877-2.822,9.771-5.616a2.211,2.211,0,0,1,3.313,2.081" transform="translate(-14.146 -145.366)" fill="#ba4f7e"/>
        <path id="Trazado_596034" data-name="Trazado 596034" d="M77.5,20a2.131,2.131,0,0,1,1.955,1.136Q82.238,26,85.031,30.855a2.241,2.241,0,0,1-.775,3.053,2.218,2.218,0,0,1-3.033-.84q-2.8-4.85-5.582-9.712A2.17,2.17,0,0,1,77.5,20" transform="translate(-53.264 -14.148)" fill="#ba4f7e"/>
        <path id="Trazado_596035" data-name="Trazado 596035" d="M215.652,258.422a2.194,2.194,0,0,1-4.083,1.239q-2.857-4.937-5.684-9.892a2.226,2.226,0,0,1,.8-2.94,2.19,2.19,0,0,1,2.966.692c1.954,3.343,3.87,6.709,5.8,10.067a1.529,1.529,0,0,1,.2.835" transform="translate(-145.424 -174.352)" fill="#ba4f7e"/>
        <path id="Trazado_596036" data-name="Trazado 596036" d="M269.3,154.39c-1.871,0-3.742,0-5.612,0a2.185,2.185,0,1,1-.016-4.37q5.682-.015,11.365,0a2.185,2.185,0,0,1-.054,4.37c-1.894.006-3.788,0-5.682,0" transform="translate(-184.92 -106.094)" fill="#ba4f7e"/>
        <path id="Trazado_596037" data-name="Trazado 596037" d="M150.113,7.791c0-1.847,0-3.695,0-5.542A2.171,2.171,0,0,1,152.291,0a2.14,2.14,0,0,1,2.2,2.222q.011,5.647,0,11.294a2.209,2.209,0,0,1-2.17,2.2,2.232,2.232,0,0,1-2.2-2.244c-.006-1.894,0-3.788,0-5.682" transform="translate(-106.166 0)" fill="#ba4f7e"/>
        <path id="Trazado_596038" data-name="Trazado 596038" d="M7.878,154.393c-1.871,0-3.742,0-5.613,0a2.187,2.187,0,1,1-.012-4.372q5.613-.011,11.226,0a2.187,2.187,0,1,1,.012,4.373c-1.871,0-3.742,0-5.613,0" transform="translate(0 -106.097)" fill="#ba4f7e"/>
        <path id="Trazado_596039" data-name="Trazado 596039" d="M154.49,269.3c0,1.848.006,3.7,0,5.542a2.187,2.187,0,1,1-4.373,0q-.005-5.613,0-11.225a2.187,2.187,0,1,1,4.373,0c.008,1.894,0,3.789,0,5.683" transform="translate(-106.166 -184.848)" fill="#ba4f7e"/>
      </g>
    </g>
    <rect id="Rect치ngulo_291781" data-name="Rect치ngulo 291781" width="190" height="102" transform="translate(180 5077)" fill="none"/>
  </g>
</svg>
