<svg xmlns="http://www.w3.org/2000/svg" xmlns:xlink="http://www.w3.org/1999/xlink" width="190" height="102" viewBox="0 0 190 102">
  <defs>
    <clipPath id="clip-path">
      <rect id="Rect치ngulo_291708" data-name="Rect치ngulo 291708" width="90.097" height="90.065" fill="#6c9883"/>
    </clipPath>
  </defs>
  <g id="Grupo_874885" data-name="Grupo 874885" transform="translate(-810 -5077)">
    <circle id="Elipse_5464" data-name="Elipse 5464" cx="51" cy="51" r="51" transform="translate(854 5077)" fill="#fff"/>
    <g id="Grupo_874854" data-name="Grupo 874854" transform="translate(860 5083)">
      <g id="Grupo_874853" data-name="Grupo 874853" clip-path="url(#clip-path)">
        <path id="Trazado_596045" data-name="Trazado 596045" d="M136.71,209.228h15.4c.859,0,.894.037.895.914q0,4.322,0,8.644c0,.808-.053.865-.828.866H121.263c-.744,0-.811-.068-.812-.827q0-4.379,0-8.759c0-.78.059-.837.859-.837h15.4" transform="translate(-91.682 -159.257)" fill="#6c9883"/>
        <path id="Trazado_596046" data-name="Trazado 596046" d="M136.714,124.325H152.17c.8,0,.834.032.834.846q0,4.379,0,8.758c0,.732-.058.79-.778.79H121.257c-.755,0-.806-.05-.806-.822q0-4.379,0-8.758c0-.768.048-.814.807-.815h15.456" transform="translate(-91.682 -94.632)" fill="#6c9883"/>
        <path id="Trazado_596047" data-name="Trazado 596047" d="M310.873,139.008q0-7.3,0-14.6a3.883,3.883,0,0,1,.009-.514c.055-.41.3-.5.634-.244a3.3,3.3,0,0,1,.287.279L326.3,138.422c.568.568.567.663-.014,1.244l-14.492,14.492a3.515,3.515,0,0,1-.287.279c-.329.26-.565.164-.621-.259a3.928,3.928,0,0,1-.01-.515q0-7.327,0-14.655" transform="translate(-236.624 -94.009)" fill="#6c9883"/>
        <path id="Trazado_596048" data-name="Trazado 596048" d="M15.841,139.042q0,7.3,0,14.606a2.486,2.486,0,0,1-.011.514c-.029.135-.1.318-.206.364s-.282-.035-.4-.106a1.972,1.972,0,0,1-.33-.315L.475,139.686c-.634-.634-.634-.686,0-1.324L14.939,123.9a2.465,2.465,0,0,1,.331-.315c.278-.189.479-.092.55.219a2.633,2.633,0,0,1,.021.57q0,7.332,0,14.663" transform="translate(0 -93.999)" fill="#6c9883"/>
        <path id="Trazado_596049" data-name="Trazado 596049" d="M139.174,15.8H124.4a4.007,4.007,0,0,1-.458-.006c-.392-.045-.426-.27-.243-.559a2.107,2.107,0,0,1,.314-.332L138.469.451c.6-.6.718-.6,1.3-.021l14.453,14.453a1.12,1.12,0,0,1,.236.247.911.911,0,0,1,.148.5c-.015.082-.276.164-.427.167-.84.016-1.679.008-2.519.008H139.174" transform="translate(-94.076 0)" fill="#6c9883"/>
        <path id="Trazado_596050" data-name="Trazado 596050" d="M154.854,311.2c-.181.212-.3.377-.447.521q-4.045,4.051-8.094,8.1l-6.477,6.477c-.539.538-.665.54-1.21-.006q-7.247-7.244-14.491-14.491a1.557,1.557,0,0,1-.275-.289c-.07-.122-.155-.3-.115-.4s.222-.167.355-.2a1.54,1.54,0,0,1,.4-.011H153.98a1.862,1.862,0,0,1,.511.027c.121.035.215.162.363.282" transform="translate(-94.183 -236.638)" fill="#6c9883"/>
      </g>
    </g>
    <rect id="Rect치ngulo_291778" data-name="Rect치ngulo 291778" width="190" height="102" transform="translate(810 5077)" fill="none"/>
  </g>
</svg>
