<svg xmlns="http://www.w3.org/2000/svg" xmlns:xlink="http://www.w3.org/1999/xlink" width="190" height="102" viewBox="0 0 190 102">
  <defs>
    <clipPath id="clip-path">
      <rect id="Rect치ngulo_291710" data-name="Rect치ngulo 291710" width="122" height="61.897" fill="#acb0c6"/>
    </clipPath>
  </defs>
  <g id="Grupo_874883" data-name="Grupo 874883" transform="translate(-1230 -5077)">
    <circle id="Elipse_5466" data-name="Elipse 5466" cx="51" cy="51" r="51" transform="translate(1274 5077)" fill="#fff"/>
    <g id="Grupo_874858" data-name="Grupo 874858" transform="translate(1264 5097)">
      <g id="Grupo_874857" data-name="Grupo 874857" clip-path="url(#clip-path)">
        <path id="Trazado_596057" data-name="Trazado 596057" d="M40.161,49.07l-3.532-3.2c-.127-.115-.263-.223-.382-.346-.581-.6-.425-1.226.376-1.452q4.086-1.155,8.177-2.294,4.553-1.272,9.108-2.538c.124-.035.248-.07.373-.1.869-.212,1.341.2,1.21,1.091-.167,1.144-.373,2.283-.559,3.424q-.877,5.391-1.75,10.782c-.222,1.374-.427,2.752-.662,4.124a.787.787,0,0,1-1.384.4c-1.1-.96-2.18-1.949-3.264-2.929-.716-.647-.71-.646-1.471-.107a27.659,27.659,0,0,1-11.883,4.99c-8.877,1.363-17.02-.331-24.109-6.025A26.759,26.759,0,0,1,.478,37.8a50.715,50.715,0,0,1-.426-5.509A36.106,36.106,0,0,1,1.333,20.52c2.9-10.226,9.575-16.621,19.784-19.4A29.586,29.586,0,0,1,31.834.131a30.858,30.858,0,0,1,15.2,5.509A47.541,47.541,0,0,1,57.963,17.124a118.788,118.788,0,0,1,8.767,15.091A45.737,45.737,0,0,0,75.219,44.22,29.01,29.01,0,0,0,90.634,52.4a17.8,17.8,0,0,0,21.413-13.9,32.551,32.551,0,0,0,.748-9.4,23.372,23.372,0,0,0-2.832-10.6,17.43,17.43,0,0,0-10.733-8.2,27.672,27.672,0,0,0-5.8-1.051c-5.821-.4-10.837,1.73-15.315,5.288a42.407,42.407,0,0,0-7.576,8.234c-.721.976-1.327.915-1.93-.149-1.176-2.075-2.35-4.152-3.571-6.2a1.269,1.269,0,0,1,.118-1.674c3.75-4.614,7.974-8.671,13.343-11.374A28.175,28.175,0,0,1,89.294.156C98.9-.462,107.522,2,114.369,9.133a27.461,27.461,0,0,1,6.824,13.655,41.664,41.664,0,0,1,.739,10.827,31.533,31.533,0,0,1-4.863,16.2,25.755,25.755,0,0,1-17.794,11.65c-6.946,1.19-13.5-.151-19.8-3.191A42.786,42.786,0,0,1,62.885,43.652a108.006,108.006,0,0,1-6.571-11.6A71.209,71.209,0,0,0,46.42,17.319,23.858,23.858,0,0,0,31.554,9.28a20.8,20.8,0,0,0-8.6.833C15.508,12.276,11.208,17.266,9.7,24.8a36.091,36.091,0,0,0-.491,8.979A18.814,18.814,0,0,0,24.842,51.761a20.136,20.136,0,0,0,14.665-2.278c.2-.118.39-.246.654-.413" transform="translate(0 0)" fill="#acb0c6"/>
      </g>
    </g>
    <rect id="Rect치ngulo_291776" data-name="Rect치ngulo 291776" width="190" height="102" transform="translate(1230 5077)" fill="none"/>
  </g>
</svg>
