<svg xmlns="http://www.w3.org/2000/svg" width="190" height="102" viewBox="0 0 190 102">
  <g id="Grupo_874882" data-name="Grupo 874882" transform="translate(-180 -5293)">
    <circle id="Elipse_5471" data-name="Elipse 5471" cx="51" cy="51" r="51" transform="translate(224 5293)" fill="#fff"/>
    <g id="planeta-tierra_1_" data-name="planeta-tierra(1)" transform="translate(238 5305.995)">
      <path id="Trazado_596079" data-name="Trazado 596079" d="M46.754,16.457a2.463,2.463,0,1,0,0-4.926h-3.4A6.809,6.809,0,0,1,36.54,4.722V.1A36.989,36.989,0,0,0,26.259,1.82c.139.1.277.208.411.319a9.639,9.639,0,0,1,2.238,2.667A8.55,8.55,0,0,1,25.6,21.239H6.695a10.634,10.634,0,0,1-2.559-.313,36.84,36.84,0,0,0-1.94,4.8H8.218a6.809,6.809,0,1,1,0,13.618H.459a37.121,37.121,0,0,0,.616,4.925H18.938A2.466,2.466,0,0,0,21.4,41.81,6.817,6.817,0,0,1,28.21,35H51.39a2.463,2.463,0,1,0,0-4.926H46.754a6.809,6.809,0,0,1,0-13.618Z" transform="translate(-0.393 -0.081)" fill="#dfa386"/>
      <path id="Trazado_596080" data-name="Trazado 596080" d="M338.922,407.194a5.128,5.128,0,0,0-6.992-3.7,6.141,6.141,0,0,0-11.7-.39,6.139,6.139,0,0,0,.173,12.276h18.417a4.092,4.092,0,0,0,.105-8.183Z" transform="translate(-268.731 -341.195)" fill="#dfa386"/>
      <path id="Trazado_596081" data-name="Trazado 596081" d="M289.032,339.932a10.459,10.459,0,0,1,8.315,4.1,9.472,9.472,0,0,1,2.174.358,36.947,36.947,0,0,0,4.6-9.386h-30.65a2.463,2.463,0,0,0,0,4.926,6.82,6.82,0,0,1,6.468,4.683c.152-.053.306-.1.461-.151A10.506,10.506,0,0,1,289.032,339.932Z" transform="translate(-231.747 -286.467)" fill="#dfa386"/>
      <path id="Trazado_596082" data-name="Trazado 596082" d="M437.917,145.468a2.466,2.466,0,0,0,2.463,2.463h6.469a36.827,36.827,0,0,0-2-4.925H440.38A2.466,2.466,0,0,0,437.917,145.468Z" transform="translate(-374.473 -122.283)" fill="#dfa386"/>
      <path id="Trazado_596083" data-name="Trazado 596083" d="M10.673,209.468a2.466,2.466,0,0,0-2.463-2.463H1.066a37.128,37.128,0,0,0-.617,4.926H8.21A2.466,2.466,0,0,0,10.673,209.468Z" transform="translate(-0.384 -177.011)" fill="#dfa386"/>
      <path id="Trazado_596084" data-name="Trazado 596084" d="M218.2,463.964c0-.322.016-.642.045-.96h-8.774a2.463,2.463,0,0,0-2.463,2.462v3.955a37.393,37.393,0,0,0,12.878.234A10.422,10.422,0,0,1,218.2,463.964Z" transform="translate(-177.018 -395.922)" fill="#dfa386"/>
      <path id="Trazado_596085" data-name="Trazado 596085" d="M36.292,70.472A6.809,6.809,0,0,1,43.1,63.663h9.273a2.453,2.453,0,0,0,1.038-.231,10.543,10.543,0,0,1,1.38-1.765,2.63,2.63,0,0,0-2.418-2.93,6.809,6.809,0,1,1,0-13.618H84.145a37.324,37.324,0,0,0,0-14.2h-7.59a6.809,6.809,0,1,1,0-13.618H78.5A37.067,37.067,0,0,0,51.142,1.089V5.568A2.463,2.463,0,0,0,53.6,8.031h3.4a6.809,6.809,0,0,1,0,13.618,2.463,2.463,0,1,0,0,4.926h4.636a6.809,6.809,0,0,1,0,13.618H38.465A2.466,2.466,0,0,0,36,42.656a6.817,6.817,0,0,1-6.809,6.809H12.452a37.176,37.176,0,0,0,23.84,23.841Z" transform="translate(-10.648 -0.927)" fill="#dfa386"/>
      <path id="Trazado_596086" data-name="Trazado 596086" d="M25.21,16.811a4.2,4.2,0,0,0,.108-8.4,5.264,5.264,0,0,0-7.178-3.8,6.3,6.3,0,0,0-12.015-.4,6.3,6.3,0,0,0,.178,12.6Z" fill="#dfa386"/>
    </g>
    <rect id="Rectángulo_291787" data-name="Rectángulo 291787" width="190" height="102" transform="translate(180 5293)" fill="none"/>
  </g>
</svg>
