<svg xmlns="http://www.w3.org/2000/svg" xmlns:xlink="http://www.w3.org/1999/xlink" width="190" height="103" viewBox="0 0 190 103">
  <defs>
    <clipPath id="clip-path">
      <rect id="Rect치ngulo_291716" data-name="Rect치ngulo 291716" width="85.576" height="83.798" fill="#dfa386"/>
    </clipPath>
  </defs>
  <g id="Grupo_874876" data-name="Grupo 874876" transform="translate(-1020 -5292)">
    <circle id="Elipse_5472" data-name="Elipse 5472" cx="51" cy="51" r="51" transform="translate(1064 5293)" fill="#fff"/>
    <g id="Grupo_874865" data-name="Grupo 874865" transform="translate(1072 5301.122)">
      <g id="Grupo_874864" data-name="Grupo 874864" clip-path="url(#clip-path)">
        <path id="Trazado_596058" data-name="Trazado 596058" d="M85.576,37.068c-.172,7.343-2.85,13.1-8.147,17.616a.886.886,0,0,0-.339,1.041,22.371,22.371,0,0,1-16.643,27.3,21.721,21.721,0,0,1-16.853-2.71,1.167,1.167,0,0,0-1.454.024A22.466,22.466,0,0,1,8.171,65.616a22.1,22.1,0,0,1,.295-9.85.867.867,0,0,0-.318-1.044A22.122,22.122,0,0,1,.06,35.585,22.462,22.462,0,0,1,18.5,15.322a17.284,17.284,0,0,1,2.327-.27,1.02,1.02,0,0,0,1.042-.771A21.982,21.982,0,0,1,37.212.731,22.39,22.39,0,0,1,63.67,14.294a1.012,1.012,0,0,0,1.045.752A22.426,22.426,0,0,1,85.252,33.884c.173,1.181.244,2.377.324,3.184M59.029,15.289A17.54,17.54,0,0,0,42.622,4.662c-7.3.161-14.56,5.1-16.091,10.635A22.817,22.817,0,0,1,42.772,27.722,22.8,22.8,0,0,1,59.029,15.289m-31.567,23.7a22.631,22.631,0,0,1-7.024-19.223,17.709,17.709,0,0,0-9.96,30.76A22.783,22.783,0,0,1,27.462,38.985M39.07,76.7a22.481,22.481,0,0,1-5.889-19.52,22.588,22.588,0,0,1-20.385.556A17.723,17.723,0,0,0,39.07,76.7M75.113,50.486a17.675,17.675,0,0,0,4.769-19.053C77.621,25.088,70.641,19.562,65.094,19.8a22.585,22.585,0,0,1-6.888,19.058A22.816,22.816,0,0,1,75.113,50.486M46.659,76.668a17.558,17.558,0,0,0,19.489-1.333c6.506-4.988,7.856-12.9,6.578-17.6a22.6,22.6,0,0,1-20.387-.549,22.635,22.635,0,0,1-5.679,19.481M71.235,53.213c-4.946-9.755-16.482-12.138-24.015-7.847,3.817,8.5,15.15,12.721,24.015,7.847M42.693,48.638c-7.407,7.211-6.544,19.187.184,25.17a17.666,17.666,0,0,0-.184-25.17M14.365,53.279a17.639,17.639,0,0,0,23.912-7.8,17.647,17.647,0,0,0-23.912,7.8M25.19,19.872c-1.787,9.9,5.971,19.266,14.856,20.133A17.657,17.657,0,0,0,25.19,19.872M45.518,40.111A17.64,17.64,0,0,0,57.35,32.727a17.244,17.244,0,0,0,3.045-12.864C50.7,21.174,43.79,30.726,45.518,40.111" transform="translate(0 0)" fill="#dfa386"/>
      </g>
    </g>
    <rect id="Rect치ngulo_291783" data-name="Rect치ngulo 291783" width="190" height="102" transform="translate(1020 5292)" fill="none"/>
  </g>
</svg>
